<svg xmlns="http://www.w3.org/2000/svg" width="90.001" height="90.002" viewBox="0 0 90.001 90.002">
    <path id="prefix__Path_1260" d="M10.561-64.211l-52.207 52.2-3.3 18.886a3.732 3.732 0 004.322 4.317l18.89-3.312 52.193-52.194zm31.966 7.828a8.446 8.446 0 000-11.941l-7.956-7.954a8.445 8.445 0 00-11.942 0l-8.091 8.09 19.9 19.9zM35.288-9.911a2.683 2.683 0 01-2.565-1.754c-3.187-8.4-8.508-11.493-14.528-12.429L.322-6.221C1.87 4.913 10.445 11.25 22.5 11.25c15.833 0 22.5-12.723 22.5-27.2-1.721 1.176-7.759 6.039-9.712 6.039zm-59.163-27.826l16.844-16.841-12.3-18.353c-10.891-15.539-34.833 3.414-21.96 17.559z" data-name="Path 1260" transform="translate(45.001 78.752)" style="fill:#1cd338"/>
</svg>
