<svg xmlns="http://www.w3.org/2000/svg" width="459.088" height="172" viewBox="0 0 459.088 172">
    <defs>
        <linearGradient id="prefix__linear-gradient" x2="1" y1=".5" y2=".5" gradientUnits="objectBoundingBox">
            <stop offset="0" stop-color="gray" stop-opacity=".251"/>
            <stop offset=".54" stop-color="gray" stop-opacity=".122"/>
            <stop offset="1" stop-color="gray" stop-opacity=".102"/>
        </linearGradient>
        <style>
            .prefix__cls-1,.prefix__cls-10{fill:#6c63ff}.prefix__cls-1,.prefix__cls-12,.prefix__cls-4,.prefix__cls-7{opacity:.1}.prefix__cls-3{fill:#efb7b9}.prefix__cls-5{fill:#dce6f2}.prefix__cls-6{fill:#965d7b}.prefix__cls-8{fill:#444053}.prefix__cls-9{fill:#a36468}.prefix__cls-11{opacity:.05}.prefix__cls-12{fill:#fff}
        </style>
    </defs>
    <g id="prefix__Group_1359" data-name="Group 1359" transform="translate(-442 -1043)">
        <g id="prefix__empty" transform="translate(442.004 1042.997)">
            <ellipse id="prefix__Ellipse_27" cx="38.344" cy="7.264" class="prefix__cls-1" data-name="Ellipse 27" rx="38.344" ry="7.264" transform="translate(38.761 154.144)"/>
            <path id="prefix__Path_1235" d="M222.943 79.289c-14.092-.488-27.514-5.039-40.33-10.016S157.1 58.782 143.348 56.145c-8.847-1.7-18.965-1.938-26.092 2.8-6.861 4.573-9.078 12.444-10.269 19.754-.9 5.5-1.424 11.29 1.032 16.44 1.707 3.575 4.734 6.58 6.828 10.005 7.288 11.915 2.136 26.608-5.759 38.242-3.7 5.457-8 10.669-10.861 16.472s-4.181 12.474-1.679 18.41c2.478 5.879 8.385 10.286 14.785 13.389 13 6.3 28.306 8.107 43.246 9.13 33.06 2.26 66.294 1.283 99.441.3 12.268-.361 24.587-.729 36.655-2.626 6.7-1.054 13.62-2.726 18.486-6.763 6.175-5.123 7.706-13.8 3.567-20.222-6.942-10.778-26.129-13.454-30.987-25.019-2.669-6.367.072-13.456 3.954-19.359 8.326-12.666 22.281-23.777 23.015-38.253.505-9.942-6.2-19.9-16.577-24.6-10.872-4.932-25.95-4.311-33.968 3.852-8.265 8.392-22.778 11.625-35.222 11.192z" class="prefix__cls-1" data-name="Path 1235" transform="translate(-95.23 -55.03)"/>
            <path id="prefix__Path_1236" d="M386.081 208.982l-6.669-4.5 3.364-5.008-17.615-1.4-6.33 4.895-7.924-4.442-6.608.795-.078-1.742a49.156 49.156 0 00-.547-5.422c.028-.544.048-1.169.046-1.849 0-2.863-.388-6.659-2.09-9.189l.392-3.523-3.179-3.756a24.035 24.035 0 011.742-2.931c.109-.157.218-.309.335-.457a7.906 7.906 0 007.381-7.839 5.02 5.02 0 00-.022-.573 2.076 2.076 0 00-.024-.231c.4.218.81.435 1.217.653.076.109.163.218.259.346l.02.024.122.15.039.046c.044.052.089.1.135.155l.03.035c.115.128.237.259.368.388a.39.39 0 01.044.041l.163.152.046.041c.139.124.287.244.435.357l.048.035.187.128.061.039c.072.044.146.089.218.131l.026.015c.085.046.172.089.259.131l.044.017.218.091.068.024c.076.026.15.05.229.072l.048.013c.1.024.192.044.29.059h.011a2.367 2.367 0 00.279.028h.063a2.388 2.388 0 00.25 0h.054a2.581 2.581 0 00.311-.037 3.436 3.436 0 001.372-.492 1.2 1.2 0 00.279-.259 1.026 1.026 0 00-.044-1.2c-.17-.4-1.272-.69-1.272-.69s-3.484-1.454-3.484-2.613-.871-7.168-9.862-8.542c0 0-5.849-.329-7.492 2.8l-.035.366c-.483.3-.884.91-1.361 1.089a2.224 2.224 0 00-.59.218v-.041a.561.561 0 00-.133.172 1.741 1.741 0 00-.181.653 2.46 2.46 0 01-.285.79 1.761 1.761 0 01-.131.2l-.037.059a1.589 1.589 0 00.74-.12 3.687 3.687 0 01-.218.871.723.723 0 00.671-.4v-.005l.028-.039a1.837 1.837 0 00.135-.316l-.024.026c.044-.142.083-.285.131-.425a.666.666 0 01.107-.218.527.527 0 01.451-.15l-.089 1.888h.039a2.576 2.576 0 01-.192.4c-.309.5-.871.843-1.078 1.391a2.046 2.046 0 00-.1.823c0 .163.02.329.033.492v-.013a1.836 1.836 0 01-.2 1.2c-.161.24-.42.42-.51.692a.675.675 0 00-.033.235 2.641 2.641 0 00.148.7.03.03 0 000-.013 1.063 1.063 0 01.037.514c-.1.435-.627.8-.6 1.215a.468.468 0 00.024.161.882.882 0 00.492.435 1.916 1.916 0 001.106.244 1.454 1.454 0 00.414-.142c-.152.351-.309.7-.468 1.026-.024.052-.05.1-.076.157 0 0-1.346-.9-2.11.934a4.068 4.068 0 00-.473 1.228 2.923 2.923 0 01-.161.505 3.251 3.251 0 01-1.454 1.306c-1.559.714-7.856 8.568-7.967 10.6a11.864 11.864 0 01-.4 2.347 13.968 13.968 0 00-.375 5.55 10.618 10.618 0 00.385 1.77 39.664 39.664 0 011.115 5.822l.723 6.58a18.725 18.725 0 00.118 2.72c-.738.843-3.7 4.355-2.569 5.311a4.178 4.178 0 003.251.475 27.668 27.668 0 00-2.005 7.013c-.218 3.151.372 7.325 1.306 8.927s4.048 5.714 4.048 5.714-.146 5.64.967 7.688 1.561 6.3 1.561 6.3 1.039 3.588.518 4.908.965 2.417-.594 3.294-3.554 20.655-3.554 20.655-.8 12.962 0 13.622a.816.816 0 00.137.081v4.355s-.557.915 1.709 1.1c1.552.124 5.953.4 8.564.568l2.023.126s4.79.954 6.907 0 5.868-.932 5.311-3.451a7.166 7.166 0 00-.3-1.008c-.612-1.563-1.65-1.742-3.564-2.177-.111-.024-.218-.046-.316-.063-2.016-.351-2.678.588-3.808-.634-.982-1.056-4.109-2.238-5.174-2.613.026-.078.059-.155.085-.235a1.594 1.594 0 01-.808-.394l2.885.183 1.718.107s4.072.812 5.879 0 4.986-.79 4.512-2.931a6.144 6.144 0 00-.25-.858c-.52-1.328-1.4-1.474-3.031-1.842-.094-.02-.181-.039-.268-.054-1.714-.3-2.275.5-3.236-.538-.823-.884-3.421-1.875-4.355-2.212 0-.483-.653-1.171-1.065-1.862-.483-.806.409-3.625.409-3.625l.509-11.7a2.261 2.261 0 01.61-.174s2.3-2.2 1.783-4.542a15.05 15.05 0 01-.165-2.14 11 11 0 002.1-2.382c.483-1.043 0-6.1 0-6.1v-19.328l3.854.39 3.5.359 1.065.109 3.5.353 8.037.812 7.242-1.372 3.133-.592 6.443-1.219v-15.765zm-53.044-52.238l-.449-.048c.149.004.306.035.449.048z" data-name="Path 1236" transform="translate(-269.567 -130.214)"/>
            <path id="prefix__Path_1237" d="M497.888 435.439c-2.177 3.116-10.005 1.465-10.005 1.465l-6.066-5.677-.817-.769 1.37-2.909s.435.12 1.182.333c3.921 1.14 16.174 4.937 14.336 7.557z" class="prefix__cls-3" data-name="Path 1237" transform="translate(-397.005 -346.434)"/>
            <path id="prefix__Path_1238" d="M483.548 427.883a12.772 12.772 0 01-1.731 3.345l-.817-.769 1.37-2.909s.439.12 1.178.333z" class="prefix__cls-4" data-name="Path 1238" transform="translate(-397.005 -346.434)"/>
            <path id="prefix__Path_1239" d="M378.012 278.091s-5.592 2.48-5.317 8.57a100.407 100.407 0 001.28 11.706s-1.143 9.165 3.617 11.527 9.165 4.3 9.165 4.3 7.447.8 8.372 1.132 3.817-4.729 3.284-5.518-7.368-2.441-8.239-3.756a7.271 7.271 0 00-2.885-2.127s-2.079-1.259-2.221-2.4a5.17 5.17 0 01.547-2.482c.139-.5.492-5.313.492-5.313s2.346-17.13-8.095-15.639z" class="prefix__cls-5" data-name="Path 1239" transform="translate(-312.275 -229.447)"/>
            <path id="prefix__Path_1240" d="M389.027 370.39s-7.671 1.285-6.929 3.969a16.263 16.263 0 016.929-3.969z" class="prefix__cls-4" data-name="Path 1240" transform="translate(-319.599 -301.72)"/>
            <path id="prefix__Path_1241" d="M401.8 375.38s-4.218 3.442-3.392 3.619 3.392-3.619 3.392-3.619z" class="prefix__cls-4" data-name="Path 1241" transform="translate(-332.311 -305.624)"/>
            <path id="prefix__Path_1242" d="M421.3 380.89s-1.13 2.315-.435 2.158.435-2.158.435-2.158z" class="prefix__cls-4" data-name="Path 1242" transform="translate(-349.79 -309.934)"/>
            <path id="prefix__Path_1243" d="M400.11 312.018l-.466-.133a1.332 1.332 0 00.061-.952c-.533-.788-7.364-2.439-8.233-3.756a7.232 7.232 0 00-2.885-2.127s-2.079-1.259-2.221-2.4a5.17 5.17 0 01.547-2.482c.139-.5.492-5.315.492-5.315s2.341-17.134-8.1-15.647c0 0-5.592 2.482-5.319 8.573a100.129 100.129 0 001.283 11.706s-1.143 9.165 3.617 11.527 9.165 4.3 9.165 4.3 7.445.8 8.372 1.132c.351.126.984-.525 1.6-1.42l.353.329 6.066 5.674s7.828 1.653 10.005-1.463c1.843-2.612-10.407-6.409-14.337-7.546z" class="prefix__cls-4" data-name="Path 1243" transform="translate(-313.284 -230.323)"/>
            <path id="prefix__Path_1244" d="M377.661 168.941a1.851 1.851 0 00-.6.233c-.218.181-.218.49-.272.76a2.5 2.5 0 01-.435 1.041 1.566 1.566 0 00.725-.12 3.732 3.732 0 01-.218.871.705.705 0 00.653-.4 4.2 4.2 0 00.272-.764.63.63 0 01.1-.218c.2-.237.573-.131.882-.1a1.448 1.448 0 001.324-.636c.329-.5.348-1.775-.435-1.91-.818-.133-1.328.995-1.996 1.243z" class="prefix__cls-6" data-name="Path 1244" transform="translate(-315.142 -143.156)"/>
            <g id="prefix__Group_1353" class="prefix__cls-7" data-name="Group 1353" transform="translate(61.241 25.962)">
                <path id="prefix__Path_1245" d="M378.264 174.574c.02-.107.033-.218.057-.324a1.277 1.277 0 00-.272.76 2.4 2.4 0 01-.128.459 2.5 2.5 0 00.343-.895z" data-name="Path 1245" transform="translate(-377.611 -174.25)"/>
                <path id="prefix__Path_1246" d="M377.223 180.871a3.621 3.621 0 00.218-.871 1.559 1.559 0 01-.69.12 2.521 2.521 0 01-.25.435 1.55 1.55 0 00.723-.118 3.621 3.621 0 01-.218.871.708.708 0 00.653-.4 1.624 1.624 0 00.131-.311.653.653 0 01-.567.274z" data-name="Path 1246" transform="translate(-376.5 -178.748)"/>
                <path id="prefix__Path_1247" d="M384.861 175.283c-.309-.03-.684-.137-.884.1a.673.673 0 00-.1.218c-.02.057-.037.115-.052.174.207-.163.542-.076.823-.048a1.454 1.454 0 001.324-.636 1.206 1.206 0 00.146-.342 1.45 1.45 0 01-1.257.534z" data-name="Path 1247" transform="translate(-382.226 -174.641)"/>
            </g>
            <path id="prefix__Path_1248" d="M313.2 201l3.321 3.993-.433 4.03-4.013-6.282z" class="prefix__cls-5" data-name="Path 1248" transform="translate(-244.123 -157.231)"/>
            <path id="prefix__Path_1249" d="M316.514 204.993l-.407 3.791-.026.24-3.621-5.67-.39-.612.113-.176 1.01-1.566.224.27z" class="prefix__cls-4" data-name="Path 1249" transform="translate(-244.123 -157.231)"/>
            <path id="prefix__Path_1250" d="M386.214 210.118a6.658 6.658 0 00-3.131 2.772 23.658 23.658 0 00-1.69 2.9c-.307.614-.577 1.2-.8 1.718l-.157.366c-.379.895-.59 1.494-.59 1.494s-8.6-6.467-7.24-6.9c.457-.146 1.058-1.126 1.653-2.36l.074-.157c.377-.793.747-1.677 1.076-2.508.673-1.709 1.171-3.194 1.171-3.194s13.064 4.889 9.634 5.869z" class="prefix__cls-3" data-name="Path 1250" transform="translate(-312.098 -171.756)"/>
            <path id="prefix__Path_1251" d="M459.26 202.58s1.986 3.593 4.653 3.1 1.57-1.929 1.57-1.929z" class="prefix__cls-8" data-name="Path 1251" transform="translate(-379.999 -170.45)"/>
            <path id="prefix__Path_1252" d="M384.125 743.269c-1.759.8-5.737 0-5.737 0l-1.677-.1c-2.177-.139-5.822-.375-7.111-.479-1.881-.155-1.42-.925-1.42-.925V737.1l9.128-2.312s3.608 1.235 4.6 2.312c.938 1.028 1.487.237 3.162.533.083.015.17.033.261.054 1.59.364 2.452.507 2.961 1.825a6.122 6.122 0 01.246.849c.467 2.124-2.655 2.109-4.413 2.908z" class="prefix__cls-9" data-name="Path 1252" transform="translate(-308.712 -586.775)"/>
            <path id="prefix__Path_1253" d="M388.289 749.739a6.821 6.821 0 01-1.028.527c-1.2.547-2.336 1.213-3.547 1.729a8.3 8.3 0 01-3.826.786 5.7 5.7 0 00-2.042-.022 4.717 4.717 0 00-1.134.629c-2.177-.139-5.822-.375-7.111-.479-1.881-.155-1.42-.925-1.42-.925v-.544c.068 0 .144-.02.231-.026a4.112 4.112 0 011.328.2c.945.257 1.886.51 2.831.762a2.236 2.236 0 011.089-1.389 3.471 3.471 0 011.755-.4c1.465.02 2.852.714 4.316.784a2.378 2.378 0 001.2-.2c.2-.1.377-.246.573-.357a4.179 4.179 0 01.986-.333 21.714 21.714 0 002.82-.91c.261-.1.566-.287.531-.566-.046-.37-.627-.414-.78-.753a.435.435 0 01.017-.385c.083.015.17.033.261.054 1.578.357 2.44.501 2.95 1.818z" class="prefix__cls-4" data-name="Path 1253" transform="translate(-308.712 -596.999)"/>
            <path id="prefix__Path_1254" d="M365.446 784.679c-2.069.945-6.75 0-6.75 0l-1.971-.115c-2.552-.163-6.85-.435-8.368-.564-2.214-.183-1.67-1.089-1.67-1.089v-5.489l10.741-2.722s4.246 1.452 5.409 2.722c1.1 1.208 1.742.279 3.721.627.1.017.2.039.307.063 1.87.435 2.885.6 3.484 2.149a6.987 6.987 0 01.29 1c.54 2.495-3.124 2.475-5.193 3.418z" class="prefix__cls-9" data-name="Path 1254" transform="translate(-291.892 -617.995)"/>
            <path id="prefix__Path_1255" d="M370.345 792.331a8.113 8.113 0 01-1.208.621c-1.409.642-2.75 1.426-4.174 2.034a9.785 9.785 0 01-4.5.925 6.57 6.57 0 00-2.4-.026 5.552 5.552 0 00-1.339.749c-2.552-.163-6.85-.435-8.368-.564-2.214-.183-1.67-1.089-1.67-1.089v-.64a2.734 2.734 0 01.272-.03 4.777 4.777 0 011.563.233l3.329.9a2.635 2.635 0 011.291-1.635 4.063 4.063 0 012.066-.475c1.725.024 3.355.84 5.078.923a2.811 2.811 0 001.4-.233c.237-.12.435-.292.675-.42a4.737 4.737 0 011.161-.392 26.063 26.063 0 003.3-1.071c.307-.122.666-.34.625-.666-.054-.435-.738-.488-.919-.888a.525.525 0 01.022-.453c.1.017.2.039.307.063 1.876.414 2.89.584 3.489 2.134z" class="prefix__cls-4" data-name="Path 1255" transform="translate(-291.892 -630.065)"/>
            <path id="prefix__Path_1256" d="M385.915 647.54l-.581 13.681s-.871 2.794-.4 3.593 1.269 1.6.98 2.068-3.773 5.581-4.9 3.621-2.236-10.452-2.236-10.452l1.039-10.489z" class="prefix__cls-8" data-name="Path 1256" transform="translate(-317.043 -518.523)"/>
            <path id="prefix__Path_1257" d="M411.4 491l1.616 2.16v18.787s.472 5.008 0 6.042a16.218 16.218 0 01-2.868 3.1l-2.014-10.343.435-10.942z" class="prefix__cls-8" data-name="Path 1257" transform="translate(-340.002 -396.068)"/>
            <path id="prefix__Path_1258" d="M385.915 647.54l-.581 13.681s-.871 2.794-.4 3.593 1.269 1.6.98 2.068-3.773 5.581-4.9 3.621-2.236-10.452-2.236-10.452l1.039-10.489z" class="prefix__cls-4" data-name="Path 1258" transform="translate(-317.043 -518.523)"/>
            <path id="prefix__Path_1259" d="M411.4 491l1.616 2.16v18.787s.472 5.008 0 6.042a16.218 16.218 0 01-2.868 3.1l-2.014-10.343.435-10.942z" class="prefix__cls-4" data-name="Path 1259" transform="translate(-340.002 -396.068)"/>
            <path id="prefix__Path_1260" d="M349.547 435.426v10.162l-1.814 7.911s-.581 19.089-.074 21.411-1.742 4.5-1.742 4.5-1.306.146-1.306 1.161-2.177 3.919-2.177 3.919l.072 5.661s.945 10.6-.507 12.629.507 2.323.507 2.323c-1.814 5.951-10.523 4.573-11.31 3.919s0-13.5 0-13.5 1.947-19.6 3.471-20.468.074-1.96.581-3.266-.507-4.862-.507-4.862-.435-4.211-1.524-6.243-.945-7.621-.945-7.621-3.048-4.065-3.954-5.661-1.489-5.733-1.272-8.856a27.824 27.824 0 011.96-6.95c.337-.847.581-1.4.581-1.4l.207.054 11.893 3.114z" class="prefix__cls-8" data-name="Path 1260" transform="translate(-276.537 -348.507)"/>
            <path id="prefix__Path_1261" d="M396.8 210.063a6.658 6.658 0 00-3.131 2.772h-.244a7.778 7.778 0 01-6.75-3.9 7.661 7.661 0 01-.684-1.557c.673-1.709 1.171-3.194 1.171-3.194s13.066 4.9 9.638 5.879z" class="prefix__cls-4" data-name="Path 1261" transform="translate(-322.683 -171.701)"/>
            <path id="prefix__Path_1262" d="M399.948 178.213a7.784 7.784 0 11-14.563-3.815 7.606 7.606 0 01.823-1.189 7.878 7.878 0 011.79-1.572 7.784 7.784 0 0111.939 6.005c.005.192.011.382.011.571z" class="prefix__cls-3" data-name="Path 1262" transform="translate(-321.423 -145.294)"/>
            <path id="prefix__Path_1263" d="M384.083 243.8l-.026.24-3.621-5.661c-.379.895-.59 1.494-.59 1.494s-8.6-6.476-7.24-6.911c.457-.146 1.058-1.126 1.653-2.36l.074-.157c.631 1.881 4.3 5.642 5.827 7.148.176.174.322.318.435.422l.233.218.122.122c.55.568 2.897 3.094 3.133 5.445z" class="prefix__cls-4" data-name="Path 1263" transform="translate(-312.098 -192.243)"/>
            <path id="prefix__Path_1264" d="M346.133 262.778l-.4 12.753-.07 2.271s-4.695-.435-9.076-.915a59.115 59.115 0 01-7.364-1.045 13.859 13.859 0 00-3.157-.695c-.854-.115-1.524-.176-1.524-.176s-.25.074-.636.144a4.039 4.039 0 01-3.177-.47c-1.1-.956 1.79-4.429 2.511-5.263l.159-.181-.272-2.515-.708-6.521a39.791 39.791 0 00-1.089-5.77 10.642 10.642 0 01-.377-1.753 14.04 14.04 0 01.366-5.5 11.993 11.993 0 00.392-2.328c.109-2.014 6.26-9.8 7.784-10.506a3.231 3.231 0 001.559-1.555 2.971 2.971 0 00.237-.677c.653-2.831 2.306-1.707 2.306-1.707.4 2.214 6.567 8.076 6.567 8.076l.122.122c.612.627 3.338 3.571 3.144 6.084a7.375 7.375 0 00.412 2.752 46.543 46.543 0 012.145 12.194z" class="prefix__cls-5" data-name="Path 1264" transform="translate(-271.442 -192.016)"/>
            <path id="prefix__Path_1265" d="M387.857 310.45s-1.524 3.7-2.667 4.3 3.21 1.263 2.667-4.3z" class="prefix__cls-4" data-name="Path 1265" transform="translate(-321.906 -254.832)"/>
            <path id="prefix__Path_1266" d="M390.864 342.2s-3.484.435-3.484 1.089 3.484-1.089 3.484-1.089z" class="prefix__cls-4" data-name="Path 1266" transform="translate(-323.77 -279.668)"/>
            <path id="prefix__Path_1267" d="M396.247 361.7s-5.062 10.778-6.478 11.1 6.478-11.1 6.478-11.1z" class="prefix__cls-4" data-name="Path 1267" transform="translate(-325.506 -294.922)"/>
            <path id="prefix__Path_1268" d="M377.241 240.517l-4.187 1.82L368 234.7a2.969 2.969 0 00.237-.677c.653-2.831 2.306-1.707 2.306-1.707.4 2.214 6.567 8.076 6.567 8.076z" class="prefix__cls-4" data-name="Path 1268" transform="translate(-308.61 -193.541)"/>
            <path id="prefix__Path_1269" d="M378.241 238.517l-4.187 1.82L369 232.7a2.968 2.968 0 00.237-.677c.653-2.831 2.306-1.707 2.306-1.707.4 2.214 6.567 8.076 6.567 8.076z" class="prefix__cls-5" data-name="Path 1269" transform="translate(-309.392 -191.977)"/>
            <path id="prefix__Path_1270" d="M353.8 326.054s-4.694-.435-9.075-.915l7.86 2.058v2.4c-.344.311-.642.473-.836.39-.906-.381-8.3-1.579-8.3-1.579s-4.294-2.177-8.927-4.79a3.582 3.582 0 01-.327-.2 5.147 5.147 0 01-1.372-1.374 9.752 9.752 0 01-1.455-4.392 18.992 18.992 0 01-.113-2.7 22.109 22.109 0 01.279-3.046 100.18 100.18 0 01-.653-11.758c.054-6.1 5.77-8.274 5.77-8.274 10.506-.925 7.249 16.058 7.249 16.058s-.607 4.79-.773 5.28a5.169 5.169 0 00-.679 2.45c.081 1.143 2.088 2.511 2.088 2.511a7.331 7.331 0 012.767 2.28c.588 1 4.407 2.365 6.565 3.336z" class="prefix__cls-4" data-name="Path 1270" transform="translate(-279.57 -240.268)"/>
            <path id="prefix__Path_1271" d="M399.111 169.739a2.465 2.465 0 01-.218 1.041 6.433 6.433 0 01-.388.775 3.571 3.571 0 01-.954 1.185 4.878 4.878 0 01-1.742.605 2.521 2.521 0 00-1.574.893 3.123 3.123 0 00-.368 1.067 2.3 2.3 0 01-.435 1.032.856.856 0 01-1.019.244 1.03 1.03 0 01-.394-.507 7.277 7.277 0 01-.411-1.783 3.794 3.794 0 00-.612-1.709 1.531 1.531 0 00-1.607-.616 1.548 1.548 0 00-.871.845 4.842 4.842 0 00-.329 1.2q-.405 2.217-.956 4.407a.405.405 0 01-.072.165.314.314 0 01-.218.091c-.488.065-.956-.277-1.448-.24a.833.833 0 00-.15.024 7.78 7.78 0 01.786-8.884l.039-.011a2.347 2.347 0 00.871-.549 9.19 9.19 0 00.871-1.008l.174-.218a9.931 9.931 0 011.7-1.613 1.742 1.742 0 01.579-.314 1.716 1.716 0 01.549-.017 13.842 13.842 0 002.267.085 14.542 14.542 0 011.592-.161 4.9 4.9 0 013.425 2.079 3.221 3.221 0 01.913 1.892z" class="prefix__cls-4" data-name="Path 1271" transform="translate(-321.368 -141.655)"/>
            <path id="prefix__Path_1272" d="M376.259 170.207c-.3.5-.849.834-1.054 1.378-.3.79.207 1.775-.259 2.48-.155.237-.409.414-.5.686-.148.459.257.949.152 1.422s-.727.871-.562 1.333a.871.871 0 00.479.435 1.873 1.873 0 001.089.242c.594-.1 1.036-.682 1.64-.725.49-.035.958.3 1.446.242a.327.327 0 00.218-.094.377.377 0 00.072-.165q.549-2.188.958-4.407a4.748 4.748 0 01.327-1.2 1.561 1.561 0 01.871-.845 1.536 1.536 0 011.607.616 3.771 3.771 0 01.614 1.709 7.372 7.372 0 00.409 1.783 1.041 1.041 0 00.4.51.853.853 0 001.017-.244 2.271 2.271 0 00.435-1.034 3.11 3.11 0 01.368-1.065 2.526 2.526 0 011.574-.893 4.926 4.926 0 001.742-.607 3.584 3.584 0 00.954-1.182 3.481 3.481 0 00.6-1.818 3.338 3.338 0 00-.893-1.883 4.894 4.894 0 00-3.427-2.077 13.546 13.546 0 00-1.592.161 13.624 13.624 0 01-2.267-.087 1.781 1.781 0 00-.549.02 1.642 1.642 0 00-.577.314 9.936 9.936 0 00-1.7 1.611 12.478 12.478 0 01-1.049 1.219 2.362 2.362 0 01-.871.551c-.218.061-.435.017-.642.085-.647.198-.732 1.036-1.03 1.529z" class="prefix__cls-6" data-name="Path 1272" transform="translate(-313.313 -140.896)"/>
            <path id="prefix__Path_1273" d="M463.913 205.681c-1.742.32-3.186-1.089-3.985-2.116a8.538 8.538 0 01-.668-.984l5.979 1.128.242.046s1.099 1.438-1.568 1.926z" class="prefix__cls-4" data-name="Path 1273" transform="translate(-379.999 -170.45)"/>
            <g id="prefix__Group_1354" class="prefix__cls-7" data-name="Group 1354" transform="translate(60.689 27.649)">
                <path id="prefix__Path_1274" d="M376.053 211.166a1.814 1.814 0 00-.126-.836c0 .022-.02.044-.026.065a1.621 1.621 0 00.113.9.655.655 0 00.039-.129z" data-name="Path 1274" transform="translate(-375.453 -204.161)"/>
                <path id="prefix__Path_1275" d="M379.052 197.8a4.84 4.84 0 00.017.9 4.848 4.848 0 00-.017-.9z" data-name="Path 1275" transform="translate(-377.934 -194.36)"/>
                <path id="prefix__Path_1276" d="M390.2 183.4a3.571 3.571 0 01-.954 1.185 4.864 4.864 0 01-1.742.605 2.515 2.515 0 00-1.574.893 3.137 3.137 0 00-.368 1.067 2.28 2.28 0 01-.435 1.034.85.85 0 01-1.017.244 1.041 1.041 0 01-.4-.51 7.249 7.249 0 01-.409-1.783 3.762 3.762 0 00-.614-1.709 1.531 1.531 0 00-1.607-.616 1.555 1.555 0 00-.871.845 4.746 4.746 0 00-.327 1.2q-.407 2.219-.958 4.407a.377.377 0 01-.072.165.327.327 0 01-.218.094c-.488.063-.956-.277-1.446-.242-.6.044-1.045.627-1.64.723a1.84 1.84 0 01-1.089-.242 1.165 1.165 0 01-.4-.283.588.588 0 00-.081.507.849.849 0 00.479.435 1.84 1.84 0 001.089.242c.594-.1 1.036-.679 1.64-.723.49-.035.958.3 1.446.242a.327.327 0 00.218-.094.376.376 0 00.072-.165q.549-2.177.958-4.407a4.748 4.748 0 01.327-1.2 1.555 1.555 0 01.871-.845 1.532 1.532 0 011.607.616 3.771 3.771 0 01.614 1.709 7.374 7.374 0 00.409 1.783 1.041 1.041 0 00.4.51.853.853 0 001.017-.244 2.279 2.279 0 00.435-1.034 3.138 3.138 0 01.368-1.067 2.536 2.536 0 011.574-.893 4.966 4.966 0 001.742-.605 3.571 3.571 0 00.954-1.185 3.467 3.467 0 00.6-1.816 2.335 2.335 0 00-.026-.248 4.28 4.28 0 01-.572 1.405z" data-name="Path 1276" transform="translate(-373.964 -182)"/>
            </g>
            <path id="prefix__Path_1277" d="M402.548 174.42a7.693 7.693 0 01.969 3.233c-1.94-1.089-3.765-2.284-4.686-2.7-1.6-.725-7.606-.616-9.862-.549a7.6 7.6 0 01.823-1.189 7.877 7.877 0 011.8-1.572 7.789 7.789 0 0110.97 2.772z" class="prefix__cls-4" data-name="Path 1277" transform="translate(-325.014 -145.301)"/>
            <path id="prefix__Path_1278" d="M464.457 204.757c-1.047.322-2.757-.3-4.529-1.193a8.538 8.538 0 01-.668-.984l5.979 1.128c.396.27.497.655-.782 1.049z" class="prefix__cls-4" data-name="Path 1278" transform="translate(-379.999 -170.45)"/>
            <path id="prefix__Path_1279" d="M393.144 154.045s-5.716-.327-7.323 2.776l-.259 2.75-.435-.048-.087 1.87s8.736-.381 10.724.516 8.165 5.417 10.641 4.655-.218-1.47-.218-1.47-3.408-1.444-3.408-2.576-.844-7.113-9.635-8.473z" class="prefix__cls-8" data-name="Path 1279" transform="translate(-321.939 -132.475)"/>
            <path id="prefix__Path_1280" d="M371.63 622.28s3.647 3.538 5.226 3.266c0 0-4.464-.381-5.226-3.266z" class="prefix__cls-4" data-name="Path 1280" transform="translate(-311.449 -498.763)"/>
            <path id="prefix__Path_1281" d="M368.13 629.81s.327 1.82 1.2 1.642-1.2-1.642-1.2-1.642z" class="prefix__cls-4" data-name="Path 1281" transform="translate(-308.711 -504.654)"/>
            <path id="prefix__Path_1282" d="M378.558 769.53s-5.178 4.028-4.3 4.137 4.3-4.137 4.3-4.137z" class="prefix__cls-4" data-name="Path 1282" transform="translate(-313.424 -613.951)"/>
            <path id="prefix__Path_1283" d="M330.96 337.528l16.766-2.728v15.873l-15.93-.834z" class="prefix__cls-10" data-name="Path 1283" transform="translate(-258.899 -261.897)"/>
            <path id="prefix__Path_1284" d="M330.96 337.528l16.766-2.728v15.873l-15.93-.834z" class="prefix__cls-11" data-name="Path 1284" transform="translate(-258.899 -261.897)"/>
            <path id="prefix__Path_1285" d="M407.96 334.8l20.106 1.5-1.113 13.814-18.994.555z" class="prefix__cls-10" data-name="Path 1285" transform="translate(-319.133 -261.897)"/>
            <path id="prefix__Path_1286" d="M407.96 334.8l20.106 1.5-1.113 13.814-18.994.555z" class="prefix__cls-4" data-name="Path 1286" transform="translate(-319.133 -261.897)"/>
            <path id="prefix__Path_1287" d="M414.142 312.55l-6.182 4.845 20.106 1.5 3.286-4.958z" class="prefix__cls-10" data-name="Path 1287" transform="translate(-319.133 -244.492)"/>
            <path id="prefix__Path_1288" d="M303.08 316.428l15.094-1.838 7.743 4.4-16.766 2.728z" class="prefix__cls-10" data-name="Path 1288" transform="translate(-237.09 -246.088)"/>
            <path id="prefix__Path_1289" d="M351.4 348.724v21.7l-7.854-.806-3.416-.348-1.041-.109-3.414-.351-4.716-.483v-21l16.764 1.141z" class="prefix__cls-10" data-name="Path 1289" transform="translate(-258.899 -271.699)"/>
            <path id="prefix__Path_1290" d="M441.271 341.71v21.165l-6.295 1.208-3.061.588-7.074 1.359v-21.7z" class="prefix__cls-10" data-name="Path 1290" transform="translate(-332.338 -267.303)"/>
            <path id="prefix__Path_1291" d="M441.271 341.71v21.165l-6.295 1.208-3.061.588-7.074 1.359v-21.7z" class="prefix__cls-11" data-name="Path 1291" transform="translate(-332.338 -267.303)"/>
            <path id="prefix__Path_1292" d="M303.08 351.9l6.071-4.568 20.442 1.394-3.009 5.069z" class="prefix__cls-10" data-name="Path 1292" transform="translate(-237.09 -271.699)"/>
            <path id="prefix__Path_1293" d="M303.08 351.9l6.071-4.568 20.442 1.394-3.009 5.069z" class="prefix__cls-12" data-name="Path 1293" transform="translate(-237.09 -271.699)"/>
            <path id="prefix__Path_1294" d="M441.271 341.71l-16.431 2.617 5.348 4.79 17.6-2.953z" class="prefix__cls-10" data-name="Path 1294" transform="translate(-332.338 -267.303)"/>
            <path id="prefix__Path_1295" d="M441.271 341.71l-16.431 2.617 5.348 4.79 17.6-2.953z" class="prefix__cls-12" data-name="Path 1295" transform="translate(-332.338 -267.303)"/>
            <path id="prefix__Path_1296" d="M460.391 427.728l-3.061.588v-4.522l2.868-.723z" class="prefix__cls-12" data-name="Path 1296" transform="translate(-357.753 -330.947)"/>
            <path id="prefix__Path_1297" d="M376.5 435.96v2.992l-3.416-.348v-2.644z" class="prefix__cls-12" data-name="Path 1297" transform="translate(-291.848 -341.031)"/>
            <path id="prefix__Path_1298" d="M356.034 440.29v1.592l-3.414-.351v-1.241z" class="prefix__cls-12" data-name="Path 1298" transform="translate(-275.843 -344.418)"/>
            <path id="prefix__Path_1299" d="M451.014 452.41c-2.341 2.994-10.071.925-10.071.925l-5.744-5.992-.78-.812 1.524-2.831s.435.144 1.163.4c3.851 1.342 15.879 5.79 13.908 8.31z" class="prefix__cls-4" data-name="Path 1299" transform="translate(-360.567 -359.068)"/>
            <path id="prefix__Path_1300" d="M450.014 450.41c-2.341 2.994-10.071.925-10.071.925l-5.744-5.992-.78-.812 1.524-2.831s.435.144 1.163.4c3.851 1.342 15.879 5.79 13.908 8.31z" class="prefix__cls-3" data-name="Path 1300" transform="translate(-359.785 -357.503)"/>
            <path id="prefix__Path_1301" d="M436.067 442.1a12.873 12.873 0 01-1.907 3.247l-.78-.812 1.52-2.835s.442.144 1.167.4z" class="prefix__cls-4" data-name="Path 1301" transform="translate(-359.754 -357.503)"/>
            <path id="prefix__Path_1302" d="M337.648 287.866s-5.716 2.177-5.77 8.274a100.173 100.173 0 00.653 11.758s-1.633 9.091 2.994 11.7 8.927 4.79 8.927 4.79 7.392 1.2 8.3 1.579 4.063-4.518 3.573-5.335-7.22-2.831-8.019-4.192a7.251 7.251 0 00-2.768-2.278s-2.008-1.37-2.088-2.513a5.144 5.144 0 01.679-2.45c.168-.49.775-5.28.775-5.28s3.25-16.989-7.256-16.053z" class="prefix__cls-5" data-name="Path 1302" transform="translate(-280.353 -237.136)"/>
            <path id="prefix__Path_1303" d="M344.642 380.7s-7.73.871-7.131 3.593a16.262 16.262 0 017.131-3.593z" class="prefix__cls-4" data-name="Path 1303" transform="translate(-284.734 -309.785)"/>
            <path id="prefix__Path_1304" d="M357.157 385.7s-4.388 3.212-3.582 3.429 3.582-3.429 3.582-3.429z" class="prefix__cls-4" data-name="Path 1304" transform="translate(-297.249 -313.697)"/>
            <path id="prefix__Path_1305" d="M376.646 391.7s-1.252 2.251-.544 2.134.544-2.134.544-2.134z" class="prefix__cls-4" data-name="Path 1305" transform="translate(-314.778 -318.39)"/>
            <path id="prefix__Path_1306" d="M722.465 167.381s-8.274-.5-7.307 5.306a1.416 1.416 0 00.736 1.492s.015-.435.849-.285a3.812 3.812 0 00.9.044 1.866 1.866 0 001.1-.455s2.328-.96 3.233-4.766c0 0 .671-.832.653-1.045l-1.4.6a2.5 2.5 0 01.1 1.846s-.044-1.809-.314-1.768c-.054 0-.725.351-.725.351a4.13 4.13 0 01.2 3.033s.235-2.164-.457-2.907l-.984.575a4.344 4.344 0 01.309 3.294s.168-2.271-.516-3.155l-.893.695s.9 1.79.353 3.018c0 0-.072-2.643-.547-2.844a5.385 5.385 0 00-.9.971s.616 1.306.233 1.984c0 0-.235-1.762-.435-1.77a5.861 5.861 0 00-.858 1.96 4.237 4.237 0 01.668-2.077 2.332 2.332 0 00-1.189.616s.12-.825 1.38-.9a5.956 5.956 0 01.814-.941 5.105 5.105 0 00-2.014.233 2.281 2.281 0 012.245-.435l.871-.719a7.513 7.513 0 00-2.352.024 2.862 2.862 0 012.589-.187l.958-.573a8.6 8.6 0 00-2.245-.194 3.444 3.444 0 012.526.039l.686-.307s-1.032-.2-1.333-.235-.318-.115-.318-.115a3.562 3.562 0 011.936.218 8.545 8.545 0 001.448-.621z" class="prefix__cls-10" data-name="Path 1306" transform="translate(-580.115 -142.907)"/>
            <path id="prefix__Path_1307" d="M837.925 300.721s-8.274-.5-7.307 5.306a1.416 1.416 0 00.736 1.492s.015-.435.851-.285a3.812 3.812 0 00.9.044 1.864 1.864 0 001.089-.453s2.33-.962 3.236-4.769c0 0 .668-.83.642-1.043l-1.4.6a2.512 2.512 0 01.1 1.846s-.046-1.809-.314-1.768c-.054 0-.727.351-.727.351a4.128 4.128 0 01.2 3.033s.235-2.164-.459-2.907l-.973.568a4.344 4.344 0 01.309 3.294s.168-2.271-.516-3.155l-.891.7s.9 1.788.353 3.016c0 0-.072-2.643-.547-2.844a5.461 5.461 0 00-.9.971s.618 1.306.235 1.984c0 0-.235-1.762-.435-1.77a5.862 5.862 0 00-.858 1.96 4.251 4.251 0 01.671-2.077 2.343 2.343 0 00-1.191.616s.122-.825 1.383-.9a5.437 5.437 0 01.814-.941 5.106 5.106 0 00-2.014.233 2.262 2.262 0 012.243-.425l.871-.719a7.515 7.515 0 00-2.352.024 2.862 2.862 0 012.589-.187l.958-.573a8.724 8.724 0 00-2.247-.194 3.451 3.451 0 012.528.039l.686-.307s-1.032-.2-1.335-.235-.318-.115-.318-.115a3.569 3.569 0 011.938.218 8.788 8.788 0 001.452-.628z" class="prefix__cls-1" data-name="Path 1307" transform="translate(-670.435 -247.213)"/>
            <path id="prefix__Path_1308" d="M613.321 247.688s1.905-8.076-3.982-8.1a1.414 1.414 0 00-1.594.47s.42.089.135.886a3.873 3.873 0 00-.2.871 1.87 1.87 0 00.259 1.161s.551 2.46 4.137 4c0 0 .706.8.919.81l-.348-1.478a2.5 2.5 0 01-1.838-.218s1.792.263 1.794 0c0-.054-.218-.775-.218-.775a4.134 4.134 0 01-3.024-.32s2.092.6 2.944.046l-.392-1.071a4.346 4.346 0 01-3.3-.257s2.21.553 3.2.03l-.533-1s-1.916.584-3.033-.168c0 0 2.613.379 2.9-.052a5.411 5.411 0 00-.8-1.052s-1.385.388-1.995-.107c0 0 1.775.068 1.816-.12a5.87 5.87 0 00-1.792-1.182 4.268 4.268 0 011.936 1.015 2.349 2.349 0 00-.405-1.278s.793.261.653 1.524a5.423 5.423 0 01.786.962 5.121 5.121 0 00.113-2.025 2.263 2.263 0 01.037 2.284l.557.991a7.226 7.226 0 00.377-2.321 2.855 2.855 0 01-.257 2.582l.4 1.043a8.719 8.719 0 00.573-2.177 3.442 3.442 0 01-.47 2.484l.187.727s.375-.982.457-1.274.168-.294.168-.294a3.566 3.566 0 01-.542 1.873 8.65 8.65 0 00.375 1.51z" class="prefix__cls-1" data-name="Path 1308" transform="translate(-496.097 -199.334)"/>
            <path id="prefix__Path_1309" d="M516.57 282.215s-6.646-4.971-9.021.414a1.417 1.417 0 00-.2 1.65s.248-.351.871.231a3.813 3.813 0 00.727.531 1.868 1.868 0 001.169.218s2.474.477 5.322-2.2c0 0 1.017-.327 1.113-.518l-1.5-.263a2.516 2.516 0 01-.93 1.6s.956-1.537.708-1.648c-.05-.024-.8-.109-.8-.109a4.131 4.131 0 01-1.5 2.646s1.387-1.679 1.215-2.68l-1.139-.061a4.344 4.344 0 01-1.552 2.924s1.387-1.805 1.306-2.92l-1.128.091s-.229 1.988-1.363 2.711c0 0 1.391-2.247 1.106-2.674a5.474 5.474 0 00-1.285.316s-.2 1.424-.895 1.785c0 0 .773-1.6.616-1.711a5.853 5.853 0 00-1.8 1.169 4.253 4.253 0 011.7-1.367 2.345 2.345 0 00-1.333-.139s.553-.623 1.646.011a5.5 5.5 0 011.2-.337 5.1 5.1 0 00-1.812-.912 2.267 2.267 0 012.11.871l1.13-.115a7.457 7.457 0 00-1.977-1.272s1.052-.133 2.265 1.265l1.115.05a8.691 8.691 0 00-1.768-1.4 3.443 3.443 0 012.088 1.422l.742.12s-.751-.736-.986-.928-.2-.272-.2-.272a3.578 3.578 0 011.5 1.245 8.8 8.8 0 001.54.256z" class="prefix__cls-1" data-name="Path 1309" transform="translate(-417.466 -231.109)"/>
            <path id="prefix__Path_1310" d="M618.18 70.1s-6.645-4.973-9.021.414a1.417 1.417 0 00-.2 1.65s.248-.351.871.231a3.875 3.875 0 00.729.529 1.866 1.866 0 001.169.218s2.474.477 5.322-2.206c0 0 1.017-.324 1.11-.518l-1.5-.259a2.5 2.5 0 01-.93 1.6s.958-1.537.71-1.648c-.05-.024-.8-.109-.8-.109a4.15 4.15 0 01-1.507 2.646s1.385-1.679 1.215-2.68l-1.139-.061a4.346 4.346 0 01-1.552 2.922s1.387-1.805 1.306-2.92l-1.128.091s-.231 1.99-1.365 2.713c0 0 1.394-2.247 1.108-2.674a5.475 5.475 0 00-1.285.316s-.2 1.424-.895 1.785c0 0 .773-1.6.616-1.714a5.875 5.875 0 00-1.8 1.171 4.232 4.232 0 011.7-1.367 2.33 2.33 0 00-1.335-.139s.555-.623 1.648.011a5.378 5.378 0 011.2-.338 5.124 5.124 0 00-1.812-.915 2.27 2.27 0 012.108.871l1.13-.115a7.466 7.466 0 00-1.977-1.274s1.052-.131 2.267 1.267l1.115.048a8.6 8.6 0 00-1.77-1.4 3.444 3.444 0 012.09 1.422l.74.12s-.753-.727-.989-.915-.2-.27-.2-.27a3.571 3.571 0 011.5 1.245 9.4 9.4 0 001.551.252z" class="prefix__cls-1" data-name="Path 1310" transform="translate(-496.951 -65.181)"/>
            <path id="prefix__Path_1311" d="M737.111 86.818s-2.656-7.863-7.667-4.773a1.431 1.431 0 00-1.1 1.243s.4-.148.581.679a3.915 3.915 0 00.3.851 1.886 1.886 0 00.836.847s1.768 1.8 5.635 1.2c0 0 1.021.309 1.208.2L735.811 86a2.5 2.5 0 01-1.672.788s1.661-.723 1.524-.956c-.028-.046-.6-.54-.6-.54a4.138 4.138 0 01-2.735 1.328s2.093-.6 2.519-1.524l-.9-.695a4.339 4.339 0 01-2.937 1.524s2.177-.7 2.728-1.666l-.98-.564s-1.306 1.509-2.661 1.461c0 0 2.421-1.06 2.428-1.574a5.444 5.444 0 00-1.237-.468s-.971 1.06-1.742.965c0 0 1.542-.882 1.476-1.063a5.842 5.842 0 00-2.145-.054 4.244 4.244 0 012.177-.163 2.35 2.35 0 00-1.021-.871s.81-.2 1.352.943a5.483 5.483 0 011.176.4 5.118 5.118 0 00-.973-1.779 2.268 2.268 0 011.239 1.92l1 .544a7.35 7.35 0 00-.908-2.177s.943.488 1.147 2.328l.893.673a8.655 8.655 0 00-.666-2.156 3.447 3.447 0 01.915 2.358l.542.518s-.2-1.032-.283-1.324-.015-.311-.015-.311a3.591 3.591 0 01.529 1.877 8.674 8.674 0 001.13 1.076z" class="prefix__cls-1" data-name="Path 1311" transform="translate(-590.489 -75.598)"/>
            <path id="prefix__Path_1312" d="M661.657 108.142s-8.252-.919-7.571 4.936a1.413 1.413 0 00.653 1.524s.037-.435.871-.24a4.006 4.006 0 00.9.089 1.872 1.872 0 001.121-.4s2.376-.843 3.484-4.6c0 0 .71-.795.695-1.01l-1.426.527a2.429 2.429 0 010 1.849s.046-1.809-.218-1.781c-.054 0-.742.314-.742.314a4.153 4.153 0 01.048 3.048s.344-2.151-.311-2.926l-1.012.523a4.328 4.328 0 01.141 3.308s.283-2.26-.355-3.177l-.925.653s.81 1.831.2 3.031c0 0 .063-2.643-.4-2.868a5.664 5.664 0 00-.947.923s.551 1.328.135 1.992c0 0-.146-1.77-.337-1.788a5.855 5.855 0 00-.958 1.92 4.24 4.24 0 01.775-2.042 2.343 2.343 0 00-1.219.555s.161-.817 1.424-.825c0 0 .686-.851.871-.9a5.119 5.119 0 00-2.025.131 2.259 2.259 0 012.262-.311l.917-.673a7.062 7.062 0 00-2.358-.118 2.835 2.835 0 012.6-.054l.986-.525a8.67 8.67 0 00-2.234-.307 3.42 3.42 0 012.521.168l.7-.272s-1.021-.255-1.322-.3-.311-.131-.311-.131a3.582 3.582 0 011.925.314 8.907 8.907 0 001.442-.557z" class="prefix__cls-1" data-name="Path 1312" transform="translate(-532.372 -96.533)"/>
            <path id="prefix__Path_1313" d="M993.273 402.311s-8.248-.919-7.567 4.93a1.413 1.413 0 00.653 1.524s.037-.435.871-.242a3.766 3.766 0 00.9.089 1.857 1.857 0 001.121-.4s2.376-.843 3.473-4.6c0 0 .71-.8.695-1.01l-1.426.525a2.435 2.435 0 010 1.851s.046-1.812-.218-1.781c-.054 0-.742.311-.742.311a4.153 4.153 0 01.048 3.048s.344-2.149-.311-2.926l-1.013.525a4.335 4.335 0 01.144 3.307s.281-2.26-.357-3.179l-.925.653s.81 1.831.2 3.029c0 0 .063-2.643-.4-2.865a5.749 5.749 0 00-.947.923s.553 1.328.135 1.992c0 0-.146-1.77-.338-1.788a5.856 5.856 0 00-.958 1.92 4.24 4.24 0 01.775-2.042 2.324 2.324 0 00-1.219.555s.161-.819 1.424-.827c0 0 .688-.851.871-.895a5.1 5.1 0 00-2.025.128 2.265 2.265 0 012.265-.309l.915-.673a7.277 7.277 0 00-2.349-.1 2.839 2.839 0 012.6-.057l.986-.523a8.67 8.67 0 00-2.234-.307 3.42 3.42 0 012.521.168l.7-.274s-1.021-.255-1.322-.3-.311-.131-.311-.131a3.569 3.569 0 011.925.311 8.534 8.534 0 001.44-.56z" class="prefix__cls-1" data-name="Path 1313" transform="translate(-791.784 -326.65)"/>
            <path id="prefix__Path_1314" d="M1051.183 437.692s-8.248-.917-7.567 4.93a1.417 1.417 0 00.653 1.524s.037-.435.871-.24a3.844 3.844 0 00.895.087 1.881 1.881 0 001.117-.4s2.373-.843 3.471-4.6c0 0 .712-.795.695-1.01l-1.426.525a2.435 2.435 0 010 1.851s.046-1.809-.218-1.781c-.054 0-.742.311-.742.311a4.153 4.153 0 01.048 3.048s.344-2.149-.311-2.924l-1.012.523a4.335 4.335 0 01.144 3.307s.281-2.26-.357-3.177l-.925.653s.81 1.831.2 3.031c0 0 .061-2.646-.4-2.868a5.75 5.75 0 00-.947.923s.553 1.328.135 1.992c0 0-.146-1.77-.338-1.788a5.821 5.821 0 00-.956 1.92 4.251 4.251 0 01.773-2.042 2.342 2.342 0 00-1.219.555s.163-.819 1.426-.825c0 0 .686-.851.871-.9a5.119 5.119 0 00-2.025.131 2.262 2.262 0 012.265-.311l.915-.673a7.277 7.277 0 00-2.349-.1 2.835 2.835 0 012.6-.054l.986-.525a8.67 8.67 0 00-2.234-.307 3.42 3.42 0 012.521.168l.7-.272s-1.021-.255-1.32-.3-.313-.131-.313-.131a3.581 3.581 0 011.925.314 8.617 8.617 0 001.448-.565z" class="prefix__cls-1" data-name="Path 1314" transform="translate(-837.085 -354.327)"/>
            <path id="prefix__Path_1315" d="M916.12 132.355s-6.646-4.971-9.021.414a1.417 1.417 0 00-.2 1.65s.248-.351.871.231a3.813 3.813 0 00.727.531 1.87 1.87 0 001.169.218s2.474.477 5.324-2.2c0 0 1.015-.327 1.11-.518l-1.5-.27a2.516 2.516 0 01-.93 1.6s.956-1.537.708-1.648c-.05-.024-.8-.109-.8-.109a4.138 4.138 0 01-1.5 2.646s1.387-1.679 1.215-2.68l-1.139-.061a4.344 4.344 0 01-1.552 2.924s1.389-1.805 1.306-2.92l-1.128.091s-.218 1.988-1.363 2.711c0 0 1.394-2.247 1.106-2.674a5.473 5.473 0 00-1.285.316s-.2 1.424-.893 1.785c0 0 .771-1.6.614-1.711a5.854 5.854 0 00-1.8 1.169 4.253 4.253 0 011.7-1.367 2.345 2.345 0 00-1.333-.139s.555-.623 1.648.011a5.474 5.474 0 011.2-.337 5.1 5.1 0 00-1.812-.912 2.267 2.267 0 012.11.871l1.13-.115a7.419 7.419 0 00-1.977-1.272s1.052-.133 2.265 1.265l1.117.05a8.729 8.729 0 00-1.77-1.4 3.437 3.437 0 012.088 1.422l.742.12s-.751-.736-.986-.928-.2-.255-.2-.255a3.58 3.58 0 011.5 1.245 8.743 8.743 0 001.539.246z" class="prefix__cls-1" data-name="Path 1315" transform="translate(-730.017 -113.88)"/>
            <path id="prefix__Path_1316" d="M942.613 284.094s-2.291-7.976-7.442-5.113a1.415 1.415 0 00-1.161 1.191s.409-.128.551.705a3.858 3.858 0 00.261.871 1.87 1.87 0 00.8.888s1.685 1.873 5.574 1.454c0 0 1.006.353 1.2.257l-1.03-1.119a2.5 2.5 0 01-1.7.714s1.69-.653 1.559-.886c-.026-.048-.57-.568-.57-.568a4.125 4.125 0 01-2.791 1.2s2.119-.5 2.585-1.4l-.871-.736a4.351 4.351 0 01-3 1.394s2.195-.6 2.8-1.542l-.954-.607s-1.383 1.448-2.724 1.339c0 0 2.467-.952 2.5-1.463a5.436 5.436 0 00-1.217-.523s-1.017 1.015-1.79.884c0 0 1.581-.812 1.524-1a5.881 5.881 0 00-2.14-.152 4.248 4.248 0 012.177-.063 2.336 2.336 0 00-.98-.915s.819-.163 1.306 1a5.433 5.433 0 011.156.453 5.092 5.092 0 00-.893-1.82 2.262 2.262 0 011.152 1.973l.971.59a7.241 7.241 0 00-.81-2.208 2.859 2.859 0 011.043 2.376l.871.712a8.636 8.636 0 00-.568-2.177 3.441 3.441 0 01.808 2.4l.518.544s-.152-1.041-.218-1.337 0-.337 0-.337a3.569 3.569 0 01.446 1.9 8.64 8.64 0 001.057 1.121z" class="prefix__cls-1" data-name="Path 1316" transform="translate(-751.376 -229.729)"/>
            <path id="prefix__Path_1317" d="M705.409 372.318s-4.448-7.007-8.579-2.813a1.408 1.408 0 00-.78 1.47s.359-.24.729.523a3.728 3.728 0 00.492.753 1.86 1.86 0 001.012.627s2.145 1.324 5.759-.174c0 0 1.065.057 1.222-.089l-1.306-.784a2.5 2.5 0 01-1.437 1.165s1.441-1.089 1.248-1.289c-.037-.039-.708-.383-.708-.383a4.137 4.137 0 01-2.341 1.94s1.892-1.078 2.088-2.075l-1.043-.459a4.337 4.337 0 01-2.489 2.177s1.938-1.2 2.254-2.267l-1.089-.314s-.919 1.779-2.236 2.051c0 0 2.1-1.607 1.984-2.108a5.408 5.408 0 00-1.306-.159s-.69 1.261-1.47 1.352c0 0 1.289-1.224 1.182-1.385a5.867 5.867 0 00-2.1.457 4.237 4.237 0 012.077-.675 2.337 2.337 0 00-1.2-.6s.738-.385 1.524.594a5.378 5.378 0 011.239.109 5.012 5.012 0 00-1.37-1.5s1.023.087 1.659 1.57l1.1.292a7.279 7.279 0 00-1.4-1.89s1.03.248 1.668 1.988l1.028.435a8.677 8.677 0 00-1.161-1.934 3.431 3.431 0 011.459 2.077l.653.377s-.435-.956-.59-1.219-.094-.324-.094-.324a3.571 3.571 0 01.96 1.7 8.854 8.854 0 001.362.784z" class="prefix__cls-1" data-name="Path 1317" transform="translate(-565.214 -299.981)"/>
            <path id="prefix__Path_1318" d="M839.858 207.265s-4.231-7.14-8.492-3.077a1.416 1.416 0 00-.823 1.446s.364-.231.712.542a3.767 3.767 0 00.468.771 1.849 1.849 0 00.993.653s2.1 1.389 5.761 0c0 0 1.063.089 1.224-.052l-1.278-.823a2.5 2.5 0 01-1.472 1.119s1.474-1.052 1.289-1.25c-.039-.041-.7-.407-.7-.407a4.139 4.139 0 01-2.4 1.868s1.925-1.019 2.149-2.008l-1.028-.483a4.342 4.342 0 01-2.556 2.1s1.975-1.134 2.323-2.195l-1.076-.348s-.976 1.742-2.3 1.981c0 0 2.147-1.542 2.047-2.045a5.378 5.378 0 00-1.306-.2s-.729 1.239-1.511 1.306c0 0 1.326-1.18 1.226-1.346a5.861 5.861 0 00-2.11.392 4.25 4.25 0 012.1-.61 2.341 2.341 0 00-1.178-.64s.751-.364 1.524.64a5.515 5.515 0 011.235.148 5.209 5.209 0 00-1.322-1.537s1.019.118 1.609 1.62l1.089.327a7.238 7.238 0 00-1.339-1.934s1.023.281 1.607 2.038l1.013.473a8.749 8.749 0 00-1.089-1.96 3.444 3.444 0 011.385 2.114l.638.4s-.409-.969-.553-1.237-.083-.327-.083-.327a3.577 3.577 0 01.908 1.725 8.428 8.428 0 001.316.816z" class="prefix__cls-10" data-name="Path 1318" transform="translate(-670.428 -170.729)"/>
            <path id="prefix__Path_1319" d="M725.243 265.751s.218-8.3-5.546-7.127a1.419 1.419 0 00-1.468.786s.436 0 .314.838a3.82 3.82 0 00-.013.9 1.861 1.861 0 00.49 1.089s1.039 2.3 4.873 3.075c0 0 .851.642 1.065.607l-.653-1.376a2.513 2.513 0 01-1.842.163s1.807-.107 1.757-.372c0-.054-.375-.716-.375-.716a4.121 4.121 0 01-3.024.3s2.177.163 2.889-.553l-.607-.965a4.35 4.35 0 01-3.284.418s2.275.091 3.138-.621l-.725-.871s-1.757.962-3 .453c0 0 2.639-.159 2.831-.64a5.647 5.647 0 00-1-.871s-1.276.653-1.973.3c0 0 1.742-.292 1.753-.486a5.844 5.844 0 00-1.995-.793 4.239 4.239 0 012.1.6 2.341 2.341 0 00-.653-1.169s.83.094.943 1.35a5.416 5.416 0 01.967.784 5.093 5.093 0 00-.3-2.005 2.259 2.259 0 01.5 2.228l.747.858a7.29 7.29 0 00-.1-2.349 2.863 2.863 0 01.274 2.58l.6.938a8.683 8.683 0 00.12-2.251 3.456 3.456 0 01.044 2.528l.331.675s.168-1.039.189-1.341.1-.322.1-.322a3.576 3.576 0 01-.15 1.944 8.3 8.3 0 00.683 1.414z" class="prefix__cls-10" data-name="Path 1319" transform="translate(-582.58 -214.202)"/>
            <ellipse id="prefix__Ellipse_28" cx="5.864" cy=".991" class="prefix__cls-1" data-name="Ellipse 28" rx="5.864" ry=".991" transform="translate(146.328 154.98)"/>
            <ellipse id="prefix__Ellipse_29" cx="5.864" cy=".991" class="prefix__cls-1" data-name="Ellipse 29" rx="5.864" ry=".991" transform="translate(124.952 170.022)"/>
            <ellipse id="prefix__Ellipse_30" cx="5.864" cy=".991" class="prefix__cls-1" data-name="Ellipse 30" rx="5.864" ry=".991" transform="translate(14.413 162.316)"/>
            <ellipse id="prefix__Ellipse_31" cx="5.864" cy=".991" class="prefix__cls-1" data-name="Ellipse 31" rx="5.864" ry=".991" transform="translate(169.428 169.031)"/>
            <ellipse id="prefix__Ellipse_32" cx="8.755" cy="1.481" class="prefix__cls-10" data-name="Ellipse 32" rx="8.755" ry="1.481" transform="translate(172.642 155.971)"/>
            <path id="prefix__Path_1320" d="M915.9 752.512a2.528 2.528 0 00.834-1.259 1.118 1.118 0 00-.581-1.282 1.644 1.644 0 00-1.544.54 2.069 2.069 0 01-1.5.725 2.286 2.286 0 00.705-2.136.9.9 0 00-.2-.435c-.3-.318-.836-.181-1.193.07a4.445 4.445 0 00-1.455 3.719 6.992 6.992 0 01-.02-1.524 1.564 1.564 0 00-.577-1.354 1.722 1.722 0 00-.871-.218 1.819 1.819 0 00-1.424.4 1.4 1.4 0 00.054 1.742 5.631 5.631 0 001.474 1.18 3.294 3.294 0 011.054 1 1.03 1.03 0 01.076.179h3.192a8.8 8.8 0 001.976-1.347z" class="prefix__cls-10" data-name="Path 1320" transform="translate(-730.877 -597.484)"/>
            <path id="prefix__Path_1321" d="M170.29 777.378s3.342-.1 4.355-.821 5.145-1.574 5.4-.422 5.025 5.724 1.25 5.755-8.773-.588-9.779-1.2-1.226-3.312-1.226-3.312z" data-name="Path 1321" transform="translate(-153.95 -618.677)" style="fill:#a8a8a8"/>
            <path id="prefix__Path_1322" d="M181.353 787.965c-3.776.031-8.773-.588-9.779-1.2-.766-.466-1.071-2.14-1.174-2.913h-.111s.218 2.7 1.217 3.31 6 1.232 9.779 1.2c1.089 0 1.465-.4 1.446-.971-.152.35-.568.568-1.378.574z" data-name="Path 1322" transform="translate(-153.95 -625.153)" style="opacity:.2"/>
        </g>
        <path id="prefix__Path_1323" d="M4.2-2.354h6.22V0H1.27v-14.219H4.2zm7.275-3.027a6.267 6.267 0 01.605-2.8 4.432 4.432 0 011.743-1.9 5.086 5.086 0 012.642-.674 4.812 4.812 0 013.491 1.309A5.252 5.252 0 0121.465-5.9l.02.723a5.523 5.523 0 01-1.357 3.9A4.718 4.718 0 0116.484.2a4.742 4.742 0 01-3.647-1.47 5.62 5.62 0 01-1.362-3.984zm2.822.205a3.939 3.939 0 00.566 2.3 1.869 1.869 0 001.621.8 1.874 1.874 0 001.6-.786 4.31 4.31 0 00.576-2.515 3.9 3.9 0 00-.576-2.285 1.874 1.874 0 00-1.621-.811 1.843 1.843 0 00-1.6.806 4.383 4.383 0 00-.563 2.491zm8.486-.205a6.266 6.266 0 01.605-2.8 4.432 4.432 0 011.743-1.9 5.086 5.086 0 012.642-.674 4.812 4.812 0 013.491 1.309A5.252 5.252 0 0132.773-5.9l.02.723a5.523 5.523 0 01-1.357 3.9A4.718 4.718 0 0127.793.2a4.742 4.742 0 01-3.647-1.47 5.62 5.62 0 01-1.362-3.984zm2.822.205a3.939 3.939 0 00.566 2.3 1.869 1.869 0 001.621.8 1.874 1.874 0 001.6-.786 4.31 4.31 0 00.576-2.515 3.9 3.9 0 00-.576-2.285 1.874 1.874 0 00-1.621-.811 1.843 1.843 0 00-1.6.806 4.383 4.383 0 00-.566 2.491zm12.764.938l-1.015 1.015V0h-2.823v-15h2.822v8.311l.547-.7 2.705-3.174h3.389l-3.818 4.4L44.326 0h-3.242zM50.938-2.92a.909.909 0 00-.513-.815 5.824 5.824 0 00-1.646-.532q-3.77-.791-3.77-3.2a2.9 2.9 0 011.167-2.349 4.707 4.707 0 013.052-.942 5.067 5.067 0 013.218.947 2.985 2.985 0 011.206 2.461H50.83a1.366 1.366 0 00-.391-1 1.653 1.653 0 00-1.221-.4 1.689 1.689 0 00-1.1.322 1.017 1.017 0 00-.391.82.87.87 0 00.444.757 4.571 4.571 0 001.5.5 12.244 12.244 0 011.777.474 2.92 2.92 0 012.236 2.842A2.756 2.756 0 0152.441-.7a5.35 5.35 0 01-3.2.894 5.588 5.588 0 01-2.361-.472 3.957 3.957 0 01-1.616-1.3 3.018 3.018 0 01-.586-1.782h2.676a1.473 1.473 0 00.557 1.152 2.208 2.208 0 001.387.4 2.044 2.044 0 001.226-.308.957.957 0 00.414-.804zM63.457 0h-2.832v-15h2.832zm5.3 0h-2.829v-10.566h2.832zm-3-13.3a1.39 1.39 0 01.425-1.045 1.6 1.6 0 011.157-.41 1.6 1.6 0 011.152.41 1.382 1.382 0 01.43 1.045 1.386 1.386 0 01-.435 1.055 1.6 1.6 0 01-1.147.41 1.6 1.6 0 01-1.147-.41 1.386 1.386 0 01-.43-1.055zm9.16 9.063l-1.011 1.014V0h-2.822v-15h2.822v8.311l.547-.7 2.705-3.174h3.389l-3.818 4.4L80.879 0h-3.242zM86.436.2a5.187 5.187 0 01-3.785-1.43 5.068 5.068 0 01-1.46-3.8v-.27a6.383 6.383 0 01.615-2.847 4.515 4.515 0 011.743-1.934 4.893 4.893 0 012.573-.679 4.385 4.385 0 013.413 1.367 5.555 5.555 0 011.245 3.877v1.152h-6.727a2.622 2.622 0 00.825 1.66 2.5 2.5 0 001.743.625 3.046 3.046 0 002.549-1.183l1.387 1.553a4.237 4.237 0 01-1.719 1.4A5.639 5.639 0 0186.436.2zm-.322-8.672a1.767 1.767 0 00-1.362.566 2.926 2.926 0 00-.669 1.621h3.926v-.225a2.086 2.086 0 00-.508-1.45 1.824 1.824 0 00-1.388-.517zm14.629-4.687v2.6h1.807V-8.5h-1.807v5.273a1.259 1.259 0 00.225.84 1.128 1.128 0 00.859.254 4.5 4.5 0 00.83-.068v2.142a5.81 5.81 0 01-1.71.259q-2.969 0-3.027-3v-5.7h-1.543v-2.07h1.543v-2.6zm6.133 3.75a3.522 3.522 0 012.822-1.348q3.437 0 3.486 3.994V0h-2.822v-6.689a1.963 1.963 0 00-.391-1.343 1.675 1.675 0 00-1.3-.435 1.921 1.921 0 00-1.8.957V0h-2.822v-15h2.822zM120.176.2a5.187 5.187 0 01-3.784-1.426 5.068 5.068 0 01-1.46-3.8V-5.3a6.383 6.383 0 01.615-2.847 4.515 4.515 0 011.743-1.934 4.893 4.893 0 012.573-.679 4.385 4.385 0 013.413 1.367 5.555 5.555 0 011.245 3.877v1.152h-6.729a2.622 2.622 0 00.825 1.66 2.5 2.5 0 001.743.625 3.046 3.046 0 002.549-1.182l1.391 1.552a4.237 4.237 0 01-1.719 1.4 5.639 5.639 0 01-2.405.509zm-.322-8.672a1.767 1.767 0 00-1.362.566 2.926 2.926 0 00-.669 1.621h3.926v-.225a2.086 2.086 0 00-.508-1.45 1.824 1.824 0 00-1.387-.517zm12.207.557A7.667 7.667 0 00131.045-8a2.067 2.067 0 00-2.1 1.084V0h-2.822v-10.566h2.666l.078 1.26a2.615 2.615 0 012.354-1.455 2.957 2.957 0 01.879.127zM138.1.2a5.187 5.187 0 01-3.784-1.426 5.068 5.068 0 01-1.46-3.8V-5.3a6.383 6.383 0 01.615-2.847 4.515 4.515 0 011.743-1.934 4.893 4.893 0 012.573-.679 4.385 4.385 0 013.413 1.365 5.555 5.555 0 011.245 3.877v1.152h-6.729a2.622 2.622 0 00.825 1.66 2.5 2.5 0 001.743.625 3.046 3.046 0 002.549-1.182l1.387 1.553a4.237 4.237 0 01-1.719 1.4A5.639 5.639 0 01138.1.2zm-.322-8.672a1.767 1.767 0 00-1.362.566 2.926 2.926 0 00-.669 1.621h3.926v-.225a2.086 2.086 0 00-.508-1.45 1.824 1.824 0 00-1.392-.517zm6.455-1.377l-1.328-.771a5.215 5.215 0 00.869-2.725V-15h2.246v1.514a4.461 4.461 0 01-.488 1.9 5.235 5.235 0 01-1.303 1.732zm7.236 6.934a.909.909 0 00-.513-.815 5.824 5.824 0 00-1.646-.532q-3.77-.791-3.77-3.2a2.9 2.9 0 011.16-2.357 4.707 4.707 0 013.052-.942 5.067 5.067 0 013.218.947 2.985 2.985 0 011.206 2.461h-2.822a1.366 1.366 0 00-.391-1 1.653 1.653 0 00-1.221-.4 1.689 1.689 0 00-1.1.322 1.017 1.017 0 00-.391.82.87.87 0 00.444.757 4.571 4.571 0 001.5.5 12.244 12.244 0 011.777.474 2.92 2.92 0 012.236 2.842A2.756 2.756 0 01152.969-.7a5.35 5.35 0 01-3.2.894 5.588 5.588 0 01-2.358-.474 3.957 3.957 0 01-1.616-1.3 3.018 3.018 0 01-.586-1.782h2.676a1.473 1.473 0 00.557 1.152 2.208 2.208 0 001.387.4 2.044 2.044 0 001.226-.308.957.957 0 00.41-.802zm12.131-7.651l.088 1.221a3.689 3.689 0 013.037-1.416 3.066 3.066 0 012.5.986 4.6 4.6 0 01.84 2.949V0h-2.822v-6.758a1.831 1.831 0 00-.391-1.3 1.749 1.749 0 00-1.3-.405 1.942 1.942 0 00-1.787 1.016V0h-2.822v-10.566zm8.164 5.186a6.267 6.267 0 01.605-2.8 4.432 4.432 0 011.743-1.9 5.086 5.086 0 012.642-.674 4.812 4.812 0 013.491 1.309 5.252 5.252 0 011.513 3.545l.02.723a5.523 5.523 0 01-1.357 3.9A4.718 4.718 0 01176.777.2a4.742 4.742 0 01-3.647-1.47 5.62 5.62 0 01-1.362-3.984zm2.822.205a3.939 3.939 0 00.566 2.3 1.869 1.869 0 001.621.8 1.874 1.874 0 001.6-.786 4.31 4.31 0 00.576-2.515 3.9 3.9 0 00-.576-2.285 1.874 1.874 0 00-1.621-.811 1.843 1.843 0 00-1.6.806 4.383 4.383 0 00-.562 2.49zm12.3-7.988v2.6h1.814V-8.5h-1.807v5.273a1.259 1.259 0 00.225.84 1.128 1.128 0 00.859.254 4.5 4.5 0 00.83-.068v2.142A5.81 5.81 0 01187.1.2q-2.969 0-3.027-3v-5.7h-1.543v-2.07h1.543v-2.6zm6.133 3.75a3.522 3.522 0 012.822-1.348q3.438 0 3.486 3.994V0h-2.822v-6.689a1.963 1.963 0 00-.391-1.343 1.675 1.675 0 00-1.3-.435 1.921 1.921 0 00-1.8.957V0h-2.822v-15h2.822zM204.443 0h-2.832v-10.566h2.832zm-3-13.3a1.39 1.39 0 01.425-1.045 1.6 1.6 0 011.157-.41 1.6 1.6 0 011.152.41 1.382 1.382 0 01.43 1.045 1.386 1.386 0 01-.435 1.055 1.6 1.6 0 01-1.147.41 1.6 1.6 0 01-1.147-.41 1.386 1.386 0 01-.433-1.055zm7.92 2.734l.088 1.221a3.689 3.689 0 013.037-1.416 3.066 3.066 0 012.5.986 4.6 4.6 0 01.84 2.949V0h-2.822v-6.758a1.831 1.831 0 00-.391-1.3 1.749 1.749 0 00-1.3-.405 1.942 1.942 0 00-1.787 1.016V0h-2.822v-10.566zm8.193 5.205a6.193 6.193 0 011.157-3.916 3.75 3.75 0 013.12-1.484 3.289 3.289 0 012.705 1.191l.117-1h2.559V-.352a4.516 4.516 0 01-.63 2.412 4.045 4.045 0 01-1.772 1.563 6.231 6.231 0 01-2.676.537 5.794 5.794 0 01-2.266-.464 4.021 4.021 0 01-1.67-1.2l1.25-1.719a3.306 3.306 0 002.559 1.182 2.42 2.42 0 001.748-.6 2.253 2.253 0 00.625-1.7v-.567A3.264 3.264 0 01221.816.2a3.74 3.74 0 01-3.081-1.489 6.191 6.191 0 01-1.177-3.95zm2.822.205a3.846 3.846 0 00.576 2.251 1.834 1.834 0 001.582.815 1.961 1.961 0 001.846-.967V-7.5a1.956 1.956 0 00-1.826-.967 1.845 1.845 0 00-1.6.83 4.334 4.334 0 00-.575 2.481zm16.738-4.258a3.522 3.522 0 012.822-1.348q3.438 0 3.486 3.994V0h-2.822v-6.689a1.963 1.963 0 00-.391-1.343 1.675 1.675 0 00-1.3-.435 1.921 1.921 0 00-1.8.957V0H234.3v-15h2.822zM250.42.2a5.187 5.187 0 01-3.784-1.426 5.068 5.068 0 01-1.46-3.8V-5.3a6.383 6.383 0 01.615-2.847 4.515 4.515 0 011.743-1.934 4.893 4.893 0 012.573-.679 4.385 4.385 0 013.413 1.367 5.555 5.555 0 011.245 3.877v1.152h-6.729a2.622 2.622 0 00.825 1.66 2.5 2.5 0 001.743.625 3.046 3.046 0 002.549-1.182l1.387 1.553a4.237 4.237 0 01-1.719 1.4A5.639 5.639 0 01250.42.2zm-.32-8.677a1.767 1.767 0 00-1.362.566 2.926 2.926 0 00-.669 1.621h3.926v-.225a2.086 2.086 0 00-.508-1.45 1.824 1.824 0 00-1.387-.512zm12.2.557a7.667 7.667 0 00-1.011-.08 2.067 2.067 0 00-2.1 1.084V0h-2.822v-10.566h2.666l.078 1.26a2.615 2.615 0 012.354-1.455 2.957 2.957 0 01.879.127zM268.34.2a5.187 5.187 0 01-3.784-1.426 5.068 5.068 0 01-1.46-3.8V-5.3a6.383 6.383 0 01.615-2.847 4.515 4.515 0 011.743-1.934 4.893 4.893 0 012.573-.679 4.385 4.385 0 013.413 1.367 5.555 5.555 0 011.245 3.877v1.152h-6.729a2.622 2.622 0 00.825 1.66 2.5 2.5 0 001.743.625 3.046 3.046 0 002.549-1.182l1.387 1.553a4.237 4.237 0 01-1.719 1.4A5.639 5.639 0 01268.34.2zm-.322-8.672a1.767 1.767 0 00-1.362.566 2.926 2.926 0 00-.669 1.621h3.926v-.225a2.086 2.086 0 00-.508-1.45 1.824 1.824 0 00-1.387-.517zm15.2 4.482l1.953-6.572h3.027l-4.253 12.203-.234.557a3.221 3.221 0 01-3.125 2.07 4.441 4.441 0 01-1.25-.186V1.943l.43.01a2.322 2.322 0 001.2-.244 1.6 1.6 0 00.62-.811l.332-.869-3.7-10.6h3.037zM294.043.2a5.187 5.187 0 01-3.784-1.426 5.068 5.068 0 01-1.46-3.8V-5.3a6.383 6.383 0 01.615-2.847 4.515 4.515 0 011.743-1.934 4.893 4.893 0 012.573-.679 4.385 4.385 0 013.413 1.367 5.555 5.555 0 011.245 3.877v1.152h-6.728a2.622 2.622 0 00.825 1.66 2.5 2.5 0 001.743.625 3.046 3.046 0 002.549-1.182l1.387 1.553a4.237 4.237 0 01-1.719 1.4 5.639 5.639 0 01-2.402.508zm-.322-8.672a1.767 1.767 0 00-1.362.566 2.926 2.926 0 00-.669 1.621h3.926v-.225a2.086 2.086 0 00-.508-1.45 1.824 1.824 0 00-1.387-.517zm9.648-4.687v2.6h1.807V-8.5h-1.807v5.273a1.259 1.259 0 00.225.84 1.128 1.128 0 00.859.254 4.5 4.5 0 00.83-.068v2.142a5.81 5.81 0 01-1.709.259q-2.969 0-3.027-3v-5.7H299v-2.07h1.543v-2.6zm3.525 11.777a1.421 1.421 0 01.454-1.094 1.611 1.611 0 011.138-.42 1.624 1.624 0 011.147.42 1.421 1.421 0 01.454 1.094 1.4 1.4 0 01-.449 1.079 1.631 1.631 0 01-1.152.415 1.618 1.618 0 01-1.143-.415 1.4 1.4 0 01-.448-1.084zM11.973 12.154H7.617V24H4.688V12.154H.391V9.781h11.582zm6.787 3.926a7.667 7.667 0 00-1.016-.08 2.067 2.067 0 00-2.1 1.084V24h-2.822V13.434h2.666l.078 1.26a2.615 2.615 0 012.354-1.455 2.957 2.957 0 01.879.127zm5.479 3.926l1.953-6.572h3.027l-4.248 12.207-.234.557a3.221 3.221 0 01-3.125 2.07 4.441 4.441 0 01-1.25-.186v-2.139l.43.01a2.322 2.322 0 001.2-.244 1.6 1.6 0 00.62-.811l.332-.869-3.7-10.6h3.037zM41.436 24a3.134 3.134 0 01-.283-.947 3.415 3.415 0 01-2.667 1.147 3.752 3.752 0 01-2.573-.9 2.89 2.89 0 01-1.021-2.266 2.986 2.986 0 011.245-2.578 6.144 6.144 0 013.6-.908h1.3v-.605a1.741 1.741 0 00-.376-1.172 1.479 1.479 0 00-1.187-.439 1.682 1.682 0 00-1.118.342 1.161 1.161 0 00-.405.938h-2.824a2.835 2.835 0 01.566-1.7 3.744 3.744 0 011.6-1.226 5.837 5.837 0 012.324-.444 4.611 4.611 0 013.1.981 3.433 3.433 0 011.147 2.759v4.58a5.052 5.052 0 00.42 2.275V24zM39.1 22.037a2.431 2.431 0 001.152-.278 1.828 1.828 0 00.781-.747V19.2H39.98q-2.119 0-2.256 1.465l-.01.166a1.13 1.13 0 00.371.869 1.441 1.441 0 001.015.337zm6.494-3.4A6.368 6.368 0 0146.7 14.7a3.6 3.6 0 013.032-1.465 3.236 3.236 0 012.549 1.152V9h2.832v15h-2.545l-.137-1.123a3.321 3.321 0 01-2.714 1.323 3.587 3.587 0 01-2.993-1.47 6.573 6.573 0 01-1.124-4.091zm2.822.205a4.16 4.16 0 00.518 2.275 1.687 1.687 0 001.5.791 1.889 1.889 0 001.846-1.1v-4.17a1.862 1.862 0 00-1.826-1.1q-2.036-.005-2.036 3.306zm8.447-.205a6.368 6.368 0 011.111-3.937 3.6 3.6 0 013.032-1.465 3.236 3.236 0 012.549 1.152V9h2.832v15h-2.549l-.138-1.123a3.321 3.321 0 01-2.714 1.323 3.587 3.587 0 01-2.993-1.47 6.573 6.573 0 01-1.128-4.091zm2.822.205a4.16 4.16 0 00.518 2.275 1.687 1.687 0 001.5.791 1.889 1.889 0 001.846-1.1v-4.17a1.862 1.862 0 00-1.826-1.1q-2.035-.005-2.035 3.306zM71.553 24h-2.832V13.434h2.832zm-3-13.3a1.39 1.39 0 01.425-1.045 1.831 1.831 0 012.31 0 1.491 1.491 0 010 2.1 1.81 1.81 0 01-2.295 0 1.386 1.386 0 01-.438-1.055zm7.92 2.734l.088 1.221a3.689 3.689 0 013.039-1.417 3.066 3.066 0 012.5.986 4.6 4.6 0 01.84 2.949V24h-2.823v-6.758a1.831 1.831 0 00-.391-1.3 1.749 1.749 0 00-1.3-.405 1.942 1.942 0 00-1.787 1.016V24h-2.821V13.434zm8.193 5.205a6.193 6.193 0 011.157-3.916 3.75 3.75 0 013.12-1.484 3.289 3.289 0 012.707 1.191l.117-1h2.559v10.218a4.516 4.516 0 01-.63 2.412 4.045 4.045 0 01-1.772 1.563 6.231 6.231 0 01-2.676.537 5.794 5.794 0 01-2.266-.464 4.021 4.021 0 01-1.67-1.2l1.25-1.719a3.306 3.306 0 002.559 1.182 2.42 2.42 0 001.748-.6 2.253 2.253 0 00.625-1.7v-.566a3.264 3.264 0 01-2.568 1.1 3.74 3.74 0 01-3.081-1.489 6.191 6.191 0 01-1.177-3.95zm2.822.205a3.845 3.845 0 00.576 2.251 1.834 1.834 0 001.582.815 1.961 1.961 0 001.846-.967V16.5a1.956 1.956 0 00-1.826-.967 1.845 1.845 0 00-1.6.83 4.334 4.334 0 00-.576 2.481zM107.2 21.08a.909.909 0 00-.513-.815 5.824 5.824 0 00-1.646-.532q-3.77-.791-3.77-3.2a2.9 2.9 0 011.167-2.349 4.707 4.707 0 013.052-.942 5.067 5.067 0 013.218.947 2.985 2.985 0 011.206 2.461h-2.824a1.366 1.366 0 00-.391-1 1.653 1.653 0 00-1.221-.4 1.689 1.689 0 00-1.1.322 1.017 1.017 0 00-.391.82.87.87 0 00.444.757 4.571 4.571 0 001.5.5 12.244 12.244 0 011.777.474 2.92 2.92 0 012.236 2.842A2.756 2.756 0 01108.7 23.3a5.35 5.35 0 01-3.2.894 5.588 5.588 0 01-2.358-.474 3.957 3.957 0 01-1.616-1.3 3.018 3.018 0 01-.586-1.782h2.676a1.473 1.473 0 00.557 1.152 2.208 2.208 0 001.387.4 2.044 2.044 0 001.226-.308.957.957 0 00.414-.802zm4.121-2.461a6.266 6.266 0 01.605-2.8 4.432 4.432 0 011.743-1.9 5.086 5.086 0 012.642-.674 4.812 4.812 0 013.491 1.309 5.252 5.252 0 011.509 3.555l.02.723a5.523 5.523 0 01-1.357 3.9 5.261 5.261 0 01-7.29 0 5.62 5.62 0 01-1.362-3.984zm2.822.205a3.939 3.939 0 00.566 2.3 2.037 2.037 0 003.223.01 4.31 4.31 0 00.576-2.515 3.9 3.9 0 00-.576-2.285 1.874 1.874 0 00-1.621-.811 1.843 1.843 0 00-1.6.806 4.383 4.383 0 00-.57 2.495zm11.572-5.391l.088 1.182a3.713 3.713 0 013.037-1.377 2.818 2.818 0 012.8 1.611 3.628 3.628 0 013.174-1.611 3.152 3.152 0 012.559 1 4.6 4.6 0 01.84 3.013V24h-2.832v-6.738a2.012 2.012 0 00-.352-1.313 1.558 1.558 0 00-1.24-.415 1.761 1.761 0 00-1.758 1.211l.01 7.256h-2.822v-6.73a1.988 1.988 0 00-.361-1.328 1.573 1.573 0 00-1.23-.41 1.829 1.829 0 00-1.738 1V24h-2.822V13.434zM145.244 24.2a5.187 5.187 0 01-3.784-1.426 5.068 5.068 0 01-1.46-3.8V18.7a6.383 6.383 0 01.615-2.847 4.515 4.515 0 011.743-1.934 4.893 4.893 0 012.573-.679 4.385 4.385 0 013.413 1.367 5.555 5.555 0 011.245 3.877v1.152h-6.729a2.622 2.622 0 00.825 1.66 2.5 2.5 0 001.743.625 3.046 3.046 0 002.549-1.182l1.387 1.553a4.237 4.237 0 01-1.719 1.4 5.639 5.639 0 01-2.401.508zm-.322-8.672a1.767 1.767 0 00-1.362.566 2.926 2.926 0 00-.669 1.621h3.926v-.225a2.086 2.086 0 00-.508-1.45 1.824 1.824 0 00-1.387-.517zm9.648-4.687v2.6h1.807V15.5h-1.807v5.273a1.259 1.259 0 00.225.84 1.128 1.128 0 00.859.254 4.5 4.5 0 00.83-.068v2.139a5.81 5.81 0 01-1.709.254q-2.969 0-3.027-3V15.5h-1.543v-2.07h1.543v-2.6zm6.133 3.75a3.522 3.522 0 012.822-1.348q3.438 0 3.486 3.994V24h-2.822v-6.689a1.963 1.963 0 00-.391-1.343 1.675 1.675 0 00-1.3-.435 1.921 1.921 0 00-1.8.957V24h-2.822V9h2.824zM172.119 24h-2.832V13.434h2.832zm-3-13.3a1.39 1.39 0 01.425-1.045 1.831 1.831 0 012.31 0 1.491 1.491 0 010 2.1 1.81 1.81 0 01-2.295 0 1.386 1.386 0 01-.438-1.055zm7.92 2.734l.088 1.221a3.689 3.689 0 013.037-1.416 3.066 3.066 0 012.5.986 4.6 4.6 0 01.84 2.949V24h-2.822v-6.758a1.831 1.831 0 00-.391-1.3 1.749 1.749 0 00-1.3-.405 1.942 1.942 0 00-1.787 1.016V24h-2.822V13.434zm8.193 5.205a6.193 6.193 0 011.157-3.916 3.75 3.75 0 013.12-1.484 3.289 3.289 0 012.705 1.191l.117-1h2.559v10.218a4.516 4.516 0 01-.63 2.412 4.045 4.045 0 01-1.772 1.563 6.231 6.231 0 01-2.676.537 5.794 5.794 0 01-2.266-.464 4.021 4.021 0 01-1.67-1.2l1.25-1.719a3.306 3.306 0 002.559 1.182 2.42 2.42 0 001.748-.6 2.253 2.253 0 00.625-1.7v-.566a3.264 3.264 0 01-2.568 1.1 3.74 3.74 0 01-3.081-1.489 6.191 6.191 0 01-1.177-3.95zm2.822.205a3.846 3.846 0 00.576 2.251 1.834 1.834 0 001.582.815 1.961 1.961 0 001.846-.967V16.5a1.956 1.956 0 00-1.826-.967 1.845 1.845 0 00-1.6.83 4.334 4.334 0 00-.575 2.481zm9.15 3.77a1.421 1.421 0 01.454-1.094 1.764 1.764 0 012.285 0 1.421 1.421 0 01.454 1.094 1.4 1.4 0 01-.449 1.079 1.794 1.794 0 01-2.295 0 1.4 1.4 0 01-.446-1.08z" data-name="Path 1323" transform="translate(591 1154)" style="fill:#4c43db"/>
    </g>
</svg>
