<svg xmlns="http://www.w3.org/2000/svg" width="75" height="100" viewBox="0 0 75 100">
    <defs>
        <style>
            .cls-1{fill:#c64b4b}
        </style>
    </defs>
    <path id="Path_1232" d="M-1.973-37.48c1.094-1.953 1.25-9.16-.391-9.16-.566 0-.585 6.035.391 9.16zm-.327 9.218a90.116 90.116 0 0 1-5.552 12.246c3.574-1.367 7.617-3.359 12.285-4.277A25.3 25.3 0 0 1-2.3-28.262zM-20.684-3.887c0 .156 2.578-1.055 6.816-7.851-1.308 1.23-5.683 4.785-6.816 7.851zM10.937-56.25a4.7 4.7 0 0 1-4.687-4.687V-87.5h-39.063a4.676 4.676 0 0 0-4.687 4.688V7.812a4.676 4.676 0 0 0 4.687 4.688h65.625A4.676 4.676 0 0 0 37.5 7.812V-56.25zM9.375-22.7c3.769-.488 11.66-1.25 14.375 1.406 2.25 2.232 1.855 8.482-3.85 8.482-3.3 0-8.262-1.5-12.5-3.809-4.863.8-10.391 2.871-15.43 4.531C-12.988-3.535-16.465-.019-19.961-.019a6.07 6.07 0 0 1-4.2-1.953c-3.73-4.59 5.352-10.566 10.645-13.281.02 0 .02-.02.039-.02a183.418 183.418 0 0 0 7.969-16.758C-7.168-38.457-8.066-43.5-7.09-47.07c1.055-3.848 8.418-4.414 9.336 1.328C3.3-42.3 1.914-36.816 1.035-33.2a19.6 19.6 0 0 0 8.34 10.5zM36.133-67L16.992-86.133a4.684 4.684 0 0 0-3.32-1.367H12.5v25h25v-1.191a4.672 4.672 0 0 0-1.367-3.301zM21.66-17.129c.8-.527-.488-2.324-8.36-1.758 7.247 3.087 8.36 1.758 8.36 1.758z" class="cls-1" data-name="Path 1232" transform="translate(37.5 87.5)"/>
</svg>
