<svg xmlns="http://www.w3.org/2000/svg" width="668.037" height="338.845" viewBox="0 0 668.037 338.845">
    <defs>
        <style>
            .cls-1{fill:#d8e8e0}.cls-1,.cls-10,.cls-13,.cls-14,.cls-15,.cls-17,.cls-18,.cls-19,.cls-2,.cls-20,.cls-21,.cls-22,.cls-24,.cls-25,.cls-26,.cls-27,.cls-28,.cls-29,.cls-30,.cls-31,.cls-32,.cls-33,.cls-34,.cls-35,.cls-36,.cls-38,.cls-39,.cls-40,.cls-41,.cls-42,.cls-43,.cls-44,.cls-45,.cls-46,.cls-47,.cls-48,.cls-5,.cls-50,.cls-51,.cls-52,.cls-53,.cls-54,.cls-55,.cls-6,.cls-7,.cls-8,.cls-9{fill-rule:evenodd}.cls-2{fill:#eaf2ee}.cls-3{fill:#6ca92a}.cls-4{fill:#409296}.cls-5{fill:#63a2bc}.cls-6{fill:#f2f2f2}.cls-12,.cls-7{fill:#fecb8c}.cls-8{fill:#8fd0d9}.cls-9{fill:#d6ccc0}.cls-10{fill:#ebdece}.cls-11,.cls-13{fill:#fda671}.cls-14{fill:#fff}.cls-15{fill:#1a1a1a}.cls-16,.cls-19{fill:#e6e6e6}.cls-17{fill:#b9daef}.cls-18{fill:#d8edf9}.cls-20{fill:#874343}.cls-21{fill:#6b3030}.cls-22,.cls-23{fill:#333}.cls-24{fill:gray}.cls-25{fill:#4e4b63}.cls-26{fill:#f7ecde}.cls-27{fill:#ff6745}.cls-28{fill:#ffa333}.cls-29{fill:#c4973d}.cls-30{fill:#9c6e11}.cls-31{fill:#543f35}.cls-33{fill:#e0502f}.cls-34{fill:#4a312b}.cls-35{fill:#2b221e}.cls-36{fill:#42342e}.cls-37,.cls-38{fill:#fac04b}.cls-39{fill:#4d4d4d}.cls-40{fill:#472f20}.cls-41{fill:#69452f}.cls-42{fill:#ff9182}.cls-43{fill:#2abda9}.cls-44{fill:#fff9e8}.cls-45{fill:#7d5e4f}.cls-46{fill:#52507d}.cls-47{fill:#454570}.cls-48{fill:#4a3731}.cls-49{fill:#634a41}.cls-50{fill:#ccc}.cls-51{fill:#f5f5f5}.cls-52{fill:#e05a43}.cls-53{fill:#a18974}.cls-54,.cls-56{fill:#61564c}.cls-55{fill:#63413a}
        </style>
    </defs>
    <g id="Symbol_89_1" data-name="Symbol 89 – 1" transform="translate(-1156 -581.155)">
        <g id="Group_56" data-name="Group 56" transform="translate(1156 548.868)">
            <g id="Group_53" data-name="Group 53">
                <path id="Path_118" d="M592.824 259.292l2.269-81.026-82.144-31.672-50.52 46.634-85.494-31.089-63.677 39.491-3.505 57.663z" class="cls-1" data-name="Path 118" transform="translate(-79.834 -37.783)"/>
                <path id="Path_119" d="M0 247.42V100.532l40.617 41.962 34.976-7.772 97.152 69.95 38.861-38.861 74.357 81.609z" class="cls-2" data-name="Path 119" transform="translate(0 -25.911)"/>
                <path id="Path_120" d="M797.464 257.942V157.12l-44.5 15.327-81.608-31.089-34.975 46.633-81.608 19.431-52.6 50.52z" class="cls-2" data-name="Path 120" transform="translate(-129.426 -36.433)"/>
            </g>
            <path id="Rectangle_1482" d="M0 0h668.037v149.623H0z" class="cls-3" data-name="Rectangle 1482" transform="translate(0 221.509)"/>
            <g id="Group_54" data-name="Group 54" transform="translate(0 221.509)">
                <path id="Rectangle_1483" d="M0 0h668.037v67.353H0z" class="cls-4" data-name="Rectangle 1483"/>
                <path id="Path_121" d="M592.824 298.424l2.269 30.505-82.144 11.931-50.52-17.566-85.494 11.713-63.677-14.876-3.505-21.707z" class="cls-5" data-name="Path 121" transform="translate(-79.834 -298.424)"/>
                <path id="Path_122" d="M0 298.424v55.306l40.617-15.8 34.976 2.931 97.152-26.34 38.861 14.635 74.357-30.731z" class="cls-5" data-name="Path 122" transform="translate(0 -298.424)"/>
                <path id="Path_123" d="M797.464 298.424v37.959l-44.5-5.767-81.608 11.7-34.975-17.557-81.608-7.322-52.6-19.018z" class="cls-5" data-name="Path 123" transform="translate(-129.426 -298.424)"/>
            </g>
            <g id="Group_55" data-name="Group 55" transform="translate(67.082 32.286)">
                <path id="Path_124" d="M219.88 100.239a7.756 7.756 0 0 0-7.765 7.761 5.55 5.55 0 1 0 0 11.1h18.311a7.213 7.213 0 0 0 0-14.425 7.426 7.426 0 0 0-3.226.738 7.723 7.723 0 0 0-7.321-5.176z" class="cls-6" data-name="Path 124" transform="translate(-120.318 -58.121)"/>
                <path id="Path_125" d="M132.92 43.5a12.288 12.288 0 0 0-12.063 9.885 9.88 9.88 0 0 0-17.223 2.612 9.461 9.461 0 0 0-4.1-.94 9.167 9.167 0 0 0 0 18.335h50.096a11.433 11.433 0 0 0 0-22.866 11.662 11.662 0 0 0-5.106 1.182 12.234 12.234 0 0 0-11.6-8.207z" class="cls-6" data-name="Path 125" transform="translate(-121.375 -31.497)"/>
                <path id="Path_126" d="M751.106 43.5a12.287 12.287 0 0 1 12.062 9.885 9.88 9.88 0 0 1 17.224 2.612 9.406 9.406 0 0 1 4.088-.94 9.167 9.167 0 1 1 0 18.335h-74.994a5.55 5.55 0 1 1 0-11.1 7.772 7.772 0 0 1 14.2-4.36 11.42 11.42 0 0 1 10.7-7.407 11.641 11.641 0 0 1 5.107 1.182 12.252 12.252 0 0 1 11.613-8.207z" class="cls-6" data-name="Path 126" transform="translate(-248.508 -43.497)"/>
                <path id="Path_127" d="M642.419 112.825a5.513 5.513 0 0 1 5.409 4.43 4.437 4.437 0 0 1 7.726 1.174 4.218 4.218 0 0 1 1.834-.419 4.111 4.111 0 0 1 0 8.223h-22.47a5.126 5.126 0 0 1 0-10.251 5.237 5.237 0 0 1 2.293.528 5.5 5.5 0 0 1 5.208-3.684z" class="cls-6" data-name="Path 127" transform="translate(-229.404 -61.365)"/>
            </g>
        </g>
        <g id="Group_64" data-name="Group 64" transform="translate(1208.651 685.489)">
            <g id="Group_57" data-name="Group 57">
                <path id="Path_128" d="M204.849 262.734h.008l3.334-1.484.629-.272 3.342-1.484a.883.883 0 0 0 .451-1.166.89.89 0 0 0-1.166-.451l-3.342 1.476-.63.281-3.341 1.477a.211.211 0 0 1-.28-.11.214.214 0 0 1 .1-.28l.008-.007 2.728-1.2.629-.28 2.736-1.2a.9.9 0 0 0 .451-1.173.9.9 0 0 0-1.174-.451l-2.728 1.212-.629.272-2.729 1.212a.22.22 0 0 1-.287-.109.214.214 0 0 1 .1-.28l.008-.007 3.357-1.485a.887.887 0 0 0 .459-1.166.9.9 0 0 0-1.174-.459l-3.358 1.493c-2.93 1.3-4.126 1.827-5.689 3.482l3.039 6.856.171.4c1.034-.458 3.28.7 4.64.125.008-.007.016-.007.023-.016l.451-.194 2.907-1.291c1.073-.473.148-2.238-2.409-1.11l-1.306.575-.451.2-.109.047a.2.2 0 0 1-.28-.109h-.008a.215.215 0 0 1 .117-.28l2.293-1.018 2.735-1.213.63-.271 2.728-1.214a.888.888 0 0 0 .451-1.165.876.876 0 0 0-1.165-.451l-2.736 1.2-.63.28-2.727 1.2a.211.211 0 0 1-.28-.109.2.2 0 0 1 .1-.28z" class="cls-7" data-name="Path 128" transform="translate(-103.339 -202.477)"/>
                <path id="Path_129" d="M165.215 262.319c-8.752 3.824-16.065 15.381-22.019 16.874-11.23 2.813-15.956-15.118-29.371-16.68h-11.053c-19.943 2.324-23.084 23.815-28.135 54.942a26.009 26.009 0 0 0 7.8 1.43c3.7-14.829 6.132-28.913 11.269-36.833.5 11 6.412 20.107 4.4 27.623H118.5c-2.013-7.516 3.9-16.625 4.4-27.623 5.573 5.7 16.159 9.281 24.063 5.868s14.456-12.59 21.467-18.35c.041-2.3-1.615-6.123-3.215-7.251z" class="cls-8" data-name="Path 129" transform="translate(-71.887 -204.229)"/>
                <path id="Path_130" d="M116.613 203.489a9.715 9.715 0 1 0-9.715-9.715 9.739 9.739 0 0 0 9.715 9.715z" class="cls-9" data-name="Path 130" transform="translate(-80.202 -184.059)"/>
                <path id="Path_131" d="M119.986 184.059a9.715 9.715 0 1 1 0 19.43z" class="cls-10" data-name="Path 131" transform="translate(-83.575 -184.059)"/>
                <path id="Path_132" d="M112.916 197.148c31.641 0 22.252 43.043 0 43.043s-31.64-43.043 0-43.043z" class="cls-9" data-name="Path 132" transform="translate(-76.505 -187.433)"/>
                <path id="Path_133" d="M119.986 197.148c31.641 0 22.252 43.043 0 43.043z" class="cls-10" data-name="Path 133" transform="translate(-83.575 -187.433)"/>
                <path id="Rectangle_1484" d="M0 0h5.526v11.199H0z" class="cls-11" data-name="Rectangle 1484" transform="translate(30.885 47.084)"/>
                <path id="Rectangle_1485" d="M0 0h5.526v11.199H0z" class="cls-12" data-name="Rectangle 1485" transform="translate(36.411 47.084)"/>
                <path id="Path_134" d="M118.067 266.181a5.522 5.522 0 1 0-5.525-5.519 5.537 5.537 0 0 0 5.525 5.519z" class="cls-13" data-name="Path 134" transform="translate(-81.657 -202.378)"/>
                <path id="Path_135" d="M119.986 255.137a5.522 5.522 0 1 1 0 11.044z" class="cls-7" data-name="Path 135" transform="translate(-83.575 -202.378)"/>
                <path id="Path_136" d="M114.826 208.268c23.092 0 16.244 34.789 0 34.789s-23.09-34.789 0-34.789z" class="cls-13" data-name="Path 136" transform="translate(-78.415 -190.299)"/>
                <path id="Path_137" d="M118.753 208.268c23.092 0 16.244 34.789 0 34.789v-12.988l-3.552-1.182 3.552-4.609z" class="cls-7" data-name="Path 137" transform="translate(-82.342 -190.299)"/>
                <path id="Path_138" d="M119.986 207.985c8.154 0 12.653 4.244 14.372 9.793l-14.372-5.511z" class="cls-10" data-name="Path 138" transform="translate(-83.575 -190.226)"/>
                <path id="Path_139" d="M123.6 243.429a6.15 6.15 0 0 1-11.068 0z" class="cls-14" data-name="Path 139" transform="translate(-81.654 -199.361)"/>
                <path id="Path_140" d="M114.711 207.724c4.982 0 8.651 1.531 11.184 3.964l-26.861 10.3c.63-7.633 5.3-14.262 15.677-14.262z" class="cls-9" data-name="Path 140" transform="translate(-78.175 -190.158)"/>
                <path id="Path_141" d="M120.111 207.724c4.982 0 8.651 1.531 11.184 3.964l-11.309 4.336v-8.293c.039 0 .086-.007.125-.007z" class="cls-10" data-name="Path 141" transform="translate(-83.575 -190.158)"/>
                <path id="Path_142" d="M132.513 228l-1.312-.656a1.08 1.08 0 0 0-1.937.656 1.092 1.092 0 0 0 1.088 1.088 1.077 1.077 0 0 0 .851-.428z" class="cls-15" data-name="Path 142" transform="translate(-85.967 -195.105)"/>
                <path id="Path_143" d="M108.493 226.917a1.077 1.077 0 0 0-.848.424l-1.312.656 1.309.66a1.074 1.074 0 0 0 .851.428 1.084 1.084 0 1 0 0-2.168z" class="cls-15" data-name="Path 143" transform="translate(-80.056 -195.105)"/>
                <path id="Path_144" d="M99.148 448.786h6.482v7.322h-17.4c0-2.379 3.552-7.322 10.919-7.322z" class="cls-14" data-name="Path 144" transform="translate(-75.39 -252.289)"/>
                <path id="Path_145" d="M99.807 448.786h6.482c0 2.115-4.99 3.832-11.154 3.832a30.43 30.43 0 0 1-4.352-.3 12.107 12.107 0 0 1 9.024-3.529z" class="cls-7" data-name="Path 145" transform="translate(-76.049 -252.289)"/>
                <path id="Rectangle_1486" d="M0 0h17.402v2.13H0z" class="cls-16" data-name="Rectangle 1486" transform="translate(12.838 203.819)"/>
                <path id="Path_146" d="M124.542 326.119h-20.395c-12.031 13.516-2.409 43.267-2.409 91.051h6.435c2.432-34.9-.653-75.981 6.17-75.981s3.739 41.077 6.172 75.981h6.435c.001-47.784 9.623-77.535-2.408-91.051z" class="cls-17" data-name="Path 146" transform="translate(-77.933 -220.673)"/>
                <path id="Path_147" d="M109.553 447.475h-7.523l-.178-3.777 8.269.389z" class="cls-18" data-name="Path 147" transform="translate(-78.901 -250.977)"/>
                <path id="Path_148" d="M127.546 447.475h7.523l.178-3.777-8.277.389z" class="cls-18" data-name="Path 148" transform="translate(-85.376 -250.977)"/>
                <path id="Path_149" d="M134.782 448.786H128.3v7.322h17.4c0-2.379-3.552-7.322-10.92-7.322z" class="cls-14" data-name="Path 149" transform="translate(-85.718 -252.289)"/>
                <path id="Path_150" d="M134.782 448.786H128.3c0 2.115 4.99 3.832 11.153 3.832a30.418 30.418 0 0 0 4.353-.3 12.105 12.105 0 0 0-9.024-3.529z" class="cls-7" data-name="Path 150" transform="translate(-85.718 -252.289)"/>
                <path id="Rectangle_1487" d="M0 0h17.402v2.13H0z" class="cls-16" data-name="Rectangle 1487" transform="translate(42.582 203.819)"/>
                <path id="Path_151" d="M77.693 344.055l-.668 3.6-.125.669-.661 3.6a.885.885 0 0 1-1.033.707.886.886 0 0 1-.708-1.033l.661-3.598.124-.675.661-3.591a.213.213 0 0 0-.171-.249.213.213 0 0 0-.249.164v.007l-.544 2.944-.125.676-.544 2.938a.881.881 0 0 1-1.027.707.89.89 0 0 1-.714-1.034l.544-2.938.124-.668.544-2.938a.231.231 0 0 0-.179-.257.223.223 0 0 0-.249.171v.007l-.668 3.607a.888.888 0 0 1-1.026.716.9.9 0 0 1-.716-1.035l.669-3.613c.583-3.156.816-4.439 2.067-6.335l7.368 1.352.428.078c-.2 1.119 1.437 3.031 1.2 4.484v.032l-.094.482-.575 3.132c-.217 1.151-2.145.653-1.64-2.091l.256-1.406.094-.482.016-.117a.208.208 0 0 0-.171-.248.212.212 0 0 0-.249.17l-.458 2.472-.536 2.939-.125.676-.545 2.923a.891.891 0 0 1-1.034.716.88.88 0 0 1-.707-1.034l.537-2.939.125-.675.543-2.939a.211.211 0 0 0-.171-.248.211.211 0 0 0-.249.171z" class="cls-7" data-name="Path 151" transform="translate(-70.932 -223.374)"/>
                <path id="Path_152" d="M111.025 259.617l5.526 7.718-5.37 5.65-4.523-10.928z" class="cls-19" data-name="Path 152" transform="translate(-80.14 -203.533)"/>
                <path id="Path_153" d="M125.513 259.617l-5.526 7.718 5.371 5.65 4.523-10.928z" class="cls-14" data-name="Path 153" transform="translate(-83.575 -203.533)"/>
                <path id="Path_154" d="M112.512 237.825a.4.4 0 0 1 .551-.03.389.389 0 0 1 .031.543l-3.249 3.715a.385.385 0 1 1-.583-.5z" class="cls-12" data-name="Path 154" transform="translate(-80.787 -197.884)"/>
                <path id="Path_155" d="M125.43 238.338a.382.382 0 0 1 .039-.543.389.389 0 0 1 .543.03l3.257 3.723a.385.385 0 1 1-.583.5z" class="cls-11" data-name="Path 155" transform="translate(-84.954 -197.884)"/>
            </g>
            <g id="Group_58" data-name="Group 58" transform="translate(347.357 6.14)">
                <path id="Path_156" d="M631.991 192.331c29.224 0 20.55 39.328 0 39.328s-29.216-39.328 0-39.328z" class="cls-9" data-name="Path 156" transform="translate(-558.05 -192.331)"/>
                <path id="Path_157" d="M638.519 192.331c29.224 0 20.55 39.328 0 39.328z" class="cls-10" data-name="Path 157" transform="translate(-564.577 -192.331)"/>
                <path id="Rectangle_1488" d="M0 0h5.518v11.199H0z" class="cls-11" data-name="Rectangle 1488" transform="translate(68.424 40.944)"/>
                <path id="Rectangle_1489" d="M0 0h5.526v11.199H0z" class="cls-12" data-name="Rectangle 1489" transform="translate(73.941 40.944)"/>
                <path id="Path_158" d="M636.6 266.181a5.522 5.522 0 1 0-5.518-5.519 5.532 5.532 0 0 0 5.518 5.519z" class="cls-13" data-name="Path 158" transform="translate(-562.661 -208.518)"/>
                <path id="Path_159" d="M638.519 255.137a5.522 5.522 0 1 1 0 11.044z" class="cls-7" data-name="Path 159" transform="translate(-564.577 -208.518)"/>
                <path id="Path_160" d="M633.36 208.268c23.1 0 16.244 34.789 0 34.789s-23.091-34.789 0-34.789z" class="cls-13" data-name="Path 160" transform="translate(-559.418 -196.439)"/>
                <path id="Path_161" d="M637.285 208.268c23.1 0 16.244 34.789 0 34.789v-12.988l-3.552-1.182 3.552-4.609z" class="cls-7" data-name="Path 161" transform="translate(-563.344 -196.439)"/>
                <path id="Path_162" d="M638.519 207.985c8.161 0 12.661 4.244 14.379 9.793l-14.379-5.511z" class="cls-10" data-name="Path 162" transform="translate(-564.577 -196.366)"/>
                <path id="Path_163" d="M627.033 226.917a1.084 1.084 0 0 1 0 2.168 1.091 1.091 0 0 1-.871-.435l-1.3-.653 1.3-.645a1.091 1.091 0 0 1 .871-.435z" class="cls-15" data-name="Path 163" transform="translate(-561.058 -201.245)"/>
                <path id="Path_164" d="M642.132 243.429a6.151 6.151 0 0 1-11.069 0z" class="cls-14" data-name="Path 164" transform="translate(-562.656 -205.501)"/>
                <path id="Path_165" d="M633.254 207.724c4.982 0 8.643 1.531 11.184 3.964l-26.861 10.3c.622-7.633 5.3-14.262 15.677-14.262z" class="cls-9" data-name="Path 165" transform="translate(-559.18 -196.298)"/>
                <path id="Path_166" d="M638.651 207.724c4.982 0 8.643 1.531 11.184 3.964l-11.317 4.336v-8.293c.047 0 .085-.007.132-.007z" class="cls-10" data-name="Path 166" transform="translate(-564.577 -196.298)"/>
                <path id="Path_167" d="M649.75 227.352l1.3.645-1.3.653a1.063 1.063 0 0 1-.862.435 1.084 1.084 0 0 1 0-2.168 1.063 1.063 0 0 1 .862.435z" class="cls-15" data-name="Path 167" transform="translate(-566.971 -201.245)"/>
                <path id="Path_168" d="M640.14 303.067l8.581-3.264c-4.026-21.359-9.249-35.372-25.135-37.222h-11.045c-14.045 0-15.3 18.281-26.636 24.242-8.58 4.516-14.6 3.754-26.036.863a34.405 34.405 0 0 0-.73 7.889c14.969 5.208 19.267 4.866 26.223 2.962 9.272-2.541 15.171-11.892 18.109-16.416.5 11 6.4 20.107 4.391 27.623-12.024 13.516-2.4 38.333-2.4 86.116v4.935h6.438v-4.935c2.432-34.912-.661-71.046 6.163-71.046s3.739 36.133 6.171 71.046v4.935h6.435v-4.935c0-47.783 9.622-72.6-2.4-86.116-2.021-7.516 3.894-16.624 4.391-27.623 3.228 4.989 5.397 12.419 7.48 20.946z" class="cls-20" data-name="Path 168" transform="translate(-544.117 -210.437)"/>
                <path id="Path_169" d="M644.786 320.475h-19.609a13.422 13.422 0 0 1-.4 4.189h20.4a13.421 13.421 0 0 1-.391-4.189z" class="cls-21" data-name="Path 169" transform="translate(-561.037 -225.358)"/>
                <path id="Path_170" d="M617.681 448.786h6.49v7.322h-17.41c0-2.379 3.552-7.322 10.92-7.322z" class="cls-22" data-name="Path 170" transform="translate(-556.392 -258.429)"/>
                <path id="Path_171" d="M618.339 448.786h6.49c0 2.115-5 3.832-11.154 3.832a30.532 30.532 0 0 1-4.36-.3 12.108 12.108 0 0 1 9.024-3.529z" class="cls-7" data-name="Path 171" transform="translate(-557.05 -258.429)"/>
                <path id="Rectangle_1490" d="M0 0h17.41v2.13H0z" class="cls-23" data-name="Rectangle 1490" transform="translate(50.369 197.679)"/>
                <path id="Path_172" d="M653.323 448.786h-6.49v7.322h17.41c0-2.379-3.56-7.322-10.92-7.322z" class="cls-22" data-name="Path 172" transform="translate(-566.72 -258.429)"/>
                <path id="Path_173" d="M653.323 448.786h-6.49c0 2.115 5 3.832 11.152 3.832a30.62 30.62 0 0 0 4.361-.3 12.121 12.121 0 0 0-9.024-3.529z" class="cls-7" data-name="Path 173" transform="translate(-566.72 -258.429)"/>
                <path id="Rectangle_1491" d="M0 0h17.41v2.13H0z" class="cls-23" data-name="Rectangle 1491" transform="translate(80.113 197.679)"/>
                <path id="Path_174" d="M547.837 297.474h-.007l-3.638-.334-.684-.062-3.637-.334a.9.9 0 0 0-.964.8.879.879 0 0 0 .8.963l3.638.334.684.062 3.638.334a.231.231 0 0 1 .194.241.209.209 0 0 1-.226.194h-.008l-2.977-.28-.683-.062-2.967-.27a.884.884 0 0 0-.964.8.879.879 0 0 0 .8.963l2.969.272.684.07 2.977.272a.221.221 0 0 1 .194.233.2.2 0 0 1-.226.194h-.007l-3.661-.334a.889.889 0 0 0-.964.8.9.9 0 0 0 .8.964l3.661.334c3.195.3 4.492.413 6.661-.28l.691-7.461.039-.428c-1.128-.108-2.526-2.207-3.995-2.37h-.024l-.489-.047-3.172-.288c-1.165-.109-1.212 1.889 1.563 2.145l1.422.125.489.047.125.016a.213.213 0 0 1 .195.232.223.223 0 0 1-.234.2l-2.5-.234-2.977-.272-.684-.062-2.976-.272a.886.886 0 0 0-.964.8.9.9 0 0 0 .808.963l2.969.272.684.062 2.976.272a.221.221 0 0 1 .194.234.213.213 0 0 1-.226.194z" class="cls-7" data-name="Path 174" transform="translate(-538.903 -218.213)"/>
                <path id="Path_175" d="M630.876 237.972a.4.4 0 0 1 .552-.031.376.376 0 0 1 .03.544l-3.248 3.715a.385.385 0 1 1-.583-.5z" class="cls-12" data-name="Path 175" transform="translate(-561.746 -204.062)"/>
                <path id="Path_176" d="M643.795 238.485a.383.383 0 0 1 .039-.544.39.39 0 0 1 .544.031l3.256 3.723a.385.385 0 1 1-.583.5z" class="cls-11" data-name="Path 176" transform="translate(-565.913 -204.062)"/>
                <path id="Path_177" d="M707.679 233.917c-14.184 0-15.637-4.811-15.637-8.355 0-6.8-1.127-18.544 15.637-18.4 16.765-.14 15.63 11.6 15.63 18.4 0 3.544-1.453 8.355-15.63 8.355z" class="cls-9" data-name="Path 177" transform="translate(-578.368 -196.152)"/>
                <path id="Path_178" d="M713.114 207.158c16.765-.14 15.63 11.6 15.63 18.4 0 3.544-1.453 8.355-15.63 8.355z" class="cls-10" data-name="Path 178" transform="translate(-583.803 -196.152)"/>
                <path id="Path_179" d="M703.615 261.182c-1.75-.078-5.813-.039-7.469-.039s-5.728-.039-7.477.039c-35.317 1.531-59.9 37.75-23.231 60.2a25.829 25.829 0 0 0 4.33-8.659c-15.918-13.259-11.285-27.047 2.456-33.809l2.565 48.615H717.5l2.565-48.615c13.733 6.762 18.366 20.55 2.455 33.809a25.8 25.8 0 0 0 4.322 8.659c36.681-22.45 12.09-58.669-23.227-60.2z" class="cls-22" data-name="Path 179" transform="translate(-566.835 -210.064)"/>
                <path id="Path_180" d="M681.847 337.072h.008l3.987 2 .747.373 3.995 2a1.082 1.082 0 0 1 .482 1.445 1.086 1.086 0 0 1-1.453.49l-3.987-2-.753-.373-3.987-2a.266.266 0 0 0-.35.117.263.263 0 0 0 .108.35l.008.007 3.264 1.625.746.38 3.264 1.626a1.093 1.093 0 0 1 .482 1.453 1.087 1.087 0 0 1-1.453.49l-3.256-1.632-.754-.381-3.264-1.625a.255.255 0 0 0-.35.117.268.268 0 0 0 .108.35h.008l4.01 2.006a1.085 1.085 0 0 1 .49 1.453 1.1 1.1 0 0 1-1.453.482l-4.011-2.006c-3.5-1.75-4.935-2.464-6.738-4.578l4.1-8.184.233-.474c1.235.621 4.033-.661 5.666.117.008.007.015.007.031.016l.537.272 3.474 1.734c1.283.645.039 2.743-3.008 1.22l-1.554-.785-.537-.264-.132-.07a.276.276 0 0 0-.358.117.275.275 0 0 0 .117.357l2.743 1.368 3.265 1.632.753.381 3.256 1.624a1.091 1.091 0 0 1 .49 1.454 1.081 1.081 0 0 1-1.453.482l-3.264-1.625-.746-.381-3.264-1.632a.262.262 0 0 0-.35.125.259.259 0 0 0 .108.35z" class="cls-7" data-name="Path 180" transform="translate(-573.14 -227.927)"/>
                <path id="Path_181" d="M736.623 445.435h-11.6v9.273h25.447c0-5.1-8.745-9.273-13.843-9.273z" class="cls-14" data-name="Path 181" transform="translate(-586.872 -257.565)"/>
                <path id="Path_182" d="M751.235 449.161c-.288-.2-.584-.4-.887-.591l-2.169 2.791a.525.525 0 0 0 .094.745.525.525 0 0 0 .747-.093zm-2.527-1.508a20.285 20.285 0 0 0-1-.465l-2.254 2.907a.531.531 0 0 0 .093.745.535.535 0 0 0 .755-.093zm-2.806-1.158c-.365-.117-.73-.232-1.1-.327l-2.067 2.659a.531.531 0 0 0 .094.746.534.534 0 0 0 .754-.094z" class="cls-24" data-name="Path 182" transform="translate(-591.41 -257.754)"/>
                <path id="Path_183" d="M726.886 350.579h-42.717c-1.314 25.8.179 48.965 2.441 70.408h10.081c.24-15.544-2-55.913 8.837-55.913s8.6 40.369 8.837 55.913h10.073c2.262-21.443 3.753-44.612 2.448-70.408z" class="cls-25" data-name="Path 183" transform="translate(-576.217 -233.117)"/>
                <path id="Path_184" d="M680.761 445.435h11.612v9.273h-25.446c0-5.1 8.736-9.273 13.834-9.273z" class="cls-14" data-name="Path 184" transform="translate(-571.899 -257.565)"/>
                <path id="Path_185" d="M671.994 449.161c.288-.2.583-.4.894-.591l2.169 2.791a.537.537 0 0 1-.094.745.534.534 0 0 1-.754-.093zm2.526-1.508c.327-.163.661-.318 1-.465l2.254 2.907a.523.523 0 0 1-.093.745.524.524 0 0 1-.746-.093zm2.807-1.158c.373-.117.739-.232 1.1-.327l2.067 2.659a.531.531 0 0 1-.094.746.524.524 0 0 1-.745-.094z" class="cls-24" data-name="Path 185" transform="translate(-573.205 -257.754)"/>
                <path id="Path_186" d="M694.683 226.7a2.475 2.475 0 1 0-2.48-2.471 2.479 2.479 0 0 0 2.48 2.471z" class="cls-7" data-name="Path 186" transform="translate(-578.414 -199.914)"/>
                <path id="Path_187" d="M729.708 226.7a2.475 2.475 0 1 0-2.48-2.471 2.484 2.484 0 0 0 2.48 2.471z" class="cls-7" data-name="Path 187" transform="translate(-587.441 -199.914)"/>
                <path id="Rectangle_1492" d="M0 0h5.526v11.192H0z" class="cls-11" data-name="Rectangle 1492" transform="translate(123.784 39.887)"/>
                <path id="Rectangle_1493" d="M0 0h5.518v11.192H0z" class="cls-12" data-name="Rectangle 1493" transform="translate(129.311 39.887)"/>
                <path id="Path_188" d="M708.89 238.777a11.31 11.31 0 0 1-11.044-8.362c-1.842-6.871-3.179-27.257 11.044-27.047 14.223-.21 12.879 20.176 11.044 27.047a11.316 11.316 0 0 1-11.044 8.362z" class="cls-13" data-name="Path 188" transform="translate(-579.58 -195.175)"/>
                <path id="Path_189" d="M710.966 249.559a12.24 12.24 0 0 1-6.187-1.764 8.661 8.661 0 0 1 12.365 0 12.209 12.209 0 0 1-6.179 1.764z" class="cls-10" data-name="Path 189" transform="translate(-581.655 -205.957)"/>
                <path id="Path_190" d="M711.613 203.367c14.223-.21 12.879 20.176 11.044 27.047a11.316 11.316 0 0 1-11.044 8.362v-12.42l-4.321-1.151 4.321-5.721z" class="cls-7" data-name="Path 190" transform="translate(-582.303 -195.175)"/>
                <path id="Path_191" d="M719.293 247.795a12.208 12.208 0 0 1-6.179 1.764V245.2a8.125 8.125 0 0 1 6.179 2.6z" class="cls-26" data-name="Path 191" transform="translate(-583.803 -205.957)"/>
                <path id="Path_192" d="M716.749 239.032a5.686 5.686 0 0 1-11.153 0z" class="cls-14" data-name="Path 192" transform="translate(-581.866 -204.368)"/>
                <path id="Path_193" d="M701.917 224.577a1.092 1.092 0 1 0-1.1-1.087 1.091 1.091 0 0 0 1.1 1.087z" class="cls-15" data-name="Path 193" transform="translate(-580.635 -200.079)"/>
                <path id="Path_194" d="M723.553 224.577a1.092 1.092 0 1 0-1.088-1.087 1.091 1.091 0 0 0 1.088 1.087z" class="cls-15" data-name="Path 194" transform="translate(-586.213 -200.079)"/>
                <path id="Path_195" d="M707.733 220.625h1.578a3.112 3.112 0 0 1 .249-.373 2.49 2.49 0 0 1 .909-.73 2.625 2.625 0 0 1 1.127-.249h9.109a2.508 2.508 0 0 1 1.1.241 2.637 2.637 0 0 1 .894.691c.8.964.474 2.262.334 3.381l-.148.832a5.951 5.951 0 0 1-3.039 4.181 7.668 7.668 0 0 1-3.482.894 7.54 7.54 0 0 1-3.512-.746 5.863 5.863 0 0 1-3.28-4.049l-.257-1.112h-3.178l-.249 1.112a5.905 5.905 0 0 1-3.28 4.049 7.871 7.871 0 0 1-7-.148 5.913 5.913 0 0 1-3.04-4.181l-.155-.832c-.14-1.119-.466-2.417.342-3.381a2.6 2.6 0 0 1 .886-.691 2.529 2.529 0 0 1 1.1-.241h9.108a2.659 2.659 0 0 1 1.135.249 2.473 2.473 0 0 1 .9.73 1.909 1.909 0 0 1 .248.373zm-12.979-.179h9.108a1.389 1.389 0 0 1 1.112.537 1.39 1.39 0 0 1 .279.575 1.351 1.351 0 0 1-.007.637l-.514 2.23a4.724 4.724 0 0 1-2.635 3.256 6.693 6.693 0 0 1-5.914-.117 4.79 4.79 0 0 1-2.457-3.373c-.163-.94-.715-2.425-.062-3.233a1.4 1.4 0 0 1 1.089-.513zm25.951 0H711.6a1.493 1.493 0 0 0-.622.14 1.656 1.656 0 0 0-.489.4 1.512 1.512 0 0 0-.28.575 1.361 1.361 0 0 0 .007.637l.513 2.23a4.767 4.767 0 0 0 2.635 3.256 6.711 6.711 0 0 0 5.923-.117 4.783 4.783 0 0 0 2.449-3.373c.17-.94.722-2.425.069-3.233a1.452 1.452 0 0 0-.5-.381 1.353 1.353 0 0 0-.6-.132z" class="cls-22" data-name="Path 195" transform="translate(-578.423 -199.275)"/>
                <path id="Path_196" d="M737.63 337.072h-.008l-3.995 2-.746.373-3.987 2a1.079 1.079 0 0 0-.49 1.445 1.091 1.091 0 0 0 1.454.49l3.994-2 .747-.373 3.987-2a.278.278 0 0 1 .359.117.266.266 0 0 1-.117.35v.007l-3.264 1.625-.755.38-3.256 1.626a1.09 1.09 0 0 0-.491 1.453 1.092 1.092 0 0 0 1.453.49l3.265-1.632.746-.381 3.264-1.625a.253.253 0 0 1 .35.117.261.261 0 0 1-.109.35h-.007l-4.011 2.006a1.087 1.087 0 0 0-.481 1.453 1.09 1.09 0 0 0 1.453.482l4.01-2.006c3.506-1.75 4.928-2.464 6.732-4.578l-4.088-8.184-.234-.474c-1.243.621-4.042-.661-5.666.117-.016.007-.023.007-.031.016l-.536.272-3.472 1.732c-1.282.645-.046 2.743 3 1.22l1.562-.785.536-.264.132-.07a.267.267 0 0 1 .35.117.261.261 0 0 1-.117.357l-2.743 1.368-3.264 1.632-.746.381-3.265 1.624a1.1 1.1 0 0 0-.482 1.454 1.076 1.076 0 0 0 1.453.482l3.257-1.625.753-.381 3.264-1.632a.263.263 0 0 1 .35.125.267.267 0 0 1-.108.35z" class="cls-7" data-name="Path 196" transform="translate(-587.715 -227.927)"/>
                <path id="Path_197" d="M710.22 293.2a.883.883 0 1 1-.886.879.885.885 0 0 1 .886-.879zm0 34.059a.886.886 0 1 1-.886.886.886.886 0 0 1 .886-.886zm0-8.511a.882.882 0 1 1-.886.878.884.884 0 0 1 .886-.878zm0-8.517a.886.886 0 1 1-.886.886.886.886 0 0 1 .886-.886zm0-8.519a.886.886 0 1 1-.886.886.886.886 0 0 1 .886-.886z" class="cls-14" data-name="Path 197" transform="translate(-582.829 -218.328)"/>
                <path id="Path_198" d="M711.2 261.147h-5.526l5.526 19.508z" class="cls-13" data-name="Path 198" transform="translate(-581.884 -210.067)"/>
                <path id="Path_199" d="M713.114 261.147h5.518l-5.518 19.508z" class="cls-7" data-name="Path 199" transform="translate(-583.803 -210.067)"/>
                <path id="Path_200" d="M711.813 269.617h-3.746l3.746 13.221 3.738-13.221z" class="cls-14" data-name="Path 200" transform="translate(-582.503 -212.25)"/>
                <path id="Rectangle_1494" d="M0 0h25.446v2.666H0z" class="cls-16" data-name="Rectangle 1494" transform="translate(138.148 197.143)"/>
                <path id="Rectangle_1495" d="M0 0h25.446v2.666H0z" class="cls-16" data-name="Rectangle 1495" transform="translate(95.028 197.143)"/>
                <path id="Path_201" d="M705.919 234.233a.388.388 0 0 1 .583.513l-3.257 3.715a.382.382 0 0 1-.543.039.392.392 0 0 1-.039-.551z" class="cls-12" data-name="Path 201" transform="translate(-581.085 -203.097)"/>
                <path id="Path_202" d="M718.829 234.746a.388.388 0 0 1 .583-.513l3.256 3.715a.392.392 0 0 1-.039.551.383.383 0 0 1-.544-.039z" class="cls-11" data-name="Path 202" transform="translate(-585.252 -203.097)"/>
                <path id="Path_203" d="M676.848 312.727c1.026 5.447 1.974 11.386 3 17.72a26.014 26.014 0 0 1-7.8 1.43c-1.368-5.487-2.565-10.873-3.785-15.886z" class="cls-20" data-name="Path 203" transform="translate(-572.245 -223.361)"/>
                <path id="Path_204" d="M676.736 344.055l.66 3.6.124.669.661 3.6a.889.889 0 0 0 1.033.707.891.891 0 0 0 .716-1.033l-.669-3.598-.124-.675-.661-3.591a.214.214 0 0 1 .171-.249.214.214 0 0 1 .249.164l.007.007.537 2.939.124.676.544 2.938a.886.886 0 0 0 1.034.707.886.886 0 0 0 .707-1.034l-.536-2.938-.124-.668-.545-2.938a.22.22 0 0 1 .171-.257.219.219 0 0 1 .249.171v.007l.668 3.607a.892.892 0 0 0 1.034.716.886.886 0 0 0 .707-1.035l-.661-3.613c-.583-3.156-.824-4.439-2.075-6.335l-7.368 1.352-.428.078c.21 1.119-1.438 3.031-1.2 4.484 0 .008.008.024.008.032l.085.482.583 3.132c.209 1.151 2.145.653 1.64-2.091l-.264-1.406-.086-.482-.023-.117a.207.207 0 0 1 .171-.248.207.207 0 0 1 .249.17l.459 2.472.544 2.939.124.676.537 2.93a.9.9 0 0 0 1.033.716.89.89 0 0 0 .715-1.034l-.543-2.939-.125-.675-.544-2.939a.223.223 0 0 1 .179-.248.217.217 0 0 1 .249.171z" class="cls-7" data-name="Path 204" transform="translate(-573.135 -229.514)"/>
                <path id="Path_205" d="M640.7 256.508c-1.842 0-3.684.3-5.526.3s-3.676-.3-5.518-.3c-1.283.256-2.713 1.577-4.12 5.1 3.249 2.58 4.85 14.309 9.638 14.309s6.4-11.729 9.646-14.309c-1.42-3.523-2.839-4.844-4.12-5.1z" class="cls-27" data-name="Path 205" transform="translate(-561.231 -208.872)"/>
            </g>
            <g id="Group_59" data-name="Group 59" transform="translate(168.687 10.384)">
                <path id="Path_206" d="M447.9 262.58h-11.043c-11.145 1.3-17.705 18.367-25.959 30.111a35.021 35.021 0 0 1-7.609 7.5l3.941 6.412a62.27 62.27 0 0 0 20.557-24.484c.5 11 6.412 20.107 4.391 27.623h20.4c-2.021-7.516 3.893-16.624 4.391-27.623 5.137 7.92 7.578 22 11.27 36.833a25.959 25.959 0 0 0 7.8-1.43c-5.054-31.127-8.194-52.622-28.139-54.942z" class="cls-28" data-name="Path 206" transform="translate(-325.28 -214.68)"/>
                <path id="Path_207" d="M365.112 261.144c1.655 0 5.72-.039 7.469.039 35.317 1.531 59.908 37.75 23.231 60.2a25.8 25.8 0 0 1-4.322-8.659c23.317-19.43 2.527-39.988-26.379-37.929v-13.651z" class="cls-7" data-name="Path 207" transform="translate(-315.44 -214.307)"/>
                <path id="Path_208" d="M348.145 261.144c-1.655 0-5.729-.039-7.477.039-35.309 1.531-59.9 37.75-23.231 60.2a25.826 25.826 0 0 0 4.329-8.659c-23.316-19.43-2.533-39.988 26.379-37.929v-13.651z" class="cls-7" data-name="Path 208" transform="translate(-298.473 -214.307)"/>
                <path id="Path_209" d="M355.657 261.182c-1.75-.078-5.814-.039-7.469-.039s-5.729-.039-7.477.039c-21.879.949-39.631 15.21-41.263 31.26l12.4 1.422.008-.007c.7-6.149 5.355-11.472 12.4-14.946l2.565 48.615h42.716l2.565-48.615c7.049 3.475 11.7 8.8 12.4 14.946l.007.007 12.4-1.422c-1.621-16.05-19.373-30.311-41.252-31.26z" class="cls-27" data-name="Path 209" transform="translate(-298.516 -214.307)"/>
                <path id="Path_210" d="M333.845 337.072h.008l3.987 2 .746.373 4 2a1.082 1.082 0 0 1 .482 1.445 1.086 1.086 0 0 1-1.454.49l-3.987-2-.753-.373-3.987-2a.267.267 0 0 0-.35.117.262.262 0 0 0 .108.35l.008.007 3.264 1.625.746.38 3.264 1.626a1.093 1.093 0 0 1 .482 1.453 1.088 1.088 0 0 1-1.454.49l-3.256-1.632-.754-.381-3.264-1.625a.255.255 0 0 0-.35.117.267.267 0 0 0 .108.35h.008l4.01 2.006a1.085 1.085 0 0 1 .491 1.453 1.1 1.1 0 0 1-1.453.482l-4.011-2.006c-3.5-1.75-4.935-2.464-6.738-4.578l4.1-8.184.232-.474c1.236.621 4.034-.661 5.666.117.008.007.015.007.031.016l.537.272 3.473 1.734c1.283.645.039 2.743-3.007 1.22l-1.555-.785-.536-.264-.133-.07a.275.275 0 0 0-.357.117.273.273 0 0 0 .117.357l2.744 1.368 3.264 1.632.754.381 3.256 1.624a1.09 1.09 0 0 1 .489 1.454 1.08 1.08 0 0 1-1.453.482l-3.264-1.625-.746-.381-3.264-1.632a.261.261 0 0 0-.35.125.258.258 0 0 0 .108.35z" class="cls-7" data-name="Path 210" transform="translate(-304.777 -232.17)"/>
                <path id="Path_211" d="M388.621 445.435h-11.6v9.273h25.446c0-5.1-8.745-9.273-13.843-9.273z" class="cls-29" data-name="Path 211" transform="translate(-318.509 -261.809)"/>
                <path id="Path_212" d="M403.232 449.161c-.287-.2-.583-.4-.886-.591l-2.169 2.791a.531.531 0 0 0 .094.745.524.524 0 0 0 .746-.093zm-2.527-1.508c-.326-.163-.66-.318-.995-.465l-2.253 2.907a.531.531 0 0 0 .093.745.534.534 0 0 0 .754-.093zm-2.8-1.158c-.365-.117-.73-.232-1.1-.327l-2.067 2.659a.532.532 0 0 0 .093.746.534.534 0 0 0 .754-.094z" class="cls-30" data-name="Path 212" transform="translate(-323.047 -261.998)"/>
                <path id="Path_213" d="M378.883 350.579h-42.716c-1.314 25.8.178 48.965 2.441 70.408h10.08c.241-15.544-2-55.913 8.837-55.913s8.6 40.369 8.837 55.913h10.073c2.265-21.443 3.754-44.612 2.448-70.408z" class="cls-17" data-name="Path 213" transform="translate(-307.853 -237.361)"/>
                <path id="Path_214" d="M378.97 350.579h-42.715c-.094 1.858-.179 3.7-.241 5.534H379.2q-.09-2.751-.23-5.534z" class="cls-31" data-name="Path 214" transform="translate(-307.94 -237.361)"/>
                <path id="Path_215" d="M332.759 445.435h11.612v9.273h-25.446c0-5.1 8.736-9.273 13.834-9.273z" class="cls-29" data-name="Path 215" transform="translate(-303.536 -261.809)"/>
                <path id="Path_216" d="M323.992 449.161c.288-.2.583-.4.894-.591l2.169 2.791a.537.537 0 0 1-.094.745.533.533 0 0 1-.753-.093zm2.526-1.508c.327-.163.661-.318.995-.465l2.254 2.907a.523.523 0 0 1-.094.745.524.524 0 0 1-.745-.093zm2.806-1.158c.373-.117.738-.232 1.1-.327l2.067 2.659a.531.531 0 0 1-.094.746.524.524 0 0 1-.745-.094z" class="cls-30" data-name="Path 216" transform="translate(-304.842 -261.998)"/>
                <path id="Path_217" d="M346.681 226.7a2.475 2.475 0 1 0-2.48-2.471 2.479 2.479 0 0 0 2.48 2.471z" class="cls-13" data-name="Path 217" transform="translate(-310.051 -204.158)"/>
                <path id="Path_218" d="M381.706 226.7a2.475 2.475 0 1 0-2.479-2.471 2.484 2.484 0 0 0 2.479 2.471z" class="cls-7" data-name="Path 218" transform="translate(-319.078 -204.158)"/>
                <path id="Path_219" d="M360.888 238.777a11.311 11.311 0 0 1-11.045-8.362c-1.842-6.871-3.178-27.257 11.045-27.047 14.223-.21 12.878 20.176 11.044 27.047a11.316 11.316 0 0 1-11.044 8.362z" class="cls-13" data-name="Path 219" transform="translate(-311.216 -199.419)"/>
                <path id="Rectangle_1496" d="M0 0h5.526v11.192H0z" class="cls-11" data-name="Rectangle 1496" transform="translate(44.146 35.644)"/>
                <path id="Rectangle_1497" d="M0 0h5.518v11.192H0z" class="cls-12" data-name="Rectangle 1497" transform="translate(49.672 35.644)"/>
                <path id="Path_220" d="M363.611 203.367c14.223-.21 12.878 20.176 11.044 27.047a11.316 11.316 0 0 1-11.044 8.362v-12.42l-4.321-1.151 4.321-5.721z" class="cls-7" data-name="Path 220" transform="translate(-313.939 -199.419)"/>
                <path id="Path_221" d="M368.746 239.032a5.685 5.685 0 0 1-11.152 0z" class="cls-14" data-name="Path 221" transform="translate(-313.502 -208.611)"/>
                <path id="Path_222" d="M353.915 224.577a1.092 1.092 0 1 0-1.1-1.087 1.091 1.091 0 0 0 1.1 1.087z" class="cls-32" data-name="Path 222" transform="translate(-312.272 -204.323)"/>
                <path id="Path_223" d="M375.551 224.577a1.092 1.092 0 1 0-1.088-1.087 1.091 1.091 0 0 0 1.088 1.087z" class="cls-32" data-name="Path 223" transform="translate(-317.85 -204.323)"/>
                <path id="Path_224" d="M363.193 264.754a5.527 5.527 0 1 0-5.526-5.526 5.537 5.537 0 0 0 5.526 5.526z" class="cls-13" data-name="Path 224" transform="translate(-313.521 -212.392)"/>
                <path id="Path_225" d="M365.112 253.7a5.522 5.522 0 0 1 0 11.045z" class="cls-7" data-name="Path 225" transform="translate(-315.44 -212.392)"/>
                <path id="Path_226" d="M318.925 457.928h25.446v2.666H343a1.274 1.274 0 1 0-2.549 0h-1.481a1.275 1.275 0 1 0-2.55 0h-1.484a1.275 1.275 0 1 0-2.55 0H330.9a1.274 1.274 0 1 0-2.549 0h-1.476a1.275 1.275 0 1 0-2.55 0h-1.484a1.274 1.274 0 1 0-2.549 0h-1.368z" class="cls-30" data-name="Path 226" transform="translate(-303.536 -265.029)"/>
                <path id="Path_227" d="M389.628 337.072h-.007l-4 2-.745.373-3.987 2a1.079 1.079 0 0 0-.49 1.445 1.09 1.09 0 0 0 1.453.49l3.995-2 .747-.373 3.987-2a.277.277 0 0 1 .358.117.266.266 0 0 1-.117.35v.007l-3.264 1.625-.754.38-3.256 1.626a1.09 1.09 0 0 0-.49 1.453 1.092 1.092 0 0 0 1.453.49l3.264-1.632.747-.381 3.264-1.625a.253.253 0 0 1 .35.117.261.261 0 0 1-.109.35h-.007l-4.011 2.006a1.088 1.088 0 0 0-.482 1.453 1.09 1.09 0 0 0 1.453.482l4.01-2.006c3.506-1.75 4.928-2.464 6.732-4.578l-4.088-8.184-.234-.474c-1.243.621-4.042-.661-5.665.117-.016.007-.025.007-.031.016l-.537.272-3.467 1.732c-1.282.645-.047 2.743 3 1.22l1.562-.785.536-.264.132-.07a.266.266 0 0 1 .35.117.26.26 0 0 1-.116.357l-2.744 1.368-3.264 1.632-.746.381-3.264 1.624a1.1 1.1 0 0 0-.482 1.454 1.076 1.076 0 0 0 1.453.482l3.257-1.625.753-.381 3.264-1.632a.264.264 0 0 1 .35.125.267.267 0 0 1-.11.35z" class="cls-7" data-name="Path 227" transform="translate(-319.352 -232.17)"/>
                <path id="Path_228" d="M311.763 305.054l-13.57-1.889.66-7.36 15.793 2.712z" class="cls-33" data-name="Path 228" transform="translate(-298.192 -223.243)"/>
                <path id="Path_229" d="M412.741 305.054l13.57-1.889-.653-7.36-15.793 2.712z" class="cls-33" data-name="Path 229" transform="translate(-326.975 -223.243)"/>
                <path id="Path_230" d="M356.15 258.184l5.526 7.718-5.371 5.65-4.523-10.928z" class="cls-33" data-name="Path 230" transform="translate(-312.004 -213.547)"/>
                <path id="Path_231" d="M370.631 258.184l-5.518 7.718 5.363 5.65 4.531-10.928z" class="cls-33" data-name="Path 231" transform="translate(-315.44 -213.547)"/>
                <path id="Path_232" d="M362.218 284.285a.886.886 0 1 1-.886.886.886.886 0 0 1 .886-.886zm0-8.511a.882.882 0 1 1-.886.878.885.885 0 0 1 .886-.878zm0 42.577a.886.886 0 1 1-.886.885.886.886 0 0 1 .886-.885zm0-8.519a.886.886 0 1 1-.886.886.886.886 0 0 1 .886-.886zm0-8.511a.882.882 0 1 1-.886.879.885.885 0 0 1 .886-.879zm0-8.517a.886.886 0 1 1-.886.886.886.886 0 0 1 .886-.886z" class="cls-34" data-name="Path 232" transform="translate(-314.466 -218.081)"/>
                <path id="Path_233" d="M377.018 457.928h25.446v2.666h-1.376a1.274 1.274 0 1 0-2.549 0h-1.477a1.274 1.274 0 1 0-2.549 0h-1.485a1.275 1.275 0 1 0-2.55 0H389a1.279 1.279 0 0 0-2.557 0h-1.477a1.274 1.274 0 1 0-2.549 0h-1.485a1.275 1.275 0 1 0-2.55 0h-1.367z" class="cls-30" data-name="Path 233" transform="translate(-318.509 -265.029)"/>
                <path id="Path_234" d="M360.471 198.949c8.8 0 16.461 2.557 12.093 17.992a22.352 22.352 0 0 1-3.722-8.814 40.378 40.378 0 0 1-16.75 0 22.225 22.225 0 0 1-3.722 8.814c-4.368-15.435 3.3-17.992 12.1-17.992z" class="cls-35" data-name="Path 234" transform="translate(-310.799 -198.28)"/>
                <path id="Path_235" d="M365.112 198.949c8.8 0 16.461 2.557 12.093 17.992a22.352 22.352 0 0 1-3.722-8.814 34.949 34.949 0 0 1-8.371.878z" class="cls-36" data-name="Path 235" transform="translate(-315.44 -198.28)"/>
                <path id="Path_236" d="M362.464 350.223h2.8a1.638 1.638 0 0 1 1.151.482 1.615 1.615 0 0 1 .474 1.15v2.791a1.614 1.614 0 0 1-.474 1.149 1.635 1.635 0 0 1-1.151.482h-2.8a1.634 1.634 0 0 1-1.151-.482 1.614 1.614 0 0 1-.474-1.149v-2.791a1.615 1.615 0 0 1 .474-1.15 1.637 1.637 0 0 1 1.151-.482zm2.8 1.08h-2.8a.52.52 0 0 0-.38.163.552.552 0 0 0-.164.389v2.791a.553.553 0 0 0 .164.388.519.519 0 0 0 .38.163h2.8a.519.519 0 0 0 .38-.163.552.552 0 0 0 .163-.388v-2.791a.551.551 0 0 0-.163-.389.52.52 0 0 0-.38-.163z" class="cls-37" data-name="Path 236" transform="translate(-314.339 -237.269)"/>
                <path id="Path_237" d="M365.625 354.118a.545.545 0 0 1 .544-.544h2.464a.538.538 0 0 1 .535.544.536.536 0 0 1-.535.536h-2.464a.544.544 0 0 1-.544-.536z" class="cls-38" data-name="Path 237" transform="translate(-315.572 -238.133)"/>
                <path id="Path_238" d="M448.914 198.048c19.035 0 23.146 23.651 18.537 42.375h-37.066c-4.609-18.724-.5-42.375 18.529-42.375z" class="cls-35" data-name="Path 238" transform="translate(-331.818 -198.048)"/>
                <path id="Path_239" d="M455.947 198.048c19.035 0 23.146 23.651 18.537 42.375h-18.537z" class="cls-36" data-name="Path 239" transform="translate(-338.852 -198.048)"/>
                <path id="Rectangle_1498" d="M0 0h5.518v11.199H0z" class="cls-11" data-name="Rectangle 1498" transform="translate(111.577 36.701)"/>
                <path id="Rectangle_1499" d="M0 0h5.526v11.199H0z" class="cls-12" data-name="Rectangle 1499" transform="translate(117.096 36.701)"/>
                <path id="Path_240" d="M450.788 208.268c23.1 0 16.244 34.789 0 34.789s-23.091-34.789 0-34.789z" class="cls-13" data-name="Path 240" transform="translate(-333.692 -200.682)"/>
                <path id="Path_241" d="M454.717 208.268c23.1 0 16.244 34.789 0 34.789v-12.988l-3.544-1.182 3.544-4.609z" class="cls-7" data-name="Path 241" transform="translate(-337.621 -200.682)"/>
                <path id="Path_242" d="M455.947 207.985c8.161 0 12.662 4.244 14.378 9.793l-14.378-5.511z" class="cls-36" data-name="Path 242" transform="translate(-338.852 -200.609)"/>
                <path id="Path_243" d="M444.462 226.917a1.084 1.084 0 0 1 0 2.168 1.062 1.062 0 0 1-.863-.435l-1.306-.65 1.306-.645a1.062 1.062 0 0 1 .863-.435z" class="cls-15" data-name="Path 243" transform="translate(-335.332 -205.489)"/>
                <path id="Path_244" d="M459.559 243.429a6.149 6.149 0 0 1-11.067 0z" class="cls-14" data-name="Path 244" transform="translate(-336.93 -209.744)"/>
                <path id="Path_245" d="M450.682 207.724c4.982 0 8.65 1.531 11.184 3.964l-26.86 10.3c.629-7.633 5.3-14.262 15.676-14.262z" class="cls-35" data-name="Path 245" transform="translate(-333.454 -200.542)"/>
                <path id="Path_246" d="M456.079 207.724c4.982 0 8.65 1.531 11.184 3.964l-11.317 4.336v-8.293c.047 0 .085-.007.132-.007z" class="cls-36" data-name="Path 246" transform="translate(-338.852 -200.542)"/>
                <path id="Path_247" d="M467.177 227.352l1.306.645-1.306.653a1.062 1.062 0 0 1-.863.435 1.084 1.084 0 0 1 0-2.168 1.062 1.062 0 0 1 .863.435z" class="cls-15" data-name="Path 247" transform="translate(-341.245 -205.489)"/>
                <path id="Path_248" d="M450.307 326.119h-10.2c-12.023 13.516-2.4 43.267-2.4 91.051h6.435c2.432-34.9-.661-75.981 6.163-75.981z" class="cls-39" data-name="Path 248" transform="translate(-333.211 -231.057)"/>
                <path id="Path_249" d="M435.108 448.786h6.49v7.322h-17.41c0-2.379 3.552-7.322 10.919-7.322z" class="cls-22" data-name="Path 249" transform="translate(-330.666 -262.672)"/>
                <path id="Path_250" d="M435.767 448.786h6.49c0 2.115-5 3.832-11.153 3.832a30.532 30.532 0 0 1-4.36-.3 12.106 12.106 0 0 1 9.023-3.529z" class="cls-39" data-name="Path 250" transform="translate(-331.325 -262.672)"/>
                <path id="Rectangle_1500" d="M0 0h17.409v2.13H0z" class="cls-23" data-name="Rectangle 1500" transform="translate(93.523 193.436)"/>
                <path id="Path_251" d="M470.752 448.786h-6.49v7.322h17.409c0-2.379-3.552-7.322-10.919-7.322z" class="cls-22" data-name="Path 251" transform="translate(-340.995 -262.672)"/>
                <path id="Path_252" d="M468.609 417.17h-.054c0-47.784 9.621-77.535-2.4-91.051h-10.208v15.07c6.832 0 3.739 41.077 6.172 75.981 0 2.115 5 3.832 11.153 3.832a30.532 30.532 0 0 0 4.36-.3 12.1 12.1 0 0 0-9.023-3.532z" class="cls-39" data-name="Path 252" transform="translate(-338.852 -231.057)"/>
                <path id="Rectangle_1501" d="M0 0h17.409v2.13H0z" class="cls-23" data-name="Rectangle 1501" transform="translate(123.267 193.436)"/>
                <path id="Path_253" d="M494.163 344.055l.661 3.6.124.669.661 3.6a.893.893 0 0 0 1.034.707.891.891 0 0 0 .715-1.033L496.69 348l-.125-.675-.661-3.591a.213.213 0 0 1 .171-.249.226.226 0 0 1 .257.164v.007l.537 2.939.124.676.544 2.938a.885.885 0 0 0 1.034.707.88.88 0 0 0 .707-1.034l-.537-2.938-.125-.668-.544-2.938a.221.221 0 0 1 .171-.257.217.217 0 0 1 .248.171v.007l.67 3.607a.891.891 0 0 0 1.033.716.885.885 0 0 0 .707-1.035l-.661-3.613c-.583-3.156-.825-4.439-2.075-6.335l-7.368 1.352-.427.078c.209 1.119-1.439 3.031-1.2 4.484a.051.051 0 0 1 .007.032l.086.482.583 3.132c.21 1.151 2.145.653 1.64-2.091l-.265-1.406-.085-.482-.023-.117a.208.208 0 0 1 .171-.248.219.219 0 0 1 .257.17l.451 2.472.544 2.939.125.676.543 2.93a.888.888 0 0 0 1.027.716.892.892 0 0 0 .715-1.034l-.544-2.939-.125-.675-.543-2.939a.223.223 0 0 1 .178-.248.215.215 0 0 1 .249.171z" class="cls-7" data-name="Path 253" transform="translate(-347.409 -233.758)"/>
                <path id="Path_254" d="M385.95 338.5v.008l-.661 3.59-.124.677-.661 3.6a.9.9 0 0 1-1.034.707.891.891 0 0 1-.715-1.033l.669-3.591.125-.675.66-3.591a.209.209 0 0 0-.171-.249.207.207 0 0 0-.249.164l-.008.007-.537 2.939-.124.676-.544 2.938a.891.891 0 0 1-1.034.707.887.887 0 0 1-.707-1.034l.537-2.938.125-.676.543-2.938a.211.211 0 0 0-.17-.249.213.213 0 0 0-.249.171l-.669 3.615a.89.89 0 0 1-1.033.715.889.889 0 0 1-.707-1.034l.66-3.613c.583-3.156.825-4.439 2.075-6.343l7.368 1.36.428.078c-.209 1.119 1.439 3.031 1.2 4.484 0 .008-.008.016-.008.031l-.085.482-.583 3.124c-.21 1.158-2.145.661-1.64-2.084l.265-1.407.085-.481.023-.117a.22.22 0 0 0-.171-.257.219.219 0 0 0-.249.179l-.459 2.472-.544 2.938-.125.669-.536 2.938a.9.9 0 0 1-1.034.716.9.9 0 0 1-.715-1.034l.544-2.939.125-.675.544-2.939a.223.223 0 0 0-.179-.248.215.215 0 0 0-.249.163z" class="cls-7" data-name="Path 254" transform="translate(-319.07 -232.328)"/>
                <path id="Path_255" d="M456.083 326.119h-20.4c-5.277 3.054-10.026 18.156-18.8 25.788 4.624 8.013 19.859 9.047 29 9.047s24.382-1.034 29.006-9.047c-8.78-7.632-13.528-22.734-18.806-25.788z" class="cls-22" data-name="Path 255" transform="translate(-328.783 -231.057)"/>
                <path id="Path_256" d="M454.031 278.98l-5.518-16.4h5.518z" class="cls-13" data-name="Path 256" transform="translate(-336.935 -214.68)"/>
                <path id="Path_257" d="M455.947 278.98l5.526-16.4h-5.526z" class="cls-7" data-name="Path 257" transform="translate(-338.852 -214.68)"/>
                <path id="Path_258" d="M455.731 287.932a.625.625 0 1 0 .629.622.624.624 0 0 0-.629-.622zm0 24.086a.625.625 0 1 0 .629.622.624.624 0 0 0-.629-.622zm0-6.023a.625.625 0 1 0 .629.629.625.625 0 0 0-.629-.629zm0-6.024a.626.626 0 1 0 .629.63.626.626 0 0 0-.629-.63zm0-6.015a.626.626 0 1 0 .629.622.624.624 0 0 0-.629-.622z" class="cls-22" data-name="Path 258" transform="translate(-338.636 -221.214)"/>
                <path id="Path_259" d="M454.444 280.205v-12.871h-4.329z" class="cls-19" data-name="Path 259" transform="translate(-337.348 -215.906)"/>
                <path id="Path_260" d="M455.947 280.205v-12.871h4.337z" class="cls-14" data-name="Path 260" transform="translate(-338.852 -215.906)"/>
                <path id="Path_261" d="M398.035 313.25c-6.156 4.679-12.964 8.246-15.133 13.213a26.017 26.017 0 0 0 7.8 1.438c1.453-2.067 5.876-4.321 11.278-8.238z" class="cls-28" data-name="Path 261" transform="translate(-320.025 -227.74)"/>
            </g>
            <g id="Group_60" data-name="Group 60" transform="translate(502.969 139.294)">
                <path id="Path_262" d="M767.721 378.489l7.251 8.783v-15.551z" class="cls-40" data-name="Path 262" transform="translate(-753.49 -371.721)"/>
                <path id="Path_263" d="M773.262 410.369a2.839 2.839 0 0 0-2.83 2.829v32.309a2.84 2.84 0 0 0 2.83 2.837 2.841 2.841 0 0 0 2.836-2.837V413.2a2.84 2.84 0 0 0-2.836-2.829z" class="cls-40" data-name="Path 263" transform="translate(-754.188 -381.682)"/>
                <path id="Path_264" d="M811.03 427.164a2.839 2.839 0 0 0-2.829 2.829v19.842a2.84 2.84 0 0 0 2.829 2.837 2.842 2.842 0 0 0 2.836-2.837v-19.842a2.841 2.841 0 0 0-2.836-2.829z" class="cls-40" data-name="Path 264" transform="translate(-763.923 -386.01)"/>
                <path id="Path_265" d="M773.782 400.223h36.825a3.359 3.359 0 0 1 3.349 3.348v20.092a3.353 3.353 0 0 1-3.349 3.342h-16.625l-23.55-13.391v-10.043a3.359 3.359 0 0 1 3.35-3.348z" class="cls-41" data-name="Path 265" transform="translate(-754.188 -379.067)"/>
                <path id="Path_266" d="M802.251 392.877q3.252 1.876 6.5 3.746c0-6.242-.342-14.194-4.554-16.633 1.2 6.179.31 10.772-1.951 12.887zM770.47 378.49h-14.635a5.594 5.594 0 0 0-5.58 5.573v8.028a5.6 5.6 0 0 0 5.58 5.581h12.537a13.324 13.324 0 0 0-3.14 8.6 13.445 13.445 0 0 0 9.824 12.909v16.368a2.841 2.841 0 0 0 2.829 2.837 2.842 2.842 0 0 0 2.838-2.837v-15.89h14.643a13.291 13.291 0 0 0 7.725-2.464v18.349a2.841 2.841 0 0 0 2.83 2.837 2.842 2.842 0 0 0 2.836-2.837V415.7a2.851 2.851 0 0 0-1.857-2.657 13.235 13.235 0 0 0 1.857-6.778 13.437 13.437 0 0 0-13.391-13.391h-16.742c-.327 0-.653.014-.972.038a5.812 5.812 0 0 0 .062-.824v-20.37z" class="cls-41" data-name="Path 266" transform="translate(-748.988 -371.721)"/>
                <path id="Path_267" d="M771.915 390.85a3.152 3.152 0 1 0-3.147-3.147 3.157 3.157 0 0 0 3.147 3.147z" class="cls-40" data-name="Path 267" transform="translate(-753.759 -375.027)"/>
                <path id="Path_268" d="M751.152 386.683a2.607 2.607 0 1 0-2.6-2.6 2.611 2.611 0 0 0 2.6 2.6z" class="cls-15" data-name="Path 268" transform="translate(-748.548 -374.233)"/>
                <path id="Path_269" d="M771.838 388.33a.991.991 0 1 0-.987-.986.988.988 0 0 0 .987.986z" class="cls-15" data-name="Path 269" transform="translate(-754.296 -375.491)"/>
                <path id="Path_270" d="M764.712 403.478l.762 1.3a2.087 2.087 0 0 1-.73 2.853 2.09 2.09 0 0 1-2.853-.739l-2.013-3.412z" class="cls-42" data-name="Path 270" transform="translate(-751.468 -379.906)"/>
                <path id="Path_271" d="M768.977 404.3l13.562-6.871 1.081 2.076-13.563 6.948z" class="cls-43" data-name="Path 271" transform="translate(-753.813 -378.346)"/>
            </g>
            <g id="Group_61" data-name="Group 61" transform="translate(311.794 81.78)">
                <path id="Path_272" d="M539.791 301.7c-.233-.6.016-1.461-.21-2.067-1.2-2.844-5.2-6.42-9.209-5.129-9.4 3.031-3.264 17.572-8.635 24.7 10.127.4 8.589-22.1 14.838-17.5z" class="cls-35" data-name="Path 272" transform="translate(-498.915 -294.236)"/>
                <path id="Path_273" d="M563.819 301.7c.226-.6-.023-1.461.21-2.067 1.189-2.844 5.192-6.42 9.21-5.129 9.4 3.031 3.264 17.572 8.635 24.7-10.128.4-8.589-22.1-14.838-17.5z" class="cls-36" data-name="Path 273" transform="translate(-509.762 -294.236)"/>
                <path id="Path_274" d="M550.509 323.121c18.591 0 15.351-25.672 0-25.672s-18.6 25.672 0 25.672z" class="cls-35" data-name="Path 274" transform="translate(-503.042 -295.064)"/>
                <path id="Path_275" d="M554.939 323.121c18.591 0 15.351-25.672 0-25.672z" class="cls-36" data-name="Path 275" transform="translate(-507.473 -295.064)"/>
                <path id="Path_276" d="M553.73 340.331a3.478 3.478 0 1 0-3.481-3.481 3.483 3.483 0 0 0 3.481 3.481z" class="cls-13" data-name="Path 276" transform="translate(-506.264 -304.324)"/>
                <path id="Path_277" d="M554.939 333.375a3.478 3.478 0 0 1 0 6.956z" class="cls-7" data-name="Path 277" transform="translate(-507.473 -304.324)"/>
                <path id="Path_278" d="M496.3 346.587l-2.06-1.034-.388-.187-2.052-1.034a.574.574 0 0 0-.755.249.569.569 0 0 0 .257.755l2.052 1.025.388.194 2.061 1.026a.138.138 0 0 1 .054.187.132.132 0 0 1-.171.062l-.007-.009-1.679-.838-.389-.194-1.686-.84a.559.559 0 0 0-.746.249.565.565 0 0 0 .249.754l1.686.839.381.194 1.687.839a.139.139 0 0 1 .062.178.135.135 0 0 1-.179.062h-.007l-2.067-1.033a.554.554 0 0 0-.746.249.555.555 0 0 0 .249.746l2.067 1.033a9.059 9.059 0 0 0 3.971 1.369l2.115-4.221.116-.249c-.637-.318-.971-1.865-1.8-2.3-.007 0-.015 0-.015-.007l-.28-.14-1.787-.894c-.661-.327-1.15.831.428 1.616l.8.4.28.14.062.032c.071.03.062.108.062.178 0 .077-.116.093-.178.062l-1.415-.707-1.686-.84-.382-.194-1.686-.84a.557.557 0 0 0-.747.249.556.556 0 0 0 .249.746l1.678.839.389.194 1.686.848a.128.128 0 0 1 .056.178.139.139 0 0 1-.18.063z" class="cls-7" data-name="Path 278" transform="translate(-490.991 -306.91)"/>
                <path id="Path_279" d="M551.261 378.076H542.8c-5.083 10.772.528 33.079.528 54.227v3.109h4.049c2.021-21.988-1.779-47.854 3.886-47.854z" class="cls-7" data-name="Path 279" transform="translate(-503.795 -315.845)"/>
                <path id="Path_280" d="M541.81 455.32h4.09v4.6h-10.96c0-1.493 2.239-4.6 6.87-4.6z" class="cls-15" data-name="Path 280" transform="translate(-502.318 -335.753)"/>
                <path id="Rectangle_1502" d="M0 0h3.482v6.443H0z" class="cls-11" data-name="Rectangle 1502" transform="translate(43.985 26.082)"/>
                <path id="Rectangle_1503" d="M0 0h3.474v6.443H0z" class="cls-12" data-name="Rectangle 1503" transform="translate(47.466 26.082)"/>
                <path id="Path_281" d="M551.435 302.392c15.685 0 11.029 23.62 0 23.62s-15.683-23.62 0-23.62z" class="cls-13" data-name="Path 281" transform="translate(-503.969 -296.338)"/>
                <path id="Path_282" d="M553.865 302.392c15.685 0 11.029 23.62 0 23.62v-8.884l-3.093-1.2 3.093-1.725z" class="cls-7" data-name="Path 282" transform="translate(-506.399 -296.338)"/>
                <path id="Path_283" d="M546.281 316.067a.843.843 0 1 0-.839-.839.836.836 0 0 0 .839.839z" class="cls-15" data-name="Path 283" transform="translate(-505.025 -299.428)"/>
                <path id="Path_284" d="M563.013 316.067a.843.843 0 0 0 0-1.686.843.843 0 1 0 0 1.686z" class="cls-15" data-name="Path 284" transform="translate(-509.335 -299.428)"/>
                <path id="Path_285" d="M558.11 324.914a5.4 5.4 0 0 1-9.715 0z" class="cls-14" data-name="Path 285" transform="translate(-505.786 -302.143)"/>
                <path id="Path_286" d="M554.939 378.076h8.461c5.09 10.772-.52 33.079-.52 54.227v3.109h-4.05c-2.02-21.988 1.772-47.854-3.886-47.854z" class="cls-7" data-name="Path 286" transform="translate(-507.473 -315.845)"/>
                <path id="Path_287" d="M564.256 455.32h-4.081v4.6h10.959c0-1.493-2.238-4.6-6.878-4.6z" class="cls-22" data-name="Path 287" transform="translate(-508.822 -335.753)"/>
                <path id="Path_288" d="M550.683 301.061c4.111 0 7.08 1.329 9.07 3.412l-21.327 7.446c.591-5.845 4.267-10.859 12.256-10.859z" class="cls-35" data-name="Path 288" transform="translate(-503.217 -295.995)"/>
                <path id="Path_289" d="M554.939 301.061c4.111 0 7.08 1.329 9.07 3.412l-9.07 3.172z" class="cls-36" data-name="Path 289" transform="translate(-507.473 -295.995)"/>
                <path id="Path_290" d="M546.965 426.158h-5.736c.552 6.063 1.034 12.351 1.034 18.537v3.105h-.039a7.637 7.637 0 0 0-5.681 2.216 18.954 18.954 0 0 0 2.743.194c3.879 0 7.026-1.08 7.026-2.409.653-7.147.699-14.701.653-21.643z" class="cls-44" data-name="Path 290" transform="translate(-502.731 -328.237)"/>
                <path id="Path_291" d="M564.024 447.8h-.031v-3.1c0-6.187.482-12.474 1.033-18.537h-5.735c-.048 6.942-.008 14.5.652 21.646 0 1.329 3.14 2.409 7.019 2.409a18.787 18.787 0 0 0 2.743-.194 7.609 7.609 0 0 0-5.681-2.224z" class="cls-44" data-name="Path 291" transform="translate(-508.591 -328.237)"/>
                <path id="Path_292" d="M556.535 378.076h-16.92c-4.586 6.676-3.1 15.622-11.294 19.6 4.8 2.324 13.221 2.379 19.757 2.379s14.963-.055 19.75-2.379c-8.184-3.976-6.707-12.924-11.293-19.6z" class="cls-44" data-name="Path 292" transform="translate(-500.613 -315.845)"/>
                <path id="Path_293" d="M578.375 355.186l-2.231-4.462c-20.014 9.157-16-12.668-31.594-12.668h-6.956c-12.3 0-13.284 17.892-34.214 7.523-.815 1.633-1.414 2.838-2.23 4.47 14.5 7.648 21.459 5.643 32.729-1.555.116 8.036.435 14.456-1.267 19.268h16.92c-1.694-4.811-1.376-11.231-1.259-19.268 11.263 7.197 9.949 14.962 30.102 6.692z" class="cls-8" data-name="Path 293" transform="translate(-493.61 -305.53)"/>
                <path id="Path_294" d="M606.646 353.508l2.06-1.026.388-.194 2.06-1.027a.552.552 0 0 1 .745.249.557.557 0 0 1-.249.746l-2.06 1.027-.388.194-2.052 1.034a.13.13 0 0 0-.062.179.129.129 0 0 0 .179.062l1.686-.84.381-.194 1.686-.84a.55.55 0 0 1 .747.249.558.558 0 0 1-.249.746l-1.679.839-.389.194-1.686.84a.138.138 0 0 0-.054.186.136.136 0 0 0 .178.062l2.068-1.041a.567.567 0 0 1 .753.257.559.559 0 0 1-.256.745l-2.067 1.034a9.144 9.144 0 0 1-3.972 1.361l-2.107-4.221-.124-.241c.637-.318.971-1.873 1.8-2.3 0-.007.008-.007.016-.007l.272-.14 1.8-.894c.661-.335 1.142.823-.427 1.617l-.808.4-.272.14-.07.031a.141.141 0 0 0-.062.186.14.14 0 0 0 .179.062l1.422-.707 1.679-.846.388-.194 1.679-.84a.573.573 0 0 1 .754.249.568.568 0 0 1-.257.754l-1.679.84-.388.194-1.679.84a.132.132 0 0 0-.062.178.13.13 0 0 0 .179.062z" class="cls-7" data-name="Path 294" transform="translate(-519.65 -308.695)"/>
            </g>
            <g id="Group_62" data-name="Group 62" transform="translate(43.351 8.402)">
                <path id="Rectangle_1504" d="M0 0h5.526v11.192H0z" class="cls-11" data-name="Rectangle 1504" transform="translate(42.663 37.626)"/>
                <path id="Rectangle_1505" d="M0 0h5.526v11.192H0z" class="cls-12" data-name="Rectangle 1505" transform="translate(48.189 37.626)"/>
                <path id="Path_295" d="M189.311 195.378c22.135 0 15.568 38.34 0 38.34s-22.136-38.34 0-38.34z" class="cls-9" data-name="Path 295" transform="translate(-141.122 -195.378)"/>
                <path id="Path_296" d="M194.257 195.378c22.135 0 15.567 38.34 0 38.34z" class="cls-10" data-name="Path 296" transform="translate(-146.068 -195.378)"/>
                <path id="Path_297" d="M175.828 226.7a2.475 2.475 0 1 0-2.471-2.471 2.479 2.479 0 0 0 2.471 2.471z" class="cls-7" data-name="Path 297" transform="translate(-140.682 -202.176)"/>
                <path id="Path_298" d="M210.854 226.7a2.475 2.475 0 1 0-2.471-2.471 2.479 2.479 0 0 0 2.471 2.471z" class="cls-7" data-name="Path 298" transform="translate(-149.709 -202.176)"/>
                <path id="Path_299" d="M189.646 238.777c-12.031 0-13.267-3.155-13.267-8.362 0-10-.955-27.257 13.267-27.047 14.223-.21 13.267 17.044 13.267 27.047 0 5.207-1.235 8.362-13.267 8.362z" class="cls-13" data-name="Path 299" transform="translate(-141.457 -197.437)"/>
                <path id="Path_300" d="M192.756 203.367c14.223-.21 13.267 17.044 13.267 27.047 0 5.207-1.235 8.362-13.267 8.362v-12.42l-4.321-1.151 4.321-5.721z" class="cls-7" data-name="Path 300" transform="translate(-144.568 -197.437)"/>
                <path id="Path_301" d="M183.062 224.577a1.092 1.092 0 1 0-1.087-1.087 1.091 1.091 0 0 0 1.087 1.087z" class="cls-15" data-name="Path 301" transform="translate(-142.903 -202.341)"/>
                <path id="Path_302" d="M204.7 224.577a1.092 1.092 0 1 0-1.089-1.087 1.091 1.091 0 0 0 1.089 1.087z" class="cls-15" data-name="Path 302" transform="translate(-148.478 -202.341)"/>
                <path id="Path_303" d="M207.884 350.579h-42.716c-1.313 25.8-1.352 48.965.909 70.408h15.645c.234-15.544-6.031-55.913 4.8-55.913s4.57 40.369 4.8 55.913h15.645c2.27-21.443 2.233-44.612.917-70.408z" class="cls-45" data-name="Path 303" transform="translate(-138.338 -235.379)"/>
                <path id="Path_304" d="M182.491 261.147h-9.933c-35.348 0-62.411 37.789-25.741 60.235a35.107 35.107 0 0 0 4.329-8.659c-15.91-13.259-11.278-27.047 2.455-33.809l2.565 48.615h42.716l2.565-48.615c13.734 6.762 18.367 20.55 2.457 33.809a24.7 24.7 0 0 0 4.329 8.659c36.667-22.446 9.606-60.235-25.742-60.235z" class="cls-46" data-name="Path 304" transform="translate(-129.336 -212.329)"/>
                <path id="Path_305" d="M186.708 340.841H164.97l.381 7.228h42.716l.381-7.228z" class="cls-47" data-name="Path 305" transform="translate(-138.52 -232.869)"/>
                <path id="Path_306" d="M218.774 337.072h-.007l-3.987 2-.754.373-3.987 2a1.068 1.068 0 0 0-.481 1.445 1.085 1.085 0 0 0 1.453.49l3.987-2 .747-.373 3.995-2a.267.267 0 0 1 .349.117.262.262 0 0 1-.108.35l-.008.007-3.264 1.625-.745.38-3.265 1.626a1.085 1.085 0 0 0-.481 1.453 1.086 1.086 0 0 0 1.453.49l3.256-1.632.754-.381 3.257-1.625a.263.263 0 0 1 .357.117.267.267 0 0 1-.108.35h-.008l-4.018 2.006a1.088 1.088 0 0 0-.482 1.453 1.091 1.091 0 0 0 1.453.482l4.011-2.006c3.506-1.75 4.928-2.464 6.738-4.578l-4.1-8.184-.232-.474c-1.236.621-4.042-.661-5.666.117-.007.007-.023.007-.031.016l-.536.272-3.474 1.734c-1.283.645-.048 2.743 3.008 1.22l1.554-.785.537-.264.132-.07a.278.278 0 0 1 .357.117.269.269 0 0 1-.125.357l-2.743 1.368-3.256 1.632-.753.381-3.265 1.624a1.094 1.094 0 0 0-.481 1.454 1.076 1.076 0 0 0 1.453.482l3.264-1.625.746-.381 3.264-1.632a.264.264 0 0 1 .35.125.266.266 0 0 1-.108.35z" class="cls-7" data-name="Path 306" transform="translate(-149.981 -230.189)"/>
                <path id="Path_307" d="M192.338 264.754a5.527 5.527 0 1 0-5.525-5.526 5.543 5.543 0 0 0 5.525 5.526z" class="cls-13" data-name="Path 307" transform="translate(-144.15 -210.41)"/>
                <path id="Path_308" d="M194.257 253.7a5.522 5.522 0 1 1 0 11.045z" class="cls-7" data-name="Path 308" transform="translate(-146.068 -210.41)"/>
                <path id="Path_309" d="M161.9 445.435h11.612v9.273H148.07c0-5.1 8.736-9.273 13.834-9.273z" class="cls-48" data-name="Path 309" transform="translate(-134.164 -259.827)"/>
                <path id="Path_310" d="M217.775 445.435h-11.612v9.273h25.446c0-5.1-8.735-9.273-13.834-9.273z" class="cls-48" data-name="Path 310" transform="translate(-149.137 -259.827)"/>
                <path id="Path_311" d="M162.991 337.072H163l3.987 2 .753.373 3.988 2a1.069 1.069 0 0 1 .481 1.445 1.079 1.079 0 0 1-1.445.49l-3.995-2-.747-.373-3.995-2a.266.266 0 0 0-.349.117.262.262 0 0 0 .108.35l.007.007 3.264 1.625.746.38 3.265 1.626a1.08 1.08 0 0 1 .481 1.453 1.087 1.087 0 0 1-1.453.49l-3.256-1.632-.753-.381-3.257-1.625a.264.264 0 0 0-.358.117.268.268 0 0 0 .109.35h.008l4.018 2.006a1.088 1.088 0 0 1 .482 1.453 1.09 1.09 0 0 1-1.453.482l-4.01-2.006c-3.506-1.75-4.928-2.464-6.738-4.578l4.1-8.184.234-.474c1.236.621 4.042-.661 5.666.117.007.007.024.007.031.016l.536.272 3.475 1.734c1.282.645.047 2.743-3.008 1.22l-1.555-.785-.536-.264-.132-.07a.277.277 0 0 0-.357.117.27.27 0 0 0 .123.357l2.744 1.368 3.257 1.632.753.381 3.264 1.624a1.094 1.094 0 0 1 .482 1.454 1.076 1.076 0 0 1-1.453.482l-3.264-1.625-.747-.381-3.264-1.632a.263.263 0 0 0-.35.125.267.267 0 0 0 .109.35z" class="cls-7" data-name="Path 311" transform="translate(-135.406 -230.189)"/>
                <path id="Rectangle_1506" d="M0 0h25.446v2.666H0z" class="cls-49" data-name="Rectangle 1506" transform="translate(57.026 194.881)"/>
                <path id="Rectangle_1507" d="M0 0h25.446v2.666H0z" class="cls-49" data-name="Rectangle 1507" transform="translate(13.906 194.881)"/>
                <path id="Path_312" d="M185.3 258.184l5.526 7.718-5.371 5.65-4.523-10.928z" class="cls-50" data-name="Path 312" transform="translate(-142.633 -211.565)"/>
                <path id="Path_313" d="M199.783 258.184l-5.526 7.718 5.371 5.65 4.523-10.928z" class="cls-14" data-name="Path 313" transform="translate(-146.068 -211.565)"/>
                <path id="Path_314" d="M189.65 258.356c-10.827 0-13.229-9.56-13.267-18.381a29.663 29.663 0 0 1 26.534 0c-.039 8.821-2.441 18.381-13.267 18.381z" class="cls-9" data-name="Path 314" transform="translate(-141.462 -206.065)"/>
                <path id="Path_315" d="M207.524 239.975v.537c-.016 8.689-2.821 17.844-13.267 17.844v-21.513a27.138 27.138 0 0 1 13.267 3.132z" class="cls-10" data-name="Path 315" transform="translate(-146.068 -206.065)"/>
                <path id="Path_316" d="M197.9 239.032a5.681 5.681 0 0 1-11.145 0z" class="cls-14" data-name="Path 316" transform="translate(-144.133 -206.629)"/>
                <path id="Path_317" d="M178.249 230.058c-3.318 2.386-2.316 4.866-.4 5.519s5.954-1.135 8.433-2.247a3.389 3.389 0 0 1 2.907-.093 3.39 3.39 0 0 1 2.907.093c2.479 1.112 6.521 2.907 8.432 2.247s2.915-3.132-.4-5.519c8.782 3.816.358 14.286-10.041 9.179a5.819 5.819 0 0 1-.894-.536 5.845 5.845 0 0 1-.894.536c-10.4 5.107-18.825-5.363-10.042-9.179z" class="cls-51" data-name="Path 317" transform="translate(-140.996 -204.316)"/>
            </g>
            <g id="Group_63" data-name="Group 63" transform="translate(108.355 76.121)">
                <path id="Path_318" d="M336.215 341.923l.008-.008 2.51-1.251.474-.241 2.51-1.251a.686.686 0 0 1 .918.3.677.677 0 0 1-.311.909l-2.511 1.26-.474.232-2.51 1.26a.163.163 0 0 0-.07.225.163.163 0 0 0 .217.071l2.051-1.026.474-.234 2.06-1.033a.684.684 0 0 1 .909.31.673.673 0 0 1-.3.909l-2.052 1.026-.474.242-2.052 1.025a.169.169 0 0 0-.078.226.166.166 0 0 0 .217.07h.007l2.526-1.26a.675.675 0 0 1 .91.3.673.673 0 0 1-.3.909l-2.526 1.267c-2.207 1.1-3.1 1.555-4.851 1.663l-2.58-5.153-.147-.295c.776-.39 1.188-2.285 2.2-2.814a.026.026 0 0 0 .016-.007l.342-.172 2.184-1.095c.808-.4 1.4 1.018-.52 1.974l-.979.489-.342.171-.078.039a.17.17 0 0 0-.077.226.165.165 0 0 0 .226.07l1.725-.863 2.052-1.027.474-.233 2.059-1.026a.674.674 0 0 1 .909.3.674.674 0 0 1-.3.909l-2.052 1.034-.474.233-2.052 1.025a.169.169 0 0 0-.078.226.175.175 0 0 0 .217.078z" class="cls-7" data-name="Path 318" transform="translate(-246.257 -299.866)"/>
                <path id="Path_319" d="M304.62 341.681c-5.612 2.191-7.213 3.684-12.1 2.992-4.749-.677-3.972-9.351-21.055-9.351h-6.257c-17.091 0-16.314 8.674-21.055 9.351-4.9.692-6.5-.8-12.109-2.992a3076.91 3076.91 0 0 1-2.727 5.447c4.406 4.4 13 6.4 18.746 3.6a130.04 130.04 0 0 0 5.285-2.72l1.531 29.123h26.908l1.539-29.123c1.4.762 3.1 1.663 5.277 2.72 5.744 2.8 14.348.8 18.747-3.6-.741-1.468-1.992-3.986-2.73-5.447z" class="cls-52" data-name="Path 319" transform="translate(-220.109 -299.166)"/>
                <path id="Path_320" d="M223.4 341.923v-.008l-2.518-1.251-.474-.241-2.511-1.251a.672.672 0 0 0-.909.3.673.673 0 0 0 .3.909l2.51 1.26.474.232 2.51 1.26a.166.166 0 0 1 .078.225.167.167 0 0 1-.217.071h-.008l-2.052-1.026-.474-.234-2.052-1.033a.694.694 0 0 0-.917.31.674.674 0 0 0 .3.909l2.059 1.026.466.242 2.061 1.025a.173.173 0 0 1 .069.226.166.166 0 0 1-.217.07l-2.533-1.26a.674.674 0 0 0-.909.3.673.673 0 0 0 .3.909l2.526 1.267c2.207 1.1 3.1 1.555 4.851 1.663l2.579-5.153.148-.295c-.777-.39-1.188-2.285-2.2-2.814-.007 0-.007-.007-.016-.007l-.342-.172-2.184-1.095c-.808-.4-1.4 1.018.521 1.974l.979.489.342.171.078.039a.17.17 0 0 1 .077.226.165.165 0 0 1-.226.07l-1.725-.863-2.052-1.027-.474-.233-2.052-1.026a.682.682 0 0 0-.917.3.674.674 0 0 0 .3.909l2.052 1.034.474.233 2.061 1.025a.173.173 0 0 1 .069.226.175.175 0 0 1-.217.078z" class="cls-7" data-name="Path 320" transform="translate(-216.912 -299.866)"/>
                <path id="Path_321" d="M234.863 344.814l-2.821-.925-2.728 5.448 1.974 2.23z" class="cls-19" data-name="Path 321" transform="translate(-220.109 -301.374)"/>
                <path id="Rectangle_1508" d="M0 0h3.482v6.443H0z" class="cls-11" data-name="Rectangle 1508" transform="translate(44.74 29.714)"/>
                <path id="Rectangle_1509" d="M0 0h3.482v6.443H0z" class="cls-12" data-name="Rectangle 1509" transform="translate(48.222 29.714)"/>
                <path id="Path_322" d="M277.462 286.611c19.765 0 13.9 29.714 0 29.714s-19.764-29.714 0-29.714z" class="cls-35" data-name="Path 322" transform="translate(-229.24 -286.611)"/>
                <path id="Path_323" d="M281.878 286.611c19.765 0 13.9 29.714 0 29.714z" class="cls-36" data-name="Path 323" transform="translate(-233.656 -286.611)"/>
                <path id="Path_324" d="M266.5 313a2.339 2.339 0 1 0-2.34-2.339A2.341 2.341 0 0 0 266.5 313z" class="cls-7" data-name="Path 324" transform="translate(-229.09 -292.206)"/>
                <path id="Path_325" d="M295.631 313a2.339 2.339 0 1 0-2.339-2.339 2.341 2.341 0 0 0 2.339 2.339z" class="cls-7" data-name="Path 325" transform="translate(-236.598 -292.206)"/>
                <path id="Path_326" d="M278.111 295.041c16.858 0 11.861 25.4 0 25.4s-16.858-25.4 0-25.4z" class="cls-13" data-name="Path 326" transform="translate(-229.889 -288.784)"/>
                <path id="Path_327" d="M280.723 295.041c16.858 0 11.861 25.4 0 25.4v-9.56l-3.327-1.29 3.327-1.85z" class="cls-7" data-name="Path 327" transform="translate(-232.501 -288.784)"/>
                <path id="Path_328" d="M285.313 319.26a5.364 5.364 0 0 1-10.524 0z" class="cls-14" data-name="Path 328" transform="translate(-231.829 -295.026)"/>
                <path id="Path_329" d="M272.571 309.742a.906.906 0 1 0-.9-.9.909.909 0 0 0 .9.9z" class="cls-15" data-name="Path 329" transform="translate(-231.025 -292.106)"/>
                <path id="Path_330" d="M290.557 309.742a.906.906 0 0 0 0-1.811.906.906 0 1 0 0 1.811z" class="cls-15" data-name="Path 330" transform="translate(-235.659 -292.106)"/>
                <path id="Path_331" d="M278.543 294.444c4.843 0 8.013 1.943 9.816 4.8-3.591 1.758-8.519.981-12.4 3.288.381-1.959 3.241-3.141 2.588-4.982-1.935 3.172-7.555 2.285-9.567 5.09-.171-1.748 2.277-3.046.924-4.9 1.889-2 4.718-3.287 8.643-3.287z" class="cls-35" data-name="Path 331" transform="translate(-230.329 -288.63)"/>
                <path id="Path_332" d="M281.868 294.444c4.842 0 8.013 1.943 9.816 4.8-2.829 1.384-6.49 1.2-9.816 2.185v-2.791a1.584 1.584 0 0 0 0-1.088z" class="cls-36" data-name="Path 332" transform="translate(-233.654 -288.63)"/>
                <path id="Path_333" d="M280.669 337.6a3.478 3.478 0 1 0-3.481-3.483 3.486 3.486 0 0 0 3.481 3.483z" class="cls-13" data-name="Path 333" transform="translate(-232.447 -297.96)"/>
                <path id="Path_334" d="M281.878 330.643a3.478 3.478 0 1 1 0 6.956z" class="cls-7" data-name="Path 334" transform="translate(-233.656 -297.96)"/>
                <path id="Path_335" d="M261.5 451.394h7.314v5.837H252.79c0-3.21 5.5-5.837 8.713-5.837z" class="cls-53" data-name="Path 335" transform="translate(-226.159 -329.082)"/>
                <path id="Path_336" d="M255.983 453.742c.18-.131.366-.256.56-.38l1.368 1.764a.328.328 0 0 1-.062.466.333.333 0 0 1-.467-.055zm1.594-.955c.2-.1.412-.2.622-.287l1.422 1.826a.341.341 0 0 1-.055.474.341.341 0 0 1-.474-.062zm1.764-.73c.233-.071.467-.14.692-.2l1.306 1.671a.342.342 0 0 1-.062.474.336.336 0 0 1-.474-.062z" class="cls-54" data-name="Path 336" transform="translate(-226.982 -329.2)"/>
                <path id="Path_337" d="M290.554 391.647h-26.908A280.486 280.486 0 0 0 265.185 436h6.35c.148-9.785-1.259-35.217 5.565-35.217s5.418 25.431 5.565 35.217h6.351a280.479 280.479 0 0 0 1.538-44.353z" class="cls-55" data-name="Path 337" transform="translate(-228.878 -313.683)"/>
                <path id="Rectangle_1510" d="M0 0h16.026v1.679H0z" class="cls-56" data-name="Rectangle 1510" transform="translate(26.631 128.149)"/>
                <path id="Path_338" d="M296.689 451.394h-7.314v5.837H305.4c0-3.21-5.5-5.837-8.713-5.837z" class="cls-53" data-name="Path 338" transform="translate(-235.588 -329.082)"/>
                <path id="Path_339" d="M305.89 453.742a9.925 9.925 0 0 0-.559-.38l-1.368 1.764a.334.334 0 0 0 .062.466.341.341 0 0 0 .474-.055zm-1.593-.955c-.2-.1-.412-.2-.621-.287l-1.423 1.826a.337.337 0 0 0 .062.474.334.334 0 0 0 .467-.062zm-1.764-.73c-.234-.071-.467-.14-.693-.2l-1.3 1.671a.335.335 0 0 0 .055.474.336.336 0 0 0 .474-.062z" class="cls-54" data-name="Path 339" transform="translate(-238.448 -329.2)"/>
                <path id="Rectangle_1511" d="M0 0h16.027v1.679H0z" class="cls-56" data-name="Rectangle 1511" transform="translate(53.787 128.149)"/>
                <path id="Path_340" d="M276.579 340.758l3.218-2.363-3.482-4.663-2.511 1.275z" class="cls-19" data-name="Path 340" transform="translate(-231.575 -298.756)"/>
                <path id="Path_341" d="M285.1 340.758l-3.226-2.363 3.482-4.663 2.51 1.275z" class="cls-14" data-name="Path 341" transform="translate(-233.656 -298.756)"/>
                <path id="Path_342" d="M288.248 336.3a29.045 29.045 0 0 0-5.581-.854l-5.992 16.119-5.992-16.119a29.14 29.14 0 0 0-5.58.854l-3.412 11.736 1.291 24.521h27.388l1.3-24.521z" class="cls-55" data-name="Path 342" transform="translate(-228.453 -299.198)"/>
                <path id="Path_343" d="M326.966 344.814l2.822-.925 2.728 5.448-1.967 2.23z" class="cls-14" data-name="Path 343" transform="translate(-245.277 -301.374)"/>
            </g>
        </g>
    </g>
</svg>
