<svg xmlns="http://www.w3.org/2000/svg" xmlns:xlink="http://www.w3.org/1999/xlink" width="669.037" height="304.823" viewBox="0 0 669.037 304.823">
    <defs>
        <style>
            .cls-1{fill:#f2f2f2}.cls-2{opacity:.14}.cls-3{fill:#f1a51c}.cls-4{fill:#3f301d}.cls-5{fill:#e14c22}.cls-6{fill:#03827b}.cls-7{fill:#db8905}.cls-8{fill:#ad3838}.cls-9{fill:#dd715b}.cls-10{fill:#a3cecb}.cls-11{fill:#99bab6}.cls-11,.cls-12,.cls-13{opacity:.1}.cls-12{fill:url(#linear-gradient)}.cls-13{fill:url(#linear-gradient-2)}.cls-14{fill:#f5e4b0}.cls-15{fill:#dfd1aa}.cls-16{fill:#f2efce}.cls-17{opacity:.85}.cls-18,.cls-24{fill:#fff}.cls-19{fill:#d2e1e4}.cls-20,.cls-25{fill:#a6c4c9}.cls-20,.cls-27{opacity:.4}.cls-21{fill:#c5d8dc}.cls-21,.cls-22,.cls-28{opacity:.8}.cls-23{fill:#99bbc1}.cls-24{opacity:.2}.cls-26{fill:#d89b9f}.cls-27{fill:#b33b43}.cls-28{fill:#cd7e83}.cls-29{fill:none;stroke:#1e0f00;stroke-miterlimit:10;stroke-dasharray:4 4 4 4 4 4}.cls-30{fill:#f60}
        </style>
        <linearGradient id="linear-gradient" x1="-1.016" x2="-.593" y1="-8.572" y2="-8.108" gradientUnits="objectBoundingBox">
            <stop offset="0"/>
            <stop offset=".091" stop-color="#0d0d0d"/>
            <stop offset=".259" stop-color="#303030"/>
            <stop offset=".489" stop-color="#696969"/>
            <stop offset=".766" stop-color="#b7b7b7"/>
            <stop offset="1" stop-color="#fff"/>
        </linearGradient>
        <linearGradient id="linear-gradient-2" x1="-.784" x2="-.51" y1="-8.765" y2="-8.455" xlink:href="#linear-gradient"/>
    </defs>
    <g id="Symbol_108_1" data-name="Symbol 108 – 1" transform="translate(-1155 -614.567)">
        <g id="ëÎÓÈ_4" data-name="ëÎÓÈ 4" transform="translate(1155 859.331)">
            <path id="Rectangle_1545" d="M0 0h669.037v60.06H0z" class="cls-1" data-name="Rectangle 1545" transform="rotate(180 334.519 30.03)"/>
        </g>
        <g id="ëÎÓÈ_3" data-name="ëÎÓÈ 3" transform="translate(1272.347 425)">
            <g id="Group_503" data-name="Group 503" transform="translate(0 189.567)">
                <path id="Path_469" d="M641.658 457.255c0 2.544-90.585 4.606-202.324 4.606s-202.324-2.062-202.324-4.606 90.584-4.606 202.324-4.606 202.324 2.063 202.324 4.606z" class="cls-2" data-name="Path 469" transform="translate(-120.092 -194.628)"/>
                <g id="Group_474" data-name="Group 474" transform="translate(116.594 155.924)">
                    <g id="Group_466" data-name="Group 466" transform="translate(0 37.768)">
                        <g id="Group_465" data-name="Group 465">
                            <path id="Rectangle_1547" d="M0 0h92.041v9.763H0z" class="cls-3" data-name="Rectangle 1547"/>
                            <path id="Rectangle_1548" d="M0 0h84.064v7.832H0z" class="cls-4" data-name="Rectangle 1548" transform="translate(3.989 9.763)"/>
                            <g id="Group_464" data-name="Group 464" transform="translate(6.941 17.595)">
                                <path id="Rectangle_1549" d="M0 0h5.753v51.34H0z" class="cls-4" data-name="Rectangle 1549"/>
                                <path id="Rectangle_1550" d="M0 0h5.753v51.34H0z" class="cls-4" data-name="Rectangle 1550" transform="translate(72.406)"/>
                            </g>
                            <path id="Rectangle_1551" d="M0 0h69.529v5.706H0z" class="cls-4" data-name="Rectangle 1551" transform="translate(11.256 34.715)"/>
                        </g>
                    </g>
                    <g id="Group_473" data-name="Group 473" transform="translate(15.734)">
                        <g id="Group_472" data-name="Group 472" transform="translate(6.439)">
                            <g id="Group_467" data-name="Group 467" transform="translate(0 2.308)">
                                <path id="Path_470" d="M307.2 362.723a7.006 7.006 0 1 1-6.9-7.329 7.112 7.112 0 0 1 6.9 7.329z" class="cls-5" data-name="Path 470" transform="translate(-259.509 -351.734)"/>
                                <path id="Path_471" d="M288.261 360.766a8.673 8.673 0 1 1-8.547-9.074 8.8 8.8 0 0 1 8.547 9.074z" class="cls-5" data-name="Path 471" transform="translate(-259.251 -351.691)"/>
                                <path id="Path_472" d="M297.939 365.577a7.706 7.706 0 1 1-7.594-8.061 7.822 7.822 0 0 1 7.594 8.061z" class="cls-3" data-name="Path 472" transform="translate(-259.386 -351.759)"/>
                                <path id="Path_473" d="M272.117 363.884a6.5 6.5 0 1 1-6.41-6.805 6.6 6.6 0 0 1 6.41 6.805z" class="cls-3" data-name="Path 473" transform="translate(-259.114 -351.753)"/>
                            </g>
                            <g id="Group_468" data-name="Group 468" transform="translate(19.642)">
                                <path id="Path_474" d="M279.686 355.9a.565.565 0 0 1-.543-.435 6.18 6.18 0 0 1 .49-4.137 4.19 4.19 0 0 1 2.727-1.956.559.559 0 0 1 .678.425.58.58 0 0 1-.411.7 3.112 3.112 0 0 0-2.03 1.42 5.041 5.041 0 0 0-.368 3.265.58.58 0 0 1-.405.7.608.608 0 0 1-.138.018z" class="cls-4" data-name="Path 474" transform="translate(-278.986 -349.356)"/>
                            </g>
                            <g id="Group_469" data-name="Group 469" transform="translate(39.833 2.693)">
                                <path id="Path_475" d="M300.412 358.626a.553.553 0 0 1-.468-.263c-.02-.03-1.859-3.055 1.427-6.131a.544.544 0 0 1 .791.04.59.59 0 0 1-.039.816c-2.562 2.4-1.293 4.558-1.238 4.65a.591.591 0 0 1-.172.8.547.547 0 0 1-.301.088z" class="cls-4" data-name="Path 475" transform="translate(-299.414 -352.08)"/>
                            </g>
                            <g id="Group_470" data-name="Group 470" transform="translate(30.741 4.843)">
                                <path id="Path_476" d="M290.776 359.23a.561.561 0 0 1-.517-.354.586.586 0 0 1 .28-.748c.048-.03.908-.6.107-3.114a.583.583 0 0 1 .358-.73.559.559 0 0 1 .707.369c1.168 3.663-.638 4.5-.716 4.531a.536.536 0 0 1-.219.046z" class="cls-4" data-name="Path 476" transform="translate(-290.216 -354.256)"/>
                            </g>
                            <g id="Group_471" data-name="Group 471" transform="translate(6.588 5.42)">
                                <path id="Path_477" d="M267.672 360.756a.545.545 0 0 1-.331-.113.59.59 0 0 1-.122-.8c.135-.2 1.217-1.947-1.23-3.969a.591.591 0 0 1-.087-.813.55.55 0 0 1 .787-.09c3.353 2.771 1.455 5.526 1.435 5.553a.553.553 0 0 1-.452.232z" class="cls-4" data-name="Path 477" transform="translate(-265.779 -354.84)"/>
                            </g>
                        </g>
                        <path id="Path_478" d="M313.173 364.623H252.6c.919 8.46 7.547 15.65 16.869 19.23h-.115v3.542h27.064v-3.542h-.118c9.327-3.58 15.955-10.77 16.873-19.23z" class="cls-6" data-name="Path 478" transform="translate(-252.6 -349.533)"/>
                    </g>
                </g>
                <g id="Group_486" data-name="Group 486" transform="translate(214.861 123.263)">
                    <g id="Group_482" data-name="Group 482">
                        <g id="Group_475" data-name="Group 475" transform="translate(24.175 126.42)">
                            <path id="Rectangle_1552" d="M0 0h15.99v12.944H0z" class="cls-4" data-name="Rectangle 1552"/>
                            <path id="Rectangle_1553" d="M0 0h15.99v12.944H0z" class="cls-4" data-name="Rectangle 1553" transform="translate(237.179)"/>
                        </g>
                        <path id="Path_479" d="M622.193 409.185c0 12.009-10.739 21.745-23.985 21.745H375.877c-13.247 0-23.985-9.736-23.985-21.745v-71.1c0-12.009 10.738-21.745 23.985-21.745h222.331c13.246 0 23.985 9.736 23.985 21.745z" class="cls-7" data-name="Path 479" transform="translate(-336.284 -316.313)"/>
                        <path id="Path_480" d="M336.1 413.4v19.247c0 8.924 8.693 16.159 19.415 16.159H618.2c10.722 0 19.415-7.234 19.415-16.159V413.4z" class="cls-5" data-name="Path 480" transform="translate(-336.101 -317.437)"/>
                        <g id="Group_478" data-name="Group 478" transform="translate(104.789)">
                            <g id="Group_476" data-name="Group 476">
                                <path id="Rectangle_1554" d="M0 0h3.426v92.617H0z" class="cls-8" data-name="Rectangle 1554"/>
                            </g>
                            <g id="Group_477" data-name="Group 477" transform="translate(88.514)">
                                <path id="Rectangle_1555" d="M0 0h3.426v92.617H0z" class="cls-8" data-name="Rectangle 1555"/>
                            </g>
                        </g>
                        <g id="Group_481" data-name="Group 481" transform="translate(104.789 81.686)">
                            <g id="Group_479" data-name="Group 479">
                                <path id="Rectangle_1556" d="M0 0h3.426v14.275H0z" class="cls-9" data-name="Rectangle 1556"/>
                            </g>
                            <g id="Group_480" data-name="Group 480" transform="translate(88.514)">
                                <path id="Rectangle_1557" d="M0 0h3.426v14.275H0z" class="cls-9" data-name="Rectangle 1557"/>
                            </g>
                        </g>
                        <path id="Path_481" d="M625.055 368.336h-14.7A12.564 12.564 0 0 0 597.79 380.9v17.7H375.93v-17.7a12.562 12.562 0 0 0-12.563-12.563h-14.7A12.562 12.562 0 0 0 336.1 380.9v31.979h301.519V380.9a12.562 12.562 0 0 0-12.564-12.564z" class="cls-3" data-name="Path 481" transform="translate(-336.101 -316.915)"/>
                    </g>
                    <g id="Group_485" data-name="Group 485" transform="translate(53.649 38.49)">
                        <rect id="Rectangle_1558" width="73.121" height="40.936" class="cls-4" data-name="Rectangle 1558" rx="5.998" transform="translate(8.793)"/>
                        <g id="Group_483" data-name="Group 483" transform="translate(11.2 2.079)">
                            <path id="Rectangle_1559" d="M0 0h68.307v35.898H0z" class="cls-10" data-name="Rectangle 1559"/>
                            <path id="Path_482" d="M414 393.279h56.163v-33.8c-12.353 16.153-31.23 32.152-56.163 33.8z" class="cls-11" data-name="Path 482" transform="translate(-401.852 -357.382)"/>
                        </g>
                        <g id="Group_484" data-name="Group 484" transform="translate(15.807 .042)">
                            <path id="Rectangle_1560" d="M0 0h7.444v7.448H0z" class="cls-12" data-name="Rectangle 1560" transform="rotate(-45 11.162 -8.967)"/>
                            <path id="Rectangle_1561" d="M0 0h11.518v11.152H0z" class="cls-13" data-name="Rectangle 1561" transform="rotate(-45 9.838 4.077)"/>
                            <path id="Path_483" d="M406.371 355.3v8.2h6.267l1.93-1.929V355.3z" class="cls-14" data-name="Path 483" transform="translate(-406.371 -355.296)"/>
                            <path id="Path_484" d="M412.711 363.565l1.929-1.929h-1.929z" class="cls-15" data-name="Path 484" transform="translate(-406.445 -355.37)"/>
                            <path id="Rectangle_1562" d="M0 0h5.421v5.419H0z" class="cls-14" data-name="Rectangle 1562" transform="translate(9.454)"/>
                        </g>
                        <path id="Path_485" d="M480.947 397.352a2.07 2.07 0 0 1-1.94 2.179H392.32a2.071 2.071 0 0 1-1.941-2.179v-2.735a2.071 2.071 0 0 1 1.941-2.178h86.686a2.071 2.071 0 0 1 1.94 2.178z" class="cls-6" data-name="Path 485" transform="translate(-390.379 -355.685)"/>
                        <path id="Path_486" d="M390.384 397.467a2.062 2.062 0 0 0 1.936 2.123h86.686a2.061 2.061 0 0 0 1.935-2.123z" class="cls-4" data-name="Path 486" transform="translate(-390.379 -355.743)"/>
                    </g>
                </g>
                <g id="Group_499" data-name="Group 499" transform="translate(279.259)">
                    <path id="Rectangle_1563" d="M0 0h52.701v122.643H0z" class="cls-16" data-name="Rectangle 1563" transform="rotate(90 61.049 78.394)"/>
                    <g id="Group_493" data-name="Group 493" transform="translate(66.729 30.918)">
                        <g id="Group_489" class="cls-17" data-name="Group 489" transform="translate(18.227 21.183)">
                            <g id="Group_488" data-name="Group 488">
                                <path id="Path_487" d="M496.128 249.294l.1.073h-.028z" class="cls-18" data-name="Path 487" transform="translate(-487.308 -244.374)"/>
                                <g id="Group_487" data-name="Group 487" transform="translate(3.574 11.615)">
                                    <path id="Path_488" d="M490.831 258.373c-.011-.279-.059-.669.2-.78a.234.234 0 0 1 .2.182c-.181.225.109 1.134-.4.598z" class="cls-19" data-name="Path 488" transform="translate(-490.82 -256.085)"/>
                                    <path id="Path_489" d="M491.578 257.22l.009.045-.033.03z" class="cls-19" data-name="Path 489" transform="translate(-490.829 -256.08)"/>
                                    <path id="Path_490" d="M491.568 256.324c-.029-.041-.052.011-.065.026-.033.066.037-.066.032-.153l.09.233c.023-.051-.035-.088-.057-.106z" class="cls-19" data-name="Path 490" transform="translate(-490.828 -256.068)"/>
                                    <path id="Path_491" d="M491.641 256.067l.022.178-.109-.1z" class="cls-19" data-name="Path 491" transform="translate(-490.829 -256.067)"/>
                                </g>
                                <path id="Path_492" d="M488.7 252.81a1.06 1.06 0 0 0 .256.276c.187.184-.146.282-.109.474.129.512.641-.055.966.188.136.161-.174.34.08.467a1.173 1.173 0 0 0 1.023-.71c.376.111.342.581.417.89a1.923 1.923 0 0 0 .522-.842c.244.04.441-.13.64-.184a2.363 2.363 0 0 0 1.356.626c.179-.469.756-.665 1.142-.944.12.076.362.026.363-.138a.819.819 0 0 1-.258-.9c.12-.166.477.089.47-.221a.747.747 0 0 1-.219-.729c-.16-.489.447-.167.533-.472-.24-.291-.628-.352-.683-.816.042-.255.245-.267.417-.3.1-.445-.371-.083-.536-.219a1.346 1.346 0 0 1 .288-1.05c-.252-.089-.482.3-.772.217-.136-.238-.819-.326-.48-.718-.153-.309-.271.178-.484.11-.186-.12.009-.318-.052-.428-.02.3-.433.17-.653.239-.335-.155.081-.494-.146-.728-.188.1-.008.536-.28.592-.144-.44-.142-1.168-.646-1.444a2.364 2.364 0 0 0-.1-1.5c-.158-.114-.385-.3-.534-.195-.156.7.228 1.5-.108 2.274-.237.183.079.537-.264.706-.321.125-.409-.046-.5-.309-.234.135.037.314.007.491-.343.435-.346-.381-.76-.43-.009.067.077.119.13.2.222 1-.622.045-.961.344-.044.168.2.235.136.423a.842.842 0 0 1-.832.225c-.141.445-.326.664.1 1.21-.352.091-.305.522-.7.493.063.326.636.456.449.9-.091.441-.483.117-.7.373-.009.424.5.055.734.179a2.351 2.351 0 0 1 .282 1.075c-.177.305-.774.211-.577.635.295-.213.728-.15 1.043-.33zm-.2-1.632c.031-.422.439-.389.846-.355a2.318 2.318 0 0 1 0-2.765.613.613 0 0 0 .821.067l-.223.2a3.393 3.393 0 0 1 1.437-.876c.092-.417.1-.906.2-1.35a3.083 3.083 0 0 1 0-.417 3.083 3.083 0 0 0 0 .417 2.17 2.17 0 0 1 .219-.608 2.17 2.17 0 0 0-.219.608 1.95 1.95 0 0 0 1.882 1.862c.42.031.362.876.322 1.3.216-.2.216-.2.437-.387.765 3.675.1 4.25-3.426 4.616.63-.159-.384-.456.064-.848-.414-.026-.253.623-.479.815-.131-1.065-1.765-1.2-1.89-2.278z" class="cls-20" data-name="Path 492" transform="translate(-487.205 -244.316)"/>
                                <path id="Path_493" d="M490.391 253.478c.226-.193.065-.841.479-.815-.449.392.565.689-.064.848 3.529-.366 4.191-.941 3.426-4.616-.22.192-.22.192-.437.387.04-.425.1-1.27-.322-1.3a1.95 1.95 0 0 1-1.882-1.862c-.1.444-.111.933-.2 1.35a1.437 1.437 0 0 1 .488-.041 1.437 1.437 0 0 0-.488.041 1.328 1.328 0 0 1-.4.74 1.328 1.328 0 0 0 .4-.74 3.393 3.393 0 0 0-1.437.876l.223-.2a.613.613 0 0 1-.821-.067 2.318 2.318 0 0 0 0 2.765c-.407-.035-.815-.067-.846.355.122 1.079 1.755 1.214 1.881 2.279z" class="cls-21" data-name="Path 493" transform="translate(-487.22 -244.337)"/>
                            </g>
                        </g>
                        <g id="Group_492" class="cls-22" data-name="Group 492" transform="translate(49.676)">
                            <path id="Path_494" d="M535.38 237.985l-.069-.011c.154-.019.053-.181.108-.18.028.071.046.161-.039.191z" class="cls-23" data-name="Path 494" transform="translate(-519.211 -223.058)"/>
                            <g id="Group_491" data-name="Group 491">
                                <path id="Path_495" d="M538.126 226.926l-.165-.022c-.073-.2.158-.263.226-.336.106.015.222-.129.267.051.018.221-.161.281-.328.307z" class="cls-23" data-name="Path 495" transform="translate(-519.241 -222.927)"/>
                                <path id="Path_496" d="M535.67 229.362c.14.253-.44.073-.236.483.076.065.234-.1.283.07a4.6 4.6 0 0 0 .817 2.408c-.151-.108-.413.056-.559-.135-.261-.287-.269-1.055-.827-.758a2.2 2.2 0 0 1-1.688-.43c-.829.238-.311 1.324-1.132 1.627a.551.551 0 0 1-.328-.4c-.107-.476.336-.88.113-1.332-.206.019-.424.123-.621.012-.491-.393-1.116-.73-1.492-1.094.195-.214.541-.213.657-.456-.2-.107-.056-.452-.371-.434-.1-.2.125-.36.263-.471-.108-.295-1.052-.025-.682-.43-.027-.234.3-.044.387-.08a.436.436 0 0 0 .1.185c.609-.265 1.261-.212 1.868-.458.037-.567-.536-.894-.657-1.468.159.024.25.329.432.42l.461.037c.17-.582.7-.368.973-.723.026.118-.036.319.036.457-.066.394.436.155.477.483.246.033.415-.267.641-.366 0-.288.232-.431.183-.69.087-.236.238.123.362.072-.155.484-.527.977-.462 1.521.329 0-.087.352.253.306l.225-.164c-.016.1.017.2.14.211a2.266 2.266 0 0 0 .473-.331c.009.111-.051.3.076.4l.358-.062a1.1 1.1 0 0 0-.56.786c.114.122.3-.07.334-.006-.069.032-.241.1-.251.2a1.621 1.621 0 0 0 1.212.237c-.126.026.032.1.026.165a7.324 7.324 0 0 0-1.284.208z" class="cls-23" data-name="Path 496" transform="translate(-519.147 -222.918)"/>
                                <path id="Path_497" d="M534.312 239.829c-.34.434-.739.311-1.221.216-.146-.253-.446-.461-.48-.718.347-.148-.019-.746.462-.623-.078-.377.384-.237.6-.274a.873.873 0 0 1 .608.419c.046.15.031.317.186.45-.075.157-.367.331-.155.53z" class="cls-23" data-name="Path 497" transform="translate(-519.179 -223.065)"/>
                                <path id="Path_498" d="M534.085 239.4c-.084-.136.054-.139.144-.13.001.149-.184-.042-.144.13z" class="cls-24" data-name="Path 498" transform="translate(-519.196 -223.075)"/>
                                <path id="Path_499" d="M533.948 239.234c.011-.3-.252-.114-.447-.244.134.1.09.095.054.237-.162-.086-.028-.252-.231-.146.025 0-.06.221.122.22-.208.166-.331-.337-.444-.242.159.037.225-.042.373-.065.086-.053 0-.171.033-.254.082.141.166.136.344.041-.042 0-.106.051-.094.1.024-.035.106 0 .147.006.013.038-.042-.01-.07.032.1.244.207 0 .293-.053.008.044-.13.108-.067.248.044.137.131-.01.183.022z" class="cls-24" data-name="Path 499" transform="translate(-519.184 -223.069)"/>
                                <path id="Path_500" d="M533.868 239.356c.065.011.077.072.12.057-.2 0-.015.284-.2.129.128.121-.039.32.086.37h-.213c.011-.037.021-.033.075-.05-.081-.12-.257.053-.207.141l-.162-.229c-.042-.034.085.14.122.016-.094-.251-.228.057-.322.07.009-.217-.044-.46-.3-.449.21 0 .247.013.472.016.128.148-.232.052-.066.208l.115-.032c-.031.026-.045.017-.05.034.125-.041.246.073.323-.082-.133-.109-.046-.132-.113-.271-.06.317.334.147.449.008-.042.076-.111-.079-.129.064z" class="cls-24" data-name="Path 500" transform="translate(-519.182 -223.075)"/>
                                <path id="Path_501" d="M533.834 239.762l-.074-.072z" class="cls-23" data-name="Path 501" transform="translate(-519.193 -223.08)"/>
                                <path id="Path_502" d="M533.432 238.938l.186-.038v.06z" class="cls-23" data-name="Path 502" transform="translate(-519.189 -223.07)"/>
                                <path id="Path_503" d="M535.121 225.422l-.167.089z" class="cls-23" data-name="Path 503" transform="translate(-519.206 -222.914)"/>
                                <path id="Path_504" d="M533.285 238.9c-.158-.254.1.18-.187.039.128-.108-.055-.259.2-.165z" class="cls-24" data-name="Path 504" transform="translate(-519.185 -223.069)"/>
                                <path id="Path_505" d="M534.231 225.935c-.149.054-.244-.28-.05-.265.119.021.219.224.05.265z" class="cls-23" data-name="Path 505" transform="translate(-519.196 -222.917)"/>
                                <path id="Path_506" d="M531.576 246.36c-.182.14-.171.592-.4.609a.176.176 0 0 0-.281-.076c-.076.122.008.28-.123.371-.49-.234-.471.1-.979.03-.141.159-.025.405.012.6-.121.016-.025-.129-.082-.175a13.553 13.553 0 0 0 .048 1.652c-.034-.113-.248-.062-.244-.041l-.173-1.1a3.428 3.428 0 0 0-2.656-.065c-.271.056-.107.609-.424.375-.2-.509.528-.895.266-1.327a10.448 10.448 0 0 1-1.183-1.237c-.122-.352.58-.179.275-.6-.1-.014-.228.041-.326-.062.08-.179.49-.1.422-.419-.084-.136-.329.008-.3-.244.1-.2.385.085.455-.2.333-.35-.249-.305-.2-.581a.5.5 0 0 1 .416.022 1.436 1.436 0 0 0 .435-.541.768.768 0 0 1-.3-.309c.271-.038.629.152.929 0 .224-.2-.247-.262.009-.442.157.061.277.337.48.31l.263-.346c.86.077 1.486.622 2.354.574a3.26 3.26 0 0 0 1.227.839c-.126.179-.237.306-.167.533.118.076.234.175.346.251.014.134-.143.172-.093.308l.263.2c-.124.2-.324.343-.311.581-.044.212.179.238.288.333-.044.117-.162.142-.246.177z" class="cls-23" data-name="Path 506" transform="translate(-519.095 -223.113)"/>
                                <path id="Path_507" d="M533.618 223.186a.309.309 0 0 1-.019-.3c.121.009.13.232.019.3z" class="cls-23" data-name="Path 507" transform="translate(-519.19 -222.885)"/>
                                <path id="Path_508" d="M529.813 241.272c.083.242-.238.177-.222.374-.349-.023-.424.469-.816.267-.468.072-.27-.5-.728-.478.011-.418-.366-.976.155-1.4.167-.344.572.083.561-.385a.5.5 0 0 0 .324.257c.095 0 .2-.171.3-.1.1.183.176.472.425.37-.111.2.033.346.2.434-.429.139.214.495-.199.661z" class="cls-23" data-name="Path 508" transform="translate(-519.125 -223.079)"/>
                                <path id="Path_509" d="M529.657 240.72v.025l-.105-.013v-.012z" class="cls-24" data-name="Path 509" transform="translate(-519.144 -223.092)"/>
                                <path id="Path_510" d="M529.469 240.529c-.245.144-.012-.126-.236-.139.25.12-.051-.111.142-.176.13.127-.071.1-.018.238l.236.047-.132.054z" class="cls-24" data-name="Path 510" transform="translate(-519.14 -223.086)"/>
                                <path id="Path_511" d="M529.366 241.082l.07-.077-.012.065z" class="cls-24" data-name="Path 511" transform="translate(-519.142 -223.095)"/>
                                <path id="Path_512" d="M529.113 241.459c-.078-.029-.042-.042 0-.1z" class="cls-24" data-name="Path 512" transform="translate(-519.138 -223.099)"/>
                                <path id="Path_513" d="M529.106 240.229l.02.154-.067-.114z" class="cls-24" data-name="Path 513" transform="translate(-519.138 -223.086)"/>
                                <path id="Path_514" d="M528.832 240.409l.134-.062-.093.066z" class="cls-24" data-name="Path 514" transform="translate(-519.136 -223.087)"/>
                                <path id="Path_515" d="M528.761 240.317l-.091.059z" class="cls-24" data-name="Path 515" transform="translate(-519.134 -223.087)"/>
                                <path id="Path_516" d="M528.687 240.788l-.1-.1z" class="cls-24" data-name="Path 516" transform="translate(-519.133 -223.091)"/>
                                <path id="Path_517" d="M528.507 240.7l-.109.052z" class="cls-24" data-name="Path 517" transform="translate(-519.131 -223.091)"/>
                                <path id="Path_518" d="M524.646 236.192c-.049-.13-.195-.3-.011-.385.12-.071.278.061.278.184-.013.143-.15.277-.267.201z" class="cls-23" data-name="Path 518" transform="translate(-519.086 -223.034)"/>
                                <path id="Path_519" d="M523.556 236.312c-.594-.032-.649.8-1.188 1-.26.078-.17-.321-.425-.305-.009.126-.087.241-.077.351-.094-.075-.081-.37-.308-.312a1.387 1.387 0 0 0-.583.354c-.452-.141-.434-1.313-1.079-.682.055-.169.293-.243.258-.423-.145-.2-.727.168-.609-.3.071-.055.14-.133.044-.215-.159-.225-.466.119-.565-.106.258-.247.281-.649.662-.728.145-.218-.139-.423-.141-.575.025-.374.537-.17.633-.518a1.038 1.038 0 0 1-.168-.875c.28.254.388-.139.5-.256.433.409.747-.382 1.129-.079-.009-.109-.1-.248.029-.293.173.145-.052.481.3.484.15-.048.284.2.448.048.091-.048-.008-.3.151-.236.089.335.475.55.746.792.138.172-.194.346.094.44.121 0 .191-.186.349-.1.036.623-.2 1.464.219 2.115a.611.611 0 0 1-.419.419z" class="cls-23" data-name="Path 519" transform="translate(-519.022 -222.995)"/>
                                <g id="Group_490" data-name="Group 490" transform="translate(9.537 13.033)">
                                    <path id="Path_520" d="M529.476 237.164a.562.562 0 0 1-.587-.108c-.149-.129-.023-.355-.217-.439.166-.015.07-.266.183-.342.162-.1.313-.258.536-.187.19.15.52.341.43.63-.033.229-.221.315-.345.446z" class="cls-23" data-name="Path 520" transform="translate(-528.671 -236.071)"/>
                                    <path id="Path_521" d="M529.421 236.492c-.031-.128.054-.174.151-.141-.086.2.2.1.115.312a.268.268 0 0 1-.266-.171z" class="cls-24" data-name="Path 521" transform="translate(-528.68 -236.074)"/>
                                    <path id="Path_522" d="M529.555 236.734l-.074-.056z" class="cls-24" data-name="Path 522" transform="translate(-528.68 -236.078)"/>
                                    <path id="Path_523" d="M529.059 236.955l.1-.056-.047-.026c0 .041.19.043.24.113-.094-.008-.332.24-.293-.031z" class="cls-24" data-name="Path 523" transform="translate(-528.675 -236.08)"/>
                                    <path id="Path_524" d="M528.984 236.428c.036 0 .279.224.138.377.163-.321-.241-.01-.308-.208l.142.02c-.227-.16.09-.225.142-.33 0 .025-.017.022-.02.04a.123.123 0 0 0 .183 0c.025 0 .038.07.055.007.002.243-.179.028-.332.094z" class="cls-24" data-name="Path 524" transform="translate(-528.673 -236.073)"/>
                                    <path id="Path_525" d="M529.191 236.208l.038-.076c.012.066.123.039.086.117z" class="cls-24" data-name="Path 525" transform="translate(-528.677 -236.072)"/>
                                </g>
                            </g>
                        </g>
                        <path id="Path_526" d="M468.764 256.249c.129-1.407 1.836-1.744 2.054-3 .764-.749 2.1-.716 3.136-.771.47 1.235 2.518-.287 2.293 1.566.627-.051 1.719.528 1.917-.392-.634-1.248-.082-3.089-1.457-3.926-.043-.375.51-.294.872-.332.693-.63-.357-1.446-.349-2.048l1.022-.32-.19-.987c.433-.178 1.332.032 1.347-.74.334-1.019-1.1-1.024-.463-1.84.489.028.6.873 1.14.951a2.14 2.14 0 0 0 1.426-2.341c.488.036.749.462 1.263.586.643-.385 1.59-.579 1.56-1.558.734-.244.444.706.89.8.267-1.053 1.926-.124 1.8-1.506.545.505-.332 1.013.121 1.543 2.113 2.769 4.9-.048 7 2.02-.931 1.171-.116 3.147-1.472 4.046-.111 1.5 1.322 1.5 2 1.92-.015.772-.788 1.524-.787 2.127 1.306-.245 1.507 1.622 2.857 1.315-2.688-.434-5.729 1.792-8.744 1.166-.544.369-1.833.277-1.715 1.391a4.481 4.481 0 0 0 1.3 2.872c.511 1-.758 1.19-.208 2.132-1.105.016-.757-1.934-1.987-1.987-.216-.923-.109-2.155-.925-2.921-1.187-1.152-2.807-.839-4.046-1.593a12.109 12.109 0 0 0-4.113.7c.223 1.963 2.787.134 3.743 1.844a.826.826 0 0 1-.482 1.273c-1.056.227-2.971-.682-3.156 1.109-.165.592.269 1.732-.734 1.725-1.946.9-3.81.194-5.5-1.268-.877-.972-1.039-2.29-1.413-3.556z" class="cls-25" data-name="Path 526" transform="translate(-468.764 -223.088)"/>
                        <path id="Path_527" d="M499.7 240.58c-.058-1.074.962-1.834 1.619-2.4 1.531-.193 3.322-.658 4.19.911a3.974 3.974 0 0 1 .455 1.844c-.616.653-.8 2.287-2.136 2.416-1.753.423-4.288-.436-4.128-2.771z" class="cls-25" data-name="Path 527" transform="translate(-469.122 -223.06)"/>
                    </g>
                    <g id="Group_498" data-name="Group 498" transform="translate(19.319 16.111)">
                        <g id="Group_495" data-name="Group 495">
                            <path id="Path_528" d="M474.309 245.615l-.122.592-.058-.146z" class="cls-18" data-name="Path 528" transform="translate(-421.416 -208.342)"/>
                            <g id="Group_494" data-name="Group 494" transform="translate(0 34.855)">
                                <path id="Path_529" d="M421.059 245.75c1.206-.752 2.86-2 4.011-1.1a1.133 1.133 0 0 1-.4 1.279c-1.431-.221-4.836 3.4-3.611-.179z" class="cls-26" data-name="Path 529" transform="translate(-420.798 -243.182)"/>
                                <path id="Path_530" d="M428.022 246.007l-.214.191-.223-.072z" class="cls-26" data-name="Path 530" transform="translate(-420.877 -243.201)"/>
                                <path id="Path_531" d="M432.042 243.7c.1-.225-.172-.189-.285-.223-.379 0 .385 0 .748-.266l-.8 1.021c.259-.042.301-.425.337-.532z" class="cls-26" data-name="Path 531" transform="translate(-420.924 -243.169)"/>
                                <path id="Path_532" d="M433.342 243.358l-.723.525.162-.715z" class="cls-26" data-name="Path 532" transform="translate(-420.935 -243.168)"/>
                            </g>
                            <path id="Path_533" d="M440.693 222.257a5.506 5.506 0 0 0-.639 1.847c-.4 1.281-1.568.114-2.343.76-2.046 1.893 1.709 2.622 1.348 4.685-.412 1.016-1.948.13-1.909 1.55a5.65 5.65 0 0 0 5.621 2.639c.347 1.916-1.861 2.977-3.085 4.108a9.827 9.827 0 0 0 5.013.126c.4 1.168 1.623 1.576 2.332 2.316a12.348 12.348 0 0 0 .3 7.552c2.58-.423 4.788 1.594 6.926 2.559-.058.751.717 1.648 1.5 1.269a4.5 4.5 0 0 1 3.467-3.474c.983.074.7 2.291 2.056 1.462a4.043 4.043 0 0 1 2.805-2.792c1.829-1.966 1.8 1.493 3.341 1.109.748-1.807.13-3.681 2.106-5.084 1.221-.484 1.763.332 2.353 1.043 2.188-.683-.5-1.833-.305-2.924 1.718-1.1 3.839-1.937 5.4-1.412-.2-1.361-2.489-1.339-2.755-2.846.741-1.166-.458-4.395 2.135-3.917.984-1.463-1.466-.744-1.654-1.832.092-1.122 1.473-.795 1.819-1.327-1.417.693-1.786-1.491-2.608-2.272-.127-1.84 2.395-.879 2.93-2.494-.9-.557-2.46 1.361-3.29.317 1.618-1.773 4.923-3.632 5-6.555 2.39-.877 5.4-2.32 6.453-4.276.16-.98.49-2.407-.348-2.815-3.516 1.143-6.2 4.871-10.463 5.382-1.41-.6-2.231 1.7-3.825.654-1.327-1.078-.725-1.915.233-3-1.137-.638-1.292.981-2.2 1.324-2.742-.4.919-2.522.2-4.43-.32.149-.4.644-.586 1.093-4 3.546-1.7-2.626-3.81-3.331-.867.234-.61 1.473-1.583 1.667a3.878 3.878 0 0 1-2.928-3.038c-2.36.492-3.79.274-5.258 3.512-1.231-1.314-3.049.013-3.824-1.782-1.343 1.094-.609 3.907-3.026 4.256-2.188.679-1.656-1.838-3.307-2.128-1.944 1.022.919 2.368.9 3.64-1.259 1.511-2.3 3.087-4.19 4-1.8.044-2.752-2.847-4.2-.882 1.681.821 2.368 2.849 3.898 3.741zm6.873-5.068c1.973-.95 2.776.928 3.584 2.8 2.342-5.644 7.682-7.079 12.446-7.1a2.948 2.948 0 0 0 1.62 3.745l-1.395-.466c2.206.737 5.256 1.781 7.249 4.034 2.116-.644 4.345-1.823 6.549-2.559a16.276 16.276 0 0 1 1.878-1.067 16.276 16.276 0 0 0-1.878 1.067 11.037 11.037 0 0 1 3.277-.613 11.037 11.037 0 0 0-3.277.613c-4.515 3.066-6.111 8.049-3.963 13.034.806 1.878-3.149 3.775-5.122 4.724 1.384.462 1.384.462 2.787.925-14.788 12.745-18.967 11.355-28.8-3.159 2.194 2.341 1.173-2.816 3.951-1.893-.8-1.878-3.368.483-4.758.02 4.538-3.294 1.312-10.794 5.853-14.105z" class="cls-27" data-name="Path 533" transform="translate(-420.983 -207.905)"/>
                            <path id="Path_534" d="M441.773 231.355c1.391.464 3.955-1.9 4.758-.02-2.777-.923-1.756 4.233-3.951 1.893 9.834 14.514 14.013 15.9 28.8 3.159l-2.787-.925c1.973-.949 5.928-2.846 5.122-4.724-2.149-4.986-.553-9.968 3.963-13.034-2.2.736-4.433 1.915-6.549 2.559a7.676 7.676 0 0 1 1.332 2.034 7.676 7.676 0 0 0-1.332-2.034 6.994 6.994 0 0 1-4.244.178 6.994 6.994 0 0 0 4.244-.178c-1.993-2.253-5.043-3.3-7.249-4.034l1.395.466a2.948 2.948 0 0 1-1.62-3.745c-4.764.019-10.1 1.454-12.446 7.1-.808-1.872-1.611-3.75-3.584-2.8-4.541 3.306-1.315 10.807-5.852 14.105z" class="cls-28" data-name="Path 534" transform="translate(-421.041 -207.963)"/>
                        </g>
                        <g id="Group_497" data-name="Group 497" transform="translate(10.635 16.035)">
                            <path id="Path_535" d="M465.75 236.89l.425.166-.131.027z" class="cls-18" data-name="Path 535" transform="translate(-431.954 -224.276)"/>
                            <g id="Group_496" data-name="Group 496" transform="translate(18.453 41.564)">
                                <path id="Path_536" d="M450.535 275.347c-.225-.97-.694-2.335.31-3.045a.743.743 0 0 1 .852.465c-.574 1.005 1.181 3.947-1.162 2.58z" class="cls-26" data-name="Path 536" transform="translate(-450.228 -266.25)"/>
                                <path id="Path_537" d="M452.715 270.389l.082.175-.12.148z" class="cls-26" data-name="Path 537" transform="translate(-450.256 -266.228)"/>
                                <path id="Path_538" d="M452.13 267.166c-.145-.094-.192.1-.251.173-.1.283.106-.267.013-.576l.539.725c.055-.201-.231-.271-.301-.322z" class="cls-26" data-name="Path 538" transform="translate(-450.246 -266.186)"/>
                                <path id="Path_539" d="M452.245 266.179l.2.6-.5-.219z" class="cls-26" data-name="Path 539" transform="translate(-450.247 -266.179)"/>
                            </g>
                            <path id="Path_540" d="M438.455 257.62a3.614 3.614 0 0 0 1.217.708c.851.46-.361 1.148-.1 1.8.833 1.736 2.47-.882 3.933-.342.647.436-.465 1.422.626 1.584a5.436 5.436 0 0 0 3.612-3.7c1.552.01 1.711 1.751 2.211 2.791a7.911 7.911 0 0 0 1.547-3.6c1-.14 1.658-.967 2.424-1.377a9.757 9.757 0 0 0 5.8.807c.423-1.923 2.58-3.241 3.93-4.655.549.145 1.45-.286 1.395-.9a2.642 2.642 0 0 1-1.63-2.983c.334-.7 1.927-.2 1.689-1.29a2.353 2.353 0 0 1-1.3-2.4c-.953-1.587 1.644-1.088 1.806-2.26-1.149-.791-2.746-.6-3.239-2.216-.024-.943.758-1.225 1.466-1.557.115-1.672-1.534.116-2.3-.174a4.949 4.949 0 0 1 .489-4.1c-1.081-.036-1.734 1.612-2.94 1.606-.672-.7-3.46-.271-2.354-2.073-.83-.919-.984.958-1.859.939-.825-.211-.179-1.163-.48-1.486.108 1.123-1.643 1.092-2.465 1.568-1.431-.155.021-1.843-1.048-2.456-.691.581.318 1.968-.708 2.427-.874-1.407-1.329-4.046-3.527-4.5.03-1.842-.19-4.214-1.363-5.246-.7-.249-1.687-.684-2.24-.125-.151 2.7 1.9 5.141 1.055 8.285-.849.942.644 1.84-.6 2.858-1.2.813-1.653.268-2.205-.578-.808.731.371 1.065.362 1.773-1.088 1.926-1.636-1.013-3.29-.739.021.252.371.368.655.562 1.524 3.372-2.479.884-3.615 2.313-.072.649.934.639.807 1.36a3.932 3.932 0 0 1-3.129 1.709c-.31 1.767-.887 2.771 1.137 4.268-1.336.722-.865 2.208-2.453 2.528.438 1.113 2.784.96 2.348 2.764-.112 1.671-1.858.945-2.557 2.1.214 1.541 2.058-.347 3.009-.16.784 1.114 1.677 2.08 1.817 3.578-.48 1.294-2.937 1.6-1.872 2.906 1.099-1.119 2.826-1.337 3.939-2.317zm-1.846-5.652c-.145-1.556 1.5-1.888 3.15-2.227-3.59-2.45-3.139-6.5-1.783-9.943a2.718 2.718 0 0 0 3.3-.668l-.75.947a16.2 16.2 0 0 1 5.129-4.687c.128-1.619-.128-3.386-.042-5.083a11.023 11.023 0 0 1-.278-1.5 11.023 11.023 0 0 0 .278 1.5 7.7 7.7 0 0 1 .48-2.444 7.7 7.7 0 0 0-.48 2.444c1.015 3.676 4.329 5.509 8.717 4.635 1.648-.328 1.946 2.781 2.091 4.337.749-.941.749-.941 1.509-1.882 5.377 12.406 3.117 15.234-10.68 20.375 2.395-1.273-1.8-1.228-.3-3.115-1.656.333-.607 2.5-1.357 3.442-1.193-3.722-7.793-2.405-8.984-6.131z" class="cls-27" data-name="Path 540" transform="translate(-431.558 -224.128)"/>
                            <path id="Path_541" d="M445.655 258.171c.75-.946-.3-3.109 1.357-3.442-1.5 1.887 2.694 1.841.3 3.114 13.8-5.141 16.057-7.97 10.68-20.375-.76.941-.76.941-1.509 1.882-.144-1.556-.443-4.665-2.091-4.337-4.388.875-7.7-.959-8.717-4.635-.086 1.7.169 3.464.042 5.083a7.554 7.554 0 0 1 1.932-.692 7.554 7.554 0 0 0-1.932.692 5.367 5.367 0 0 1-1.087 3.085 5.367 5.367 0 0 0 1.087-3.085 16.2 16.2 0 0 0-5.129 4.687l.75-.947a2.718 2.718 0 0 1-3.3.668c-1.356 3.446-1.807 7.492 1.783 9.943-1.652.339-3.3.671-3.15 2.227 1.188 3.728 7.793 2.41 8.984 6.132z" class="cls-28" data-name="Path 541" transform="translate(-431.617 -224.201)"/>
                        </g>
                    </g>
                    <path id="Path_542" d="M401.253 191.6V279H557.5v-87.4zM540.7 261.651H418.054v-52.7H540.7z" class="cls-10" data-name="Path 542" transform="translate(-401.253 -191.605)"/>
                </g>
                <g id="Group_502" data-name="Group 502" transform="translate(125 53.497)">
                    <rect id="Rectangle_1564" width="75.702" height="75.702" class="cls-29" data-name="Rectangle 1564" rx="12"/>
                    <g id="Group_501" data-name="Group 501" transform="translate(21.111 20.684)">
                        <path id="Path_543" d="M156.82 286.89a17.172 17.172 0 1 0 16.741 17.167 16.948 16.948 0 0 0-16.741-17.167zm0 32.945a15.787 15.787 0 1 1 15.4-15.782 15.595 15.595 0 0 1-15.4 15.782z" class="cls-30" data-name="Path 543" transform="translate(-140.08 -286.89)"/>
                        <g id="Group_500" data-name="Group 500" transform="translate(5.185 7.397)">
                            <path id="Path_544" d="M167.926 297.256h-3.648a.526.526 0 0 0-.528.528v4.442h-4.632l5.575-6.985a.518.518 0 0 0 .058-.557.535.535 0 0 0-.484-.309h-3.6a.552.552 0 0 0-.412.189l-8.206 9.693a.541.541 0 0 0 .015.707l7.339 7.853h-3.032l-6.529-7.106a.517.517 0 0 0-.587-.131.526.526 0 0 0-.338.5v4.811h-2.558v-12.578h2.634v4.81a.532.532 0 0 0 .94.339l4.824-5.87a1.123 1.123 0 1 0-.9-1.1 1.06 1.06 0 0 0 .088.426l-3.884 4.723v-3.855a.527.527 0 0 0-.529-.529h-3.677a.527.527 0 0 0-.528.529v13.635a.526.526 0 0 0 .528.529h3.619a.527.527 0 0 0 .529-.529v-3.971l5.75 6.268a.59.59 0 0 0 .4.175h4.486a.542.542 0 0 0 .484-.324.519.519 0 0 0-.1-.572l-7.853-8.414 7.736-9.15h2.252l-5.576 6.985a.524.524 0 0 0-.058.558.539.539 0 0 0 .485.309h6.268a.527.527 0 0 0 .528-.529v-4.442h2.588v12.576h-2.664v-4.39a.527.527 0 0 0-.529-.529h-4.456a1.118 1.118 0 1 0 0 1.065h3.928v4.384a.525.525 0 0 0 .528.528h3.72a.526.526 0 0 0 .529-.528v-13.636a.508.508 0 0 0-.523-.528z" class="cls-30" data-name="Path 544" transform="translate(-145.326 -294.374)"/>
                        </g>
                    </g>
                </g>
            </g>
        </g>
    </g>
</svg>
