<svg xmlns="http://www.w3.org/2000/svg" xmlns:xlink="http://www.w3.org/1999/xlink" width="603.045" height="606.422" viewBox="0 0 603.045 606.422">
    <defs>
        <style>
            .cls-1{fill:#e1dfff}.cls-2{fill:#f2f2f2}.cls-3{fill:#f5f5f5}.cls-4{fill:url(#linear-gradient)}.cls-17,.cls-33,.cls-5{fill:#fff}.cls-6{fill:url(#linear-gradient-3)}.cls-7{fill:#ff5252}.cls-8{fill:#69f0ae}.cls-9{fill:#ff9800}.cls-10,.cls-12{fill:#6c63ff}.cls-11{fill:#ff0}.cls-12,.cls-15,.cls-16,.cls-17,.cls-19{opacity:.5}.cls-13{isolation:isolate}.cls-14{fill:url(#linear-gradient-4)}.cls-15{fill:#cecece}.cls-16{fill:#e9e9e9}.cls-18{fill:url(#linear-gradient-9)}.cls-19{fill:#62f2ac}.cls-20,.cls-21,.cls-22,.cls-23,.cls-24,.cls-25{fill:none;stroke:#6c63ff;stroke-miterlimit:10}.cls-21{stroke-dasharray:11.51 11.51}.cls-22{stroke-dasharray:13.06 13.06}.cls-23{stroke-dasharray:9.79 9.79}.cls-24{stroke-dasharray:11.28 11.28}.cls-25{stroke-dasharray:11.93 11.93}.cls-26{fill:url(#linear-gradient-10)}.cls-27{fill:url(#linear-gradient-11)}.cls-28,.cls-33,.cls-39{opacity:.2}.cls-29{fill:url(#linear-gradient-12)}.cls-30{fill:url(#linear-gradient-13)}.cls-31{fill:#ca7070}.cls-32{fill:#00695c}.cls-34{fill:#263238}.cls-35{fill:url(#linear-gradient-14)}.cls-36{fill:url(#linear-gradient-15)}.cls-37{fill:#f6b9ad}.cls-38{fill:#fccc63}.cls-40{fill:url(#linear-gradient-23)}.cls-41{fill:#985454}.cls-42{fill:rgba(128,128,128,.25)}.cls-43{fill:#ededed}.cls-44{fill:#c1c1c1}
        </style>
        <linearGradient id="linear-gradient" x1=".5" x2=".5" y1="1" gradientUnits="objectBoundingBox">
            <stop offset="0" stop-color="gray" stop-opacity=".251"/>
            <stop offset=".54" stop-color="gray" stop-opacity=".122"/>
            <stop offset="1" stop-color="gray" stop-opacity=".102"/>
        </linearGradient>
        <linearGradient id="linear-gradient-3" xlink:href="#linear-gradient"/>
        <linearGradient id="linear-gradient-4" x1=".5" x2=".5" y2="1" gradientUnits="objectBoundingBox">
            <stop offset="0" stop-color="gray" stop-opacity=".251"/>
            <stop offset="1" stop-color="#404040" stop-opacity=".251"/>
        </linearGradient>
        <linearGradient id="linear-gradient-9" x1=".516" x2=".516" y1=".999" y2="-.001" xlink:href="#linear-gradient"/>
        <linearGradient id="linear-gradient-10" x1="1.221" x2="1.221" y1="1.356" y2=".356" xlink:href="#linear-gradient"/>
        <linearGradient id="linear-gradient-11" x1="1.26" x2="1.26" y1="1.627" y2=".627" xlink:href="#linear-gradient"/>
        <linearGradient id="linear-gradient-12" x1=".506" x2=".506" y1=".964" y2=".023" xlink:href="#linear-gradient"/>
        <linearGradient id="linear-gradient-13" xlink:href="#linear-gradient"/>
        <linearGradient id="linear-gradient-14" x1=".498" x2=".498" y2=".007" xlink:href="#linear-gradient"/>
        <linearGradient id="linear-gradient-15" xlink:href="#linear-gradient"/>
        <linearGradient id="linear-gradient-23" x2="1" y1=".5" y2=".5" xlink:href="#linear-gradient"/>
    </defs>
    <g id="Group_1296" data-name="Group 1296" transform="translate(158.919 104.861)">
        <g id="Group_1308" data-name="Group 1308" transform="rotate(-39 144.388 303.655)">
            <path id="Path_1101" d="M639.141 276.972a190.655 190.655 0 0 1-3.683 37.417q-.566 2.847-1.225 5.669-.387 1.7-.811 3.381-.273 1.093-.566 2.187a190.833 190.833 0 0 1-100.249 122.332 187.3 187.3 0 0 1-24.861 10.1q-1.942.632-3.9 1.225h-.006a190.207 190.207 0 0 1-55.114 8.107q-4.016 0-7.918-.182a157.863 157.863 0 0 1-21-2.331c-85.273-15.409-127.045-99.381-161.5-187.9q-1.282-3.29-2.52-6.536l-.6-1.6C163.531 26.482 262.925-34.847 448.723 86.555c88.038 57.521 190.418 85.254 190.418 190.417z" class="cls-1" data-name="Path 1101" transform="translate(-220.597 -26)"/>
            <circle id="Ellipse_57" cx="9.427" cy="9.427" r="9.427" class="cls-2" data-name="Ellipse 57" transform="translate(274.002 29.762)"/>
        </g>
        <ellipse id="Ellipse_29" cx="33.383" cy="8.47" class="cls-2" data-name="Ellipse 29" rx="33.383" ry="8.47" transform="translate(150.969 337.339)"/>
        <ellipse id="Ellipse_30" cx="33.383" cy="8.47" class="cls-2" data-name="Ellipse 30" rx="33.383" ry="8.47" transform="translate(153.461 243.668)"/>
        <ellipse id="Ellipse_31" cx="33.383" cy="8.47" class="cls-2" data-name="Ellipse 31" rx="33.383" ry="8.47" transform="translate(0 247.654)"/>
        <path id="Rectangle_1871" d="M0 0h190.829v7.225H0z" class="cls-3" data-name="Rectangle 1871" transform="translate(11.27 1.993)"/>
        <path id="Rectangle_1872" d="M0 0h197.306v242.149H0z" class="cls-4" data-name="Rectangle 1872" transform="translate(7.783)"/>
        <path id="Rectangle_1873" d="M0 0h190.829v228.945H0z" class="cls-5" data-name="Rectangle 1873" transform="translate(11.27 9.218)"/>
        <g id="Group_1305" data-name="Group 1305" transform="translate(-142 31)">
            <path id="Rectangle_1912" d="M0 0h72.246v76.73H0z" class="cls-4" data-name="Rectangle 1912" transform="translate(260.395 120.417)"/>
            <path id="Rectangle_1913" d="M0 0h69.257v71.748H0z" class="cls-5" data-name="Rectangle 1913" transform="translate(261.889 122.908)"/>
            <path id="Path_1075" d="M741.4 361.888a30.891 30.891 0 1 0 7.474 20.154 30.892 30.892 0 0 0-7.474-20.154zm-12.456 38.6a12.205 12.205 0 1 1 .015 0z" class="cls-6" data-name="Path 1075" transform="translate(-421.724 -223.261)"/>
            <path id="Path_1076" d="M764.591 370.234l6.8-5.854a29.322 29.322 0 0 0-22.271-10.22v8.968a20.384 20.384 0 0 1 15.471 7.106z" class="cls-7" data-name="Path 1076" transform="translate(-452.852 -224.775)"/>
            <path id="Path_1077" d="M736.9 451.265a20.3 20.3 0 0 1-8.43-1.829l-3.7 8.176a29.4 29.4 0 0 0 27.15-1.495l-4.584-7.718a20.3 20.3 0 0 1-10.436 2.866z" class="cls-8" data-name="Path 1077" transform="translate(-440.634 -272.06)"/>
            <path id="Path_1078" d="M789.023 393.838a29.272 29.272 0 0 0-7.123-19.178l-6.8 5.854a20.393 20.393 0 0 1-5.037 30.891l4.584 7.718a29.4 29.4 0 0 0 14.38-25.286z" class="cls-9" data-name="Path 1078" transform="translate(-463.358 -235.061)"/>
            <path id="Path_1079" d="M699.087 383.547a20.428 20.428 0 0 1 20.428-20.428v-8.969a29.4 29.4 0 0 0-12.132 56.173l3.7-8.176a20.428 20.428 0 0 1-12-18.6z" class="cls-10" data-name="Path 1079" transform="translate(-423.246 -224.77)"/>
        </g>
        <ellipse id="Ellipse_32" cx="1.5" cy="2.5" class="cls-7" data-name="Ellipse 32" rx="1.5" ry="2.5" transform="translate(14.086 2.965)"/>
        <circle id="Ellipse_33" cx="1.744" cy="1.744" r="1.744" class="cls-11" data-name="Ellipse 33" transform="translate(18.246 3.986)"/>
        <circle id="Ellipse_34" cx="1.744" cy="1.744" r="1.744" class="cls-8" data-name="Ellipse 34" transform="translate(23.044 3.986)"/>
        <path id="Rectangle_1876" d="M0 0h74.239v4.484H0z" class="cls-12" data-name="Rectangle 1876" transform="translate(16.751 180.864)"/>
        <g id="Group_1302" data-name="Group 1302">
            <g id="Group_1285" class="cls-13" data-name="Group 1285" transform="translate(16.751 17.937)">
                <path id="Rectangle_1874" d="M0 0h37.482v42.703H0z" class="cls-14" data-name="Rectangle 1874" transform="translate(0 17)"/>
                <path id="Rectangle_1950" d="M0 0h35.482v40.703H0z" class="cls-5" data-name="Rectangle 1950" transform="translate(1 18)"/>
            </g>
            <g id="Group_1300" class="cls-13" data-name="Group 1300" transform="translate(64.101 34.937)">
                <path id="Rectangle_1874-2" d="M0 0h37.482v42.703H0z" class="cls-14" data-name="Rectangle 1874"/>
                <path id="Rectangle_1951" d="M0 0h35.482v40.703H0z" class="cls-5" data-name="Rectangle 1951" transform="translate(1 1)"/>
            </g>
            <g id="Group_1301" class="cls-13" data-name="Group 1301" transform="translate(111.45 34.937)">
                <path id="Rectangle_1874-3" d="M0 0h37.482v42.703H0z" class="cls-14" data-name="Rectangle 1874"/>
                <path id="Rectangle_1952" d="M0 0h35.482v40.703H0z" class="cls-5" data-name="Rectangle 1952" transform="translate(1 1)"/>
            </g>
            <g id="Group_1299" class="cls-13" data-name="Group 1299" transform="translate(158.8 34.937)">
                <path id="Rectangle_1874-4" d="M0 0h37.482v42.703H0z" class="cls-14" data-name="Rectangle 1874"/>
                <path id="Rectangle_1953" d="M0 0h35.482v40.703H0z" class="cls-5" data-name="Rectangle 1953" transform="translate(1 1)"/>
            </g>
            <path id="Rectangle_1954" d="M0 0h74.239v4.484H0z" class="cls-15" data-name="Rectangle 1954" transform="translate(16.751 25.864)"/>
            <path id="Rectangle_1956" d="M0 0h29.239v4.484H0z" class="cls-16" data-name="Rectangle 1956" transform="translate(20.751 63.864)"/>
            <path id="Rectangle_1958" d="M0 0h29.239v4.484H0z" class="cls-16" data-name="Rectangle 1958" transform="translate(67.751 63.864)"/>
            <path id="Rectangle_1960" d="M0 0h29.239v4.484H0z" class="cls-16" data-name="Rectangle 1960" transform="translate(115.751 63.864)"/>
            <path id="Rectangle_1962" d="M0 0h29.239v4.484H0z" class="cls-16" data-name="Rectangle 1962" transform="translate(161.751 63.864)"/>
            <path id="Rectangle_1955" d="M0 0h23.418v13.484H0z" class="cls-1" data-name="Rectangle 1955" transform="translate(23.952 46.864)"/>
            <path id="Rectangle_1957" d="M0 0h23.418v13.484H0z" class="cls-1" data-name="Rectangle 1957" transform="translate(70.952 46.864)"/>
            <path id="Rectangle_1959" d="M0 0h23.418v13.484H0z" class="cls-1" data-name="Rectangle 1959" transform="translate(118.952 46.864)"/>
            <path id="Rectangle_1961" d="M0 0h23.418v13.484H0z" class="cls-1" data-name="Rectangle 1961" transform="translate(164.952 46.864)"/>
        </g>
        <path id="Rectangle_1883" d="M0 0h74.239v4.484H0z" class="cls-3" data-name="Rectangle 1883" transform="translate(16.751 194.815)"/>
        <path id="Rectangle_1886" d="M0 0h74.239v4.484H0z" class="cls-12" data-name="Rectangle 1886" transform="translate(16.751 208.766)"/>
        <path id="Rectangle_1887" d="M0 0h74.239v4.484H0z" class="cls-3" data-name="Rectangle 1887" transform="translate(16.751 222.717)"/>
        <path id="Rectangle_1902" d="M0 0h182.857v74.737H0z" class="cls-4" data-name="Rectangle 1902" transform="translate(15.256 90.681)"/>
        <path id="Rectangle_1903" d="M0 0h178.871v70.751H0z" class="cls-12" data-name="Rectangle 1903" transform="translate(16.751 92.176)"/>
        <path id="Path_1026" d="M39.1 190.481h173.39V185H33.62v70.751h5.48z" class="cls-17" data-name="Path 1026" transform="translate(-16.869 -92.824)"/>
        <path id="Rectangle_1904" d="M0 0h184.352v75.734H0z" class="cls-18" data-name="Rectangle 1904" transform="rotate(-5.2 1138.84 -126.82)"/>
        <path id="Rectangle_1905" d="M0 0h178.871v70.751H0z" class="cls-5" data-name="Rectangle 1905" transform="rotate(-5.2 1159.224 -160.716)"/>
        <path id="Path_1027" d="M216.889 360.2l-3.089-39.25s15.944-16.94 48.131-4.385 47.363 3.692 52.6-4.788 32.386-17.937 41.185-3.752 19.352-1.764 19.352-1.764l3.567 39.2z" class="cls-19" data-name="Path 1027" transform="translate(-184.254 -197.973)"/>
        <path id="Line_129" d="M0 0l.269 2.98" class="cls-20" data-name="Line 129" transform="translate(48.843 114.428)"/>
        <path id="Line_130" d="M0 0l2.86 31.42" class="cls-21" data-name="Line 130" transform="translate(49.636 123.117)"/>
        <path id="Line_131" d="M0 0l.274 2.975" class="cls-20" data-name="Line 131" transform="translate(52.755 157.392)"/>
        <path id="Line_132" d="M0 0l.274 2.975" class="cls-20" data-name="Line 132" transform="translate(79.481 119.291)"/>
        <path id="Line_133" d="M0 0l2.068 22.675" class="cls-22" data-name="Line 133" transform="translate(80.343 128.747)"/>
        <path id="Line_134" d="M0 0l.269 2.98" class="cls-20" data-name="Line 134" transform="translate(82.704 154.661)"/>
        <path id="Line_135" d="M0 0l.299 2.975" class="cls-20" data-name="Line 135" transform="translate(110.741 124.612)"/>
        <path id="Line_136" d="M0 0l1.684 16.99" class="cls-23" data-name="Line 136" transform="translate(111.523 132.444)"/>
        <path id="Line_137" d="M0 0l.294 2.98" class="cls-20" data-name="Line 137" transform="translate(113.451 151.861)"/>
        <path id="Line_138" d="M0 0l.269 2.98" class="cls-20" data-name="Line 138" transform="translate(138.837 107.044)"/>
        <path id="Line_139" d="M0 0l2.805 30.787" class="cls-24" data-name="Line 139" transform="translate(139.614 115.619)"/>
        <path id="Line_140" d="M0 0l.274 2.98" class="cls-20" data-name="Line 140" transform="translate(142.673 149.201)"/>
        <path id="Line_141" d="M0 0l.269 2.975" class="cls-20" data-name="Line 141" transform="translate(159.116 102.933)"/>
        <path id="Line_142" d="M0 0l2.965 32.551" class="cls-25" data-name="Line 142" transform="translate(159.923 111.827)"/>
        <path id="Line_143" d="M0 0l.274 2.975" class="cls-20" data-name="Line 143" transform="translate(163.156 147.337)"/>
        <circle id="Ellipse_35" cx="2.491" cy="2.491" r="2.491" class="cls-9" data-name="Ellipse 35" transform="rotate(-5.2 1256.028 -450.971)"/>
        <circle id="Ellipse_36" cx="2.491" cy="2.491" r="2.491" class="cls-7" data-name="Ellipse 36" transform="rotate(-5.2 1328.871 -784.099)"/>
        <circle id="Ellipse_37" cx="2.491" cy="2.491" r="2.491" class="cls-8" data-name="Ellipse 37" transform="rotate(-5.2 1401.18 -1128.284)"/>
        <circle id="Ellipse_38" cx="3.488" cy="3.488" r="3.488" class="cls-26" data-name="Ellipse 38" transform="rotate(-5.2 1211.426 -1433.008)"/>
        <circle id="Ellipse_39" cx="3.488" cy="3.488" r="3.488" class="cls-27" data-name="Ellipse 39" transform="rotate(-5.2 1179.045 -1662.421)"/>
        <circle id="Ellipse_40" cx="2.491" cy="2.491" r="2.491" class="cls-10" data-name="Ellipse 40" transform="rotate(-5.2 1221.9 -1444.482)"/>
        <circle id="Ellipse_41" cx="2.491" cy="2.491" r="2.491" class="cls-10" data-name="Ellipse 41" transform="rotate(-5.2 1189.518 -1673.895)"/>
        <circle id="Ellipse_42" cx="2.491" cy="2.491" r="2.491" class="cls-8" data-name="Ellipse 42" transform="rotate(-5.2 1272.813 -2018.497)"/>
        <g id="Group_1287" class="cls-28" data-name="Group 1287" transform="translate(195.941 158.779)">
            <path id="Path_1028" d="M547.76 413.177l.035.115c.384-.215-.035-.115-.035-.115z" class="cls-29" data-name="Path 1028" transform="translate(-547.76 -413.154)"/>
        </g>
        <g id="Group_1288" class="cls-28" data-name="Group 1288" transform="translate(161.904 156.451)">
            <path id="Path_1029" d="M509.358 494.529l8.112-1.31-1.116-4.982v-.07h-.03l-5.75-26.407V442.5a7.144 7.144 0 0 0-.04-.732c8.59-11.39 3.488-29.262 2.99-30.822-.09.045-.224.1-.414.179a10.49 10.49 0 0 0-.394-2.058s-2.491-1.584-3.851.453c-1.186 1.779-.3 2.865-.06 3.119l-.169.055a5.737 5.737 0 0 1 .787 1.963 4.306 4.306 0 0 0-.269-.5c-.314-.055-.5-.1-.5-.1L508.6 414l-.169.055c.862 1.261 1.166 3.488 1.126 6.129a8.65 8.65 0 0 0-1-1.151 8.794 8.794 0 0 0-5.829-2.431h-.414a5.157 5.157 0 0 0-.678.045h-.169l-.284.04-.324.06-.234.05-.4.11-.149.045a9.85 9.85 0 0 0-.5.174 8.593 8.593 0 0 1-1.709.618.833.833 0 0 0-.244.025 2.85 2.85 0 0 1-1.868-.533l-.179-.139a2.64 2.64 0 0 1-.194-.184 1.264 1.264 0 0 0-.085.543 1.669 1.669 0 0 0 .583 1.131 1.581 1.581 0 0 0 .309.209 1.336 1.336 0 0 0 .528.149h.144c-.115.055-.229.1-.349.149h-.025a5.01 5.01 0 0 1-.389.12 4.325 4.325 0 0 1-1.993.03l-.214-.05c-.1-.03-.214-.06-.314-.095a2.376 2.376 0 0 0 .11.219l.04.065.09.139.055.07.1.125.06.065.125.125.05.045.184.154.065.045.135.095.09.055.12.07.1.05.125.055.1.045.14.05.174.05.13.035h.867a2.494 2.494 0 0 0 .747-.184l-.458.189-.229.08-.234.085-.234.07-.239.07-.234.06-.249.06-.229.045-.264.045-.219.035-.284.035h-1.2a2.1 2.1 0 0 1 .752.4 1.994 1.994 0 0 0 .463.249 1.769 1.769 0 0 0 .224.05h1.116a3.259 3.259 0 0 1 1.29.414 2.32 2.32 0 0 1 .553.5c-.07.115-.139.224-.2.344s-.1.2-.154.3a6.187 6.187 0 0 0-.264.633 7.015 7.015 0 0 0-.428 2.417v.578a1.65 1.65 0 0 0 .04.359v.095q.03.219.08.433v.085q.04.179.09.354l.03.1a7 7 0 0 0 .3.827l.035.08q.085.184.174.359v.035q.109.2.229.394v.03q.11.179.234.349l.03.04a7.05 7.05 0 0 0 .583.7 7.045 7.045 0 0 0 1.878 1.41 3.1 3.1 0 0 0-.055.324 3.168 3.168 0 0 0 0 .339v2.631q-.224.12-.438.254c-6.243-2.835-15.54-22.919-15.54-22.919h-.224c.907-.678 0-3.627 0-3.627a4.254 4.254 0 0 0-1.744-.578h-.8l-.1.03h-.05l-.149.055-.14.065-.05.025-.095.055-.065.3-.09.06-.055.045-.085.07-.055.05-.085.08-.05.055-.085.1-.04.05-.125.169c-1.36 2.038 0 3.174 0 3.174a20.3 20.3 0 0 0-.125 2.367c-.1 14.678 15.61 26.053 16.412 26.621a30.132 30.132 0 0 0 .035 19.178.319.319 0 0 0 .04.07 29.437 29.437 0 0 0-8.829 27.842l.065.3h.144a1.993 1.993 0 0 1-.055.2 2.279 2.279 0 0 1-.145.349 2.705 2.705 0 0 1-.364.533 8.712 8.712 0 0 1-.523.543l-.2.189c-.792.757-1.594 1.495-1 1.794h8.575v-3.742h.149s-.06-.115-.149-.339v-.04h-.03c-.448-1.156-1.495-4.733.179-10.244 2.038-6.8 9.965-10.2 9.965-10.2l.145.5h-.03l6.218 20.428a.836.836 0 0 1-.025.244 3.335 3.335 0 0 1-.135.568 3.622 3.622 0 0 1-.169.419c-.384.792-1.046 1.724-1.335 2.422a2.346 2.346 0 0 0-.1.294.907.907 0 0 0-.035.349.4.4 0 0 0 .264.334h.115l.239-.04zm-2.4-58.161q-.234-.13-.5-.244v-2.471a3.151 3.151 0 0 0-.055-.563 7.034 7.034 0 0 0 1.495-.962c-.3 1.525-.633 2.985-.937 4.24z" class="cls-30" data-name="Path 1029" transform="translate(-479.447 -408.482)"/>
        </g>
        <path id="Path_1030" d="M479.711 418.386s-1.495-1.256 0-3.518 4.27-.5 4.27-.5 1 3.264 0 4.016-4.27.002-4.27.002z" class="cls-31" data-name="Path 1030" transform="translate(-317.342 -254.657)"/>
        <path id="_Path_" d="M501.745 591.75h-6.921a2.272 2.272 0 0 1-.653 1.779c-.932 1.076-2.805 2.377-1.923 2.82h9.5z" class="cls-32" data-name="&lt;Path&gt;" transform="translate(-323.85 -343.986)"/>
        <path id="Path_1031" d="M494.68 593.529a2.272 2.272 0 0 0 .653-1.779h-.5a2.272 2.272 0 0 1-.653 1.779c-.932 1.076-2.805 2.377-1.923 2.82h.5c-.882-.444.991-1.739 1.923-2.82z" class="cls-33" data-name="Path 1031" transform="translate(-323.855 -343.986)"/>
        <path id="_Path_2" d="M552.531 588.89l-6.477 1.051a3.3 3.3 0 0 1-.294 2.282c-.708 1.495-2.3 3.358-1.34 3.762l9.377-1.495z" class="cls-32" data-name="&lt;Path&gt;" transform="translate(-349.993 -342.551)"/>
        <path id="Path_1032" d="M545.995 416.922s7.409 23.373-5.017 36.312l-3.587-2.745s7.344-25.51 3.234-31.5c7.253-2.415 5.37-2.067 5.37-2.067z" class="cls-32" data-name="Path 1032" transform="translate(-346.616 -256.257)"/>
        <path id="Path_1033" d="M543.711 416.376s-1.495-1.256 0-3.518 4.27-.5 4.27-.5 1 3.263 0 4.016-4.27.002-4.27.002z" class="cls-31" data-name="Path 1033" transform="translate(-349.454 -253.649)"/>
        <path id="Path_1034" d="M546.258 592.2a3.3 3.3 0 0 0 .294-2.287l5.979-1v-.08l-6.477 1.076a3.3 3.3 0 0 1-.294 2.282c-.708 1.495-2.3 3.358-1.34 3.762l.393-.065c-.713-.488.768-2.28 1.445-3.688z" class="cls-33" data-name="Path 1034" transform="translate(-349.993 -342.526)"/>
        <rect id="Rectangle_1906" width="7.03" height="10.418" class="cls-31" data-name="Rectangle 1906" rx="3.515" transform="translate(184.591 182.439)"/>
        <path id="Path_1035" d="M537.642 455.544s7.255-25.2 3.3-31.39a18.247 18.247 0 0 1-.573-.115l-.065-.06-.184.06c4.111 5.979-3.234 31.5-3.234 31.5l3.587 2.745.314-.339z" class="cls-33" data-name="Path 1035" transform="translate(-346.365 -259.807)"/>
        <circle id="Ellipse_43" cx="7.783" cy="7.783" r="7.783" class="cls-31" data-name="Ellipse 43" transform="translate(180.451 170.516)"/>
        <path id="Path_1036" d="M521.679 455.549v-3.388a3.491 3.491 0 0 1 .08-.737 7.783 7.783 0 0 1 3.119-14.693h-.439a7.783 7.783 0 0 0-3.562 14.7 3.492 3.492 0 0 0-.08.737v3.388a3.488 3.488 0 0 0 3.956 3.488 3.528 3.528 0 0 1-3.074-3.5z" class="cls-33" data-name="Path 1036" transform="translate(-336.211 -266.204)"/>
        <path id="Path_1037" d="M530.744 500.853s-15.012 1.694-15.565 0a33.187 33.187 0 0 1 0-21.34 7.783 7.783 0 0 1 7.783-7.783 7.783 7.783 0 0 1 7.783 7.783z" class="cls-32" data-name="Path 1037" transform="translate(-334.603 -283.766)"/>
        <path id="Path_1038" d="M521.81 530.18l6.781 31.136h-6.781l-7.03-23.1s-8.789 3.767-11.046 11.3 0 11.8 0 11.8h-7.284l-.075-.339a32.386 32.386 0 0 1 9.865-30.8" class="cls-34" data-name="Path 1038" transform="translate(-325.669 -313.093)"/>
        <path id="Path_1039" d="M515.93 500.868a33.186 33.186 0 0 1 0-21.34 7.783 7.783 0 0 1 7.281-7.768h-.5a7.783 7.783 0 0 0-7.783 7.783 33.193 33.193 0 0 0 0 21.34c.2.608 2.252.777 4.8.752-2.069-.045-3.639-.244-3.798-.767z" class="cls-33" data-name="Path 1039" transform="translate(-334.478 -283.781)"/>
        <path id="Path_1040" d="M498.324 454.978s-20.084-14.061-18.076-31.888h4.519s10.792 23.373 17.708 25.615-4.151 6.273-4.151 6.273z" class="cls-32" data-name="Path 1040" transform="translate(-317.874 -259.361)"/>
        <g id="Group_1289" class="cls-28" data-name="Group 1289" transform="translate(169.984 217.211)">
            <path id="Path_1041" d="M534.31 546.983l6.9 22.675h1l-7.03-23.1s-.327.142-.87.425z" class="cls-5" data-name="Path 1041" transform="translate(-515.054 -538.523)"/>
            <path id="Path_1042" d="M507.256 530.43h-1a32.386 32.386 0 0 0-9.865 30.8l.075.339h1l-.075-.339a32.386 32.386 0 0 1 9.865-30.8z" class="cls-5" data-name="Path 1042" transform="translate(-495.663 -530.43)"/>
        </g>
        <path id="Path_1043" d="M481 423.6h-.752c-1.993 17.827 18.076 31.888 18.076 31.888l.5-.189c-2.324-1.719-19.7-15.058-17.824-31.699z" class="cls-33" data-name="Path 1043" transform="translate(-317.876 -259.616)"/>
        <path id="Path_1044" d="M514.521 437.529a12.88 12.88 0 0 1 .907 3.134 8.31 8.31 0 0 0 3.563 5.481 7.905 7.905 0 0 0 3.488.952 6.66 6.66 0 0 0 5.172-1.559 6.408 6.408 0 0 0 1.579-3.184 10.777 10.777 0 0 0-2.835-9.905 9.561 9.561 0 0 0-9.965-2.088 9.522 9.522 0 0 1-1.888.688 3.144 3.144 0 0 1-2.755-.917 1.739 1.739 0 0 0 1.679 2.252 4.848 4.848 0 0 1-3.717.2 3.154 3.154 0 0 0 3.986 1.589 10.622 10.622 0 0 1-4.484.917c.324 0 .957.6 1.35.717a8.558 8.558 0 0 0 1.495.1 2.9 2.9 0 0 1 2.425 1.623z" class="cls-34" data-name="Path 1044" transform="translate(-332.496 -262.709)"/>
        <g id="Group_1290" class="cls-28" data-name="Group 1290" transform="translate(176.734 167.048)">
            <path id="Path_1045" d="M515.893 432.732a4.8 4.8 0 0 1-1.844.473 4.833 4.833 0 0 0 2.347-.473 1.759 1.759 0 0 1-1.764-1.9 2.967 2.967 0 0 1-.419-.354 1.739 1.739 0 0 0 1.679 2.252z" class="cls-5" data-name="Path 1045" transform="translate(-511.638 -430.117)"/>
            <path id="Path_1046" d="M520.137 431.046a9.516 9.516 0 0 0 1.888-.688 8.662 8.662 0 0 1 2.99-.6 8.751 8.751 0 0 0-3.488.6 9.519 9.519 0 0 1-1.888.688.827.827 0 0 0-.269.03 2.992 2.992 0 0 0 .767-.03z" class="cls-5" data-name="Path 1046" transform="translate(-514.308 -429.751)"/>
            <path id="Path_1047" d="M511.058 440.254c-.394-.115-1.026-.707-1.35-.717a10.623 10.623 0 0 0 4.484-.917 2.78 2.78 0 0 1-1 .209 10.628 10.628 0 0 1-3.986.707c.324 0 .957.6 1.35.717a3.343 3.343 0 0 0 1.046.085 2.185 2.185 0 0 1-.544-.084z" class="cls-5" data-name="Path 1047" transform="translate(-509.21 -434.201)"/>
            <path id="Path_1048" d="M525.591 453.292a7.906 7.906 0 0 1-3.488-.952 8.43 8.43 0 0 1-3.562-5.481 12.885 12.885 0 0 0-.907-3.134 2.9 2.9 0 0 0-2.456-1.609 5.016 5.016 0 0 0-.747 0h.244a2.9 2.9 0 0 1 2.456 1.609 12.88 12.88 0 0 1 .907 3.134 8.31 8.31 0 0 0 3.562 5.481 7.907 7.907 0 0 0 3.488.952h.5z" class="cls-5" data-name="Path 1048" transform="translate(-511.829 -435.948)"/>
            <path id="Path_1049" d="M513.424 437.194a3.179 3.179 0 0 1-2.551-1.629 4.655 4.655 0 0 1-.583-.164 3.179 3.179 0 0 0 3.134 1.793z" class="cls-5" data-name="Path 1049" transform="translate(-509.752 -432.585)"/>
        </g>
        <path id="Path_1050" d="M480.219 418.382s-1.495-1.256 0-3.518a2.407 2.407 0 0 1 1.863-1.141 2.441 2.441 0 0 0-2.362 1.141c-1.495 2.262 0 3.518 0 3.518a13.613 13.613 0 0 0 2.955.329 14.86 14.86 0 0 1-2.456-.329z" class="cls-33" data-name="Path 1050" transform="translate(-317.347 -254.652)"/>
        <g id="Group_1291" class="cls-28" data-name="Group 1291" transform="translate(18.222 163.693)">
            <path id="Path_1051" d="M191.27 423.173l.04-.135s-.51-.099-.04.135z" class="cls-35" data-name="Path 1051" transform="translate(-191.072 -423.018)"/>
        </g>
        <g id="Group_1292" class="cls-28" data-name="Group 1292" transform="translate(7.872 160.878)">
            <path id="Path_1052" d="M227.8 428.689a3.288 3.288 0 0 0-.179-.463c0-.05-.05-.09-.075-.134a2.793 2.793 0 0 0-.149-.259l-.1-.13a2.54 2.54 0 0 0-.164-.194l-.115-.115q-.09-.082-.179-.15l-.125-.09-.2-.12-.125-.065-.224-.095-.115-.045a2.748 2.748 0 0 0-.324-.09 5.146 5.146 0 0 0-2.187.06s-2.088 3.079-1.286 4.185l-.264-.08s-15.51 17.309-24.26 20.523q-.334-.229-.693-.428v-3.239a3.817 3.817 0 0 0 0-.409 3.789 3.789 0 0 0-.065-.384l.065-.035.259-.144.374-.229.239-.154a4.963 4.963 0 0 0 .5-.389l.194-.169q.179-.149.344-.314l.2-.194q.209-.214.4-.438l.14-.169q.179-.224.344-.458l.139-.209q.149-.229.284-.468l.09-.154a6.812 6.812 0 0 0 .3-.638l.08-.194q.1-.264.194-.533a.925.925 0 0 1 .06-.189c.07-.234.135-.468.184-.712a.3.3 0 0 1 .025-.145q.06-.3.095-.618v-.214c0-.254.04-.5.04-.772a8.471 8.471 0 0 0-1.884-5.327c.663-1.036 1.1-1.648 1.1-1.648-.4-.274-.792-.523-1.181-.767l-.379-.224c-.259-.154-.5-.309-.777-.448l-.433-.229a17.495 17.495 0 0 0-.693-.354l-.443-.2-.663-.289-.433-.174a20.107 20.107 0 0 0-.653-.239l-.409-.139c-.224-.07-.448-.135-.668-.194l-.364-.1c-.249-.06-.5-.11-.742-.159l-.264-.055c-.334-.06-.663-.1-1-.135a11.813 11.813 0 0 0-5.979.917 11.035 11.035 0 0 1 1.335-5.56l-.2-.07-.07.07s-.244.055-.628.125a5.2 5.2 0 0 0-.324.6 6.93 6.93 0 0 1 .952-2.372l-.2-.07c.294-.3 1.36-1.614-.07-3.762-1.644-2.461-4.654-.548-4.654-.548a12.734 12.734 0 0 0-.468 2.491 7.573 7.573 0 0 1-.5-.219 62.031 62.031 0 0 0-2.337 15.625c-5.426 7.7-7.668 19.073-8.107 21.524l-.035.194-.045.274 14.105.329v22.481l-10.269 21.719s3.906.125 9.786.877l-1.627 11.614-.543 3.258h9.776c1.086-2.172-4.345-3.258-4.345-3.258h-.12l2.118-10.837q1.405.234 2.89.5a28.318 28.318 0 0 0 4.4.5 23.38 23.38 0 0 0 3.662-.159 25.491 25.491 0 0 1-.4 9.965h-.055l-.543 3.258h9.776c.947-1.893-3.059-2.964-4.1-3.2l.045-.319a54.518 54.518 0 0 0 .384-11.061 13.389 13.389 0 0 0 3.488-2.078l.135-.12.04-.04-7.288-20.435c1.36-5.78-3.373-11.848-.847-14.883s1-6.906.7-7.568c6.836-2.99 20.652-10.463 24.529-23.418a24.5 24.5 0 0 0 .693-2.775s1.95-.792 1.105-3.627z" class="cls-36" data-name="Path 1052" transform="translate(-170.3 -417.368)"/>
        </g>
        <path id="Path_1053" d="M192.373 430.922s-7.409 23.373 5.017 36.312l3.587-2.745s-7.344-25.51-3.234-31.5c-7.254-2.415-5.37-2.067-5.37-2.067z" class="cls-7" data-name="Path 1053" transform="translate(-172.403 -263.282)"/>
        <path id="Path_1054" d="M200.114 430.376s1.495-1.256 0-3.518-4.27-.5-4.27-.5-1 3.263 0 4.016 4.27.002 4.27.002z" class="cls-37" data-name="Path 1054" transform="translate(-175.022 -260.673)"/>
        <rect id="Rectangle_1907" width="7.03" height="10.418" class="cls-37" data-name="Rectangle 1907" rx="3.515" transform="rotate(180 17.379 99.916)"/>
        <path id="Path_1055" d="M206.327 469.544s-7.254-25.2-3.3-31.39c.349-.065.573-.115.573-.115l.065-.06.184.06c-4.111 5.979 3.234 31.5 3.234 31.5l-3.587 2.745-.314-.339z" class="cls-33" data-name="Path 1055" transform="translate(-178.256 -266.832)"/>
        <circle id="Ellipse_44" cx="7.783" cy="7.783" r="7.783" class="cls-37" data-name="Ellipse 44" transform="translate(23.333 177.491)"/>
        <path id="Path_1056" d="M219.279 469.549v-3.388a3.487 3.487 0 0 0-.08-.737 7.783 7.783 0 0 0-3.119-14.693h.438a7.783 7.783 0 0 1 3.562 14.7 3.484 3.484 0 0 1 .08.738v3.388a3.488 3.488 0 0 1-3.956 3.488 3.528 3.528 0 0 0 3.075-3.496z" class="cls-33" data-name="Path 1056" transform="translate(-185.398 -273.229)"/>
        <path id="Path_1057" d="M201.08 514.853s15.012 1.694 15.565 0c1.794-5.481-2.989-11.4-.6-14.3 2.491-2.99.6-7.04.6-7.04a7.783 7.783 0 0 0-7.783-7.783 7.783 7.783 0 0 0-7.783 7.783z" class="cls-7" data-name="Path 1057" transform="translate(-177.872 -290.79)"/>
        <path id="Path_1058" d="M223.423 500.553c2.491-2.99.6-7.04.6-7.04a7.783 7.783 0 0 0-7.783-7.783 3.307 3.307 0 0 0-.5.025 7.778 7.778 0 0 1 7.284 7.758s1.893 4.051-.6 7.04c-2.412 2.895 2.392 8.814.6 14.3-.169.523-1.719.722-3.777.752 2.536.025 4.579-.144 4.773-.752 1.815-5.491-3.009-11.405-.597-14.3z" class="cls-33" data-name="Path 1058" transform="translate(-185.227 -290.79)"/>
        <path id="Path_1059" d="M211.48 543.18c5.481 7.768 7.907 19.506 6.338 30.8l-.045.339h-4.679s1.45-4.27 0-11.8a18.63 18.63 0 0 0-7.1-11.3l-4.514 23.1h-4.35l4.355-31.136z" class="cls-37" data-name="Path 1059" transform="translate(-175.89 -319.616)"/>
        <path id="Path_1060" d="M274.609 448.039s1.809-.757 1.031-3.363-3.936-1.729-3.936-1.729-1.918 2.825-1.176 3.841 4.081 1.251 4.081 1.251z" class="cls-37" data-name="Path 1060" transform="translate(-212.632 -269.253)"/>
        <path id="Path_1061" d="M220.545 477.167s23.323-7.558 26.626-25.191l-4.32-1.325s-17.165 19.163-24.414 19.3 2.108 7.216 2.108 7.216z" class="cls-7" data-name="Path 1061" transform="translate(-185.199 -273.189)"/>
        <path id="Path_1062" d="M250.788 453.35l.722.219c-3.3 17.633-26.626 25.191-26.626 25.191l-.414-.324c2.755-.956 23.238-8.636 26.318-25.086z" class="cls-33" data-name="Path 1062" transform="translate(-189.608 -274.544)"/>
        <g id="Group_1293" class="cls-28" data-name="Group 1293" transform="translate(24.594 223.564)">
            <path id="Path_1063" d="M208.374 559.31l-4.514 23.1h1l4.385-22.421a10.788 10.788 0 0 0-.871-.679z" class="cls-5" data-name="Path 1063" transform="translate(-203.86 -551.273)"/>
            <path id="Path_1064" d="M224.926 543.18h-1c5.481 7.768 7.907 19.506 6.338 30.8l-.045.339h1l.045-.339c1.57-11.294-.847-23.032-6.338-30.8z" class="cls-5" data-name="Path 1064" transform="translate(-213.93 -543.18)"/>
        </g>
        <path id="Path_1065" d="M275.461 447.962s1.809-.757 1.031-3.363a2.407 2.407 0 0 0-1.445-1.639 2.442 2.442 0 0 1 1.923 1.784c.777 2.6-1.031 3.363-1.031 3.363a13.609 13.609 0 0 1-2.92-.548 14.86 14.86 0 0 0 2.442.403z" class="cls-33" data-name="Path 1065" transform="translate(-213.968 -269.33)"/>
        <path id="Path_1066" d="M191.547 542.48l-9.467 19.93a117.088 117.088 0 0 1 16.442 1.993c10.463 1.993 15.446-2.99 15.446-2.99l-6.751-18.933z" class="cls-34" data-name="Path 1066" transform="translate(-168.338 -319.265)"/>
        <path id="Path_1067" d="M201.1 605.48s4.982 1 3.986 2.989h-8.966l.5-2.989z" class="cls-7" data-name="Path 1067" transform="translate(-175.383 -350.875)"/>
        <path id="Path_1068" d="M233.1 605.48s4.983 1 3.986 2.989h-8.966l.5-2.989z" class="cls-7" data-name="Path 1068" transform="translate(-191.439 -350.875)"/>
        <path id="Path_1069" d="M203.022 450s-11.958 16.94-6.477 23.916l-21.425-.5s5.98-38.365 27.902-23.416z" class="cls-38" data-name="Path 1069" transform="translate(-164.846 -271.128)"/>
        <path id="Path_1070" d="M203.022 450.058a18.149 18.149 0 0 0-8.346-3.4 21.09 21.09 0 0 1 5.854 2.9s-11.958 16.94-6.477 23.916l-18.859-.439c-.05.284-.075.439-.075.439l21.425.5c-5.48-6.974 6.478-23.916 6.478-23.916z" class="cls-33" data-name="Path 1070" transform="translate(-164.846 -271.187)"/>
        <path id="Path_1071" d="M227.889 542.48h-1.495l6.751 18.933s-3.219 3.214-9.915 3.443c7.708.249 11.41-3.443 11.41-3.443z" class="cls-33" data-name="Path 1071" transform="translate(-188.985 -319.265)"/>
        <path id="Path_1072" d="M205.116 605.48h-1s4.982 1 3.986 2.989h1c.998-1.993-3.986-2.989-3.986-2.989z" class="cls-33" data-name="Path 1072" transform="translate(-179.397 -350.875)"/>
        <path id="Path_1073" d="M237.116 605.48h-1s4.982 1 3.986 2.989h1c.998-1.993-3.986-2.989-3.986-2.989z" class="cls-33" data-name="Path 1073" transform="translate(-195.453 -350.875)"/>
        <path id="Rectangle_1908" d="M0 0h190.829v7.225H0z" class="cls-3" data-name="Rectangle 1908" transform="translate(249.433 83.546)"/>
        <path id="Rectangle_1909" d="M0 0h198.303v247.131H0z" class="cls-4" data-name="Rectangle 1909" transform="translate(245.636 81.239)"/>
        <path id="Rectangle_1910" d="M0 0h190.829v228.945H0z" class="cls-5" data-name="Rectangle 1910" transform="translate(249.433 90.771)"/>
        <circle id="Ellipse_45" cx="1.744" cy="1.744" r="1.744" class="cls-7" data-name="Ellipse 45" transform="translate(252.114 85.539)"/>
        <circle id="Ellipse_46" cx="1.744" cy="1.744" r="1.744" class="cls-11" data-name="Ellipse 46" transform="translate(256.907 85.539)"/>
        <circle id="Ellipse_47" cx="1.744" cy="1.744" r="1.744" class="cls-8" data-name="Ellipse 47" transform="translate(261.705 85.539)"/>
        <path id="Rectangle_1916" d="M0 0h169.903v52.814H0z" class="cls-4" data-name="Rectangle 1916" transform="translate(261.889 253.449)"/>
        <path id="Rectangle_1917" d="M0 0h163.425v47.334H0z" class="cls-12" data-name="Rectangle 1917" transform="translate(265.377 256.937)"/>
        <path id="Path_1074" d="M536.606 520.164h159.44v-4.484H532.62v47.334h3.986z" class="cls-17" data-name="Path 1074" transform="translate(-267.243 -258.743)"/>
        <g id="Group_1307" data-name="Group 1307" transform="rotate(-90 400.68 205.147)">
            <path id="Rectangle_1914" d="M0 0h72.246v76.73H0z" class="cls-4" data-name="Rectangle 1914" transform="translate(356.557 158.782)"/>
            <path id="Path_1099" d="M0 0h69.257v71.748H0z" class="cls-5" data-name="Path 1099" transform="translate(358.051 161.273)"/>
            <path id="Rectangle_1919" d="M0 0h51.818v7.972H0z" class="cls-10" data-name="Rectangle 1919" transform="translate(368.016 172.235)"/>
            <path id="Rectangle_1920" d="M0 0h37.867v7.972H0z" class="cls-7" data-name="Rectangle 1920" transform="translate(368.016 185.687)"/>
            <path id="Rectangle_1921" d="M0 0h25.909v7.972H0z" class="cls-8" data-name="Rectangle 1921" transform="translate(368.016 199.14)"/>
            <path id="Rectangle_1922" d="M0 0h46.835v7.972H0z" class="cls-9" data-name="Rectangle 1922" transform="translate(368.016 212.593)"/>
        </g>
        <circle id="Ellipse_48" cx="5.481" cy="5.481" r="5.481" class="cls-4" data-name="Ellipse 48" transform="translate(373.497 337.653)"/>
        <circle id="Ellipse_49" cx="3.986" cy="3.986" r="3.986" class="cls-7" data-name="Ellipse 49" transform="translate(374.992 339.148)"/>
        <path id="Rectangle_1935" d="M0 0h171.397v60.288H0z" class="cls-4" data-name="Rectangle 1935" transform="translate(217.047 282.347)"/>
        <path id="Rectangle_1936" d="M0 0h163.425v47.334H0z" class="cls-5" data-name="Rectangle 1936" transform="translate(222.029 284.839)"/>
        <path id="Rectangle_1937" d="M0 0h22.421v27.404H0z" class="cls-4" data-name="Rectangle 1937" transform="translate(229.005 294.305)"/>
        <path id="Rectangle_1938" d="M0 0h19.93v25.411H0z" class="cls-10" data-name="Rectangle 1938" transform="translate(230.251 295.551)"/>
        <path id="Rectangle_1939" d="M0 0h19.93v7.972H0z" class="cls-8" data-name="Rectangle 1939" transform="translate(355.062 313.737)"/>
        <path id="Rectangle_1940" d="M0 0h19.93v17.937H0z" class="cls-9" data-name="Rectangle 1940" transform="translate(317.693 303.274)"/>
        <path id="Rectangle_1941" d="M0 0h19.93v14.947H0z" class="cls-7" data-name="Rectangle 1941" transform="translate(273.847 306.263)"/>
        <path id="Rectangle_1942" d="M0 0h163.425v6.975H0z" class="cls-7" data-name="Rectangle 1942" transform="translate(222.029 332.172)"/>
        <circle id="Ellipse_50" cx="5.481" cy="5.481" r="5.481" class="cls-4" data-name="Ellipse 50" transform="translate(223.524 337.653)"/>
        <circle id="Ellipse_51" cx="3.986" cy="3.986" r="3.986" class="cls-7" data-name="Ellipse 51" transform="translate(225.019 339.148)"/>
        <path id="Rectangle_1943" d="M0 0h3.986v52.316H0z" class="cls-7" data-name="Rectangle 1943" transform="translate(218.044 286.832)"/>
        <path id="Rectangle_1944" d="M0 0h3.986v52.316H0z" class="cls-39" data-name="Rectangle 1944" transform="translate(218.044 286.832)"/>
        <path id="Path_1080" d="M543.29 650.151v-.4a.239.239 0 0 0-.03-.154 1.726 1.726 0 0 1-.06-.219c-.025-.07-.03-.095-.05-.144s-.06-.14-.09-.209l-.06-.125c-.04-.07-.085-.14-.13-.2l-.065-.095a3.289 3.289 0 0 0-.209-.259 4.8 4.8 0 0 0-1.39-1.026 4.009 4.009 0 0 0 .892-1.535 3.186 3.186 0 0 0 .12-.468v-.144a2.727 2.727 0 0 0 .025-.289v-.4a.24.24 0 0 0-.03-.154 1.712 1.712 0 0 1-.06-.219c-.025-.07-.03-.095-.05-.144s-.06-.14-.09-.209l-.06-.125c-.04-.07-.085-.14-.13-.2l-.065-.095a3.266 3.266 0 0 0-.209-.259 5.018 5.018 0 0 0-1.769-1.2s-3.164 1.171-3.373 2.456c-2.322.5-15.854 3.313-25.147 3.089l-.07-.184a8.265 8.265 0 0 0-4.4-7.309v-3.129a3.648 3.648 0 0 0 0-.4 3.658 3.658 0 0 0-.06-.379l.06-.035.254-.14.369-.224.234-.155q.259-.179.5-.379l.189-.164c.115-.1.224-.2.334-.3l.194-.189q.2-.209.389-.428l.135-.169q.174-.219.334-.448l.135-.2q.144-.224.279-.458l.085-.15c.11-.2.209-.409.3-.618l.075-.189q.1-.254.189-.5l.06-.184c.07-.229.13-.458.179-.693a.278.278 0 0 1 .025-.14q.055-.3.09-.6v-.2c0-.249.04-.5.04-.752a8.226 8.226 0 0 0-1.061-4.04c.533-.13.857-.235.817-.285-.2-.274-.409-.533-.623-.782l-.2-.234c-.149-.169-.294-.329-.443-.5l-.239-.244c-.149-.149-.3-.289-.448-.423l-.234-.209q-.284-.239-.568-.463l-.125-.1c-.229-.169-.458-.329-.693-.5l-.259-.159a5.33 5.33 0 0 0-.458-.264l-.309-.159-.429-.2-.314-.139c-.149-.065-.3-.12-.458-.174l-.284-.1a9.24 9.24 0 0 0-.688-.2l-.354-.08-.384-.08-.384-.06-.354-.04-.394-.035h-.732q-.324 0-.648.03c-5.1.418-9.561 4.868-9.561 11.958v5.849h7.972v2.625a8.266 8.266 0 0 0-4.8 7.5v22.675l-6.766 31.086h-.09l-1.33 5.934 9.546 1.545.414.065c1-.428-.673-2.436-1.425-3.986a4.259 4.259 0 0 1-.2-.5 3.769 3.769 0 0 1-.189-.967l7.334-24.06h-.035l.174-.563s9.337 3.986 11.739 12c1.948 6.477.737 10.692.209 12.058h-.035v.08c-.1.259-.179.4-.179.4h.179v4.4h10.095c.937-.473-1.051-1.854-2.043-2.99a2.823 2.823 0 0 1-.658-1.271h.169l.08-.359a34.643 34.643 0 0 0-10.393-32.77.386.386 0 0 0 .045-.085 37.1 37.1 0 0 0 1.749-9c7.718.737 17.987.209 25.665-5.74a23.9 23.9 0 0 0 2.1-1.784c.663-.05 1.824-.418 2.466-2.292a3.192 3.192 0 0 0 .12-.468v-.144a2.7 2.7 0 0 0 .025-.313z" class="cls-40" data-name="Path 1080" transform="translate(-320.996 -357.759)"/>
        <path id="Path_1081" d="M518.458 690.3s23.368 7.429 36.312-4.982l-2.745-3.592s-25.112 5.6-31.1 1.495-2.467 7.079-2.467 7.079z" class="cls-10" data-name="Path 1081" transform="translate(-336.603 -389.134)"/>
        <path id="Path_1082" d="M554.793 688l.458.6c-12.954 12.416-36.312 4.982-36.312 4.982s-.06-.189-.149-.5c2.785.832 23.926 6.518 36.003-5.082z" class="cls-33" data-name="Path 1082" transform="translate(-337.283 -392.28)"/>
        <path id="Path_1083" d="M588.761 683.059s1.913.434 2.8-2.133-2.192-3.7-2.192-3.7-3.2 1.181-3.194 2.436 2.586 3.397 2.586 3.397z" class="cls-41" data-name="Path 1083" transform="translate(-371.091 -386.876)"/>
        <path id="Path_1084" d="M589 683.785s1.913.433 2.8-2.133a2.406 2.406 0 0 0-.224-2.172 2.441 2.441 0 0 1 .528 2.571c-.882 2.571-2.8 2.133-2.8 2.133a13.617 13.617 0 0 1-2.053-2.147 14.878 14.878 0 0 0 1.749 1.748z" class="cls-33" data-name="Path 1084" transform="translate(-371.633 -388.005)"/>
        <path id="_Path_3" d="M541.7 781.75h6.921a2.272 2.272 0 0 0 .653 1.779c.932 1.076 2.805 2.377 1.923 2.82h-9.5z" class="cls-10" data-name="&lt;Path&gt;" transform="translate(-348.778 -439.319)"/>
        <path id="Path_1085" d="M555.226 783.529a2.272 2.272 0 0 1-.653-1.779h.5a2.272 2.272 0 0 0 .653 1.779c.932 1.076 2.805 2.377 1.923 2.82h-.5c.882-.444-.992-1.739-1.923-2.82z" class="cls-33" data-name="Path 1085" transform="translate(-355.234 -439.319)"/>
        <path id="_Path_4" d="M490.956 778.89l6.477 1.061a3.3 3.3 0 0 0 .294 2.282c.708 1.495 2.3 3.358 1.34 3.762l-9.377-1.495z" class="cls-10" data-name="&lt;Path&gt;" transform="translate(-322.682 -437.884)"/>
        <path id="Path_1086" d="M498.488 782.208a3.3 3.3 0 0 1-.294-2.282l-6-1v-.08l6.477 1.061a3.3 3.3 0 0 0 .294 2.282c.708 1.495 2.3 3.358 1.34 3.762l-.394-.065c.734-.486-.745-2.273-1.423-3.678z" class="cls-33" data-name="Path 1086" transform="translate(-323.936 -437.864)"/>
        <rect id="Rectangle_1945" width="7.03" height="10.418" class="cls-41" data-name="Rectangle 1945" rx="3.515" transform="rotate(180 93.112 143.762)"/>
        <circle id="Ellipse_52" cx="7.783" cy="7.783" r="7.783" class="cls-41" data-name="Ellipse 52" transform="translate(174.801 265.183)"/>
        <path id="Path_1087" d="M523.279 645.549v-3.388a3.491 3.491 0 0 0-.08-.737 7.783 7.783 0 0 0-3.119-14.693h.438a7.783 7.783 0 0 1 3.563 14.7 3.49 3.49 0 0 1 .08.737v3.388a3.488 3.488 0 0 1-3.956 3.488 3.527 3.527 0 0 0 3.074-3.495z" class="cls-33" data-name="Path 1087" transform="translate(-337.93 -361.537)"/>
        <path id="Path_1088" d="M505.08 690.853s15.012 1.694 15.565 0a33.187 33.187 0 0 0 0-21.34 7.783 7.783 0 0 0-7.783-7.783 7.783 7.783 0 0 0-7.783 7.783z" class="cls-10" data-name="Path 1088" transform="translate(-330.404 -379.099)"/>
        <path id="Path_1089" d="M498.251 720.18l-6.781 31.136h6.781l7.03-23.1s8.789 3.767 11.046 11.3 0 11.8 0 11.8h7.294l.075-.339a32.386 32.386 0 0 0-9.865-30.8" class="cls-34" data-name="Path 1089" transform="translate(-323.575 -408.426)"/>
        <path id="Path_1090" d="M527.228 690.868a33.186 33.186 0 0 0 0-21.34 7.783 7.783 0 0 0-7.281-7.768h.5a7.783 7.783 0 0 1 7.783 7.783 33.192 33.192 0 0 1 0 21.34c-.2.608-2.252.777-4.8.752 2.07-.045 3.629-.244 3.798-.767z" class="cls-33" data-name="Path 1090" transform="translate(-337.864 -379.113)"/>
        <g id="Group_1295" class="cls-28" data-name="Group 1295" transform="translate(173.679 311.879)">
            <path id="Path_1091" d="M510.977 736.983l-6.9 22.675h-1l7.03-23.1s.327.142.87.425z" class="cls-5" data-name="Path 1091" transform="translate(-503.08 -728.523)"/>
            <path id="Path_1092" d="M534.31 720.43h1a32.387 32.387 0 0 1 9.865 30.8l-.075.339h-1l.075-.339a32.386 32.386 0 0 0-9.865-30.8z" class="cls-5" data-name="Path 1092" transform="translate(-518.75 -720.43)"/>
        </g>
        <path id="Path_1093" d="M516.458 680.3s23.368 7.429 36.312-4.982l-2.745-3.592s-25.112 5.6-31.1 1.495-2.467 7.079-2.467 7.079z" class="cls-10" data-name="Path 1093" transform="translate(-335.599 -384.116)"/>
        <path id="Path_1094" d="M552.793 678l.458.6c-12.954 12.416-36.312 4.982-36.312 4.982s-.06-.189-.149-.5c2.785.832 23.926 6.518 36.003-5.082z" class="cls-33" data-name="Path 1094" transform="translate(-336.28 -387.262)"/>
        <path id="Path_1095" d="M586.761 673.06s1.913.433 2.8-2.133-2.192-3.7-2.192-3.7-3.2 1.181-3.194 2.436 2.586 3.397 2.586 3.397z" class="cls-41" data-name="Path 1095" transform="translate(-370.088 -381.858)"/>
        <path id="Path_1096" d="M587 673.785s1.913.433 2.8-2.133a2.407 2.407 0 0 0-.224-2.172 2.441 2.441 0 0 1 .528 2.571c-.882 2.571-2.8 2.132-2.8 2.132a13.609 13.609 0 0 1-2.053-2.147 14.858 14.858 0 0 0 1.749 1.749z" class="cls-33" data-name="Path 1096" transform="translate(-370.629 -382.987)"/>
        <path id="Path_1097" d="M510.58 630.739l-.5 10.463h-10.96v-5.556c0-11.156 11.794-15.391 18.435-6.427.165.244-6.975 1.52-6.975 1.52z" class="cls-34" data-name="Path 1097" transform="translate(-327.414 -360.354)"/>
        <path id="Path_1098" d="M517.18 624.464a11.111 11.111 0 0 1 7.942 4.818c.164.219-6.975 1.495-6.975 1.495l-.5 10.463h1.495l.5-10.463s7.14-1.276 6.975-1.495c-2.676-3.618-6.193-5.063-9.437-4.818z" class="cls-33" data-name="Path 1098" transform="translate(-336.475 -360.387)"/>
        <g id="Group_1304" data-name="Group 1304" transform="translate(239 86)">
            <g id="Group_1285-2" class="cls-13" data-name="Group 1285" transform="translate(16.751 17.937)">
                <path id="Rectangle_1874-5" d="M0 0h37.482v42.703H0z" class="cls-42" data-name="Rectangle 1874" transform="translate(0 17)"/>
                <path id="Rectangle_1950-2" d="M0 0h35.482v40.703H0z" class="cls-5" data-name="Rectangle 1950" transform="translate(1 18)"/>
            </g>
            <g id="Group_1300-2" class="cls-13" data-name="Group 1300" transform="translate(64.101 34.937)">
                <path id="Rectangle_1874-6" d="M0 0h37.482v42.703H0z" class="cls-42" data-name="Rectangle 1874"/>
                <path id="Rectangle_1951-2" d="M0 0h35.482v40.703H0z" class="cls-5" data-name="Rectangle 1951" transform="translate(1 1)"/>
            </g>
            <g id="Group_1301-2" class="cls-13" data-name="Group 1301" transform="translate(111.45 34.937)">
                <path id="Rectangle_1874-7" d="M0 0h37.482v42.703H0z" class="cls-42" data-name="Rectangle 1874"/>
                <path id="Rectangle_1952-2" d="M0 0h35.482v40.703H0z" class="cls-5" data-name="Rectangle 1952" transform="translate(1 1)"/>
            </g>
            <g id="Group_1299-2" class="cls-13" data-name="Group 1299" transform="translate(158.8 34.937)">
                <path id="Rectangle_1874-8" d="M0 0h37.482v42.703H0z" class="cls-42" data-name="Rectangle 1874"/>
                <path id="Rectangle_1953-2" d="M0 0h35.482v40.703H0z" class="cls-5" data-name="Rectangle 1953" transform="translate(1 1)"/>
            </g>
            <path id="Rectangle_1954-2" d="M0 0h74.239v4.484H0z" class="cls-15" data-name="Rectangle 1954" transform="translate(16.751 25.864)"/>
            <path id="Rectangle_1956-2" d="M0 0h29.239v4.484H0z" class="cls-16" data-name="Rectangle 1956" transform="translate(20.751 63.864)"/>
            <path id="Rectangle_1958-2" d="M0 0h29.239v4.484H0z" class="cls-16" data-name="Rectangle 1958" transform="translate(67.751 63.864)"/>
            <path id="Rectangle_1960-2" d="M0 0h29.239v4.484H0z" class="cls-16" data-name="Rectangle 1960" transform="translate(115.751 63.864)"/>
            <path id="Rectangle_1962-2" d="M0 0h29.239v4.484H0z" class="cls-16" data-name="Rectangle 1962" transform="translate(161.751 63.864)"/>
            <path id="Rectangle_1955-2" d="M0 0h23.418v13.484H0z" class="cls-1" data-name="Rectangle 1955" transform="translate(23.952 46.864)"/>
            <path id="Rectangle_1957-2" d="M0 0h23.418v13.484H0z" class="cls-1" data-name="Rectangle 1957" transform="translate(70.952 46.864)"/>
            <path id="Rectangle_1959-2" d="M0 0h23.418v13.484H0z" class="cls-1" data-name="Rectangle 1959" transform="translate(118.952 46.864)"/>
            <path id="Rectangle_1961-2" d="M0 0h23.418v13.484H0z" class="cls-1" data-name="Rectangle 1961" transform="translate(164.952 46.864)"/>
        </g>
        <g id="Group_1306" data-name="Group 1306" transform="translate(189 148.351)">
            <path id="Rectangle_1875" d="M0 0h74.239v4.484H0z" class="cls-43" data-name="Rectangle 1875" transform="translate(69.565 36.372)"/>
            <path id="Rectangle_1888" d="M0 0h41.853v4.484H0z" class="cls-3" data-name="Rectangle 1888" transform="translate(69.565 45.088)"/>
            <path id="Rectangle_1889" d="M0 0h14.449v4.484H0z" class="cls-44" data-name="Rectangle 1889" transform="translate(118.892 45.088)"/>
            <path id="Rectangle_1890" d="M0 0h41.853v4.484H0z" class="cls-44" data-name="Rectangle 1890" transform="translate(69.565 62.442)"/>
            <path id="Rectangle_1891" d="M0 0h14.449v4.484H0z" class="cls-3" data-name="Rectangle 1891" transform="translate(118.892 62.442)"/>
            <path id="Rectangle_1892" d="M0 0h74.239v4.484H0z" class="cls-3" data-name="Rectangle 1892" transform="translate(69.565 53.726)"/>
        </g>
    </g>
</svg>
