<svg width="24px" height="24px" viewBox="0 0 24 24" version="1.1" xmlns="http://www.w3.org/2000/svg" xmlns:xlink="http://www.w3.org/1999/xlink">
    <!-- Generator: Sketch 48.2 (47327) - http://www.bohemiancoding.com/sketch -->
    <title>profile</title>
    <desc>Created with Sketch.</desc>
    <defs>
        <path fill="grey" d="M5.74984401,18.5524212 C5.75137505,18.0222039 5.77781491,17.523696 5.8291643,17.0568833 C5.88209181,16.5757242 5.98313372,16.0921664 6.13229307,15.6061957 C6.28145241,15.1202249 6.47150744,14.7064342 6.70246385,14.3648112 C6.93342026,14.0231881 7.24135752,13.74412 7.62628487,13.5275984 C8.01121222,13.3110767 8.44906051,13.2028175 8.93984288,13.2028175 C8.99758198,13.2413103 9.15876789,13.3399464 9.42340544,13.498729 C9.68804299,13.6575115 9.89253258,13.7753937 10.0368803,13.8523792 C10.1812281,13.9293647 10.3760946,14.0255951 10.6214858,14.1410733 C10.866877,14.2565515 11.1026415,14.3383473 11.3287863,14.3864632 C11.5549311,14.4345791 11.7786668,14.4586367 12,14.4586367 C12.2213332,14.4586367 12.4450689,14.4345791 12.6712137,14.3864632 C12.8973585,14.3383473 13.133123,14.2565515 13.3785142,14.1410733 C13.6239054,14.0255951 13.8187719,13.9293647 13.9631197,13.8523792 C14.1074674,13.7753937 14.311957,13.6575115 14.5765946,13.498729 C14.8412321,13.3399464 15.002418,13.2413103 15.0601571,13.2028175 C15.5509395,13.2028175 15.9887878,13.3110767 16.3737151,13.5275984 C16.7586425,13.74412 17.0665797,14.0231881 17.2975361,14.3648112 C17.5284926,14.7064342 17.7185476,15.1202249 17.8677069,15.6061957 C18.0168663,16.0921664 18.1179082,16.5757242 18.1708357,17.0568833 C18.2221851,17.523696 18.2486249,18.0222039 18.250156,18.5524212 C19.9784666,16.9033535 21.0552962,14.5774303 21.0552962,12 C21.0552962,6.99889801 17.001102,2.94470381 12,2.94470381 C6.99889801,2.94470381 2.94470381,6.99889801 2.94470381,12 C2.94470381,14.5774303 4.02153338,16.9033535 5.74984401,18.5524212 Z M12,22 C6.4771525,22 2,17.5228475 2,12 C2,6.4771525 6.4771525,2 12,2 C17.5228475,2 22,6.4771525 22,12 C22,17.5228475 17.5228475,22 12,22 Z M15.7530229,10.0271828 C15.7530229,11.0568634 15.3849416,11.9373716 14.6487681,12.6687335 C13.9125945,13.4000955 13.0296807,13.765771 12,13.765771 C10.9703193,13.765771 10.0874055,13.4000955 9.35123193,12.6687335 C8.61505837,11.9373716 8.24697712,11.0568634 8.24697712,10.0271828 C8.24697712,8.98787895 8.61505837,8.10255933 9.35123193,7.37119737 C10.0874055,6.6398354 10.9703193,6.27415991 12,6.27415991 C13.0296807,6.27415991 13.9125945,6.6398354 14.6487681,7.37119737 C15.3849416,8.10255933 15.7530229,8.98787895 15.7530229,10.0271828 Z" id="path-1"></path>
    </defs>
    <g id="system-icons" stroke="none" stroke-width="1" fill="none" fill-rule="evenodd">
        <g id="profile">
            <mask id="mask-2" fill="white">
                <use xlink:href="#path-1"></use>
            </mask>
            <use fill="white" xlink:href="#path-1"></use>
        </g>
    </g>
</svg>
