<svg width="3872" height="1331" viewBox="0 0 3872 1331" fill="none" xmlns="http://www.w3.org/2000/svg">
<path d="M670 15.541C319.5 15.541 35.7998 306.441 35.7998 665.841C35.7998 1025.24 320 1316.14 670 1316.14C1020 1316.14 1304.2 1025.24 1304.2 665.841C1304.2 306.441 1020.5 15.541 670 15.541ZM670 1263.84C347.3 1263.84 86.4998 995.841 86.4998 665.941C86.4998 336.041 347.3 67.941 670 67.941C992.7 67.941 1253.5 335.941 1253.5 665.841C1253.5 995.741 992.7 1263.84 670 1263.84Z" fill="#FF6600"/>
<path d="M1088.5 405.041H950.3C939.2 405.041 930.2 413.941 930.2 425.141V593.441H754.7L965.9 328.741C970.9 322.641 971.5 314.241 968.1 307.541C964.8 300.341 957.5 295.841 949.7 295.841H813.2C807.1 295.841 801.5 298.641 797.6 303.041L486.6 670.241C479.9 678.041 480.5 689.741 487.2 696.941L765.3 994.541H650.5L403.1 725.341C397.5 719.241 388.6 716.941 380.8 720.341C373 723.141 368 730.941 368 739.241V921.441H271V444.941H370.7V627.141C370.7 635.541 376.3 643.341 384.1 646.041C391.9 648.841 400.8 646.641 406.4 639.941L589.2 417.641C592 418.241 594.8 418.241 597.6 418.241C621 418.241 640 399.341 640 375.841C640 352.441 621.1 333.441 597.6 333.441C574.2 333.441 555.2 352.341 555.2 375.841C555.2 381.441 556.3 386.941 558.5 392.041L411.4 570.941V424.941C411.4 413.841 402.5 404.841 391.3 404.841H252.1C241 404.841 232 413.741 232 424.941V941.741C232 952.841 240.9 961.841 252.1 961.841H389.2C400.3 961.841 409.3 952.941 409.3 941.741V791.241L627.2 1028.64C631.1 1032.54 636.7 1035.34 642.2 1035.34H812.2C820 1035.34 827.2 1030.34 830.6 1023.04C833.9 1015.84 832.3 1006.84 826.7 1001.34L529 682.541L822.1 335.941H907.4L696.2 600.641C691.2 606.741 690.6 615.141 694 621.841C697.3 629.041 704.6 633.541 712.4 633.541H949.8C960.9 633.541 969.9 624.641 969.9 613.441V445.141H1068V921.641H967V755.541C967 744.441 958.1 735.441 946.9 735.441H778.1C770.9 722.041 756.9 713.141 740.8 713.141C717.4 713.141 698.4 732.041 698.4 755.541C698.4 778.941 717.3 797.941 740.8 797.941C757 797.941 770.9 789.041 778.1 775.641H926.9V941.741C926.9 952.841 935.8 961.841 947 961.841H1088C1099.1 961.841 1108.1 952.941 1108.1 941.741V425.141C1108.6 413.941 1099.6 405.041 1088.5 405.041Z" fill="#FF6600"/>
<path d="M1525.6 519.641V489.841C1525.6 465.341 1511.3 445.141 1493.9 445.141C1476.5 445.141 1462.2 465.341 1462.2 489.841V871.241C1462.2 895.741 1476.5 915.941 1493.9 915.941C1511.3 915.941 1525.6 895.741 1525.6 871.241V838.841C1525.6 830.941 1530 824.841 1535.6 824.841H1555.5C1561.1 824.841 1565.5 830.941 1565.5 838.841V871.241C1565.5 926.441 1533.1 972.041 1493.9 972.041C1454.1 972.041 1422.3 926.441 1422.3 871.241V489.841C1422.3 434.641 1454 389.041 1493.9 389.041C1533.1 389.041 1565.5 434.641 1565.5 489.841V519.641C1565.5 527.541 1561.1 533.641 1555.5 533.641H1535.6C1529.9 533.641 1525.6 527.541 1525.6 519.641Z" fill="#888888"/>
<path d="M1493.9 973.541C1453.6 973.541 1420.8 927.641 1420.8 871.241V489.841C1420.8 433.441 1453.6 387.541 1493.9 387.541C1513.4 387.541 1531.7 398.341 1545.6 417.841C1559.4 437.241 1567 462.841 1567 489.841V519.641C1567 528.341 1562 535.141 1555.5 535.141H1535.6C1529.2 535.141 1524.1 528.341 1524.1 519.641V489.841C1524.1 466.041 1510.5 446.641 1493.9 446.641C1477.3 446.641 1463.7 466.041 1463.7 489.841V871.241C1463.7 895.041 1477.3 914.441 1493.9 914.441C1510.5 914.441 1524.1 895.041 1524.1 871.241V838.841C1524.1 830.141 1529.1 823.341 1535.6 823.341H1555.5C1561.9 823.341 1567 830.141 1567 838.841V871.241C1567 898.241 1559.4 923.841 1545.6 943.241C1531.7 962.841 1513.3 973.541 1493.9 973.541ZM1493.9 390.541C1455.3 390.541 1423.8 435.141 1423.8 489.841V871.241C1423.8 926.041 1455.2 970.541 1493.9 970.541C1512.4 970.541 1529.8 960.241 1543.2 941.441C1556.6 922.541 1564 897.541 1564 871.141V838.741C1564 831.741 1560.3 826.241 1555.5 826.241H1535.6C1530.9 826.241 1527.1 831.741 1527.1 838.741V871.141C1527.1 896.641 1512.2 917.341 1493.9 917.341C1475.6 917.341 1460.7 896.641 1460.7 871.141V489.741C1460.7 464.241 1475.6 443.541 1493.9 443.541C1512.2 443.541 1527.1 464.241 1527.1 489.741V519.541C1527.1 526.541 1530.8 532.041 1535.6 532.041H1555.5C1560.2 532.041 1564 526.541 1564 519.541V489.741C1564 463.341 1556.6 438.341 1543.2 419.441C1529.8 400.841 1512.3 390.541 1493.9 390.541Z" fill="black"/>
<path d="M1832.8 490.741V871.241C1832.8 927.341 1800.4 972.041 1761.2 972.041C1721.4 972.041 1689 927.341 1689 871.241V490.741C1689 434.641 1721.4 389.041 1761.2 389.041C1800.5 389.041 1832.8 434.641 1832.8 490.741ZM1793 490.741C1793 465.341 1778.7 445.141 1761.3 445.141C1743.3 445.141 1728.9 465.341 1728.9 490.741V871.241C1728.9 895.741 1743.2 915.941 1761.3 915.941C1778.7 915.941 1793 895.741 1793 871.241V490.741Z" fill="#888888"/>
<path d="M1761.3 973.541C1741.5 973.541 1723 962.841 1709.1 943.541C1695.3 924.341 1687.7 898.641 1687.7 871.241V490.741C1687.7 433.841 1720.7 387.541 1761.4 387.541C1801.7 387.541 1834.5 433.841 1834.5 490.741V871.241C1834.3 927.641 1801.6 973.541 1761.3 973.541ZM1761.3 390.541C1722.3 390.541 1690.6 435.541 1690.6 490.741V871.241C1690.6 926.041 1722.3 970.541 1761.3 970.541C1799.9 970.541 1831.4 925.941 1831.4 871.241V490.741C1831.3 435.441 1799.9 390.541 1761.3 390.541ZM1761.3 917.441C1742.6 917.441 1727.4 896.741 1727.4 871.241V490.741C1727.4 464.341 1742.3 443.641 1761.3 443.641C1779.6 443.641 1794.5 464.741 1794.5 490.741V871.241C1794.5 896.741 1779.6 917.441 1761.3 917.441ZM1761.3 446.641C1744 446.641 1730.4 466.041 1730.4 490.741V871.241C1730.4 895.041 1744.2 914.441 1761.3 914.441C1778 914.441 1791.5 895.041 1791.5 871.241V490.741C1791.5 466.441 1777.9 446.641 1761.3 446.641Z" fill="black"/>
<path d="M2207.3 490.741V958.041C2207.3 965.941 2202.3 972.041 2197.3 972.041H2177.4C2171.8 972.041 2167.4 965.941 2167.4 958.041V490.741C2167.4 465.341 2153.1 445.141 2135 445.141C2117.6 445.141 2103.3 465.341 2103.3 490.741V958.041C2103.3 965.941 2098.9 972.041 2093.3 972.041H2073.4C2067.8 972.041 2063.4 965.941 2063.4 958.041V490.741C2063.4 465.341 2049.1 445.141 2031.7 445.141C2013.7 445.141 1999.3 465.341 1999.3 490.741V958.041C1999.3 965.941 1994.9 972.041 1989.3 972.041H1969.4C1964.4 972.041 1959.4 965.941 1959.4 958.041V490.741C1959.4 434.641 1991.8 389.041 2031.6 389.041C2051.5 389.041 2070.2 401.341 2083.2 420.641C2096.3 401.341 2114.9 389.041 2134.8 389.041C2175 389.041 2207.3 434.641 2207.3 490.741Z" fill="#888888"/>
<path d="M2197.4 973.541H2177.5C2171.1 973.541 2166 966.741 2166 958.041V490.741C2166 466.041 2152.4 446.641 2135.1 446.641C2118.4 446.641 2104.9 466.441 2104.9 490.741V958.041C2104.9 966.741 2099.9 973.541 2093.4 973.541H2073.5C2067.1 973.541 2062 966.741 2062 958.041V490.741C2062 466.441 2048.4 446.641 2031.8 446.641C2014.5 446.641 2000.9 466.041 2000.9 490.741V958.041C2000.9 966.741 1995.9 973.541 1989.4 973.541H1969.5C1963.4 973.541 1958 966.241 1958 958.041V490.741C1958 433.841 1991 387.541 2031.7 387.541C2050.9 387.541 2069.6 398.641 2083.3 417.941C2097.1 398.541 2115.8 387.541 2134.9 387.541C2175.5 387.541 2208.6 433.841 2208.6 490.741V958.041C2208.8 966.341 2203.5 973.541 2197.4 973.541ZM2135.1 443.641C2154.1 443.641 2169 464.341 2169 490.741V958.041C2169 965.041 2172.7 970.541 2177.5 970.541H2197.4C2201.4 970.541 2205.9 965.141 2205.9 958.041V490.741C2205.9 435.441 2174.2 390.541 2135.2 390.541C2116.5 390.541 2098.1 401.841 2084.8 421.441L2083.6 423.241L2082.4 421.441C2069.1 401.841 2050.7 390.541 2032 390.541C1993 390.541 1961.3 435.541 1961.3 490.741V958.041C1961.3 965.241 1965.8 970.541 1969.8 970.541H1989.7C1994.4 970.541 1998.2 965.041 1998.2 958.041V490.741C1998.2 464.341 2013.1 443.641 2032.1 443.641C2050.4 443.641 2065.3 464.741 2065.3 490.741V958.041C2065.3 965.041 2069 970.541 2073.8 970.541H2093.7C2098.4 970.541 2102.2 965.041 2102.2 958.041V490.741C2101.9 464.741 2116.8 443.641 2135.1 443.641Z" fill="black"/>
<path d="M2583 490.741V958.041C2583 965.941 2578 972.041 2573 972.041H2553.1C2547.5 972.041 2543.1 965.941 2543.1 958.041V490.741C2543.1 465.341 2528.8 445.141 2510.7 445.141C2493.3 445.141 2479 465.341 2479 490.741V958.041C2479 965.941 2474.6 972.041 2469 972.041H2449.1C2443.5 972.041 2439.1 965.941 2439.1 958.041V490.741C2439.1 465.341 2424.8 445.141 2407.4 445.141C2389.4 445.141 2375 465.341 2375 490.741V958.041C2375 965.941 2370.6 972.041 2365 972.041H2345.1C2340.1 972.041 2335.1 965.941 2335.1 958.041V490.741C2335.1 434.641 2367.5 389.041 2407.3 389.041C2427.2 389.041 2445.9 401.341 2458.9 420.641C2472 401.341 2490.6 389.041 2510.5 389.041C2550.7 389.041 2583 434.641 2583 490.741Z" fill="#888888"/>
<path d="M2573.1 973.541H2553.2C2546.8 973.541 2541.7 966.741 2541.7 958.041V490.741C2541.7 466.041 2528.1 446.641 2510.8 446.641C2494.1 446.641 2480.6 466.441 2480.6 490.741V958.041C2480.6 966.741 2475.6 973.541 2469.1 973.541H2449.2C2442.8 973.541 2437.7 966.741 2437.7 958.041V490.741C2437.7 466.441 2424.1 446.641 2407.5 446.641C2390.2 446.641 2376.6 466.041 2376.6 490.741V958.041C2376.6 966.741 2371.6 973.541 2365.1 973.541H2345.2C2339.1 973.541 2333.7 966.241 2333.7 958.041V490.741C2333.7 433.841 2366.7 387.541 2407.4 387.541C2426.6 387.541 2445.3 398.641 2459 417.941C2472.8 398.541 2491.5 387.541 2510.6 387.541C2551.2 387.541 2584.3 433.841 2584.3 490.741V958.041C2584.5 966.341 2579.2 973.541 2573.1 973.541ZM2510.9 443.641C2529.9 443.641 2544.8 464.341 2544.8 490.741V958.041C2544.8 965.041 2548.5 970.541 2553.3 970.541H2573.2C2577.2 970.541 2581.7 965.141 2581.7 958.041V490.741C2581.7 435.441 2550 390.541 2511 390.541C2492.3 390.541 2473.9 401.841 2460.6 421.441L2459.4 423.241L2458.2 421.441C2444.9 401.841 2426.5 390.541 2407.8 390.541C2368.8 390.541 2337.1 435.541 2337.1 490.741V958.041C2337.1 965.241 2341.6 970.541 2345.6 970.541H2365.5C2370.2 970.541 2374 965.041 2374 958.041V490.741C2374 464.341 2388.9 443.641 2407.9 443.641C2426.2 443.641 2441.1 464.741 2441.1 490.741V958.041C2441.1 965.041 2444.8 970.541 2449.6 970.541H2469.5C2474.2 970.541 2478 965.041 2478 958.041V490.741C2477.6 464.741 2492.6 443.641 2510.9 443.641Z" fill="black"/>
<path d="M2854.6 403.041V871.241C2854.6 927.341 2822.2 972.041 2783 972.041C2743.2 972.041 2710.8 927.341 2710.8 871.241V403.041C2710.8 396.041 2715.8 389.041 2720.8 389.041H2740.7C2746.3 389.041 2750.7 396.041 2750.7 403.041V871.241C2750.7 895.741 2765 915.941 2783.1 915.941C2800.5 915.941 2814.8 895.741 2814.8 871.241V403.041C2814.8 396.041 2819.2 389.041 2824.8 389.041H2844.7C2850.3 389.041 2854.6 396.041 2854.6 403.041Z" fill="#888888"/>
<path d="M2783.1 973.541C2763.3 973.541 2744.8 962.841 2730.9 943.541C2717.1 924.341 2709.5 898.641 2709.5 871.241V403.041C2709.5 395.241 2715.2 387.541 2721 387.541H2740.9C2747.7 387.541 2752.4 395.741 2752.4 403.041V871.241C2752.4 895.041 2766.2 914.441 2783.3 914.441C2800 914.441 2813.5 895.041 2813.5 871.241V403.041C2813.5 395.741 2818.2 387.541 2825 387.541H2844.9C2851.7 387.541 2856.4 395.741 2856.4 403.041V871.241C2856.1 927.641 2823.4 973.541 2783.1 973.541ZM2720.9 390.541C2716.8 390.541 2712.4 396.941 2712.4 403.041V871.241C2712.4 926.041 2744.1 970.541 2783.1 970.541C2821.7 970.541 2853.2 925.941 2853.2 871.241V403.041C2853.2 396.441 2849.2 390.541 2844.7 390.541H2824.8C2820.4 390.541 2816.3 396.541 2816.3 403.041V871.241C2816.3 896.741 2801.4 917.441 2783.1 917.441C2764.4 917.441 2749.2 896.741 2749.2 871.241V403.041C2749.2 396.441 2745.2 390.541 2740.7 390.541H2720.9Z" fill="black"/>
<path d="M3125.5 490.741V958.041C3125.5 965.941 3121.1 972.041 3115.5 972.041H3095.6C3090 972.041 3085.6 965.941 3085.6 958.041V490.741C3085.6 465.341 3071.3 445.141 3053.9 445.141C3035.9 445.141 3021.5 465.341 3021.5 490.741V958.041C3021.5 965.941 3017.1 972.041 3011.5 972.041H2991.6C2986 972.041 2981.6 965.941 2981.6 958.041V490.741C2981.6 434.641 3014 389.041 3053.8 389.041C3093.2 389.041 3125.5 434.641 3125.5 490.741Z" fill="#888888"/>
<path d="M3115.6 973.541H3095.7C3089.3 973.541 3084.2 966.741 3084.2 958.041V490.741C3084.2 466.441 3070.6 446.641 3054 446.641C3036.7 446.641 3023.1 466.041 3023.1 490.741V958.041C3023.1 966.741 3018.1 973.541 3011.6 973.541H2991.7C2985.3 973.541 2980.2 966.741 2980.2 958.041V490.741C2980.2 433.841 3013.2 387.541 3053.9 387.541C3094.2 387.541 3127 433.841 3127 490.741V958.041C3127 966.741 3122 973.541 3115.6 973.541ZM3054 443.641C3072.3 443.641 3087.2 464.741 3087.2 490.741V958.041C3087.2 965.041 3090.9 970.541 3095.7 970.541H3115.6C3120.3 970.541 3124.1 965.041 3124.1 958.041V490.741C3124.1 435.441 3092.7 390.541 3054 390.541C3015 390.541 2983.3 435.541 2983.3 490.741V958.041C2983.3 965.041 2987 970.541 2991.8 970.541H3011.7C3016.4 970.541 3020.2 965.041 3020.2 958.041V490.741C3020.1 464.341 3035 443.641 3054 443.641Z" fill="black"/>
<path d="M3293 958.041C3293 965.941 3288.6 972.041 3283 972.041H3263.1C3257.5 972.041 3253.1 965.941 3253.1 958.041V403.941C3253.1 403.041 3253.1 403.041 3253.1 403.041C3253.1 396.041 3257.5 389.041 3263.1 389.041H3283C3288.6 389.041 3293 396.041 3293 403.041V958.041Z" fill="#888888"/>
<path d="M3283 973.541H3263.1C3256.7 973.541 3251.6 966.741 3251.6 958.041V403.041C3251.6 395.741 3256.3 387.541 3263.1 387.541H3283C3289.8 387.541 3294.5 395.741 3294.5 403.041V958.041C3294.5 966.741 3289.4 973.541 3283 973.541ZM3263.1 390.541C3258.7 390.541 3254.6 396.541 3254.6 403.041V958.041C3254.6 965.041 3258.3 970.541 3263.1 970.541H3283C3287.7 970.541 3291.5 965.041 3291.5 958.041V403.041C3291.5 396.441 3287.5 390.541 3283 390.541H3263.1Z" fill="black"/>
<path d="M3532 403.041V431.141C3532 439.041 3527.6 445.141 3522 445.141H3494V958.041C3494 965.941 3489.6 972.041 3484 972.041H3464.1C3458.5 972.041 3454.1 965.941 3454.1 958.041V445.141H3426.1C3420.5 445.141 3416.1 439.041 3416.1 431.141V403.041C3416.1 396.041 3420.5 389.041 3426.1 389.041H3521.9C3527.6 389.041 3532 396.041 3532 403.041Z" fill="#888888"/>
<path d="M3484.1 973.541H3464.2C3457.8 973.541 3452.7 966.741 3452.7 958.041V446.641H3426.2C3419.8 446.641 3414.7 439.841 3414.7 431.141V403.041C3414.7 395.741 3419.4 387.541 3426.2 387.541H3522C3528.8 387.541 3533.5 395.741 3533.5 403.041V431.141C3533.5 439.841 3528.5 446.641 3522 446.641H3495.5V958.041C3495.5 966.741 3490.5 973.541 3484.1 973.541ZM3426.2 390.541C3421.8 390.541 3417.7 396.541 3417.7 403.041V431.141C3417.7 438.141 3421.4 443.641 3426.2 443.641H3455.7V958.041C3455.7 965.041 3459.4 970.541 3464.2 970.541H3484.1C3488.8 970.541 3492.6 965.041 3492.6 958.041V443.641H3522.1C3526.8 443.641 3530.6 438.141 3530.6 431.141V403.041C3530.6 396.441 3526.6 390.541 3522.1 390.541H3426.2Z" fill="black"/>
<path d="M3796.6 403.041V607.341C3796.6 653.841 3774.8 692.341 3745 704.641V958.041C3745 965.941 3740 972.041 3735 972.041H3715.1C3709.5 972.041 3705.1 965.941 3705.1 958.041V704.641C3674.6 692.341 3652.8 653.741 3652.8 607.341V403.041C3652.8 396.041 3657.2 389.041 3662.8 389.041H3682.7C3688.3 389.041 3692.7 396.041 3692.7 403.041V607.341C3692.7 631.841 3707 652.041 3725.1 652.041C3742.5 652.041 3756.8 631.841 3756.8 607.341V403.041C3756.8 396.041 3761.2 389.041 3766.8 389.041H3786.7C3792.3 389.041 3796.6 396.041 3796.6 403.041Z" fill="#888888"/>
<path d="M3735 973.541H3715.1C3708.7 973.541 3703.6 966.741 3703.6 958.041V705.641C3672.3 692.441 3651.3 653.041 3651.3 607.341V403.041C3651.3 395.741 3656 387.541 3662.8 387.541H3682.7C3689.5 387.541 3694.2 395.741 3694.2 403.041V607.341C3694.2 631.141 3708 650.541 3725.1 650.541C3741.8 650.541 3755.3 631.141 3755.3 607.341V403.041C3755.3 395.741 3760 387.541 3766.8 387.541H3786.7C3793.5 387.541 3798.2 395.741 3798.2 403.041V607.341C3798.2 630.141 3793.1 651.641 3783.4 669.541C3774.2 686.541 3761.1 699.341 3746.6 705.641V958.041C3746.5 966.341 3741.1 973.541 3735 973.541ZM3662.8 390.541C3658.4 390.541 3654.3 396.541 3654.3 403.041V607.341C3654.3 652.341 3674.9 690.941 3705.6 703.241L3706.5 703.641V958.041C3706.5 965.041 3710.2 970.541 3715 970.541H3734.9C3738.9 970.541 3743.4 965.141 3743.4 958.041V703.641L3744.3 703.241C3758.6 697.341 3771.5 684.841 3780.6 668.041C3790 650.541 3795 629.541 3795 607.241V402.941C3795 396.341 3791 390.441 3786.5 390.441H3766.6C3762.2 390.441 3758.1 396.441 3758.1 402.941V607.241C3758.1 632.741 3743.2 653.441 3724.9 653.441C3706.2 653.441 3691 632.741 3691 607.241V402.941C3691 396.341 3687 390.441 3682.5 390.441H3662.8V390.541Z" fill="black"/>
</svg>
