<svg fill="none" viewBox="0 0 1280 720" xmlns="http://www.w3.org/2000/svg">
<g clip-path="url(#clip0)">
<rect width="100%" height="100%" fill="#4C43DB"/>
<path opacity="0.7" fill-rule="evenodd" clip-rule="evenodd" d="M592.52 924.227C524.248 947.497 481.534 1052.52 411.924 1033.54C343.172 1014.79 353.068 909.034 315.203 848.61C281.791 795.292 212.41 764.172 204.044 701.807C195.399 637.358 226.344 570.561 271.658 523.993C313.882 480.602 377.473 469.273 437.549 461.846C487.896 455.621 536.234 468.699 584.169 485.358C630.651 501.513 671.315 525.286 709.494 556.359C760.725 598.054 826.256 632.207 843.103 696.096C861.354 765.308 853.292 852.978 800.407 901.124C747.551 949.245 660.167 901.17 592.52 924.227Z" fill="url(#paint0_linear)" fill-opacity="0.6"/>
<path opacity="0.7" fill-rule="evenodd" clip-rule="evenodd" d="M1200.18 162.681C1237.96 196.191 1316.65 185.874 1329.17 234.809C1341.54 283.141 1273.74 313.69 1250.05 357.633C1229.15 396.41 1234.2 449.403 1199.13 476.062C1162.89 503.612 1111.53 507.875 1067.52 496.396C1026.5 485.699 997.617 450.909 972.321 416.909C951.121 388.416 942.366 354.47 935.93 319.531C929.689 285.651 930.098 252.678 935.809 218.692C943.473 173.089 941.6 121.391 974.663 89.0421C1010.48 53.9981 1066.63 28.5883 1114.23 44.1295C1161.8 59.6623 1162.75 129.478 1200.18 162.681Z" fill="url(#paint1_linear)" fill-opacity="0.6"/>
<path fill-rule="evenodd" clip-rule="evenodd" d="M193.172 -331.294C60.0593 -307.632 20.0784 -136.427 -66.1674 -32.2259C-126.23 40.3408 -187.548 104.36 -234.85 185.835C-296.271 291.627 -425.796 397.82 -382.211 512.135C-338.032 628.011 -158.918 599.851 -52.6663 663.677C39.071 718.784 87.6449 840.108 193.172 857.772C304.216 876.36 422.661 831.986 507.021 757.364C587.768 685.938 593.185 568.237 633.548 468.232C678.051 357.967 990 259 867.5 35.5C802.551 -83 623.43 -58.8413 529.358 -138.086C428.013 -223.457 323.595 -354.478 193.172 -331.294Z" fill="#4C43DB"/>
<path fill-rule="evenodd" clip-rule="evenodd" d="M193.172 -331.294C60.0593 -307.632 20.0784 -136.427 -66.1674 -32.2259C-126.23 40.3408 -187.548 104.36 -234.85 185.835C-296.271 291.627 -425.796 397.82 -382.211 512.135C-338.032 628.011 -158.918 599.851 -52.6663 663.677C39.071 718.784 87.6449 840.108 193.172 857.772C304.216 876.36 422.661 831.986 507.021 757.364C587.768 685.938 593.185 568.237 633.548 468.232C678.051 357.967 990 259 867.5 35.5C802.551 -83 623.43 -58.8413 529.358 -138.086C428.013 -223.457 323.595 -354.478 193.172 -331.294Z" fill="url(#paint2_linear)" fill-opacity="0.6"/>
<path opacity="0.7" d="M1002.68 -125.396C1018.58 -117.444 1033.48 -106.468 1042.1 -91.7956C1050.72 -77.1236 1053.08 -58.7556 1053.08 -40.3876C1053.19 -21.9076 1050.95 -3.53962 1042.1 10.7964C1033.36 25.0204 1017.91 35.2124 1001.89 42.6044C985.988 50.1084 969.412 54.9244 952.5 55.8204C935.476 56.6044 918.004 53.4684 902.548 45.7404C886.98 38.0124 873.428 25.6924 865.588 10.5724C857.636 -4.54762 855.284 -22.4676 856.18 -39.9396C856.964 -57.2996 860.996 -74.2116 868.388 -90.3396C875.78 -106.468 886.42 -121.7 901.092 -130.324C915.764 -138.948 934.356 -140.964 952.164 -139.62C969.86 -138.164 986.772 -133.236 1002.68 -125.396Z" fill="url(#paint3_linear)" fill-opacity="0.6"/>
<path fill-rule="evenodd" clip-rule="evenodd" d="M1475.88 582.94C1364.88 503.002 1254.08 498.5 1026.24 498.5C846.24 498.5 601.757 560.335 510 582.94C390.857 612.292 249.047 609.548 198 720.94C146.256 833.853 461.207 865.758 490.589 987.311C515.957 1092.26 463.417 1212.16 525.337 1300.96C590.494 1394.4 705.958 1449.25 818.993 1458.29C927.188 1466.93 1015.28 1388.68 1115.4 1348.11C1225.79 1303.38 1517.08 1460.33 1590.53 1215.53C1629.48 1085.74 1485.61 972.807 1475.88 849.315C1465.39 716.275 1584.64 661.263 1475.88 582.94Z" fill="#4C43DB"/>
<path fill-rule="evenodd" clip-rule="evenodd" d="M1475.88 582.94C1364.88 503.002 1254.08 498.5 1026.24 498.5C846.24 498.5 601.757 560.335 510 582.94C390.857 612.292 249.047 609.548 198 720.94C146.256 833.853 461.207 865.758 490.589 987.311C515.957 1092.26 463.417 1212.16 525.337 1300.96C590.494 1394.4 705.958 1449.25 818.993 1458.29C927.188 1466.93 1015.28 1388.68 1115.4 1348.11C1225.79 1303.38 1517.08 1460.33 1590.53 1215.53C1629.48 1085.74 1485.61 972.807 1475.88 849.315C1465.39 716.275 1584.64 661.263 1475.88 582.94Z" fill="url(#paint4_linear)" fill-opacity="0.6"/>
<path d="M761.69 562.216H760.172C760.172 543.284 752.657 525.129 739.281 511.742C725.904 498.356 707.762 490.836 688.845 490.836C669.928 490.836 651.785 498.356 638.409 511.742C625.032 525.129 617.518 543.284 617.518 562.216H616C616 542.882 623.675 524.34 637.336 510.668C650.997 496.997 669.525 489.317 688.845 489.317C708.164 489.317 726.693 496.997 740.354 510.668C754.015 524.34 761.69 542.882 761.69 562.216V562.216Z" fill="#332F64"/>
<path d="M1289.81 562.216H1288.3C1288.3 543.284 1280.78 525.129 1267.41 511.742C1254.03 498.356 1235.89 490.836 1216.97 490.836C1198.05 490.836 1179.91 498.356 1166.53 511.742C1153.16 525.129 1145.64 543.284 1145.64 562.216H1144.12C1144.12 542.882 1151.8 524.34 1165.46 510.668C1179.12 496.997 1197.65 489.317 1216.97 489.317C1236.29 489.317 1254.82 496.997 1268.48 510.668C1282.14 524.34 1289.81 542.882 1289.81 562.216V562.216Z" fill="#332F64"/>
<path d="M1111.5 388.322H1109.98C1109.98 316.303 1051.43 257.711 979.465 257.711C907.5 257.711 848.952 316.303 848.952 388.322H847.434C847.434 315.466 906.663 256.193 979.465 256.193C1052.27 256.193 1111.5 315.466 1111.5 388.322Z" fill="#332F64"/>
<path d="M1188.97 273.99C1205.53 273.99 1218.95 260.56 1218.95 243.995C1218.95 227.429 1205.53 214 1188.97 214C1172.42 214 1159 227.429 1159 243.995C1159 260.56 1172.42 273.99 1188.97 273.99Z" fill="#2C80EB"/>
<path d="M732.772 436.453L784.265 375.084H885.504L947.372 435.389L946.122 436.194H946.568V561.629H732.843V436.194L732.772 436.453Z" fill="#332F64"/>
<path d="M763.753 409.773H775.426V369.338H763.753V409.773Z" fill="#332F64"/>
<path d="M783.463 374.28L846.937 448.753V561.629H732.843V434.585L783.463 374.28Z" fill="#6C63FF"/>
<path d="M832.269 463.532H808.968V487.375H832.269V463.532Z" fill="#3F3D56"/>
<path d="M832.269 495.974H808.968V519.817H832.269V495.974Z" fill="#3F3D56"/>
<path d="M832.269 463.532H808.968V487.375H832.269V463.532Z" fill="#564FCC"/>
<path d="M832.269 495.974H808.968V519.817H832.269V495.974Z" fill="#564FCC"/>
<path d="M800.044 463.532H776.743V487.375H800.044V463.532Z" fill="#3F3D56"/>
<path d="M800.044 495.974H776.743V519.817H800.044V495.974Z" fill="#3F3D56"/>
<path d="M800.044 463.532H776.743V487.375H800.044V463.532Z" fill="#564FCC"/>
<path d="M800.044 495.974H776.743V519.817H800.044V495.974Z" fill="#564FCC"/>
<path d="M767.818 463.532H744.518V487.375H767.818V463.532Z" fill="#3F3D56"/>
<path d="M767.818 495.974H744.518V519.817H767.818V495.974Z" fill="#3F3D56"/>
<path d="M767.818 463.532H744.518V487.375H767.818V463.532Z" fill="#564FCC"/>
<path d="M767.818 495.974H744.518V519.817H767.818V495.974Z" fill="#564FCC"/>
<path d="M994.641 230.375H984.018V256.952H994.641V230.375Z" fill="#6C63FF"/>
<path d="M993.883 254.674H903.585V562.216H993.883V254.674Z" fill="#6C63FF"/>
<path d="M1030.31 254.674H993.883V562.216H1030.31V254.674Z" fill="#332F64"/>
<path d="M933.558 281.252H919.899V294.92H933.558V281.252Z" fill="#564FCC"/>
<path d="M955.563 281.252H941.905V294.92H955.563V281.252Z" fill="#564FCC"/>
<path d="M977.569 281.252H963.91V294.92H977.569V281.252Z" fill="#564FCC"/>
<path d="M933.937 312.385H920.279V326.054H933.937V312.385Z" fill="#564FCC"/>
<path d="M955.943 312.385H942.284V326.054H955.943V312.385Z" fill="#564FCC"/>
<path d="M977.948 312.385H964.29V326.054H977.948V312.385Z" fill="#564FCC"/>
<path d="M934.317 343.519H920.658V357.188H934.317V343.519Z" fill="#564FCC"/>
<path d="M956.322 343.519H942.664V357.188H956.322V343.519Z" fill="#564FCC"/>
<path d="M978.327 343.519H964.669V357.188H978.327V343.519Z" fill="#564FCC"/>
<path d="M934.696 374.653H921.038V388.322H934.696V374.653Z" fill="#564FCC"/>
<path d="M956.701 374.653H943.043V388.322H956.701V374.653Z" fill="#564FCC"/>
<path d="M978.707 374.653H965.048V388.322H978.707V374.653Z" fill="#564FCC"/>
<path d="M935.075 405.787H921.417V419.456H935.075V405.787Z" fill="#564FCC"/>
<path d="M957.081 405.787H943.422V419.456H957.081V405.787Z" fill="#564FCC"/>
<path d="M979.086 405.787H965.428V419.456H979.086V405.787Z" fill="#564FCC"/>
<path d="M935.455 436.921H921.796V450.589H935.455V436.921Z" fill="#564FCC"/>
<path d="M957.46 436.921H943.802V450.589H957.46V436.921Z" fill="#564FCC"/>
<path d="M979.466 436.921H965.807V450.589H979.466V436.921Z" fill="#564FCC"/>
<path d="M935.834 468.055H922.176V481.723H935.834V468.055Z" fill="#564FCC"/>
<path d="M957.84 468.055H944.181V481.723H957.84V468.055Z" fill="#564FCC"/>
<path d="M979.845 468.055H966.187V481.723H979.845V468.055Z" fill="#564FCC"/>
<path d="M936.214 499.189H922.555V512.857H936.214V499.189Z" fill="#564FCC"/>
<path d="M958.219 499.189H944.561V512.857H958.219V499.189Z" fill="#564FCC"/>
<path d="M958.219 535.638H944.561V561.456H958.219V535.638Z" fill="#564FCC"/>
<path d="M980.224 499.189H966.566V512.857H980.224V499.189Z" fill="#564FCC"/>
<path d="M999.953 230.375H993.883V256.193H999.953V230.375Z" fill="#332F64"/>
<path d="M1108.46 365.541H1097.84V381.293H1108.46V365.541Z" fill="#6C63FF"/>
<path d="M1107.7 379.943H1017.41V562.216H1107.7V379.943Z" fill="#6C63FF"/>
<path d="M1144.13 379.943H1107.7V562.216H1144.13V379.943Z" fill="#332F64"/>
<path d="M1048.9 405.787H1035.24V419.456H1048.9V405.787Z" fill="#564FCC"/>
<path d="M1070.9 405.787H1057.24V419.456H1070.9V405.787Z" fill="#564FCC"/>
<path d="M1092.91 405.787H1079.25V419.456H1092.91V405.787Z" fill="#564FCC"/>
<path d="M1049.28 436.921H1035.62V450.589H1049.28V436.921Z" fill="#564FCC"/>
<path d="M1071.28 436.921H1057.62V450.589H1071.28V436.921Z" fill="#564FCC"/>
<path d="M1093.29 436.921H1079.63V450.589H1093.29V436.921Z" fill="#564FCC"/>
<path d="M1049.65 468.055H1036V481.723H1049.65V468.055Z" fill="#564FCC"/>
<path d="M1071.66 468.055H1058V481.723H1071.66V468.055Z" fill="#564FCC"/>
<path d="M1093.66 468.055H1080.01V481.723H1093.66V468.055Z" fill="#564FCC"/>
<path d="M1050.03 499.189H1036.38V512.857H1050.03V499.189Z" fill="#564FCC"/>
<path d="M1072.04 499.189H1058.38V512.857H1072.04V499.189Z" fill="#564FCC"/>
<path d="M1072.04 535.638H1058.38V561.456H1072.04V535.638Z" fill="#564FCC"/>
<path d="M1094.04 499.189H1080.39V512.857H1094.04V499.189Z" fill="#564FCC"/>
<path d="M1113.77 365.541H1107.7V380.843H1113.77V365.541Z" fill="#3F3D56"/>
<path d="M1290 561.298H616.185V563H1290V561.298Z" fill="#332F64"/>
<path d="M1171.94 526.587C1182.86 526.587 1191.7 517.734 1191.7 506.813C1191.7 495.892 1182.86 487.039 1171.94 487.039C1161.03 487.039 1152.18 495.892 1152.18 506.813C1152.18 517.734 1161.03 526.587 1171.94 526.587Z" fill="#6C63FF"/>
<path opacity="0.2" d="M1186.64 493.605C1188.48 497.92 1188.73 502.75 1187.35 507.232C1185.96 511.714 1183.02 515.556 1179.07 518.072C1175.11 520.588 1170.38 521.613 1165.74 520.965C1161.1 520.317 1156.83 518.038 1153.72 514.534C1154.84 517.17 1156.53 519.53 1158.65 521.449C1160.78 523.369 1163.3 524.802 1166.04 525.651C1168.77 526.5 1171.66 526.743 1174.5 526.363C1177.34 525.984 1180.06 524.991 1182.48 523.454C1184.9 521.917 1186.96 519.873 1188.51 517.462C1190.06 515.051 1191.06 512.332 1191.46 509.492C1191.85 506.653 1191.63 503.762 1190.8 501.019C1189.96 498.275 1188.55 495.746 1186.64 493.605V493.605Z" fill="black"/>
<path d="M1172 506.813H1172.05L1173.03 562.876H1170.97L1172 506.813Z" fill="#332F64"/>
<path d="M1175.59 537.35L1175.14 536.485L1171.87 538.206L1172.33 539.071L1175.59 537.35Z" fill="#3F3D56"/>
<path d="M1230.04 507.692C1246.63 507.692 1260.08 494.23 1260.08 477.622C1260.08 461.015 1246.63 447.552 1230.04 447.552C1213.44 447.552 1199.99 461.015 1199.99 477.622C1199.99 494.23 1213.44 507.692 1230.04 507.692Z" fill="#6C63FF"/>
<path opacity="0.2" d="M1252.39 457.538C1255.19 464.099 1255.57 471.444 1253.46 478.259C1251.35 485.075 1246.89 490.918 1240.87 494.744C1234.85 498.569 1227.67 500.129 1220.6 499.143C1213.54 498.157 1207.06 494.691 1202.32 489.363C1204.03 493.372 1206.59 496.96 1209.83 499.879C1213.06 502.798 1216.89 504.978 1221.06 506.269C1225.22 507.559 1229.61 507.928 1233.93 507.352C1238.24 506.775 1242.38 505.266 1246.06 502.928C1249.74 500.591 1252.86 497.482 1255.22 493.815C1257.58 490.149 1259.11 486.014 1259.71 481.697C1260.31 477.379 1259.97 472.982 1258.71 468.811C1257.44 464.639 1255.28 460.793 1252.39 457.538V457.538Z" fill="black"/>
<path d="M1230.12 477.622H1230.2L1231.69 562.876H1228.55L1230.12 477.622Z" fill="#332F64"/>
<path d="M1235.59 524.06L1234.9 522.744L1229.93 525.361L1230.62 526.677L1235.59 524.06Z" fill="#3F3D56"/>
<path d="M636.229 525.828C647.142 525.828 655.989 516.975 655.989 506.054C655.989 495.133 647.142 486.28 636.229 486.28C625.316 486.28 616.47 495.133 616.47 506.054C616.47 516.975 625.316 525.828 636.229 525.828Z" fill="#6C63FF"/>
<path opacity="0.2" d="M650.928 492.846C652.771 497.161 653.021 501.991 651.633 506.473C650.245 510.955 647.31 514.797 643.352 517.313C639.394 519.829 634.672 520.854 630.028 520.206C625.384 519.558 621.121 517.278 618.002 513.775C619.128 516.411 620.814 518.77 622.941 520.69C625.069 522.609 627.588 524.043 630.324 524.892C633.06 525.74 635.948 525.983 638.788 525.604C641.627 525.225 644.35 524.232 646.768 522.695C649.187 521.158 651.242 519.113 652.792 516.702C654.342 514.292 655.35 511.572 655.745 508.733C656.141 505.894 655.915 503.002 655.083 500.259C654.251 497.516 652.833 494.986 650.928 492.846H650.928Z" fill="black"/>
<path d="M636.284 506.054H636.338L637.315 562.117H635.252L636.284 506.054Z" fill="#332F64"/>
<path d="M639.881 536.591L639.426 535.726L636.16 537.447L636.615 538.312L639.881 536.591Z" fill="#3F3D56"/>
<path d="M1076.15 228.351L1083.13 222.76C1077.71 222.161 1075.48 225.123 1074.56 227.467C1070.32 225.705 1065.71 228.014 1065.71 228.014L1079.69 233.092C1078.98 231.207 1077.75 229.563 1076.15 228.351V228.351Z" fill="#332F64"/>
<path d="M725.581 256.448L732.566 250.857C727.14 250.258 724.91 253.219 723.998 255.564C719.758 253.802 715.143 256.111 715.143 256.111L729.119 261.188C728.414 259.304 727.187 257.659 725.581 256.448V256.448Z" fill="#332F64"/>
<path d="M1182.38 285.303L1189.36 279.712C1183.94 279.113 1181.71 282.075 1180.8 284.419C1176.56 282.658 1171.94 284.966 1171.94 284.966L1185.92 290.044C1185.21 288.159 1183.98 286.515 1182.38 285.303V285.303Z" fill="#332F64"/>
<path d="M783.25 241.261L790.235 235.669C784.809 235.07 782.579 238.032 781.667 240.376C777.427 238.615 772.812 240.923 772.812 240.923L786.788 246.001C786.083 244.116 784.856 242.472 783.25 241.261V241.261Z" fill="#332F64"/>
<path d="M796.149 302.01L803.135 296.419C797.708 295.819 795.479 298.781 794.566 301.125C790.327 299.364 785.711 301.672 785.711 301.672L799.688 306.75C798.983 304.865 797.755 303.221 796.149 302.01V302.01Z" fill="#332F64"/>
<path d="M1067.8 333.903L1074.79 328.312C1069.36 327.713 1067.13 330.674 1066.22 333.019C1061.98 331.257 1057.36 333.566 1057.36 333.566L1071.34 338.643C1070.63 336.759 1069.41 335.114 1067.8 333.903Z" fill="#332F64"/>
<path d="M696.433 546.269H649.387V547.788H656.724V562.216H658.242V547.788H686.82V562.216H688.337V547.788H696.433V546.269Z" fill="#332F64"/>
<path d="M744.237 552.344C742.38 552.344 740.556 552.833 738.949 553.764C737.316 552.286 735.29 551.315 733.117 550.968C730.943 550.62 728.716 550.912 726.705 551.807C724.694 552.702 722.985 554.161 721.787 556.009C720.589 557.857 719.953 560.013 719.956 562.216H754.822C754.632 559.536 753.434 557.027 751.47 555.196C749.506 553.364 746.922 552.345 744.237 552.344V552.344Z" fill="#332F64"/>
<path d="M924.073 552.344C922.216 552.344 920.392 552.833 918.785 553.764C917.152 552.286 915.126 551.315 912.953 550.968C910.779 550.62 908.552 550.912 906.541 551.807C904.53 552.702 902.821 554.161 901.623 556.009C900.425 557.857 899.789 560.013 899.792 562.216H934.658C934.468 559.536 933.27 557.027 931.306 555.196C929.342 553.364 926.758 552.345 924.073 552.344V552.344Z" fill="#332F64"/>
<path d="M1041.69 552.344C1039.83 552.344 1038.01 552.833 1036.4 553.764C1034.77 552.286 1032.74 551.315 1030.57 550.968C1028.39 550.62 1026.17 550.912 1024.15 551.807C1022.14 552.702 1020.44 554.161 1019.24 556.009C1018.04 557.857 1017.4 560.013 1017.41 562.216H1052.27C1052.08 559.536 1050.88 557.027 1048.92 555.196C1046.96 553.364 1044.37 552.345 1041.69 552.344V552.344Z" fill="#332F64"/>
<path d="M1196.48 552.344C1194.63 552.344 1192.8 552.833 1191.19 553.764C1189.56 552.286 1187.54 551.315 1185.36 550.968C1183.19 550.62 1180.96 550.912 1178.95 551.807C1176.94 552.702 1175.23 554.161 1174.03 556.009C1172.83 557.857 1172.2 560.013 1172.2 562.216H1207.07C1206.88 559.536 1205.68 557.027 1203.72 555.196C1201.75 553.364 1199.17 552.345 1196.48 552.344V552.344Z" fill="#332F64"/>
<path d="M1270.85 552.344C1268.99 552.344 1267.16 552.833 1265.56 553.764C1263.92 552.286 1261.9 551.315 1259.72 550.968C1257.55 550.62 1255.32 550.912 1253.31 551.807C1251.3 552.702 1249.59 554.161 1248.4 556.009C1247.2 557.857 1246.56 560.013 1246.56 562.216H1281.43C1281.24 559.536 1280.04 557.027 1278.08 555.196C1276.11 553.364 1273.53 552.345 1270.85 552.344V552.344Z" fill="#332F64"/>
<path d="M713.885 509.06H701.745V521.21H707.373V562.149H708.89V521.21H713.885V509.06Z" fill="#332F64"/>
<path d="M696.526 541.725H649.48V543.244H696.526V541.725Z" fill="#332F64"/>
<path d="M696.526 537.929H649.48V539.447H696.526V537.929Z" fill="#332F64"/>
<path d="M696.526 534.132H649.48V535.651H696.526V534.132Z" fill="#332F64"/>
</g>
<defs>
<linearGradient id="paint0_linear" x1="615.843" y1="976.436" x2="439.024" y2="448.869" gradientUnits="userSpaceOnUse">
<stop stop-color="#4C43DB"/>
<stop offset="1" stop-color="#00D1FF" stop-opacity="0.6"/>
</linearGradient>
<linearGradient id="paint1_linear" x1="1223.9" y1="130.43" x2="1230" y2="624" gradientUnits="userSpaceOnUse">
<stop stop-color="#574EE6"/>
<stop offset="0.671875" stop-color="#00D1FF" stop-opacity="0.6"/>
</linearGradient>
<linearGradient id="paint2_linear" x1="252.407" y1="-334" x2="252.407" y2="862" gradientUnits="userSpaceOnUse">
<stop stop-color="#4C43DB"/>
<stop offset="1" stop-color="#00D1FF" stop-opacity="0.6"/>
</linearGradient>
<linearGradient id="paint3_linear" x1="954.54" y1="-140" x2="954.54" y2="55.9373" gradientUnits="userSpaceOnUse">
<stop stop-color="#7B76C1"/>
<stop offset="1" stop-color="#00D1FF" stop-opacity="0.6"/>
</linearGradient>
<linearGradient id="paint4_linear" x1="1382.45" y1="547.91" x2="526.166" y2="1382.9" gradientUnits="userSpaceOnUse">
<stop offset="0.223958" stop-color="#00D1FF"/>
<stop offset="1" stop-color="#4C43DB"/>
</linearGradient>
<clipPath id="clip0">
<rect width="100%" height="100%" fill="white"/>
</clipPath>
</defs>
</svg>
