<?xml version="1.0" encoding="UTF-8"?>
<svg width="24px" height="24px" viewBox="0 0 24 24" version="1.1" xmlns="http://www.w3.org/2000/svg" xmlns:xlink="http://www.w3.org/1999/xlink">
    <!-- Generator: Sketch 48.2 (47327) - http://www.bohemiancoding.com/sketch -->
    <title>delete</title>
    <desc>Created with Sketch.</desc>
    <defs></defs>
    <g id="Content-Editor" stroke="none" stroke-width="1" fill="none" fill-rule="evenodd">
        <g id="delete" fill="#000000">
            <polygon id="+" points="3.98498064 16.5706522 3.98498064 14.75 10.8667741 14.75 10.8667741 16.5706522"></polygon>
            <path d="M7.35804718,12.2607626 L6.48848197,12.2607626 L6.48848197,4.94098099 C6.48848197,3.74036196 7.46177599,2.76706794 8.66239501,2.76706794 L17.6465236,2.76706794 C18.8471426,2.76706794 19.8204367,3.74036196 19.8204367,4.94098099 L19.8204367,16.7802188 C19.8204367,17.9808378 18.8471426,18.9541318 17.6465236,18.9541318 L13.0109548,18.9541318 L13.0109548,18.0845666 L17.6465236,18.0845666 C18.366895,18.0845666 18.9508715,17.5005902 18.9508715,16.7802188 L18.9508715,4.94098099 C18.9508715,4.22060957 18.366895,3.63663316 17.6465236,3.63663316 L8.66239501,3.63663316 C7.9420236,3.63663316 7.35804718,4.22060957 7.35804718,4.94098099 L7.35804718,12.2607626 Z" id="Path-2" fill-rule="nonzero"></path>
        </g>
    </g>
</svg>