<?xml version="1.0" encoding="UTF-8"?>
<svg width="30px" height="30px" viewBox="0 0 30 30" version="1.1" xmlns="http://www.w3.org/2000/svg" xmlns:xlink="http://www.w3.org/1999/xlink">
    <!-- Generator: Sketch 48.2 (47327) - http://www.bohemiancoding.com/sketch -->
    <title>reset</title>
    <desc>Created with Sketch.</desc>
    <defs></defs>
    <g id="Page-1" stroke="none" stroke-width="1" fill="none" fill-rule="evenodd">
        <g id="reset" fill="#000000">
            <g id="Group" transform="translate(3.500000, 3.500000)">
                <polygon id="Combined-Shape" points="6.41767001 3.87650502 8.32354376 1.97063127 10.2294175 10.2294175 1.97063127 8.32354376 3.87650502 6.41767001 0.064757523 2.60592252 2.60592252 0.064757523"></polygon>
                <polygon id="Combined-Shape-Copy" points="19.123495 16.58233 22.9352425 20.3940775 20.3940775 22.9352425 16.58233 19.123495 14.6764562 21.0293687 12.7705825 12.7705825 21.0293687 14.6764562"></polygon>
                <polygon id="Combined-Shape-Copy-3" points="19.123495 6.41767001 21.0293687 8.32354376 12.7705825 10.2294175 14.6764562 1.97063127 16.58233 3.87650502 20.3940775 0.064757523 22.9352425 2.60592252"></polygon>
                <polygon id="Combined-Shape-Copy-2" points="6.41767001 19.123495 2.60592252 22.9352425 0.064757523 20.3940775 3.87650502 16.58233 1.97063127 14.6764562 10.2294175 12.7705825 8.32354376 21.0293687"></polygon>
            </g>
        </g>
    </g>
</svg>