<?xml version="1.0" encoding="UTF-8"?>
<svg width="30px" height="30px" viewBox="0 0 30 30" version="1.1" xmlns="http://www.w3.org/2000/svg" xmlns:xlink="http://www.w3.org/1999/xlink">
    <!-- Generator: Sketch 48.2 (47327) - http://www.bohemiancoding.com/sketch -->
    <title>zoom out</title>
    <desc>Created with Sketch.</desc>
    <defs></defs>
    <g id="Page-1" stroke="none" stroke-width="1" fill="none" fill-rule="evenodd">
        <g id="zoom-out" fill="#000000">
            <path d="M21.1638291,13.2307692 C21.1638291,11.0468058 20.3876484,9.17865972 18.8352635,7.62627492 C17.2828787,6.07389011 15.4147326,5.29770935 13.2307692,5.29770935 C11.0468058,5.29770935 9.17865972,6.07389011 7.62627492,7.62627492 C6.07389011,9.17865972 5.29770935,11.0468058 5.29770935,13.2307692 C5.29770935,15.4147326 6.07389011,17.2828787 7.62627492,18.8352635 C9.17865972,20.3876484 11.0468058,21.1638291 13.2307692,21.1638291 C15.4147326,21.1638291 17.2828787,20.3876484 18.8352635,18.8352635 C20.3876484,17.2828787 21.1638291,15.4147326 21.1638291,13.2307692 Z M26.5,24.7307692 C26.5,25.2099383 26.3249216,25.6245976 25.9747596,25.9747596 C25.6245976,26.3249216 25.2099383,26.5 24.7307692,26.5 C24.2331706,26.5 23.8185113,26.3249216 23.4867788,25.9747596 L18.7457933,21.2475962 C17.0963459,22.3902301 15.258023,22.9615385 13.2307692,22.9615385 C11.9130543,22.9615385 10.6529507,22.7058319 9.45042067,22.1944111 C8.24789062,21.6829902 7.21124233,20.9918914 6.34044471,20.1210937 C5.46964709,19.2502961 4.77854823,18.2136478 4.2671274,17.0111178 C3.75570658,15.8085877 3.5,14.5484842 3.5,13.2307692 C3.5,11.9130543 3.75570658,10.6529507 4.2671274,9.45042067 C4.77854823,8.24789062 5.46964709,7.21124233 6.34044471,6.34044471 C7.21124233,5.46964709 8.24789062,4.77854823 9.45042067,4.2671274 C10.6529507,3.75570658 11.9130543,3.5 13.2307692,3.5 C14.5484842,3.5 15.8085877,3.75570658 17.0111178,4.2671274 C18.2136478,4.77854823 19.2502961,5.46964709 20.1210937,6.34044471 C20.9918914,7.21124233 21.6829902,8.24789062 22.1944111,9.45042067 C22.7058319,10.6529507 22.9615385,11.9130543 22.9615385,13.2307692 C22.9615385,15.258023 22.3902301,17.0963459 21.2475962,18.7457933 L25.9885817,23.4867788 C26.3295289,23.8277261 26.5,24.2423854 26.5,24.7307692 Z M7.66190524,12.0508317 L7.66190524,14.4107067 L18.7996332,14.4107067 L18.7996332,12.0508317 L7.66190524,12.0508317 Z"></path>
        </g>
    </g>
</svg>