<svg viewBox="0 0 649 274" fill="none" xmlns="http://www.w3.org/2000/svg">
<path d="M145.69 273.216H144.172C144.172 254.284 136.657 236.129 123.281 222.742C109.904 209.356 91.762 201.836 72.8448 201.836C53.9277 201.836 35.7853 209.356 22.4089 222.742C9.0324 236.129 1.5176 254.284 1.5176 273.216H0C2.87885e-07 253.882 7.67469 235.34 21.3357 221.668C34.9968 207.997 53.5252 200.317 72.8448 200.317C92.1645 200.317 110.693 207.997 124.354 221.668C138.015 235.34 145.69 253.882 145.69 273.216Z" fill="#332F64"/>
<path d="M673.815 273.216H672.297C672.297 254.284 664.782 236.129 651.406 222.742C638.029 209.356 619.887 201.836 600.97 201.836C582.053 201.836 563.91 209.356 550.534 222.742C537.157 236.129 529.643 254.284 529.643 273.216H528.125C528.125 253.882 535.8 235.34 549.461 221.668C563.122 207.997 581.65 200.317 600.97 200.317C620.29 200.317 638.818 207.997 652.479 221.668C666.14 235.34 673.815 253.882 673.815 273.216Z" fill="#332F64"/>
<path d="M495.497 99.3219H493.979C493.979 27.303 435.431 -31.2884 363.465 -31.2884C291.5 -31.2884 232.952 27.303 232.952 99.3219H231.434C231.434 26.4658 290.663 -32.8071 363.465 -32.8071C436.268 -32.8071 495.497 26.4658 495.497 99.3219Z" fill="#332F64"/>
<path d="M116.772 147.453L168.265 86.084H269.504L331.372 146.389L330.122 147.194H330.568V272.629H116.843V147.194L116.772 147.453Z" fill="#332F64"/>
<path d="M147.753 120.773H159.426V80.3379H147.753V120.773Z" fill="#332F64"/>
<path d="M167.463 85.2798L230.937 159.753V272.629H116.843V145.585L167.463 85.2798Z" fill="#6C63FF"/>
<path d="M216.268 174.532H192.968V198.374H216.268V174.532Z" fill="#3F3D56"/>
<path d="M216.268 206.974H192.968V230.817H216.268V206.974Z" fill="#3F3D56"/>
<path d="M216.268 174.532H192.968V198.374H216.268V174.532Z" fill="#564FCC"/>
<path d="M216.268 206.974H192.968V230.817H216.268V206.974Z" fill="#564FCC"/>
<path d="M184.044 174.532H160.743V198.374H184.044V174.532Z" fill="#3F3D56"/>
<path d="M184.044 206.974H160.743V230.817H184.044V206.974Z" fill="#3F3D56"/>
<path d="M184.044 174.532H160.743V198.374H184.044V174.532Z" fill="#564FCC"/>
<path d="M184.044 206.974H160.743V230.817H184.044V206.974Z" fill="#564FCC"/>
<path d="M151.818 174.532H128.518V198.374H151.818V174.532Z" fill="#3F3D56"/>
<path d="M151.818 206.974H128.518V230.817H151.818V206.974Z" fill="#3F3D56"/>
<path d="M151.818 174.532H128.518V198.374H151.818V174.532Z" fill="#564FCC"/>
<path d="M151.818 206.974H128.518V230.817H151.818V206.974Z" fill="#564FCC"/>
<path d="M377.883 -34.3262H287.585V273.215H377.883V-34.3262Z" fill="#6C63FF"/>
<path d="M414.305 -34.3262H377.883V273.215H414.305V-34.3262Z" fill="#332F64"/>
<path d="M317.558 -7.74805H303.9V5.92047H317.558V-7.74805Z" fill="#564FCC"/>
<path d="M339.563 -7.74805H325.905V5.92047H339.563V-7.74805Z" fill="#564FCC"/>
<path d="M361.569 -7.74805H347.91V5.92047H361.569V-7.74805Z" fill="#564FCC"/>
<path d="M317.937 23.3857H304.279V37.0543H317.937V23.3857Z" fill="#564FCC"/>
<path d="M339.943 23.3857H326.284V37.0543H339.943V23.3857Z" fill="#564FCC"/>
<path d="M361.948 23.3857H348.29V37.0543H361.948V23.3857Z" fill="#564FCC"/>
<path d="M318.317 54.5195H304.658V68.188H318.317V54.5195Z" fill="#564FCC"/>
<path d="M340.322 54.5195H326.664V68.188H340.322V54.5195Z" fill="#564FCC"/>
<path d="M362.327 54.5195H348.669V68.188H362.327V54.5195Z" fill="#564FCC"/>
<path d="M318.696 85.6533H305.038V99.3218H318.696V85.6533Z" fill="#564FCC"/>
<path d="M340.701 85.6533H327.043V99.3218H340.701V85.6533Z" fill="#564FCC"/>
<path d="M362.707 85.6533H349.048V99.3218H362.707V85.6533Z" fill="#564FCC"/>
<path d="M319.076 116.787H305.417V130.456H319.076V116.787Z" fill="#564FCC"/>
<path d="M341.081 116.787H327.422V130.456H341.081V116.787Z" fill="#564FCC"/>
<path d="M363.086 116.787H349.428V130.456H363.086V116.787Z" fill="#564FCC"/>
<path d="M319.455 147.921H305.797V161.589H319.455V147.921Z" fill="#564FCC"/>
<path d="M341.46 147.921H327.802V161.589H341.46V147.921Z" fill="#564FCC"/>
<path d="M363.466 147.921H349.807V161.589H363.466V147.921Z" fill="#564FCC"/>
<path d="M319.834 179.055H306.176V192.723H319.834V179.055Z" fill="#564FCC"/>
<path d="M341.84 179.055H328.181V192.723H341.84V179.055Z" fill="#564FCC"/>
<path d="M363.845 179.055H350.187V192.723H363.845V179.055Z" fill="#564FCC"/>
<path d="M320.214 210.188H306.555V223.857H320.214V210.188Z" fill="#564FCC"/>
<path d="M342.219 210.188H328.561V223.857H342.219V210.188Z" fill="#564FCC"/>
<path d="M342.219 246.638H328.561V272.456H342.219V246.638Z" fill="#564FCC"/>
<path d="M364.224 210.188H350.566V223.857H364.224V210.188Z" fill="#564FCC"/>
<path d="M492.462 76.541H481.838V92.293H492.462V76.541Z" fill="#6C63FF"/>
<path d="M491.702 90.9429H401.405V273.216H491.702V90.9429Z" fill="#6C63FF"/>
<path d="M528.125 90.9429H491.703V273.216H528.125V90.9429Z" fill="#332F64"/>
<path d="M432.896 116.787H419.237V130.456H432.896V116.787Z" fill="#564FCC"/>
<path d="M454.901 116.787H441.242V130.456H454.901V116.787Z" fill="#564FCC"/>
<path d="M476.906 116.787H463.248V130.456H476.906V116.787Z" fill="#564FCC"/>
<path d="M433.275 147.921H419.617V161.589H433.275V147.921Z" fill="#564FCC"/>
<path d="M455.28 147.921H441.622V161.589H455.28V147.921Z" fill="#564FCC"/>
<path d="M477.285 147.921H463.627V161.589H477.285V147.921Z" fill="#564FCC"/>
<path d="M433.654 179.055H419.996V192.723H433.654V179.055Z" fill="#564FCC"/>
<path d="M455.66 179.055H442.001V192.723H455.66V179.055Z" fill="#564FCC"/>
<path d="M477.665 179.055H464.006V192.723H477.665V179.055Z" fill="#564FCC"/>
<path d="M434.034 210.188H420.375V223.857H434.034V210.188Z" fill="#564FCC"/>
<path d="M456.039 210.188H442.381V223.857H456.039V210.188Z" fill="#564FCC"/>
<path d="M456.039 246.638H442.381V272.456H456.039V246.638Z" fill="#564FCC"/>
<path d="M478.044 210.188H464.386V223.857H478.044V210.188Z" fill="#564FCC"/>
<path d="M497.773 76.541H491.703V91.8429H497.773V76.541Z" fill="#3F3D56"/>
<path d="M674 272.298H0.185303V274H674V272.298Z" fill="#332F64"/>
<path d="M555.943 237.588C566.856 237.588 575.702 228.734 575.702 217.813C575.702 206.892 566.856 198.039 555.943 198.039C545.03 198.039 536.183 206.892 536.183 217.813C536.183 228.734 545.03 237.588 555.943 237.588Z" fill="#6C63FF"/>
<path opacity="0.2" d="M570.641 204.605C572.484 208.92 572.734 213.75 571.346 218.232C569.959 222.714 567.024 226.556 563.066 229.072C559.108 231.588 554.385 232.613 549.741 231.965C545.097 231.317 540.835 229.038 537.716 225.534C538.842 228.17 540.527 230.53 542.654 232.449C544.782 234.369 547.301 235.802 550.038 236.651C552.774 237.5 555.662 237.743 558.501 237.363C561.341 236.984 564.064 235.991 566.482 234.454C568.9 232.917 570.955 230.873 572.505 228.462C574.055 226.051 575.063 223.332 575.459 220.492C575.854 217.653 575.628 214.762 574.796 212.019C573.965 209.275 572.547 206.746 570.641 204.605Z" fill="black"/>
<path d="M555.997 217.813H556.051L557.028 273.876H554.965L555.997 217.813Z" fill="#332F64"/>
<path d="M559.595 248.35L559.14 247.485L555.873 249.206L556.328 250.071L559.595 248.35Z" fill="#3F3D56"/>
<path d="M614.035 218.692C630.63 218.692 644.083 205.229 644.083 188.622C644.083 172.015 630.63 158.552 614.035 158.552C597.44 158.552 583.987 172.015 583.987 188.622C583.987 205.229 597.44 218.692 614.035 218.692Z" fill="#6C63FF"/>
<path opacity="0.2" d="M636.387 168.538C639.189 175.099 639.57 182.443 637.459 189.259C635.349 196.075 630.886 201.918 624.867 205.744C618.848 209.569 611.666 211.129 604.604 210.143C597.542 209.157 591.061 205.691 586.318 200.363C588.03 204.372 590.593 207.96 593.828 210.879C597.063 213.798 600.894 215.978 605.055 217.268C609.216 218.559 613.608 218.928 617.926 218.352C622.244 217.775 626.385 216.265 630.062 213.928C633.739 211.591 636.864 208.481 639.221 204.815C641.578 201.149 643.111 197.014 643.713 192.697C644.314 188.379 643.971 183.982 642.706 179.81C641.441 175.639 639.285 171.792 636.387 168.538Z" fill="black"/>
<path d="M614.118 188.622H614.2L615.686 273.876H612.549L614.118 188.622Z" fill="#332F64"/>
<path d="M619.589 235.059L618.897 233.744L613.93 236.361L614.622 237.676L619.589 235.059Z" fill="#3F3D56"/>
<path d="M20.2293 236.828C31.1423 236.828 39.9889 227.974 39.9889 217.054C39.9889 206.133 31.1423 197.279 20.2293 197.279C9.3164 197.279 0.469727 206.133 0.469727 217.054C0.469727 227.974 9.3164 236.828 20.2293 236.828Z" fill="#6C63FF"/>
<path opacity="0.2" d="M34.9277 203.846C36.7708 208.161 37.0209 212.991 35.6331 217.473C34.2454 221.955 31.3103 225.797 27.3523 228.313C23.3944 230.829 18.6715 231.854 14.0276 231.206C9.38375 230.558 5.12147 228.278 2.00244 224.775C3.12836 227.411 4.8135 229.77 6.94112 231.69C9.06873 233.609 11.5879 235.043 14.3242 235.892C17.0605 236.74 19.9484 236.983 22.7878 236.604C25.6273 236.225 28.3504 235.232 30.7685 233.695C33.1866 232.158 35.2418 230.113 36.7919 227.703C38.3419 225.292 39.3497 222.572 39.7453 219.733C40.1409 216.894 39.915 214.003 39.0832 211.259C38.2513 208.516 36.8334 205.987 34.9278 203.846H34.9277Z" fill="black"/>
<path d="M20.2834 217.054H20.338L21.3146 273.117H19.2522L20.2834 217.054Z" fill="#332F64"/>
<path d="M23.8815 247.591L23.4263 246.726L20.1599 248.447L20.6151 249.312L23.8815 247.591Z" fill="#3F3D56"/>
<path d="M566.379 -3.69639L573.364 -9.28742C567.938 -9.88656 565.708 -6.92485 564.796 -4.58062C560.556 -6.34234 555.941 -4.03353 555.941 -4.03353L569.917 1.04411C569.212 -0.840552 567.985 -2.48499 566.379 -3.69639Z" fill="#332F64"/>
<path d="M180.149 13.0097L187.135 7.41863C181.708 6.81949 179.479 9.78121 178.566 12.1254C174.327 10.3637 169.711 12.6725 169.711 12.6725L183.688 17.7502C182.983 15.8655 181.755 14.2211 180.149 13.0097Z" fill="#332F64"/>
<path d="M451.8 44.9027L458.785 39.3117C453.359 38.7126 451.129 41.6743 450.216 44.0185C445.977 42.2568 441.362 44.5656 441.362 44.5656L455.338 49.6432C454.633 47.7586 453.406 46.1141 451.8 44.9027Z" fill="#332F64"/>
<path d="M80.4328 257.269H33.3872V258.788H40.724V273.216H42.2416V258.788H70.8196V273.216H72.3372V258.788H80.4328V257.269Z" fill="#332F64"/>
<path d="M128.237 263.344C126.381 263.344 124.556 263.833 122.949 264.764C121.316 263.286 119.291 262.315 117.117 261.968C114.944 261.62 112.716 261.912 110.705 262.807C108.694 263.702 106.986 265.161 105.788 267.009C104.589 268.857 103.953 271.013 103.956 273.216H138.822C138.632 270.536 137.435 268.027 135.471 266.196C133.507 264.364 130.922 263.345 128.237 263.344Z" fill="#332F64"/>
<path d="M308.073 263.344C306.216 263.344 304.392 263.833 302.784 264.764C301.152 263.286 299.126 262.315 296.953 261.968C294.779 261.62 292.552 261.912 290.54 262.807C288.529 263.702 286.821 265.161 285.623 267.009C284.425 268.857 283.789 271.013 283.791 273.216H318.658C318.468 270.536 317.27 268.027 315.306 266.196C313.342 264.364 310.758 263.345 308.073 263.344Z" fill="#332F64"/>
<path d="M425.687 263.344C423.83 263.344 422.006 263.833 420.398 264.764C418.766 263.286 416.74 262.315 414.567 261.968C412.393 261.62 410.166 261.912 408.154 262.807C406.143 263.702 404.435 265.161 403.237 267.009C402.039 268.857 401.403 271.013 401.405 273.216H436.272C436.082 270.536 434.884 268.027 432.92 266.196C430.956 264.364 428.372 263.345 425.687 263.344Z" fill="#332F64"/>
<path d="M580.482 263.344C578.625 263.344 576.801 263.833 575.194 264.764C573.561 263.286 571.535 262.315 569.362 261.968C567.188 261.62 564.961 261.912 562.95 262.807C560.939 263.702 559.23 265.161 558.032 267.009C556.834 268.857 556.198 271.013 556.201 273.216H591.067C590.877 270.536 589.68 268.027 587.716 266.196C585.752 264.364 583.167 263.345 580.482 263.344Z" fill="#332F64"/>
<path d="M654.845 263.344C652.988 263.344 651.164 263.833 649.557 264.764C647.924 263.286 645.898 262.315 643.725 261.968C641.551 261.62 639.324 261.912 637.313 262.807C635.302 263.702 633.593 265.161 632.395 267.009C631.197 268.857 630.561 271.013 630.563 273.216H665.43C665.24 270.536 664.042 268.027 662.078 266.196C660.114 264.364 657.53 263.345 654.845 263.344Z" fill="#332F64"/>
<path d="M97.8852 220.061H85.7444V232.21H91.3724V273.149H92.89V232.21H97.8852V220.061Z" fill="#332F64"/>
<path d="M80.5256 252.726H33.48V254.244H80.5256V252.726Z" fill="#332F64"/>
<path d="M80.5256 248.929H33.48V250.447H80.5256V248.929Z" fill="#332F64"/>
<path d="M80.5256 245.132H33.48V246.651H80.5256V245.132Z" fill="#332F64"/>
</svg>
