<svg xmlns="http://www.w3.org/2000/svg" width="560" height="117" viewBox="0 0 560 117">
    <defs>
        <style>
            .cls-1{fill:#18566f}.cls-2{fill:#e4f2f9}.cls-3{fill:#d7edf9}.cls-4{fill:#ff7816}.cls-5{fill:#ff4b00}.cls-6{fill:#ff9f00}.cls-7{fill:#ececf1}.cls-8{fill:#e2e2e7}.cls-9{fill:#e52d2d}.cls-10{fill:#5a5a5a}.cls-11{fill:#a20202}.cls-12{fill:#444}.cls-13{fill:#fff}
        </style>
    </defs>
    <g id="Group_819" data-name="Group 819" transform="translate(-29 -39)">
        <g id="Group_749" data-name="Group 749" transform="translate(14 4)">
            <path id="Rectangle_1598" d="M4 0h552a4 4 0 0 1 4 4v113H0V4a4 4 0 0 1 4-4z" class="cls-1" data-name="Rectangle 1598" transform="translate(15 35)"/>
            <g id="clouds" transform="translate(212 -8.36)">
                <g id="Group_829" data-name="Group 829">
                    <path id="Path_734" d="M246.765 299.868a13.706 13.706 0 0 0-3.443.437 10.918 10.918 0 0 0-12.44-4.148 18.2 18.2 0 0 0-35.95 4.027c0 .207.009.413.015.617a13.534 13.534 0 1 0-4.052 26.447h55.87a13.69 13.69 0 1 0 0-27.381z" class="cls-2" data-name="Path 734" transform="translate(-362.396 -207.889)"/>
                    <path id="Path_735" d="M205.326 298.3a33.727 33.727 0 0 1 2.9-13.721 18.2 18.2 0 0 0-13.294 17.527c0 .207.009.413.015.617a13.534 13.534 0 1 0-4.052 26.447h34.385a33.85 33.85 0 0 1-19.954-30.87z" class="cls-3" data-name="Path 735" transform="translate(-362.395 -209.816)"/>
                </g>
            </g>
            <g id="clouds-2" data-name="clouds" transform="translate(579.374 -32.36)">
                <g id="Group_829-2" data-name="Group 829" transform="translate(-185.033 74.094)">
                    <path id="Path_734-2" d="M263.334 304.138a16.978 16.978 0 0 0-4.265.542 13.524 13.524 0 0 0-15.411-5.138 22.546 22.546 0 0 0-44.533 4.989c0 .257.011.511.019.765a16.764 16.764 0 1 0-5.019 32.761h69.208a16.959 16.959 0 1 0 0-33.918z" class="cls-2" data-name="Path 734" transform="translate(-177.363 -281.983)"/>
                    <path id="Path_735-2" d="M212 301.58a41.779 41.779 0 0 1 3.591-17 22.552 22.552 0 0 0-16.467 21.72c0 .257.011.511.019.765a16.764 16.764 0 1 0-5.019 32.761h42.6A41.931 41.931 0 0 1 212 301.58z" class="cls-3" data-name="Path 735" transform="translate(-177.362 -283.749)"/>
                </g>
            </g>
            <g id="clouds-3" data-name="clouds" transform="translate(291 32.936)">
                <g id="Group_829-3" data-name="Group 829" transform="translate(-185.033 74.094)">
                    <path id="Path_734-3" d="M214.114 291.454a7.258 7.258 0 0 0-1.823.232 5.781 5.781 0 0 0-6.588-2.2 9.638 9.638 0 0 0-19.036 2.133c0 .11 0 .218.008.327a7.166 7.166 0 1 0-2.145 14h29.585a7.249 7.249 0 1 0 0-14.5z" class="cls-2" data-name="Path 734" transform="translate(-177.364 -281.983)"/>
                    <path id="Path_735-3" d="M192.169 291.85a17.86 17.86 0 0 1 1.535-7.266 9.64 9.64 0 0 0-7.04 9.281c0 .11 0 .219.008.327a7.166 7.166 0 1 0-2.145 14h18.208a17.924 17.924 0 0 1-10.566-16.342z" class="cls-3" data-name="Path 735" transform="translate(-177.362 -284.227)"/>
                </g>
            </g>
            <g id="clouds-4" data-name="clouds" transform="translate(533.738 -16.035)">
                <g id="Group_829-4" data-name="Group 829" transform="translate(-185.033 74.094)">
                    <path id="Path_734-4" d="M201.8 288.281a4.826 4.826 0 0 0-1.212.154 3.845 3.845 0 0 0-4.381-1.461 6.409 6.409 0 0 0-12.66 1.418c0 .073 0 .145.005.217a4.766 4.766 0 1 0-1.427 9.314H201.8a4.821 4.821 0 1 0 0-9.643z" class="cls-2" data-name="Path 734" transform="translate(-177.364 -281.983)"/>
                    <path id="Path_735-4" d="M187.21 289.416a11.878 11.878 0 0 1 1.021-4.832 6.411 6.411 0 0 0-4.682 6.172c0 .073 0 .145.005.217a4.766 4.766 0 1 0-1.427 9.314h12.109a11.921 11.921 0 0 1-7.026-10.871z" class="cls-3" data-name="Path 735" transform="translate(-177.362 -284.347)"/>
                </g>
            </g>
            <g id="launch" transform="translate(451 49.652)">
                <g id="Group_751" data-name="Group 751">
                    <path id="Path_626" d="M24.58 21C6.453 21 .733 5.676.274 5.164a2.553 2.553 0 0 1 2.278-3.7L19.041 0l8.681 21H24.58z" class="cls-4" data-name="Path 626" transform="translate(0 35.68)"/>
                    <path id="Path_627" d="M0 18.851l1.236-16.3A2.555 2.555 0 0 1 4.94.276c.511.458 15.836 6.287 15.836 24.305v3.143z" class="cls-5" data-name="Path 627" transform="translate(35.903)"/>
                    <path id="Path_628" d="M26.058 4.262C23.353 2.884 20.647 1.557 18.1.281a2.57 2.57 0 0 0-2.966.459L.74 15.134a2.569 2.569 0 0 0-.459 2.96c1.276 2.552 2.6 5.258 3.981 7.963.817 1.582 6.738-1.94 7.555-.306l13.935-13.934c-1.634-.817 1.888-6.738.306-7.555z" class="cls-6" data-name="Path 628" transform="translate(11.91 11.688)"/>
                    <path id="Path_629" d="M18.12 4.262c-2.705-1.378-5.41-2.705-7.962-3.981A2.57 2.57 0 0 0 7.2.74L0 7.937l10.872 10.821 6.942-6.942C16.181 11 19.7 5.079 18.12 4.262z" class="cls-4" data-name="Path 629" transform="translate(19.848 11.688)"/>
                    <path id="Path_630" d="M63.7 40.477a45.555 45.555 0 0 0-12.863-22.1C43.336 11.127 31.341 4.8 21.8 0L10.923 10.872 0 21.8c4.8 9.545 11.128 21.592 18.376 29.044A45.558 45.558 0 0 0 40.478 63.7l5.155-1.889a16.386 16.386 0 0 1 16.181-16.178z" class="cls-7" data-name="Path 630" transform="translate(16.172 15.95)"/>
                    <path id="Path_631" d="M52.779 40.477a45.555 45.555 0 0 0-12.863-22.1C32.413 11.127 20.417 4.8 10.872 0L0 10.872l39.508 39.559a16.576 16.576 0 0 1 11.383-4.8z" class="cls-8" data-name="Path 631" transform="translate(27.096 15.95)"/>
                    <path id="Path_632" d="M21.732 21.783A12.741 12.741 0 0 1 3.714 3.764v-.051a12.759 12.759 0 0 1 18.018 18.07z" class="cls-9" data-name="Path 632" transform="translate(37.828 37.554)"/>
                    <path id="Path_633" d="M23.224 0c-.408 0-1.582.051-1.991.051A21.441 21.441 0 0 0 .051 21.234c0 .408-.051 1.582-.051 1.991a79.759 79.759 0 0 0 22.816 2.042 2.44 2.44 0 0 0 2.45-2.45A81.65 81.65 0 0 0 23.224 0z" class="cls-6" data-name="Path 633" transform="translate(56.65 56.427)"/>
                    <path id="Path_634" d="M4.339.766a2.467 2.467 0 0 0-3.573 0 2.467 2.467 0 0 0 0 3.573 2.467 2.467 0 0 0 3.573 0 2.467 2.467 0 0 0 0-3.573z" class="cls-10" data-name="Path 634" transform="translate(33.527 33.305)"/>
                    <path id="Path_635" d="M16.9 0c-.408 0-1.582.051-1.991.051A21.412 21.412 0 0 0 0 6.329l18.223 18.223a2.432 2.432 0 0 0 .715-1.736A81.637 81.637 0 0 0 16.9 0z" class="cls-4" data-name="Path 635" transform="translate(62.98 56.427)"/>
                    <path id="Path_636" d="M18.018 3.713A12.786 12.786 0 0 0 0 3.713v.051l18.018 18.019a12.754 12.754 0 0 0 0-18.07z" class="cls-11" data-name="Path 636" transform="translate(41.541 37.554)"/>
                    <path id="Path_637" d="M3.573.766A2.467 2.467 0 0 0 0 .766l3.573 3.573a2.467 2.467 0 0 0 0-3.573z" class="cls-12" data-name="Path 637" transform="translate(34.293 33.305)"/>
                    <path id="Path_728" d="M8.078 5.85L11.4 2.526a1 1 0 0 0 .3-.731 1.109 1.109 0 0 0-.3-.765L10.67.3a1.109 1.109 0 0 0-.764-.3 1 1 0 0 0-.731.3L5.85 3.623 2.526.3A1 1 0 0 0 1.8 0a1.109 1.109 0 0 0-.77.3l-.73.73a1.109 1.109 0 0 0-.3.77 1 1 0 0 0 .3.731L3.623 5.85.3 9.174a1 1 0 0 0-.3.731 1.109 1.109 0 0 0 .3.765l.731.731a1.109 1.109 0 0 0 .765.3 1 1 0 0 0 .731-.3L5.85 8.078 9.175 11.4a1 1 0 0 0 .731.3 1.109 1.109 0 0 0 .765-.3l.731-.731a1.109 1.109 0 0 0 .3-.765 1 1 0 0 0-.3-.731z" class="cls-13" data-name="Path 728" transform="translate(44.962 43.769)"/>
                </g>
            </g>
        </g>
    </g>
</svg>
