<svg xmlns="http://www.w3.org/2000/svg" width="470.773" height="312.701" viewBox="0 0 470.773 312.701">
    <defs>
        <style>
            .cls-1{fill:rgba(255,210,108,.38)}.cls-2{fill:#1d1d1b;opacity:.1}.cls-3{fill:#2eafe8}.cls-4{fill:#95c11f}.cls-5{fill:#1d1d1d}.cls-6{fill:#7b6a58}.cls-7{fill:#a48a7b}.cls-10,.cls-11,.cls-21,.cls-8{fill:#fff}.cls-9{fill:#634e42}.cls-10,.cls-11{font-size:16px;font-family:Impact;letter-spacing:.001em}.cls-11{font-size:14px}.cls-12{fill:#fff72f}.cls-13{fill:#3c3c3b}.cls-14{fill:#826657}.cls-15{fill:#f9b233}.cls-16{fill:#7a9e19}.cls-17{fill:#d1a066}.cls-17,.cls-18,.cls-19,.cls-20,.cls-21,.cls-22,.cls-23,.cls-24,.cls-25,.cls-26,.cls-27,.cls-28,.cls-29,.cls-30,.cls-31,.cls-32,.cls-33,.cls-34,.cls-35{fill-rule:evenodd}.cls-18{fill:#edbd7b}.cls-20{fill:#cc9a64}.cls-22{fill:#2d3752}.cls-23{fill:#dedede}.cls-24{fill:#5c4b51}.cls-25{fill:#5f8cbc}.cls-26{fill:#d75644}.cls-27{fill:#e6e6e6}.cls-28{fill:#416e9e}.cls-29{fill:#8bb8e8}.cls-30{fill:#99385d}.cls-31{fill:#e4a66a}.cls-32{fill:#f4b63f}.cls-33{fill:#c48929}.cls-34{fill:#568ab3}.cls-35{fill:#194567}.cls-36{filter:url(#Path_636)}.cls-37{filter:url(#Sunny_68_)}.cls-38{filter:url(#Today_s_Weather)}
        </style>
        <filter id="Today_s_Weather" width="112" height="22" x="163.5" y="57.139" filterUnits="userSpaceOnUse">
            <feOffset dy="1"/>
            <feGaussianBlur result="blur" stdDeviation=".5"/>
            <feFlood flood-opacity=".161"/>
            <feComposite in2="blur" operator="in"/>
            <feComposite in="SourceGraphic"/>
        </filter>
        <filter id="Sunny_68_" width="39" height="38" x="207.5" y="83.139" filterUnits="userSpaceOnUse">
            <feOffset dy="1"/>
            <feGaussianBlur result="blur-2" stdDeviation=".5"/>
            <feFlood flood-opacity=".161"/>
            <feComposite in2="blur-2" operator="in"/>
            <feComposite in="SourceGraphic"/>
        </filter>
        <filter id="Path_636" width="36.9" height="38.45" x="163.85" y="83.139" filterUnits="userSpaceOnUse">
            <feOffset dy="1"/>
            <feGaussianBlur result="blur-3" stdDeviation=".5"/>
            <feFlood flood-opacity=".161"/>
            <feComposite in2="blur-3" operator="in"/>
            <feComposite in="SourceGraphic"/>
        </filter>
    </defs>
    <g id="Group_927" data-name="Group 927" transform="translate(-141 -110.861)">
        <path id="Path_637" d="M141.2 19.45c65.078 52.137 239.427-9.526 254.407 88.779 10.5 68.911-205.919 106.278-238.584 106.278C47.779 214.507 0 167.911 0 108.229S76.121-32.687 141.2 19.45z" class="cls-1" data-name="Path 637" transform="rotate(164 283.986 201.572)"/>
        <g id="Group_926" data-name="Group 926" transform="translate(0 43)">
            <g id="Group_924" data-name="Group 924" transform="translate(86 107.183)">
                <ellipse id="Ellipse_21" cx="49.185" cy="8.652" class="cls-2" data-name="Ellipse 21" rx="49.185" ry="8.652" transform="translate(55 210.77)"/>
                <ellipse id="Ellipse_24" cx="59.185" cy="10.652" class="cls-2" data-name="Ellipse 24" rx="59.185" ry="10.652" transform="translate(381 218.77)"/>
                <g id="Group_897" data-name="Group 897" transform="translate(191.419 -.698)">
                    <path id="Rectangle_1598" d="M0 0h204.327v113.079H0z" class="cls-3" data-name="Rectangle 1598" transform="translate(11.458 10.905)"/>
                    <path id="Rectangle_1599" d="M0 0h204.249v30.317H0z" class="cls-4" data-name="Rectangle 1599" transform="translate(11.94 90.286)"/>
                    <path id="Path_531" d="M315.787 116.857v.506a12.3 12.3 0 0 1 1.782-.2v-.416c-.563.044-1.157.089-1.782.11zm0 0v.506a12.3 12.3 0 0 1 1.782-.2v-.416c-.563.044-1.157.089-1.782.11zm0 0v.506a12.3 12.3 0 0 1 1.782-.2v-.416c-.563.044-1.157.089-1.782.11zM111.269 20.946V137.6h212.273V20.946zm204.518 111.146H119.024V26.455h196.763zm0-15.235v.506a12.3 12.3 0 0 1 1.782-.2v-.416c-.563.044-1.157.089-1.782.11zm0 0v.506a12.3 12.3 0 0 1 1.782-.2v-.416c-.563.044-1.157.089-1.782.11zm0 0v.506a12.3 12.3 0 0 1 1.782-.2v-.416c-.563.044-1.157.089-1.782.11z" class="cls-5" data-name="Path 531" transform="translate(-103.341 -13.142)"/>
                    <g id="Group_895" data-name="Group 895" transform="translate(163.526 61.152)">
                        <path id="Path_534" d="M174.994 52.775l7.6 14.287h-7.706l-7.46-14.029 1.174-2.2-.074.567a8.272 8.272 0 0 0 1.421-1.213c.274.03.3.408.284.681a4.908 4.908 0 0 0 .079 1.314c.025.134.076.288.21.328s.284-.069.388-.18c.184-.189.369-.378.552-.572q.44 1.553.886 3.093c.11.378.284.826.671.9q.007-2.118.025-4.236a5.826 5.826 0 0 0 1.934 2.9 8.224 8.224 0 0 1 .016-1.64z" class="cls-6" data-name="Path 534" transform="translate(-132.08 -36.434)"/>
                        <path id="Path_535" d="M170.151 51.992l7.459 14.028h-14.918z" class="cls-7" data-name="Path 535" transform="translate(-134.805 -35.393)"/>
                        <path id="Path_536" d="M174.592 54.381a8.224 8.224 0 0 0-.021 1.636 5.826 5.826 0 0 1-1.934-2.9q-.017 2.118-.025 4.236c-.388-.074-.561-.522-.671-.9q-.449-1.544-.886-3.093c-.183.194-.367.383-.552.572-.1.11-.244.23-.388.18s-.184-.194-.21-.328a4.908 4.908 0 0 1-.079-1.314c.02-.273-.009-.651-.284-.681A8.272 8.272 0 0 1 168.123 53l.074-.567 2.681-5.041z" class="cls-8" data-name="Path 536" transform="translate(-131.678 -38.041)"/>
                        <path id="Path_537" d="M170.813 49.548l3.018 5.673-7.459 14.029h-2.487L156.3 54.988l2.7-5.071c1.513-.726 2.272-2.5 3.73-3.333l-1.209 4.118c.129.184.4-.016.522-.2.5-.782 1.01-1.557 1.511-2.337.622.706.12 2.088.931 2.561a31.043 31.043 0 0 0 .72-3.371c1.054 1.237 1.1 3.057 1.984 4.419.085.131.2.269.358.265.249-.016.309-.348.295-.6q-.156-2.529-.309-5.057c.851 1.024 1.7 2.049 2.545 3.073.17.2.473.418.657.233a.323.323 0 0 0 .078-.14z" class="cls-7" data-name="Path 537" transform="translate(-138.485 -38.622)"/>
                        <path id="Path_538" d="M159.073 51.844l7.584 14.261H151.49z" class="cls-7" data-name="Path 538" transform="translate(-141.256 -35.478)"/>
                        <path id="Path_539" d="M166.2 54.611c-.886-1.362-.93-3.182-1.984-4.419a31.043 31.043 0 0 1-.72 3.371c-.812-.473-.309-1.855-.931-2.561-.5.78-1.009 1.555-1.511 2.337-.118.183-.392.383-.522.2l1.209-4.118c-1.458.835-2.217 2.607-3.73 3.333l6.007-11.294 5.809 10.926a.323.323 0 0 1-.08.143c-.184.184-.487-.03-.657-.233-.849-1.024-1.694-2.049-2.545-3.073q.156 2.529.309 5.057c.014.249-.046.581-.295.6-.152.001-.272-.138-.359-.269z" class="cls-8" data-name="Path 539" transform="translate(-137.5 -41.459)"/>
                        <path id="Path_540" d="M160.047 49.685a1.787 1.787 0 0 0 1.229.514l1.536 2.889-7.582 14.261H145l9.06-17.037c.139-.129.279-.258.418-.383v3.163a22.629 22.629 0 0 1 1.9-3.087 8.645 8.645 0 0 1 .165 3.9c.258.109.492-.189.621-.443q.827-1.685 1.666-3.372a9.637 9.637 0 0 0 .662 1.407c.069.12.164.254.3.244.184-.009.24-.258.244-.448q.004-.802.011-1.608z" class="cls-9" data-name="Path 540" transform="translate(-144.996 -36.722)"/>
                        <path id="Path_541" d="M156.737 51.958l-.014 1.612c0 .189-.06.438-.244.448-.139.009-.233-.124-.3-.244a9.638 9.638 0 0 1-.662-1.407q-.834 1.685-1.666 3.372c-.129.254-.362.552-.621.443a8.645 8.645 0 0 0-.165-3.9 22.626 22.626 0 0 0-1.9 3.087q.007-1.581 0-3.163c-.139.124-.279.254-.418.383l3.64-6.847 3.58 6.734a1.787 1.787 0 0 1-1.23-.518z" class="cls-8" data-name="Path 541" transform="translate(-141.685 -38.995)"/>
                    </g>
                    <path id="Path_543" d="M158.4 41.8c-.072-.616-.782-1.114-1.715-1.2a1.827 1.827 0 0 0-1.612-1.743 2.164 2.164 0 0 0-.747 0 2.164 2.164 0 0 0-1.546-.627 2.28 2.28 0 0 0-1.13.29 3.773 3.773 0 0 0-2.57-.936c-1.8-.006-3.265 1.051-3.268 2.361-1.234 0-2.235.725-2.238 1.626a1.217 1.217 0 0 0 .063.236z" class="cls-8" data-name="Path 543" transform="translate(45.604 9.205)"/>
                    <path id="Path_545" d="M182.394 34.035c-.279-1.141-1.637-2.05-3.428-2.216a3.425 3.425 0 0 0-3.008-2.668 4.3 4.3 0 0 0-1.935.12 3.99 3.99 0 0 0-2.32-1.217 4.166 4.166 0 0 0-2.414.306 4.618 4.618 0 0 0-2.928-1.056 4.474 4.474 0 0 0-4.127 2.555 3.362 3.362 0 0 0-2.252-.829 2.778 2.778 0 0 0-3.023 2.356c-.124-.008-.244-.024-.37-.025-2.1-.006-3.807 1.016-3.81 2.288a1.425 1.425 0 0 0 .128.386z" class="cls-8" data-name="Path 545" transform="translate(-1.293 -2.605)"/>
                    <path id="Rectangle_1600" d="M0 0h12.545v2.632H0z" class="cls-8" data-name="Rectangle 1600" transform="translate(107.837 120.989)"/>
                    <g class="cls-38" transform="translate(-136.42 -38.62)">
                        <text id="Today_s_Weather-2" class="cls-10" data-name="Today’s Weather" transform="translate(165 73.64)">
                            <tspan x="0" y="0">Today’s Weather</tspan>
                        </text>
                    </g>
                    <g class="cls-37" transform="translate(-136.42 -38.62)">
                        <text id="Sunny_68_2" class="cls-11" data-name="Sunny 68º" transform="translate(209 97.64)">
                            <tspan x="0" y="0">Sunny</tspan><tspan x="0" y="18">68º</tspan>
                        </text>
                    </g>
                    <g class="cls-36" transform="translate(-136.42 -38.62)">
                        <path id="Path_636-2" d="M18.615-13.1A1.3 1.3 0 0 0 17.3-14a1.3 1.3 0 0 0-1.316.9l-1.731 4.293a1.361 1.361 0 0 1-.8.727 1.185 1.185 0 0 1-1-.1l-4.016-2.496a1.3 1.3 0 0 0-1.558.069 1.2 1.2 0 0 0-.519 1.454l1.108 4.57a1.122 1.122 0 0 1-.208 1 1.3 1.3 0 0 1-.9.519l-4.708.346a1.311 1.311 0 0 0-1.212.973A1.277 1.277 0 0 0 .89-.221l3.531 2.977a1.212 1.212 0 0 1 0 1.939L.89 7.672A1.277 1.277 0 0 0 .44 9.2a1.311 1.311 0 0 0 1.212.969l4.708.346a1.3 1.3 0 0 1 .9.519 1.122 1.122 0 0 1 .208 1L6.36 16.6a1.2 1.2 0 0 0 .519 1.454 1.3 1.3 0 0 0 1.558.069l4.016-2.493a1.185 1.185 0 0 1 1-.1 1.361 1.361 0 0 1 .8.727l1.731 4.293a1.411 1.411 0 0 0 2.631 0l1.731-4.293a1.361 1.361 0 0 1 .8-.727 1.185 1.185 0 0 1 1 .1l4.016 2.493a1.3 1.3 0 0 0 1.558-.069 1.2 1.2 0 0 0 .52-1.454l-1.108-4.57a1.122 1.122 0 0 1 .208-1 1.3 1.3 0 0 1 .9-.519l4.708-.346A1.311 1.311 0 0 0 34.16 9.2a1.277 1.277 0 0 0-.45-1.523l-3.532-2.982a1.212 1.212 0 0 1 0-1.939L33.71-.221a1.277 1.277 0 0 0 .45-1.523 1.311 1.311 0 0 0-1.212-.969L28.24-3.06a1.3 1.3 0 0 1-.9-.519 1.122 1.122 0 0 1-.208-1l1.108-4.57a1.2 1.2 0 0 0-.519-1.454 1.3 1.3 0 0 0-1.558-.069l-4.016 2.488a1.185 1.185 0 0 1-1 .1 1.361 1.361 0 0 1-.8-.727zm8.1 16.825a9.018 9.018 0 0 1-1.281 4.708 9.75 9.75 0 0 1-3.427 3.427 9.293 9.293 0 0 1-9.416 0 9.75 9.75 0 0 1-3.427-3.427 9.018 9.018 0 0 1-1.281-4.708A9.018 9.018 0 0 1 9.164-.983a9.75 9.75 0 0 1 3.428-3.427 9.293 9.293 0 0 1 9.416 0 9.75 9.75 0 0 1 3.428 3.427 9.018 9.018 0 0 1 1.28 4.708zm-2.216 0a7.022 7.022 0 0 0-.969-3.6 7.192 7.192 0 0 0-2.63-2.631 7.171 7.171 0 0 0-7.2 0A7.192 7.192 0 0 0 11.068.125a7.022 7.022 0 0 0-.969 3.6 7.022 7.022 0 0 0 .969 3.6A7.192 7.192 0 0 0 13.7 9.957a7.171 7.171 0 0 0 7.2 0 7.192 7.192 0 0 0 2.631-2.631 7.022 7.022 0 0 0 .969-3.601z" class="cls-12" data-name="Path 636" transform="translate(165 97.64)"/>
                    </g>
                </g>
                <g id="Group_917" data-name="Group 917" transform="translate(55 124.056)">
                    <path id="Rectangle_1665" d="M0 0h97.243v91.894H0z" class="cls-13" data-name="Rectangle 1665" transform="translate(.254 3.301)"/>
                    <path id="Rectangle_1666" d="M0 0h97.497v9.394H0z" class="cls-9" data-name="Rectangle 1666"/>
                    <g id="Group_916" data-name="Group 916" transform="translate(4.253 13.457)">
                        <g id="Group_914" data-name="Group 914">
                            <path id="Rectangle_1667" d="M0 0h43.29v73.395H0z" class="cls-14" data-name="Rectangle 1667"/>
                            <path id="Path_565" d="M33.416 83.778h-18.28a9.648 9.648 0 0 1-9.648 9.649v49.528a9.647 9.647 0 0 1 9.648 9.648h18.28a9.647 9.647 0 0 1 9.648-9.648V93.427a9.648 9.648 0 0 1-9.648-9.649z" class="cls-9" data-name="Path 565" transform="translate(-2.441 -81.493)"/>
                        </g>
                        <g id="Group_915" data-name="Group 915" transform="translate(45.956)">
                            <path id="Rectangle_1668" d="M0 0h43.29v73.395H0z" class="cls-14" data-name="Rectangle 1668"/>
                            <path id="Path_566" d="M67.966 83.778H49.685a9.65 9.65 0 0 1-9.649 9.649v49.528a9.648 9.648 0 0 1 9.649 9.648h18.281a9.647 9.647 0 0 1 9.648-9.648V93.427a9.648 9.648 0 0 1-9.648-9.649z" class="cls-9" data-name="Path 566" transform="translate(-36.99 -81.493)"/>
                        </g>
                    </g>
                    <ellipse id="Ellipse_22" cx="2.92" cy="3.301" class="cls-15" data-name="Ellipse 22" rx="2.92" ry="3.301" transform="translate(35.8 46.656)"/>
                    <ellipse id="Ellipse_23" cx="2.919" cy="3.301" class="cls-15" data-name="Ellipse 23" rx="2.919" ry="3.301" transform="translate(57.001 46.656)"/>
                </g>
                <g id="Group_923" data-name="Group 923" transform="translate(72.544 56.574)">
                    <path id="Path_570" d="M41.781 44.8a21.526 21.526 0 0 0-6.264-3.224 27.032 27.032 0 0 0-7.2-1.816c-5.345-.408-10.515 1.91-15.129 4.634 1-2.671 3.742-4.249 6.4-5.3 7.378-2.918 15.978-3.344 23.136.08s12.44 11.086 11.882 19c-.122 1.737-.725 3.721-2.353 4.336a121.372 121.372 0 0 0-5.468-11.087 22.1 22.1 0 0 0-5.004-6.623z" class="cls-4" data-name="Path 570" transform="translate(-13.189 -16.081)"/>
                    <path id="Path_571" d="M49.752 61.174c-1.6-5.669-2.416-11.577-4.59-17.052s-6.057-10.673-11.644-12.545c-5.212-1.745-10.9-.331-16.176 1.212a22.324 22.324 0 0 1 27.372 2.244c4.738 4.592 7.124 11.084 8.616 17.512a11.083 11.083 0 0 1 .283 5.389c-.481 1.752-2.047 3.34-3.861 3.24z" class="cls-16" data-name="Path 571" transform="translate(-11.818 -18.6)"/>
                    <path id="Path_572" d="M44.137 68.924c-1.5-7.135-3-14.35-2.777-21.635s2.346-14.761 7.279-20.127c3.743-4.074 9.387-6.777 14.817-5.718C56.9 25.107 52.424 31.765 49.97 38.863s-3.094 14.677-3.544 22.173c-.167 2.79-.408 5.821-2.289 7.888z" class="cls-4" data-name="Path 572" transform="translate(-3.895 -21.213)"/>
                    <path id="Path_573" d="M42.141 63.4c-.16-8.808 5.667-16.639 12.305-22.432 3.92-3.421 8.487-6.513 13.67-6.978 4.991-.447 9.873 1.606 14.194 4.141-2.937.873-6.116-.345-9.145.12a16.353 16.353 0 0 0-4.559 1.66c-8.179 3.957-16.762 8.674-20.781 16.823-1.35 2.739-2.663 6.224-5.684 6.666z" class="cls-16" data-name="Path 573" transform="translate(-3.631 -17.013)"/>
                    <path id="Path_574" d="M73.489 46.284a17.28 17.28 0 0 1 11.475 15.143 27.565 27.565 0 0 0-4.952-4.951 26.2 26.2 0 0 0-7.188-3.2 40.182 40.182 0 0 0-11.577-2.436c-3.957-.068-8.089 1.067-10.9 3.855-2.585 2.565-4.42 6.642-8.05 6.922-1.28.1-2.82-.68-2.791-1.962a2.889 2.889 0 0 1 .5-1.354c4.7-7.972 14.189-12.063 23.407-12.877a24.84 24.84 0 0 1 10.076.86z" class="cls-4" data-name="Path 574" transform="translate(-4.499 -13.268)"/>
                    <path id="Path_575" d="M52.8 53.412l-.4-1.343a32.363 32.363 0 0 0-10-3.513c-5.979-1.047-12.493-.267-17.435 3.26S17.1 61.947 18.893 67.745A18.934 18.934 0 0 1 27 55.63a21.866 21.866 0 0 1 14.277-3.415c3.858.394 7.682 1.737 11.523 1.197z" class="cls-4" data-name="Path 575" transform="translate(-11.482 -12.326)"/>
                    <g id="Group_922" data-name="Group 922" transform="translate(24.637 41.007)">
                        <path id="Path_576" d="M58.389 78.516h-20l-6.678-26.475h33.352z" class="cls-14" data-name="Path 576" transform="translate(-31.711 -52.041)"/>
                        <path id="Path_577" d="M62.357 61.151l1.676-6.651h-31.7l1.676 6.651z" class="cls-13" data-name="Path 577" transform="translate(-31.506 -51.228)"/>
                    </g>
                </g>
            </g>
            <g id="Group_925" data-name="Group 925" transform="translate(-14.757 -420.786)">
                <path id="Path_578" d="M513.484 640.893l1.832 5.243-3.115-2.69-1.588 8.193-5.579-9.472 1.752-7.089 6.816 1.989-.118 3.827z" class="cls-17" data-name="Path 578" transform="translate(22.169 52.889)"/>
                <path id="Path_579" d="M541.109 610.449l-6.563-1.872v-7.9H526v7.9l-6.544 1.872z" class="cls-18" data-name="Path 579" transform="translate(35.907 20.121)"/>
                <path id="Path_580" d="M547.91 664.977h-9.938l1.152 6.226 3.249 4.477 9.284-.761-1.322-5.033-2.425-4.908zm-20.4 0h-9.983l-1.65 4.76-.471 5.514 8.538.74 3.452-5.861.113-5.153z" class="cls-19" data-name="Path 580" transform="translate(32.045 81.365)"/>
                <path id="Path_581" d="M531.33 602.949a6.431 6.431 0 0 1-8.546-.092v-3.143h8.546v3.235z" class="cls-20" data-name="Path 581" transform="translate(39.076 19.207)"/>
                <path id="Path_582" d="M535.743 582.705c18.054 0 18.927 10.961 18.554 16.061a3.657 3.657 0 0 1 0 7.257c-1.837 7.769-9.446 13.595-18.554 13.595s-16.717-5.826-18.554-13.595a3.662 3.662 0 0 1-.074-7.257c-.072-3.93.574-16.061 18.628-16.061z" class="cls-18" data-name="Path 582" transform="translate(30.693 3.007)"/>
                <path id="Path_583" d="M521.916 591.523c-.966 0-1.751 1.511-1.751 3.38s.785 3.384 1.751 3.384 1.755-1.515 1.755-3.384-.785-3.38-1.755-3.38z" class="cls-19" data-name="Path 583" transform="translate(36.581 8.146)"/>
                <path id="Path_584" d="M520.825 591.966c-.213 0-.385.606-.385 1.351s.172 1.358.385 1.358.383-.607.383-1.358-.172-1.351-.383-1.351z" class="cls-21" data-name="Path 584" transform="translate(36.843 9.885)"/>
                <path id="Path_585" d="M528.635 591.523c-.968 0-1.753 1.511-1.753 3.38s.785 3.384 1.753 3.384 1.753-1.515 1.753-3.384-.785-3.38-1.753-3.38z" class="cls-19" data-name="Path 585" transform="translate(42.979 8.146)"/>
                <path id="Path_586" d="M527.542 591.966c-.213 0-.385.606-.385 1.351s.172 1.358.385 1.358.385-.607.385-1.358-.172-1.351-.385-1.351z" class="cls-21" data-name="Path 586" transform="translate(43.242 9.885)"/>
                <path id="Path_587" d="M515.566 626.088l1.248 37.141-1.744 41.436h15.346l-.143-41.45 2.675-21.063H536l1.876 21.27-.695 41.22 15.44.023-.51-41.622-.1-36.655-36.442-.3z" class="cls-22" data-name="Path 587" transform="translate(31.729 44.326)"/>
                <path id="Path_588" d="M548.179 649.217l2.732-41.707-13.158-3.748-4.349 4.784-4.2-4.784-13.1 3.745 3.11 41.7 28.966.01z" class="cls-23" data-name="Path 588" transform="translate(32.712 23.062)"/>
                <path id="Path_589" d="M562.795 704.7h-2.769v-59.129c0-3.237-1.909-7.05-5.258-7.8a4.774 4.774 0 0 0-1.052-.117c-3.255 0-5.377 3.167-5.957 6.144h-2.829c.5-3.96 2.806-8.095 6.738-9.333a7.091 7.091 0 0 1 4.276 0c4.532 1.423 6.851 6.609 6.851 11.105v59.13z" class="cls-24" data-name="Path 589" transform="translate(60.168 51.991)"/>
                <path id="Path_590" d="M547.472 637.431l.153 5.222 2.194-3.482 3.909 7.373 2.572-10.687-4.141-6.025-6.153 5.249 1.466 2.349z" class="cls-18" data-name="Path 590" transform="translate(61.193 47.893)"/>
                <path id="Path_591" d="M561.026 632.068l3.962 10.782 20.112 18.405 8.321-7.88-18.711-16.512-9.5-29.069-16.561-4.032-4.214 33.576-4.335-33.576-16.506 4.029-18.928 60.43 10.525 1.3 11.562-37.191-4.553 29.47 42.1-.061-3.277-29.666z" class="cls-25" data-name="Path 591" transform="translate(21.819 23.062)"/>
                <path id="Path_592" d="M531.36 598.287c-1.271 2.556-7.441 2.462-8.38 0 2 1.011 6.515 1.082 8.38 0z" class="cls-26" data-name="Path 592" transform="translate(39.262 17.848)"/>
                <path id="Path_593" d="M542.24 597.354c-.1 6.082-13.271 2.964-11.3-.508 1.347-2.37 3.9-.385 5.719 1.527a3.377 3.377 0 0 0 5.582-1.019zm-23.005 0c.1 6.082 13.271 2.964 11.3-.508-1.345-2.366-3.9-.385-5.719 1.529a3.379 3.379 0 0 1-5.582-1.021z" class="cls-27" data-name="Path 593" transform="translate(35.695 15.444)"/>
                <path id="Path_595" d="M525.841 590.257c-5.838-2.647-7.068 3.8-5.3 8.888a7.229 7.229 0 0 1 .461 2.669v4.58l-1.5-.031c-.027-2.847-.553-4.67-3.583-4.555-2.829-14.995.607-22.26 18.581-22.26 17.992 0 22.574 6.4 18.818 22.23-3.032-.117-3.766 1.738-3.792 4.584l-1.5.031v-4.58a7.259 7.259 0 0 1 .457-2.669c1.767-5.088.685-11.264-5.3-8.888-4.9 1.945-13.462 1.761-17.343 0z" class="cls-27" data-name="Path 595" transform="translate(31.7)"/>
                <path id="Path_596" d="M549.634 637.67v-8.931l-4.119-3.634v15.2l.681.622 3.438-3.257z" class="cls-28" data-name="Path 596" transform="translate(60.726 43.39)"/>
                <path id="Path_597" d="M546.5 641.172v-15.2l-2.013-1.777v15.135l2.013 1.842z" class="cls-29" data-name="Path 597" transform="translate(59.744 42.524)"/>
                <path id="Path_598" d="M543.622 640.535v-14.95l-2.094-1.848-2.025-6.195v19.223l4.118 3.769z" class="cls-28" data-name="Path 598" transform="translate(55 36.188)"/>
                <path id="Path_599" d="M540.486 639.77v-19.223l-2.014-6.159v23.54l2.014 1.842z" class="cls-29" data-name="Path 599" transform="translate(54.018 33.183)"/>
                <path id="Path_600" d="M537.611 641.458V606.3l-4.118-1v54.981h3.356l-3.277-29.666 3.962 10.782.078.069z" class="cls-28" data-name="Path 600" transform="translate(49.274 24.523)"/>
                <path id="Path_601" d="M534.474 660.517v-54.981l-2.014-.492v55.477h2.014z" class="cls-29" data-name="Path 601" transform="translate(48.292 24.283)"/>
                <path id="Path_602" d="M531.6 661.682v-56.847l-4.116-1v57.856l4.116-.006z" class="cls-28" data-name="Path 602" transform="translate(43.549 23.129)"/>
                <path id="Path_603" d="M528.463 661.755V603.9l-.564-.137-1.449 11.549v46.448h2.014z" class="cls-29" data-name="Path 603" transform="translate(42.566 23.062)"/>
                <path id="Path_604" d="M525.586 661.766v-46.454l-1.486-11.55-2.627.641v57.37l4.118-.006z" class="cls-28" data-name="Path 604" transform="translate(37.822 23.062)"/>
                <path id="Path_605" d="M522.45 661.46v-57.37l-2.014.492v56.882h2.014z" class="cls-29" data-name="Path 605" transform="translate(36.84 23.374)"/>
                <path id="Path_606" d="M519.574 660.563v-55.52l-4.118 1v28.339l1.018-3.274-1.018 6.591v22.865l4.118-.006z" class="cls-28" data-name="Path 606" transform="translate(32.096 24.282)"/>
                <path id="Path_607" d="M516.438 660.078v-22.863l-2.013 13.042v9.825h2.013zm0-26.182v-28.338l-2.013.492v34.322l2.013-6.476z" class="cls-29" data-name="Path 607" transform="translate(31.114 24.773)"/>
                <path id="Path_608" d="M513.563 649.619v-34.835l-4.118 13.146v30.947l1.194.148 2.925-9.407z" class="cls-28" data-name="Path 608" transform="translate(26.37 33.56)"/>
                <path id="Path_609" d="M510.426 652.465v-30.947l-2.013 6.429v24.268l2.013.25z" class="cls-29" data-name="Path 609" transform="translate(25.388 39.973)"/>
                <path id="Path_610" d="M527.513 607.653l-4.24-4.084-.948 1.844 1.077 7.422 4.11-3.371 4.174 3.371 1.075-7.421-.946-1.846-4.3 4.084z" class="cls-21" data-name="Path 610" transform="translate(38.639 22.879)"/>
                <path id="Path_611" d="M518.3 597.072a17.735 17.735 0 0 1 8.069 14.665c0 10.03-8.8 18.161-19.663 18.161s-19.661-8.132-19.661-18.161a17.725 17.725 0 0 1 8.069-14.665 4.942 4.942 0 0 1-.916-2.806c0-4.118 4.6-7.458 12.507-7.458s12.507 3.341 12.507 7.458a4.954 4.954 0 0 1-.914 2.806z" class="cls-27" data-name="Path 611" transform="translate(5.039 6.915)"/>
                <path id="Path_612" d="M488.278 634.39l-.207.342 3.628 29.123 6.179 30.44-3.239 6.494 1.054 3.153 3.065 1.13 3.257-1.814-.015-8.975-.349-30.261 2.648-23.744h3.155l2.626 23.744-2.835 30.261.775 8.767 3.645 2.073 2.714-1 .752-3.206-3.768-6.623 8.667-30.44 3.626-29.123-.2-.342z" class="cls-18" data-name="Path 612" transform="translate(6.014 52.233)"/>
                <path id="Path_613" d="M489.006 620.278l31.929-.011-12.235-3.488v-6.893h-7.455v6.893l-12.239 3.5z" class="cls-18" data-name="Path 613" transform="translate(6.904 28.896)"/>
                <path id="Path_614" d="M494.085 654.707l4.047 51.251H524.6l5.067-51.251-8.341-14.114 3.2-11.633q.489 4.346.974 8.692l.287 2.546 7.39 17.5 6.582-2.243-7.159-17.272-4.764-21.28-12.236-3.486-3.665 4.319-3.792-4.319-12.238 3.5-4.719 21.453-9.434 17.285 7.04 1.523 8.858-15.86 1.5-12.751 3.352 12.027-8.425 14.114z" class="cls-30" data-name="Path 614" transform="translate(0 32.258)"/>
                <path id="Path_615" d="M510.553 667.249l-2.234 2.985-3.749-1.187.242 2.743 3.645 2.073 2.714-1 .752-3.206-1.371-2.409zm-17.962-.039l-1.156 2.319 1.054 3.153 3.065 1.13 3.257-1.812v-2.911l-3.622.966-2.595-2.845z" class="cls-30" data-name="Path 615" transform="translate(9.218 83.492)"/>
                <path id="Path_616" d="M500.509 616.9l-3.733-3.491-3.076.889 1.373 7.013 5.44-2.873 5.421 2.873 1.283-7.041-2.986-.858-3.722 3.489z" class="cls-21" data-name="Path 616" transform="translate(11.375 32.253)"/>
                <path id="Path_617" d="M515.425 635.1l.278 7.093-5.968 7.318.3-8.328-3.635 1.717 3.974-5.59-.172-.435 5.22-1.779z" class="cls-18" data-name="Path 617" transform="translate(23.473 52.908)"/>
                <path id="Path_618" d="M495.34 612.845a5.528 5.528 0 0 0 7.357-.078v-2.706h-7.357v2.784z" class="cls-20" data-name="Path 618" transform="translate(12.937 29.062)"/>
                <path id="Path_619" d="M506.253 596.139a114.753 114.753 0 0 1-15.975 12.415 3.149 3.149 0 0 0 0 6.25c1.58 6.689 8.134 11.7 15.975 11.7s14.393-5.016 15.975-11.7a3.154 3.154 0 0 0 .064-6.25 83.2 83.2 0 0 1-16.039-12.415z" class="cls-18" data-name="Path 619" transform="translate(5.491 15.802)"/>
                <path id="Path_620" d="M501.978 602.763a1.51 1.51 0 1 1-1.509 1.509 1.511 1.511 0 0 1 1.509-1.509z" class="cls-19" data-name="Path 620" transform="translate(13.822 22.111)"/>
                <path id="Path_621" d="M501.771 603.145a.33.33 0 1 1-.332.332.33.33 0 0 1 .332-.332z" class="cls-21" data-name="Path 621" transform="translate(14.746 22.475)"/>
                <path id="Path_622" d="M495.048 602.763a1.51 1.51 0 1 1-1.509 1.509 1.509 1.509 0 0 1 1.509-1.509z" class="cls-19" data-name="Path 622" transform="translate(7.222 22.111)"/>
                <path id="Path_623" d="M494.84 603.145a.33.33 0 1 1-.33.332.333.333 0 0 1 .33-.332z" class="cls-21" data-name="Path 623" transform="translate(8.147 22.475)"/>
                <path id="Path_624" d="M495.7 607.647a3.009 3.009 0 0 0 5.52 0 3.91 3.91 0 0 1-5.52 0z" class="cls-26" data-name="Path 624" transform="translate(13.282 26.762)"/>
                <path id="Path_625" d="M501.641 606.64a1.909 1.909 0 1 0 1.907 1.908 1.908 1.908 0 0 0-1.907-1.908z" class="cls-31" data-name="Path 625" transform="translate(17.119 25.803)"/>
                <path id="Path_626" d="M494.452 606.64a1.909 1.909 0 1 0 1.911 1.908 1.906 1.906 0 0 0-1.911-1.908z" class="cls-31" data-name="Path 626" transform="translate(10.275 25.803)"/>
                <path id="Path_627" d="M496.394 600.724a5.742 5.742 0 0 1 5.914 5.231h1.908a5.5 5.5 0 1 1 .01.72H502.3a5.921 5.921 0 1 1-5.9-5.951zm0 .99a4.521 4.521 0 1 1-4.856 4.51 4.7 4.7 0 0 1 4.856-4.51zm13.644 0a4.521 4.521 0 1 1-4.856 4.51 4.7 4.7 0 0 1 4.856-4.51z" class="cls-19" data-name="Path 627" transform="translate(8.299 20.169)"/>
                <path id="Path_628" d="M497.07 634.909a7.137 7.137 0 1 1-10.038-1.062 7.139 7.139 0 0 1 10.038 1.062z" class="cls-32" data-name="Path 628" transform="translate(2.502 50.205)"/>
                <path id="Path_629" d="M497.261 635.244l.441 7.6a7.042 7.042 0 0 1-1.023 1.411l-.388-6.669-2.751 8.632a7.016 7.016 0 0 1-1.7.3l2.425-11.433-3.8 11.375a7.194 7.194 0 0 1-1.086-.236l4.521-13.534a7.146 7.146 0 0 1 1.8.968l-1.357 6.4 1.767-5.549-.033-.556a7.384 7.384 0 0 1 .927.951c.088.111.174.223.256.336zm-10.446 9.575l-.379-6.5-1.4 4.2a7.077 7.077 0 0 1-.584-1.744l1.812-5.422-.047-.8a7.819 7.819 0 0 1 .752-.7 7.012 7.012 0 0 1 1.23-.8l-.82 2.452.379 6.478.488-8.956a7.11 7.11 0 0 1 1.132-.451l-.519 9.5 1.449-9.717a6.911 6.911 0 0 1 1.13-.092l-2.081 13.956a7.074 7.074 0 0 1-2.54-1.4z" class="cls-33" data-name="Path 629" transform="translate(2.566 50.206)"/>
                <path id="Path_630" d="M491.293 634.977a7.136 7.136 0 1 1-7.136 7.136 7.137 7.137 0 0 1 7.136-7.136z" class="cls-34" data-name="Path 630" transform="translate(2.286 52.792)"/>
                <path id="Path_631" d="M491.713 634.989l6.193 4.438a7.116 7.116 0 0 1 .455 1.683l-5.434-3.889 4.985 7.564a7.1 7.1 0 0 1-.834 1.509l-7.366-9.077 6.459 10.11a7.433 7.433 0 0 1-.869.693l-7.681-12.025a7.053 7.053 0 0 1 1.88-.791l4.125 5.082-3.2-4.861-.453-.326a7.187 7.187 0 0 1 1.322-.121c.143 0 .281.006.42.012zm.879 14.144l-5.291-3.794 2.38 3.727a7.009 7.009 0 0 1-1.72-.642l-3.079-4.817-.652-.469a7.282 7.282 0 0 1 .076-2.485l1.394 2.179 5.276 3.782-6.658-6.012a7.244 7.244 0 0 1 .359-1.164l7.064 6.375-6.646-7.238a6.83 6.83 0 0 1 .64-.935l9.544 10.395a7.091 7.091 0 0 1-2.687 1.1z" class="cls-35" data-name="Path 631" transform="translate(2.286 52.792)"/>
                <path id="Path_632" d="M491.607 625.231l-.416 1.888-9.434 17.281 7.041 1.523 8.858-15.86.568-4.835z" class="cls-30" data-name="Path 632" transform="translate(0 43.509)"/>
                <path id="Path_633" d="M482.3 635.134l-.1.294-.227 4.208 6.4 8.792-.3-8.326 3.63 1.722-3.909-5.5-5.5-1.19z" class="cls-18" data-name="Path 633" transform="translate(.209 52.942)"/>
                <path id="Path_634" d="M504.035 631.343l-14.151 14.864-.322-.482 14.063-14.774a1.316 1.316 0 1 1 .41.392z" class="cls-21" data-name="Path 634" transform="translate(7.434 46.996)"/>
                <path id="Path_635" d="M499.373 629.547l-9.741 17.7-.359-.533 9.6-17.439a1.324 1.324 0 1 1 .5.271z" class="cls-21" data-name="Path 635" transform="translate(7.159 45.156)"/>
            </g>
        </g>
    </g>
</svg>
