<svg xmlns="http://www.w3.org/2000/svg" id="Group_929" width="579" height="579" data-name="Group 929" viewBox="0 0 579 579">
    <defs>
        <style>
            .cls-1{fill:#f4f4f4}.cls-2,.cls-4{fill:#e52d2d}.cls-3,.cls-4{stroke:none}
        </style>
    </defs>
    <g id="Path_804" class="cls-1" data-name="Path 804">
        <path d="M289.5 574c-19.306 0-38.599-1.945-57.342-5.78a283.03 283.03 0 0 1-53.397-16.575 284.514 284.514 0 0 1-48.324-26.23 286.573 286.573 0 0 1-42.109-34.743 286.574 286.574 0 0 1-34.743-42.109 284.517 284.517 0 0 1-26.23-48.324 283.034 283.034 0 0 1-16.575-53.397C6.945 328.099 5 308.806 5 289.5c0-19.306 1.945-38.599 5.78-57.342a283.034 283.034 0 0 1 16.575-53.397 284.512 284.512 0 0 1 26.23-48.324 286.575 286.575 0 0 1 34.743-42.109 286.575 286.575 0 0 1 42.109-34.743 284.512 284.512 0 0 1 48.324-26.23 283.034 283.034 0 0 1 53.397-16.575C250.901 6.945 270.194 5 289.5 5c19.306 0 38.599 1.945 57.342 5.78a283.034 283.034 0 0 1 53.397 16.575 284.517 284.517 0 0 1 48.324 26.23 286.574 286.574 0 0 1 42.109 34.743 286.573 286.573 0 0 1 34.743 42.109 284.514 284.514 0 0 1 26.23 48.324 283.03 283.03 0 0 1 16.575 53.397c3.835 18.743 5.78 38.036 5.78 57.342 0 19.306-1.945 38.599-5.78 57.342a283.032 283.032 0 0 1-16.575 53.397 284.519 284.519 0 0 1-26.23 48.324 286.572 286.572 0 0 1-34.743 42.109 286.572 286.572 0 0 1-42.109 34.743 284.519 284.519 0 0 1-48.324 26.23 283.032 283.032 0 0 1-53.397 16.575c-18.743 3.835-38.036 5.78-57.342 5.78z" class="cls-3"/>
        <path d="M289.5 10C135.383 10 10 135.383 10 289.5 10 443.617 135.383 569 289.5 569 443.617 569 569 443.617 569 289.5 569 135.383 443.617 10 289.5 10m0-10C449.386 0 579 129.614 579 289.5S449.386 579 289.5 579 0 449.386 0 289.5 129.614 0 289.5 0z" class="cls-4"/>
    </g>
    <g id="Group_928" data-name="Group 928" transform="translate(-26.071 -80.406)">
        <path id="Path_805" d="M194.394-183.886a24.32 24.32 0 0 1 7.355 17.863V8.406a24.32 24.32 0 0 1-7.355 17.863 24.32 24.32 0 0 1-17.863 7.355H25.219a24.32 24.32 0 0 1-17.864-7.355A24.32 24.32 0 0 1 0 8.406v-218.562a24.32 24.32 0 0 1 7.355-17.863 24.32 24.32 0 0 1 17.863-7.355H132.4a24.32 24.32 0 0 1 17.863 7.355zM182.31-171.8l-44.133-44.133a14.024 14.024 0 0 0-3.678-2.627v50.437h50.437a14.024 14.024 0 0 0-2.626-3.677zm-5.779 188.612a8.094 8.094 0 0 0 8.406-8.406v-159.718H130.3a12.16 12.16 0 0 1-8.932-3.678 12.16 12.16 0 0 1-3.678-8.932v-54.64H25.219a8.182 8.182 0 0 0-6.042 2.364 8.182 8.182 0 0 0-2.364 6.042V8.406a8.094 8.094 0 0 0 8.406 8.406zm-11.559-89.841q2.627 2.627 3.152 7.881a11.7 11.7 0 0 1-2.89 9.194q-3.415 3.94-9.982 3.94a56.565 56.565 0 0 1-16.024-2.89 89.9 89.9 0 0 1-17.863-7.618q-11.033 2.1-35.2 9.982l-7.881 2.627q-9.457 16.287-16.55 24.168t-14.449 8.933q-6.3.525-10.245-3.415T33.625-28.9q3.152-13.135 31-27.846 9.982-16.812 22.066-46.234a198.369 198.369 0 0 1-4.729-23.643q-1.576-10.508.525-17.338 1.051-4.728 6.567-6.567a14.333 14.333 0 0 1 10.77.525q5.254 2.364 6.3 9.72 1.576 5.779 0 15.762a115.562 115.562 0 0 1-3.152 16.287l-.525 1.576q7.881 20.49 23.643 29.947 31.001-4.199 38.882 3.682zM44.658-26.269q0 .525 2.627-1.576a35.107 35.107 0 0 0 5.779-6.3 99.158 99.158 0 0 0 9.982-13.66l-1.576 1.576q-14.185 12.604-16.812 19.96zM94.57-143.431v.525q-1.051 0-1.051 9.457t2.1 15.236q2.627-4.2 2.364-14.711t-3.413-10.507zM79.859-59.369l6.83-3.152q16.812-6.83 26.269-8.406A67.376 67.376 0 0 1 94.57-92.994q-7.881 21.016-14.711 33.625zm80.385-3.152q1.576-1.051-.263-2.364a19.33 19.33 0 0 0-6.567-2.364 58.783 58.783 0 0 0-15.762 0 63.967 63.967 0 0 0 14.711 4.729q4.2 1.051 6.3.525a2.141 2.141 0 0 0 1.581-.526z" class="cls-2" data-name="Path 805" transform="translate(215 425)"/>
        <path id="Path_806" d="M12.531-16.906V0H4.625v-45.5h17.406q7.625 0 12.109 3.969a13.338 13.338 0 0 1 4.484 10.5q0 6.688-4.391 10.406t-12.3 3.719zm0-6.344h9.5q4.219 0 6.438-1.984a7.293 7.293 0 0 0 2.219-5.734 7.869 7.869 0 0 0-2.25-5.891 8.672 8.672 0 0 0-6.187-2.266h-9.72zm33 23.25v-45.5h13.438a21.077 21.077 0 0 1 10.7 2.688 18.325 18.325 0 0 1 7.234 7.625 24.2 24.2 0 0 1 2.563 11.313v2.281a24.1 24.1 0 0 1-2.578 11.375 18.1 18.1 0 0 1-7.344 7.563A22.053 22.053 0 0 1 58.625 0zm7.906-39.125v32.813h5.156q6.219 0 9.547-3.891t3.391-11.172v-2.531q0-7.406-3.219-11.312t-9.344-3.906zm60.125 19.844H95.25V0h-7.906v-45.5h28.906v6.375h-21v13.531h18.313z" class="cls-2" data-name="Path 806" transform="translate(256.776 531.998)"/>
    </g>
</svg>
