<svg xmlns="http://www.w3.org/2000/svg" width="560" height="117" viewBox="0 0 560 117">
    <defs>
        <style>
            .cls-1{fill:#5bc0de}.cls-2{fill:#e4f2f9}.cls-3{fill:#d7edf9}.cls-4{fill:#ffe470}.cls-5{fill:#ffd400}.cls-6{fill:#fdbf00}.cls-7{fill:#ff7816}.cls-8{fill:#ff4b00}.cls-9{fill:#ff9f00}.cls-10{fill:#ececf1}.cls-11{fill:#e2e2e7}.cls-12{fill:#6ca92a}.cls-13{fill:#5a5a5a}.cls-14{fill:#43691b}.cls-15{fill:#444}.cls-16{fill:#fff}
        </style>
    </defs>
    <g id="Group_819" data-name="Group 819" transform="translate(-29 -39)">
        <g id="Group_749" data-name="Group 749" transform="translate(14 4)">
            <path id="Rectangle_1598" d="M4 0h552a4 4 0 0 1 4 4v113H0V4a4 4 0 0 1 4-4z" class="cls-1" data-name="Rectangle 1598" transform="translate(15 35)"/>
            <g id="clouds" transform="translate(212 -25.36)">
                <g id="Group_829" data-name="Group 829">
                    <path id="Path_734" d="M246.765 299.868a13.706 13.706 0 0 0-3.443.437 10.918 10.918 0 0 0-12.44-4.148 18.2 18.2 0 0 0-35.95 4.027c0 .207.009.413.015.617a13.534 13.534 0 1 0-4.052 26.447h55.87a13.69 13.69 0 1 0 0-27.381z" class="cls-2" data-name="Path 734" transform="translate(-362.396 -207.889)"/>
                    <path id="Path_735" d="M205.326 298.3a33.727 33.727 0 0 1 2.9-13.721 18.2 18.2 0 0 0-13.294 17.527c0 .207.009.413.015.617a13.534 13.534 0 1 0-4.052 26.447h34.385a33.85 33.85 0 0 1-19.954-30.87z" class="cls-3" data-name="Path 735" transform="translate(-362.395 -209.816)"/>
                </g>
            </g>
            <g id="clouds-2" data-name="clouds" transform="translate(579.374 -20.36)">
                <g id="Group_829-2" data-name="Group 829" transform="translate(-185.033 74.094)">
                    <path id="Path_734-2" d="M284.873 309.688a21.232 21.232 0 0 0-5.333.678 16.913 16.913 0 0 0-19.271-6.426 28.194 28.194 0 0 0-55.69 6.239c0 .321.014.639.024.956a20.965 20.965 0 1 0-6.276 40.969h86.548a21.208 21.208 0 1 0 0-42.416z" class="cls-2" data-name="Path 734" transform="translate(-177.363 -281.983)"/>
                    <path id="Path_735-2" d="M220.68 305.839a52.247 52.247 0 0 1 4.491-21.255 28.2 28.2 0 0 0-20.594 27.151c0 .321.014.639.024.956a20.965 20.965 0 1 0-6.276 40.969h53.267a52.436 52.436 0 0 1-30.912-47.821z" class="cls-3" data-name="Path 735" transform="translate(-177.362 -283.54)"/>
                </g>
            </g>
            <g id="clouds-3" data-name="clouds" transform="translate(291 32.936)">
                <g id="Group_829-3" data-name="Group 829" transform="translate(-185.033 74.094)">
                    <path id="Path_734-3" d="M214.114 291.454a7.258 7.258 0 0 0-1.823.232 5.781 5.781 0 0 0-6.588-2.2 9.638 9.638 0 0 0-19.036 2.133c0 .11 0 .218.008.327a7.166 7.166 0 1 0-2.145 14h29.585a7.249 7.249 0 1 0 0-14.5z" class="cls-2" data-name="Path 734" transform="translate(-177.364 -281.983)"/>
                    <path id="Path_735-3" d="M192.169 291.85a17.86 17.86 0 0 1 1.535-7.266 9.64 9.64 0 0 0-7.04 9.281c0 .11 0 .219.008.327a7.166 7.166 0 1 0-2.145 14h18.208a17.924 17.924 0 0 1-10.566-16.342z" class="cls-3" data-name="Path 735" transform="translate(-177.362 -284.227)"/>
                </g>
            </g>
            <g id="clouds-4" data-name="clouds" transform="translate(516 -9.064)">
                <g id="Group_829-4" data-name="Group 829" transform="translate(-185.033 74.094)">
                    <path id="Path_734-4" d="M214.114 291.454a7.258 7.258 0 0 0-1.823.232 5.781 5.781 0 0 0-6.588-2.2 9.638 9.638 0 0 0-19.036 2.133c0 .11 0 .218.008.327a7.166 7.166 0 1 0-2.145 14h29.585a7.249 7.249 0 1 0 0-14.5z" class="cls-2" data-name="Path 734" transform="translate(-177.364 -281.983)"/>
                    <path id="Path_735-4" d="M192.169 291.85a17.86 17.86 0 0 1 1.535-7.266 9.64 9.64 0 0 0-7.04 9.281c0 .11 0 .219.008.327a7.166 7.166 0 1 0-2.145 14h18.208a17.924 17.924 0 0 1-10.566-16.342z" class="cls-3" data-name="Path 735" transform="translate(-177.362 -284.227)"/>
                </g>
            </g>
            <g id="launch" transform="translate(62.567 53.984)">
                <path id="Path_622" d="M31.179 319.288a15.755 15.755 0 0 1-4.13 7.172c-4.72 4.675-22.184 10.247-24.136 10.837a2.267 2.267 0 0 1-2.224-.59 2.321 2.321 0 0 1-.59-2.27c.59-1.906 6.207-19.325 10.882-24.045a15.758 15.758 0 0 1 7.171-4.131l6.49 6.491z" class="cls-4" data-name="Path 622" transform="translate(-.012 -259.934)"/>
                <g id="Group_748" data-name="Group 748" transform="translate(.677 51.411)">
                    <path id="Path_623" d="M28.44 349.172l6.536 6.536a15.755 15.755 0 0 1-4.13 7.171c-4.72 4.675-22.184 10.247-24.136 10.837a2.267 2.267 0 0 1-2.224-.59z" class="cls-5" data-name="Path 623" transform="translate(-4.486 -347.764)"/>
                    <path id="Path_624" d="M110.324 343.725l-6.4 6.445a2.437 2.437 0 0 1-1.588.635 2.463 2.463 0 0 1-1.634-.635v-.045a2.274 2.274 0 0 1 0-3.177l6.445-6.4a2.141 2.141 0 0 1 3.132 0h.045a2.195 2.195 0 0 1 0 3.177z" class="cls-5" data-name="Path 624" transform="translate(-85.598 -339.867)"/>
                </g>
                <path id="Path_625" d="M113.952 344.369a2.194 2.194 0 0 1 0 3.177l-6.4 6.445a2.437 2.437 0 0 1-1.588.635 2.463 2.463 0 0 1-1.634-.635v-.045l9.577-9.577z" class="cls-6" data-name="Path 625" transform="translate(-88.55 -292.277)"/>
                <path id="Path_626" d="M51.823 147.547c-16.118 0-21.2 13.627-21.613 14.082a2.271 2.271 0 0 0 2.025 3.293l14.662 1.3 7.719-18.672h-2.793z" class="cls-7" data-name="Path 626" transform="translate(-25.435 -125.228)"/>
                <path id="Path_627" d="M241.013 325.653l1.1 14.492a2.272 2.272 0 0 0 3.293 2.026c.454-.407 14.082-5.591 14.082-21.613v-2.795z" class="cls-8" data-name="Path 627" transform="translate(-204.557 -269.695)"/>
                <path id="Path_628" d="M123.149 276.143c-2.405 1.226-4.811 2.406-7.081 3.54a2.286 2.286 0 0 1-2.633-.409l-12.8-12.8a2.285 2.285 0 0 1-.408-2.632c1.135-2.27 2.315-4.675 3.54-7.081.726-1.407 5.991 1.725 6.718.272l12.391 12.391c-1.452.728 1.68 5.993.273 6.719z" class="cls-9" data-name="Path 628" transform="translate(-84.856 -217.606)"/>
                <path id="Path_629" d="M162.75 314.653c-2.405 1.226-4.811 2.406-7.081 3.54a2.286 2.286 0 0 1-2.633-.409l-6.4-6.4 9.668-9.622 6.173 6.173c-1.452.727 1.68 5.992.273 6.718z" class="cls-7" data-name="Path 629" transform="translate(-124.457 -256.116)"/>
                <path id="Path_630" d="M181.677 33.165a40.508 40.508 0 0 1-11.438 19.653c-6.672 6.445-17.338 12.073-25.826 16.34l-9.668-9.668-9.713-9.713c4.267-8.488 9.895-19.2 16.34-25.826a40.51 40.51 0 0 1 19.653-11.438l4.584 1.679A14.571 14.571 0 0 0 180 28.58z" class="cls-10" data-name="Path 630" transform="translate(-106.12 -10.62)"/>
                <path id="Path_631" d="M236.175 99.377a40.508 40.508 0 0 1-11.438 19.653c-6.672 6.445-17.338 12.073-25.826 16.34l-9.668-9.668 35.13-35.176a14.74 14.74 0 0 0 10.127 4.267z" class="cls-11" data-name="Path 631" transform="translate(-160.618 -76.832)"/>
                <path id="Path_632" d="M271.654 113.407a11.329 11.329 0 0 0-16.022 16.022v.045a11.345 11.345 0 1 0 16.022-16.068z" class="cls-12" data-name="Path 632" transform="translate(-214.162 -93.45)"/>
                <path id="Path_633" d="M383.627 22.544c-.363 0-1.407-.045-1.77-.045a19.065 19.065 0 0 1-18.836-18.836c0-.363-.045-1.407-.045-1.77A70.922 70.922 0 0 1 383.264.077a2.17 2.17 0 0 1 2.179 2.179 72.605 72.605 0 0 1-1.816 20.288z" class="cls-9" data-name="Path 633" transform="translate(-308.071)"/>
                <path id="Path_634" d="M230.908 258.813a2.247 2.247 0 1 1 0-3.177 2.194 2.194 0 0 1 0 3.177z" class="cls-13" data-name="Path 634" transform="translate(-192.707 -216.388)"/>
                <path id="Path_635" d="M415.2 26.545c-.363 0-1.407-.045-1.77-.045a19.04 19.04 0 0 1-13.253-5.583l16.2-16.2a2.163 2.163 0 0 1 .635 1.543 72.593 72.593 0 0 1-1.812 20.285z" class="cls-7" data-name="Path 635" transform="translate(-339.648 -4)"/>
                <path id="Path_636" d="M290.181 148a11.369 11.369 0 0 1-16.022 0v-.045l16.022-16.022a11.341 11.341 0 0 1 0 16.067z" class="cls-14" data-name="Path 636" transform="translate(-232.689 -111.976)"/>
                <path id="Path_637" d="M234.728 262.632a2.194 2.194 0 0 1-3.177 0l3.177-3.177a2.194 2.194 0 0 1 0 3.177z" class="cls-15" data-name="Path 637" transform="translate(-196.526 -220.208)"/>
                <path id="Path_727" d="M5.143-14.379a.675.675 0 0 0 .532.236.675.675 0 0 0 .532-.236l8.72-8.69a.72.72 0 0 0 .207-.532.72.72 0 0 0-.207-.532L13.833-25.2a.659.659 0 0 0-.517-.236.751.751 0 0 0-.547.236l-7.094 7.1-3.31-3.314a.751.751 0 0 0-.547-.236.659.659 0 0 0-.517.236L.207-20.35a.72.72 0 0 0-.207.532.72.72 0 0 0 .207.532z" class="cls-16" data-name="Path 727" transform="translate(41.84 48.386)"/>
            </g>
        </g>
    </g>
</svg>
