<svg width="153" height="160" viewBox="0 0 153 160" fill="none" xmlns="http://www.w3.org/2000/svg">
<path opacity="0.1" d="M75.1068 159.525C116.587 159.525 150.214 158.326 150.214 156.847C150.214 155.369 116.587 154.17 75.1068 154.17C33.6264 154.17 0 155.369 0 156.847C0 158.326 33.6264 159.525 75.1068 159.525Z" fill="#6C63FF"/>
<path opacity="0.1" d="M55.3612 4.86134C60.1461 0.596002 67.6568 -0.273298 74.4934 0.066473C95.9669 1.13368 115.351 11.5041 132.118 23.2342C138.188 27.4807 144.164 32.0571 148.104 37.9049C156.125 49.8091 153.745 66.3002 142.593 76.1071C138.798 79.4437 134.198 82.0015 129.476 84.269C121.079 88.3006 112.019 91.5371 102.489 92.4582C95.6931 93.1151 88.8135 92.5811 82.0572 91.6645C63.1808 89.1036 44.6523 83.441 29.1227 73.7528C22.3115 69.5036 15.8915 64.2208 13.0841 57.3467C10.2766 50.4725 12.0733 41.7616 19.0283 37.6928C21.9048 36.0099 25.344 35.2499 28.7111 34.5362C33.6674 33.4858 38.7031 32.4502 43.1757 30.3146C47.7954 28.1089 53.2655 23.8433 52.3508 18.961C51.3694 13.7224 50.5819 9.12168 55.3612 4.86134Z" fill="#6C63FF"/>
<path d="M104.764 60.498C104.437 59.8648 102.709 55.9293 102.709 55.9293L99.8116 48.4203C99.8116 48.4203 97.7557 45.2539 97.7557 44.6659C97.7557 44.0778 94.0177 41.7256 94.0177 41.7256C94.0177 41.7256 90.9806 40.8209 90.7469 40.7304C90.5133 40.64 86.9155 39.4494 86.9155 39.4494C86.9155 39.4494 85.4988 37.5857 85.2969 38.0725L85.2968 38.0737C85.2894 38.0614 85.2818 38.0507 85.2745 38.0381C84.9851 37.497 84.8017 36.9056 84.7344 36.2956C84.7267 36.2414 84.7201 36.1842 84.7132 36.1277C85.6464 35.495 86.4112 34.6443 86.9415 33.6492C87.4718 32.654 87.7516 31.5446 87.7565 30.4169C87.7559 30.12 87.7359 29.8235 87.6967 29.5292C87.7225 29.5132 87.7493 29.499 87.7771 29.4869C87.8352 29.4616 87.8205 29.4411 87.7778 29.4196C87.7924 29.412 87.807 29.4038 87.8218 29.3976C87.8991 29.3639 87.8475 29.3385 87.7726 29.3082L87.7771 29.306C87.8825 29.2602 87.7492 29.2298 87.6421 29.1814C87.6364 29.1501 87.631 29.1186 87.6248 29.0875C87.6485 29.0279 87.663 28.965 87.6677 28.9011C87.6772 28.9058 87.6859 28.9109 87.6959 28.9153C87.722 28.7987 87.7213 28.6778 87.694 28.5615C87.6873 28.5851 87.6792 28.6083 87.6697 28.631C87.6764 28.5255 87.6547 28.4202 87.6068 28.3261C87.559 28.2319 87.4868 28.1522 87.3977 28.0955C87.3923 28.0908 87.3864 28.0858 87.3809 28.081L87.5792 26.0517C90.501 25.9136 91.0136 20.9409 90.3472 20.6646C89.6809 20.3884 90.3472 19.7898 90.3472 18.5927C90.3472 17.3955 88.143 16.0603 88.143 16.0603C88.143 16.0603 87.2203 16.5207 85.785 14.2185C84.3497 11.9164 79.0698 11.548 78.711 12.1466C78.3521 12.7451 75.9941 13.5279 72.9185 14.4027C69.8428 15.2775 70.4067 18.915 70.9193 19.6977C71.3416 20.3448 71.5888 21.0905 71.6369 21.8618C71.6369 22.3222 72.6109 24.256 72.6109 24.256C72.3037 24.9261 73.0855 28.597 73.317 29.6404C73.3134 29.6725 73.3095 29.7044 73.3063 29.7366C73.3043 29.7398 73.3017 29.7425 73.2998 29.7456C73.2888 29.7625 73.2788 29.78 73.2699 29.7981C73.2202 29.9062 73.2038 30.0267 73.2227 30.1442C73.2058 30.2726 73.2237 30.4032 73.2746 30.5224C73.2921 31.5053 73.5195 32.4731 73.9414 33.361C74.3632 34.249 74.9699 35.0364 75.7207 35.6708C75.7244 35.7335 75.728 35.7967 75.7314 35.8614C75.7744 36.7136 75.7987 37.7214 75.7538 38.6858C75.7515 38.7352 75.7478 38.7835 75.7451 38.8326C75.5756 38.8669 75.4165 38.9406 75.2807 39.0477C75.1449 39.1549 75.0361 39.2925 74.9632 39.4494C74.6736 40.0067 72.9914 40.8662 72.9914 40.8662C72.9914 40.8662 70.0478 41.0019 69.7674 41.5447C69.4871 42.0875 65.2351 43.8969 65.2351 43.8969C65.2351 43.8969 62.9923 45.2087 63.3194 46.7014C63.4903 47.4814 63.0105 48.6932 62.5134 49.6731C61.4737 49.2786 60.391 49.0086 59.2878 48.8685L61.6699 51.1481C61.62 51.226 61.5905 51.2701 61.5905 51.2701L60.2355 56.065C60.2355 56.065 59.7683 57.7387 59.301 58.1458C58.8338 58.5529 59.7216 62.2622 59.7216 62.2622C59.7216 62.2622 59.2076 64.8858 58.787 65.5643C58.3665 66.2428 59.4412 67.9165 59.4412 67.9165L61.5905 72.8019L67.291 74.2494C67.291 74.2494 67.6709 74.3298 68.2847 74.4613C68.2654 74.578 68.2457 74.6944 68.2255 74.8103C67.9508 76.3664 67.59 77.7976 67.1508 78.1848C66.0761 79.1347 66.1229 83.3868 66.1229 83.3868L66.1696 89.403C66.1696 89.403 66.5434 96.8215 66.3565 97.0929C66.2385 97.2642 66.4753 97.5436 67.0999 97.7946C67.082 97.9063 67.0645 98.0196 67.048 98.1351C66.8723 99.3655 66.7939 100.77 67.1975 101.39C67.3729 101.726 67.4688 102.097 67.4779 102.476C67.4779 103.064 68.3657 104.285 68.3657 104.285C68.3657 104.285 67.6648 109.306 68.8329 111.025C70.001 112.744 70.9823 115.865 70.4216 116.589C70.4216 116.589 69.4403 118.715 69.9076 119.665C70.3748 120.615 69.9076 121.158 69.3002 121.384C68.6927 121.61 68.7451 123.465 68.7451 123.465L69.8609 132.286C69.8609 132.286 70.4683 134.095 69.9543 134.728C69.4404 135.361 69.4403 138.528 70.2347 139.614C71.029 140.699 69.1133 142.689 69.1133 142.689C69.1133 142.689 67.9451 144.363 69.8141 144.906C69.8141 144.906 70.188 144.996 69.4871 145.72C68.7862 146.444 68.646 147.349 69.1133 147.665C69.2102 147.723 69.3115 147.774 69.4163 147.816C69.399 147.923 69.3802 148.034 69.3581 148.152C69.1787 149.097 68.8404 150.327 68.2255 150.922C67.0337 152.144 66.0053 153.515 65.1659 155.001C64.5249 156.217 64.2445 157.355 64.9547 157.888C66.6368 159.155 68.7862 159.562 70.0478 159.064C71.3093 158.567 73.0849 157.029 73.0849 157.029L73.5054 155.265C73.5054 155.265 73.2251 154.179 74.6268 153.772C76.0285 153.365 77.3369 151.917 77.3369 151.917V149.572C77.6763 149.378 78.0039 149.165 78.3181 148.932C78.3181 148.932 78.9722 146.625 78.3181 145.856C77.6639 145.087 77.4303 144.816 78.2714 144.318C79.1124 143.82 79.2264 142.735 78.6097 141.785C77.991 140.835 77.0098 139.433 77.8508 137.442C78.6919 135.452 79.0003 129.345 79.0003 129.345C79.0003 129.345 78.6078 125.184 79.0003 124.234C79.3928 123.284 78.5517 121.384 78.5517 121.384C78.5517 121.384 78.8321 119.032 79.346 117.946C79.86 116.861 80.2805 111.116 80.2805 111.116C80.2805 111.116 81.215 108.673 81.215 107.09C81.215 105.507 79.7666 101.707 81.9159 100.712C81.9159 100.712 82.8504 101.526 82.4766 104.783C82.4766 104.783 83.5513 108.583 83.5513 109.759C83.5513 110.935 84.3456 115.187 84.3456 115.187C84.3456 115.187 84.4391 116.544 84.7661 117.041C85.0932 117.539 84.7661 118.896 84.7661 118.896C84.7661 118.896 85.981 120.027 85.6539 120.751C85.3268 121.474 85.71 123.107 85.71 123.107L85.4203 133.235C85.4203 133.235 84.5792 137.578 86.5417 140.202C86.5417 140.202 85.8408 144.047 85.4203 144.318C84.9998 144.589 86.9622 146.942 86.9622 146.942C86.9622 146.942 86.4183 148.465 87.5229 148.54V151.058C87.9064 151.736 88.4325 152.322 89.0648 152.777C90.0928 153.501 89.6722 155.989 89.6722 155.989C89.6722 155.989 90.9806 159.155 94.4382 158.476C97.8959 157.798 98.3631 157.481 98.1762 156.35C98.1089 155.938 97.9594 155.201 97.7445 154.366C97.3725 152.913 96.8025 151.159 96.1203 150.294C95.0456 148.932 94.1579 146.082 94.1579 146.082C94.1579 146.082 93.7373 145.132 94.1579 144.816C94.5784 144.499 94.3915 143.911 94.3915 143.911C94.3915 143.911 94.8008 142.735 94.4326 142.011C94.0644 141.287 95.1391 139.795 95.1391 139.795L94.812 132.828L95.1391 122.696C95.1391 122.696 93.6906 121.022 94.298 120.027C94.9055 119.032 93.5972 117.63 93.5972 117.63C93.5972 117.63 93.457 117.584 93.8308 116.453C94.0545 115.787 94.0211 115.061 93.7373 114.418C93.7373 114.418 92.943 111.613 94.3448 109.487C94.3448 109.487 94.9522 106.683 95.1391 105.235C95.268 104.229 96.0755 100.471 96.5558 98.2727C96.583 98.1484 96.609 98.0295 96.6339 97.9158C97.3258 97.9536 97.8491 97.9977 97.8491 97.9977C97.8491 97.9977 96.7745 90.5339 97.8491 88.996C98.9238 87.458 97.0081 75.6969 97.0081 75.6969C97.0081 75.6969 96.5502 73.6415 96.268 71.5444C96.2518 71.4249 96.2372 71.3055 96.2223 71.1862C97.0898 71.1167 97.9606 71.0974 98.8304 71.1282C101.073 71.2639 103.269 70.4045 103.316 69.545C103.363 68.6855 104.578 65.293 104.764 64.524C104.951 63.755 105.092 61.1313 104.764 60.498Z" fill="url(#paint0_linear)"/>
<path d="M77.5007 147.761V151.949C77.5007 151.949 76.2401 153.391 74.8894 153.796C73.5387 154.201 73.8089 155.282 73.8089 155.282L73.4037 157.039C73.4037 157.039 71.6928 158.57 70.4772 159.065C69.2616 159.561 67.1905 159.155 65.5697 157.894C64.8854 157.363 65.1555 156.23 65.7732 155.019C66.578 153.545 67.5688 152.18 68.7213 150.959C69.3138 150.366 69.6398 149.141 69.8127 148.201C69.9405 147.496 69.9819 146.95 69.9819 146.95L77.5007 147.761Z" fill="#4C495A"/>
<path opacity="0.1" d="M77.5007 150.886V151.949C77.5007 151.949 76.2401 153.391 74.8894 153.796C73.5387 154.201 73.8089 155.282 73.8089 155.282L73.4037 157.039C73.4037 157.039 71.6928 158.57 70.4772 159.065C69.2616 159.561 67.1905 159.155 65.5697 157.894C64.8854 157.363 65.1555 156.23 65.7732 155.019C65.7444 156.291 66.1208 157.72 67.9559 157.669C69.9366 157.606 71.8453 156.912 73.4037 155.687C73.4037 155.687 73.3586 152.715 75.4297 152.039C76.1867 151.789 76.8894 151.398 77.5007 150.886V150.886Z" fill="black"/>
<path d="M93.9788 158.48C90.6471 159.155 89.3865 156.003 89.3865 156.003C89.3865 156.003 89.7917 153.526 88.8012 152.805C88.1887 152.348 87.6819 151.764 87.3154 151.094V146.95L91.3675 144.068L93.561 146.01L93.7087 146.14C93.7087 146.14 94.5641 148.977 95.5996 150.333C96.2569 151.195 96.8062 152.94 97.1646 154.387C97.3717 155.219 97.5158 155.952 97.5806 156.363C97.7607 157.489 97.3105 157.804 93.9788 158.48Z" fill="#4C495A"/>
<path opacity="0.1" d="M93.9788 158.48C90.6471 159.156 89.3865 156.003 89.3865 156.003C89.3865 156.003 89.7917 153.526 88.8012 152.805C88.1887 152.348 87.6819 151.765 87.3154 151.094V149.489C87.9584 150.168 89.1704 151.483 89.4315 152.04C89.7917 152.805 89.8367 155.598 91.5025 156.093C93.1684 156.588 96.41 157.039 96.6802 155.778C96.7925 155.299 96.9549 154.832 97.1646 154.387C97.3717 155.219 97.5158 155.953 97.5806 156.363C97.7607 157.489 97.3105 157.805 93.9788 158.48Z" fill="black"/>
<path opacity="0.1" d="M69.9818 146.95L77.5006 147.761V149.975C76.6523 150.478 75.4367 151.011 74.7542 150.463C73.7457 149.656 70.7472 148.631 69.8125 148.201C69.9404 147.496 69.9818 146.95 69.9818 146.95Z" fill="black"/>
<path opacity="0.1" d="M93.7087 146.5C92.6731 146.14 90.8272 147.716 88.396 148.707C88.058 148.866 87.689 148.948 87.3154 148.948V146.95L91.3675 144.068L93.561 146.01C93.5948 146.177 93.6443 146.342 93.7087 146.5Z" fill="black"/>
<path d="M96.3644 96.9136C96.3644 96.9136 96.2221 97.5766 96.0186 98.5385C95.5558 100.727 94.7778 104.469 94.6535 105.471C94.4734 106.912 93.8881 109.704 93.8881 109.704C92.5374 111.821 93.3028 114.613 93.3028 114.613C93.5766 115.256 93.6086 115.976 93.3929 116.64C93.0327 117.766 93.1678 117.811 93.1678 117.811C93.1678 117.811 94.4284 119.207 93.8431 120.198C93.2578 121.189 94.6535 122.855 94.6535 122.855L94.3384 132.944L94.6535 139.879C94.6535 139.879 93.618 141.366 93.9728 142.086C94.3275 142.807 93.9332 143.978 93.9332 143.978C93.9332 143.978 94.1132 144.563 93.708 144.879C93.3028 145.194 93.708 146.14 93.708 146.14C92.6725 145.779 90.8266 147.356 88.3954 148.346C85.9641 149.337 86.7745 146.995 86.7745 146.995C86.7745 146.995 84.8836 144.653 85.2888 144.383C85.694 144.113 86.3693 140.285 86.3693 140.285C84.4784 137.673 85.2888 133.349 85.2888 133.349L85.5679 123.264C85.5679 123.264 85.1987 121.639 85.5139 120.919C85.8291 120.198 84.6585 119.072 84.6585 119.072C84.6585 119.072 84.9736 117.721 84.6585 117.226C84.3433 116.73 84.2533 115.379 84.2533 115.379C84.2533 115.379 83.4879 111.145 83.4879 109.974C83.4879 108.804 82.4524 105.02 82.4524 105.02C82.8125 101.778 81.9121 100.967 81.9121 100.967C79.841 101.958 81.2368 105.741 81.2368 107.317C81.2368 108.894 80.3363 111.326 80.3363 111.326C80.3363 111.326 79.9311 117.045 79.4358 118.126C78.9406 119.207 78.6705 121.549 78.6705 121.549C78.6705 121.549 79.4809 123.441 79.1027 124.386C78.7245 125.332 79.1027 129.476 79.1027 129.476C79.1027 129.476 78.8055 135.556 77.9951 137.537C77.1847 139.519 78.1302 140.915 78.7263 141.861C79.3206 142.807 79.2107 143.888 78.4003 144.383C77.5899 144.879 77.815 145.149 78.4453 145.914C79.0757 146.68 78.4453 148.977 78.4453 148.977C78.4453 148.977 75.879 151.004 74.7535 150.103C73.6279 149.202 70.0261 148.031 69.5759 147.716C69.1256 147.401 69.2607 146.5 69.9361 145.779C70.6114 145.059 70.2512 144.969 70.2512 144.969C68.4503 144.428 69.5759 142.762 69.5759 142.762C69.5759 142.762 71.4218 140.78 70.6564 139.699C69.891 138.618 69.891 135.466 70.3863 134.835C70.8815 134.205 70.2962 132.403 70.2962 132.403L69.2211 123.621C69.2211 123.621 69.1707 121.774 69.756 121.549C70.3413 121.324 70.7915 120.783 70.3413 119.838C69.891 118.892 70.8365 116.775 70.8365 116.775C71.3768 116.055 70.4313 112.947 69.3057 111.236C68.1802 109.524 68.8555 104.525 68.8555 104.525C68.8555 104.525 68.0001 103.309 68.0001 102.723C67.9917 102.347 67.8994 101.978 67.7299 101.643C67.341 101.025 67.4166 99.6267 67.5859 98.4016C67.7497 97.2163 68.0001 96.193 68.0001 96.193L96.3644 96.9136Z" fill="#5F5D7E"/>
<path d="M87.5404 45.8861L78.6709 47.9578C78.6709 47.9578 74.3037 44.2647 75.3843 42.2831C75.7553 41.6021 75.9192 40.4401 75.975 39.2115C76.0182 38.2513 75.9948 37.2479 75.9534 36.3994C75.8904 35.1725 75.7895 34.2664 75.7895 34.2664C75.7895 34.2664 84.8841 29.1321 84.5689 34.2664C84.5048 35.1214 84.5248 35.9806 84.6284 36.8317C84.6927 37.4373 84.8691 38.0256 85.1488 38.5666C85.635 39.4331 86.2347 39.4457 86.2347 39.4457L87.5404 45.8861Z" fill="#FDC2CC"/>
<path opacity="0.1" d="M84.6279 36.8317C83.3461 37.7515 81.7905 38.2095 80.215 38.131C78.6394 38.0525 77.137 37.442 75.9529 36.3994C75.8899 35.1725 75.7891 34.2664 75.7891 34.2664C75.7891 34.2664 84.8837 29.1321 84.5685 34.2664C84.5044 35.1214 84.5243 35.9806 84.6279 36.8317V36.8317Z" fill="black"/>
<path d="M80.562 37.9596C84.4161 37.9596 87.5405 34.8341 87.5405 30.9787C87.5405 27.1233 84.4161 23.9979 80.562 23.9979C76.7079 23.9979 73.5835 27.1233 73.5835 30.9787C73.5835 34.8341 76.7079 37.9596 80.562 37.9596Z" fill="#FDC2CC"/>
<path opacity="0.1" d="M87.5404 45.8861L78.6709 47.9579C78.6709 47.9579 74.3037 44.2648 75.3843 42.2831C75.7553 41.6022 75.9192 40.4402 75.975 39.2116C76.1708 40.28 76.7442 41.2423 77.5904 41.9228C79.6164 43.274 79.3013 44.9404 79.3013 44.9404L82.9481 44.8052C82.723 43.319 84.0737 42.5083 84.5239 42.3282C84.9741 42.148 84.749 41.3374 84.749 41.3374L85.1488 38.5667C85.635 39.4332 86.2347 39.4458 86.2347 39.4458L87.5404 45.8861Z" fill="black"/>
<path opacity="0.1" d="M96.3639 96.9136C96.3639 96.9136 96.2217 97.5765 96.0182 98.5385C95.0385 98.4863 93.7436 98.4485 93.1673 98.58C92.1768 98.8052 88.2148 98.8952 88.2148 98.8952L78.3999 99.2429V98.9403C77.2709 98.9494 76.1434 99.0246 75.0232 99.1655C73.3574 99.3906 70.7461 99.0754 69.0802 98.8052C68.5675 98.7317 68.0655 98.5962 67.5854 98.4016C67.7493 97.2162 67.9997 96.193 67.9997 96.193L96.3639 96.9136Z" fill="black"/>
<path d="M95.5994 68.3147C95.4571 69.156 95.5616 70.5503 95.7417 71.9267C96.0136 74.0146 96.4548 76.0611 96.4548 76.0611C96.4548 76.0611 98.3007 87.7709 97.2652 89.3022C96.2297 90.8334 97.2652 98.2646 97.2652 98.2646C97.2652 98.2646 94.1587 97.9944 93.1682 98.2196C92.1777 98.4448 88.2157 98.5348 88.2157 98.5348L78.4007 98.8825V98.5799C77.2717 98.589 76.1442 98.6642 75.024 98.8051C73.3582 99.0302 70.7469 98.715 69.081 98.4448C67.4152 98.1745 66.7399 97.6341 66.92 97.3639C67.1 97.0936 66.7399 89.7075 66.7399 89.7075L66.6948 83.7175C66.6948 83.7175 66.6498 79.484 67.6853 78.5382C68.1085 78.1527 68.4561 76.7277 68.7209 75.1784C69.1008 72.9355 69.3062 70.4314 69.3062 70.4314L62.4627 52.1012L62.3276 51.7409C62.3276 51.7409 64.3086 48.6783 63.9935 47.1921C63.6783 45.7059 65.8394 44.3998 65.8394 44.3998C65.8394 44.3998 69.9365 42.5983 70.2066 42.0578C70.4767 41.5174 73.3132 41.3823 73.3132 41.3823C73.3132 41.3823 74.934 40.5265 75.2131 39.9717C75.2811 39.8167 75.385 39.6801 75.5162 39.5733C75.6474 39.4665 75.8022 39.3924 75.9677 39.3574C76.1585 40.4389 76.735 41.4144 77.5903 42.1029C79.6163 43.454 79.3012 45.1204 79.3012 45.1204L82.948 44.9853C82.7229 43.499 84.0736 42.6883 84.5238 42.5082C84.974 42.328 84.7489 41.5174 84.7489 41.5174L85.1703 38.6007C85.3648 38.1161 86.7299 39.9717 86.7299 39.9717C86.7299 39.9717 90.1967 41.1571 90.4218 41.2471C90.6469 41.3372 93.5734 42.238 93.5734 42.238C93.5734 42.238 97.1752 44.5799 97.1752 45.1654C97.1752 45.7509 99.1562 48.9035 99.1562 48.9035C99.1562 48.9035 99.1328 49.0296 99.0895 49.2602C98.6321 51.7427 95.929 66.3781 95.5994 68.3147Z" fill="#6C63FF"/>
<path d="M81.1917 61.0187C81.1917 61.0187 73.4027 58.947 72.6373 58.4516C71.872 57.9562 67.3697 60.8386 72.8625 64.7568C72.8625 64.7568 79.579 66.153 81.3758 64.7568C83.1727 63.3607 81.1917 61.0187 81.1917 61.0187Z" fill="#FDC2CC"/>
<path opacity="0.1" d="M98.0302 48.6785L98.9757 48.7235L101.767 56.1997C101.767 56.1997 103.433 60.118 103.748 60.7485C104.063 61.379 103.928 63.9912 103.748 64.7569C103.568 65.5225 102.397 68.9003 102.352 69.756C102.307 70.6117 100.191 71.4675 98.0302 71.3323C95.8691 71.1972 90.8266 71.8728 90.8266 71.8728C90.8266 71.8728 85.4413 71.3097 82.1372 72.9987C82.1372 72.9987 80.0211 68.6301 80.2463 60.4783C80.2463 60.4783 83.9831 60.2531 84.9286 60.6134C85.8741 60.9737 90.4664 62.0096 91.0517 61.4691C91.637 60.9287 94.2933 62.4599 94.2933 62.4599C94.4285 62.163 94.4984 61.8405 94.4984 61.5142C94.4984 61.1879 94.4285 60.8653 94.2933 60.5684C93.8431 59.4875 93.0777 56.1097 94.0682 55.0288C95.0587 53.9479 98.0302 48.6785 98.0302 48.6785Z" fill="black"/>
<path opacity="0.1" d="M95.7418 71.9268C93.5069 72.0781 91.0072 72.4132 91.0072 72.4132C91.0072 72.4132 85.6225 71.8493 82.3179 73.5391C82.3179 73.5391 80.2018 69.1705 80.4269 61.0187C80.4269 61.0187 84.1638 60.7935 85.1093 61.1538C86.0547 61.5141 90.6471 62.55 91.2324 62.0095C91.8176 61.4691 94.474 63.0004 94.474 63.0004C94.6091 62.7034 94.6791 62.3809 94.6791 62.0546C94.6791 61.7283 94.6091 61.4058 94.474 61.1088C94.0238 60.0279 93.2584 56.6501 94.2489 55.5692C95.2394 54.4883 98.2109 49.2189 98.2109 49.2189L99.0897 49.2603C98.6323 51.7428 95.9291 66.3782 95.5996 68.3148C95.4573 69.1561 95.5617 70.5504 95.7418 71.9268Z" fill="black"/>
<path d="M98.2109 48.8586L99.1563 48.9037L101.948 56.3799C101.948 56.3799 103.614 60.2982 103.929 60.9287C104.244 61.5592 104.109 64.1714 103.929 64.937C103.749 65.7027 102.578 69.0805 102.533 69.9362C102.488 70.7919 100.372 71.6476 98.2109 71.5125C96.0498 71.3774 91.0072 72.053 91.0072 72.053C91.0072 72.053 85.622 71.4899 82.3179 73.1789C82.3179 73.1789 80.2018 68.8103 80.4269 60.6585C80.4269 60.6585 84.1638 60.4333 85.1093 60.7936C86.0547 61.1539 90.6471 62.1897 91.2324 61.6493C91.8176 61.1088 94.474 62.6401 94.474 62.6401C94.6091 62.3431 94.6791 62.0206 94.6791 61.6943C94.6791 61.368 94.6091 61.0455 94.474 60.7485C94.0238 59.6676 93.2584 56.2898 94.2489 55.2089C95.2394 54.128 98.2109 48.8586 98.2109 48.8586Z" fill="#6C63FF"/>
<path d="M88.6984 65.4015L89.8218 66.0973L96.0822 55.9833L94.9588 55.2874L88.6984 65.4015Z" fill="#DFE6F5"/>
<path d="M99.2929 54.6135C100.399 52.826 100.28 50.7477 99.0269 49.9714C97.7736 49.1951 95.8607 50.0149 94.7543 51.8023C93.6479 53.5898 93.767 55.6681 95.0203 56.4444C96.2736 57.2207 98.1865 56.401 99.2929 54.6135Z" fill="#DFE6F5"/>
<path opacity="0.1" d="M98.6528 54.2169C99.447 52.9339 99.3615 51.4421 98.4619 50.8849C97.5623 50.3276 96.1892 50.916 95.395 52.1991C94.6008 53.4821 94.6863 54.9739 95.5859 55.5311C96.4855 56.0883 97.8586 55.4999 98.6528 54.2169Z" fill="black"/>
<path d="M85.4992 70.5708L86.6226 71.2666L90.5179 64.9734L89.3945 64.2776L85.4992 70.5708Z" fill="#53526B"/>
<path d="M78.8961 71.0169L81.6425 70.2512C81.6425 70.2512 95.1943 70.6115 90.6471 65.0269C90.6471 65.0269 88.2608 62.73 83.2633 64.5765C78.2658 66.4231 76.8701 66.6482 76.8701 66.6482L78.8961 71.0169Z" fill="#FDC2CC"/>
<path opacity="0.1" d="M76.8708 47.4625C77.1692 47.4625 77.4111 47.2205 77.4111 46.922C77.4111 46.6236 77.1692 46.3816 76.8708 46.3816C76.5725 46.3816 76.3306 46.6236 76.3306 46.922C76.3306 47.2205 76.5725 47.4625 76.8708 47.4625Z" fill="black"/>
<path opacity="0.1" d="M86.1453 47.1472C86.4436 47.1472 86.6855 46.9052 86.6855 46.6067C86.6855 46.3082 86.4436 46.0663 86.1453 46.0663C85.8469 46.0663 85.605 46.3082 85.605 46.6067C85.605 46.9052 85.8469 47.1472 86.1453 47.1472Z" fill="black"/>
<path d="M76.8708 47.2823C77.1692 47.2823 77.4111 47.0404 77.4111 46.7419C77.4111 46.4434 77.1692 46.2014 76.8708 46.2014C76.5725 46.2014 76.3306 46.4434 76.3306 46.7419C76.3306 47.0404 76.5725 47.2823 76.8708 47.2823Z" fill="white"/>
<path opacity="0.1" d="M77.635 54.9386C77.9334 54.9386 78.1753 54.6966 78.1753 54.3981C78.1753 54.0996 77.9334 53.8577 77.635 53.8577C77.3366 53.8577 77.0947 54.0996 77.0947 54.3981C77.0947 54.6966 77.3366 54.9386 77.635 54.9386Z" fill="black"/>
<path opacity="0.1" d="M86.4153 54.3983C86.7137 54.3983 86.9556 54.1563 86.9556 53.8578C86.9556 53.5593 86.7137 53.3174 86.4153 53.3174C86.1169 53.3174 85.875 53.5593 85.875 53.8578C85.875 54.1563 86.1169 54.3983 86.4153 54.3983Z" fill="black"/>
<path d="M77.635 54.7586C77.9334 54.7586 78.1753 54.5167 78.1753 54.2182C78.1753 53.9197 77.9334 53.6777 77.635 53.6777C77.3366 53.6777 77.0947 53.9197 77.0947 54.2182C77.0947 54.5167 77.3366 54.7586 77.635 54.7586Z" fill="white"/>
<path opacity="0.1" d="M86.1902 80.478C86.4886 80.478 86.7304 80.236 86.7304 79.9375C86.7304 79.6391 86.4886 79.3971 86.1902 79.3971C85.8918 79.3971 85.6499 79.6391 85.6499 79.9375C85.6499 80.236 85.8918 80.478 86.1902 80.478Z" fill="black"/>
<path opacity="0.1" d="M79.0793 80.478C79.3777 80.478 79.6196 80.236 79.6196 79.9375C79.6196 79.6391 79.3777 79.3971 79.0793 79.3971C78.7809 79.3971 78.5391 79.6391 78.5391 79.9375C78.5391 80.236 78.7809 80.478 79.0793 80.478Z" fill="black"/>
<path d="M86.1902 80.2978C86.4886 80.2978 86.7304 80.0559 86.7304 79.7574C86.7304 79.4589 86.4886 79.2169 86.1902 79.2169C85.8918 79.2169 85.6499 79.4589 85.6499 79.7574C85.6499 80.0559 85.8918 80.2978 86.1902 80.2978Z" fill="white"/>
<path opacity="0.1" d="M79.6199 89.5276C79.9182 89.5276 80.1601 89.2856 80.1601 88.9871C80.1601 88.6886 79.9182 88.4467 79.6199 88.4467C79.3215 88.4467 79.0796 88.6886 79.0796 88.9871C79.0796 89.2856 79.3215 89.5276 79.6199 89.5276Z" fill="black"/>
<path opacity="0.1" d="M86.4153 88.9869C86.7137 88.9869 86.9556 88.7449 86.9556 88.4465C86.9556 88.148 86.7137 87.906 86.4153 87.906C86.1169 87.906 85.875 88.148 85.875 88.4465C85.875 88.7449 86.1169 88.9869 86.4153 88.9869Z" fill="black"/>
<path d="M79.6199 89.3473C79.9182 89.3473 80.1601 89.1053 80.1601 88.8068C80.1601 88.5083 79.9182 88.2664 79.6199 88.2664C79.3215 88.2664 79.0796 88.5083 79.0796 88.8068C79.0796 89.1053 79.3215 89.3473 79.6199 89.3473Z" fill="white"/>
<path d="M79.0793 80.2978C79.3777 80.2978 79.6196 80.0559 79.6196 79.7574C79.6196 79.4589 79.3777 79.2169 79.0793 79.2169C78.7809 79.2169 78.5391 79.4589 78.5391 79.7574C78.5391 80.0559 78.7809 80.2978 79.0793 80.2978Z" fill="white"/>
<path d="M86.4153 88.8068C86.7137 88.8068 86.9556 88.5649 86.9556 88.2664C86.9556 87.9679 86.7137 87.726 86.4153 87.726C86.1169 87.726 85.875 87.9679 85.875 88.2664C85.875 88.5649 86.1169 88.8068 86.4153 88.8068Z" fill="white"/>
<path d="M86.1453 46.9671C86.4436 46.9671 86.6855 46.7252 86.6855 46.4267C86.6855 46.1282 86.4436 45.8862 86.1453 45.8862C85.8469 45.8862 85.605 46.1282 85.605 46.4267C85.605 46.7252 85.8469 46.9671 86.1453 46.9671Z" fill="white"/>
<path d="M86.4153 54.2181C86.7137 54.2181 86.9556 53.9761 86.9556 53.6777C86.9556 53.3792 86.7137 53.1372 86.4153 53.1372C86.1169 53.1372 85.875 53.3792 85.875 53.6777C85.875 53.9761 86.1169 54.2181 86.4153 54.2181Z" fill="white"/>
<path opacity="0.1" d="M87.2251 72.6384C87.2251 72.6384 87.3151 84.9787 87.5853 87.1855C87.5853 87.1855 87.6833 73.2202 87.2251 72.6384Z" fill="black"/>
<path opacity="0.1" d="M89.5216 78.3583C89.336 78.3583 93.2134 92.8153 93.3935 93.8512C93.5736 94.8871 90.6021 78.3583 89.5216 78.3583Z" fill="black"/>
<path opacity="0.1" d="M92.583 76.0161C92.583 76.1512 94.7441 83.8526 95.8247 84.258C96.9052 84.6633 92.583 76.0161 92.583 76.0161Z" fill="black"/>
<path opacity="0.1" d="M101.092 61.0187C101.092 61.0187 96.4996 61.2234 96.3646 61.8867C96.2295 62.55 101.092 61.0187 101.092 61.0187Z" fill="black"/>
<path opacity="0.1" d="M92.9872 119.748C92.9872 119.748 89.7006 121.144 90.1959 121.234C90.6911 121.324 92.9872 119.748 92.9872 119.748Z" fill="black"/>
<path opacity="0.1" d="M86.1896 117.676C86.0617 117.388 88.3957 118.847 88.3957 119.027C88.3957 119.207 86.3697 118.081 86.1896 117.676Z" fill="black"/>
<path opacity="0.1" d="M89.251 122.405C89.251 122.405 91.8173 122.275 91.9973 123.263C92.1774 124.251 89.251 122.405 89.251 122.405Z" fill="black"/>
<path opacity="0.1" d="M70.7925 122.399C70.7925 122.399 73.5839 121.853 73.809 122.399C74.0341 122.945 70.7925 122.399 70.7925 122.399Z" fill="black"/>
<path opacity="0.1" d="M71.8275 139.384C71.8275 139.384 72.0105 141.681 71.3337 142.221C70.6569 142.762 71.8275 139.384 71.8275 139.384Z" fill="black"/>
<path opacity="0.1" d="M71.4873 144.248C72.3685 144.338 77.0059 143.528 76.9608 144.248C76.9158 144.969 71.4873 144.248 71.4873 144.248Z" fill="black"/>
<path opacity="0.1" d="M92.7634 141.456C92.7634 141.456 91.1818 141.213 91.5674 142.28L92.7634 141.456Z" fill="black"/>
<path opacity="0.1" d="M63.3637 51.5609H62.5083L61.2026 56.3348C61.2026 56.3348 60.7524 58.0012 60.3022 58.4066C59.8519 58.8119 60.7074 62.505 60.7074 62.505C60.7074 62.505 60.2121 65.1171 59.8069 65.7927C59.4017 66.4683 60.4372 68.1347 60.4372 68.1347L62.5083 72.9987L68.001 74.4399C68.001 74.4399 77.6809 76.5567 78.1312 76.8719C78.5814 77.1872 78.9866 76.7368 79.3017 73.8094C79.6169 70.8819 80.4723 65.2072 81.1477 64.937C81.1477 64.937 75.7449 65.5225 75.2947 65.4324C74.8445 65.3423 72.6834 65.4774 72.6834 65.4774C72.6834 65.4774 69.847 65.2973 69.3968 65.5675C68.9465 65.8378 69.982 64.2594 69.982 64.2594C70.1716 63.5367 70.1716 62.7773 69.982 62.0546C69.6669 60.8386 69.4868 47.0571 63.3637 51.5609Z" fill="black"/>
<path opacity="0.1" d="M80.9667 65.4775C80.2914 65.7478 79.436 71.4225 79.1208 74.3499C78.8056 77.2774 78.4004 77.7277 77.9502 77.4125C77.5846 77.1566 71.132 75.7118 68.7206 75.1786C69.1005 72.9357 69.3058 70.4317 69.3058 70.4317L62.4624 52.1014H63.1828C69.3058 47.5976 69.4859 61.3791 69.8011 62.5951C69.9907 63.3179 69.9907 64.0774 69.8011 64.8002C69.8011 64.8002 68.7656 66.3783 69.2158 66.108C69.666 65.8378 72.5025 66.018 72.5025 66.018C72.5025 66.018 74.6635 65.8829 75.1138 65.9729C75.564 66.063 80.9667 65.4775 80.9667 65.4775Z" fill="black"/>
<path d="M63.1831 51.741H62.3276L61.022 56.515C61.022 56.515 60.5717 58.1814 60.1215 58.5867C59.6713 58.9921 60.5267 62.6851 60.5267 62.6851C60.5267 62.6851 60.0315 65.2973 59.6263 65.9729C59.2211 66.6485 60.2566 68.3148 60.2566 68.3148L62.3276 73.1789L67.8204 74.6201C67.8204 74.6201 77.5002 76.7369 77.9505 77.0521C78.4007 77.3674 78.8059 76.917 79.1211 73.9896C79.4362 71.0622 80.2917 65.3874 80.967 65.1172C80.967 65.1172 75.5643 65.7027 75.1141 65.6126C74.6638 65.5225 72.5027 65.6576 72.5027 65.6576C72.5027 65.6576 69.6663 65.4775 69.2161 65.7477C68.7659 66.018 69.8014 64.4396 69.8014 64.4396C69.9909 63.7169 69.9909 62.9575 69.8014 62.2348C69.4862 61.0188 69.3061 47.2373 63.1831 51.741Z" fill="#6C63FF"/>
<path opacity="0.1" d="M66.1104 68.0446C66.1104 68.0446 63.6341 72.7284 63.1839 72.188C62.7337 71.6476 66.1104 68.0446 66.1104 68.0446Z" fill="black"/>
<path opacity="0.1" d="M63.5428 65.3773C63.5428 65.3773 61.2467 67.2789 62.3272 67.7743C63.4078 68.2697 63.5428 65.3773 63.5428 65.3773Z" fill="black"/>
<path opacity="0.1" d="M65.7041 63.0455C65.8842 63.0906 69.0358 63.7167 69.0808 63.9891C69.1258 64.2615 65.7041 63.0455 65.7041 63.0455Z" fill="black"/>
<path opacity="0.1" d="M87.56 30.0528C87.4621 30.0872 87.3785 30.1535 87.3227 30.241C87.2669 30.3285 87.242 30.4323 87.252 30.5356C87.0683 30.6977 86.8108 30.5068 86.6613 30.2996C86.5101 30.0942 86.339 29.8402 86.1103 29.869C86.0016 29.9037 85.8962 29.9477 85.7951 30.0005C85.4349 30.1158 85.1306 29.6925 84.9289 29.3214C84.5777 28.671 84.2265 28.0213 83.8753 27.3721C83.1712 27.7811 82.3391 27.3523 81.6404 26.929C80.9416 26.5056 80.1096 26.0751 79.4037 26.484C78.3682 27.0821 78.3303 29.0764 77.257 29.5682C76.9112 29.7267 76.5096 29.6925 76.189 29.9105C75.8721 30.1266 75.701 30.5428 75.5587 30.9409C75.5061 31.1676 75.3824 31.3714 75.2057 31.5228C75.0935 31.5815 74.9686 31.6118 74.842 31.6111C74.5237 31.6652 74.1965 31.6192 73.9055 31.4796C73.7529 31.3837 73.6376 31.2385 73.5787 31.0682C73.5198 30.8979 73.5207 30.7125 73.5813 30.5428C73.5899 30.5248 73.5995 30.5074 73.6101 30.4905C73.7255 30.351 73.8291 30.2022 73.9199 30.0456C74.0279 29.7591 73.8731 29.4259 73.9073 29.116C73.9631 28.5864 74.5232 28.3071 74.6187 27.7865C74.6583 27.5829 74.6168 27.3649 74.6547 27.1596C74.66 27.1327 74.6672 27.1062 74.6763 27.0803L74.3467 27.3073C74.7159 26.8767 74.9014 26.2786 75.1715 25.7562C75.4716 25.1842 75.8846 24.679 76.3854 24.2712C76.8863 23.8634 77.4646 23.5614 78.0854 23.3836C79.2596 23.0414 80.5004 23.135 81.6854 23.4251C82.8123 23.7059 83.8917 24.1508 84.8892 24.7456C85.2456 24.9367 85.5622 25.1941 85.8221 25.504C86.0399 25.8253 86.2251 26.1674 86.375 26.5254C86.7243 27.2496 87.6788 27.9198 86.9189 28.0207C86.2868 28.1054 86.863 28.5485 87.1944 28.8476C87.2691 28.9062 87.3336 28.9768 87.3853 29.0565C87.4403 29.1705 87.4655 29.2965 87.4586 29.4229C87.4517 29.5492 87.4128 29.6717 87.3456 29.7789C87.2178 29.9411 87.7365 29.9735 87.56 30.0528Z" fill="black"/>
<path d="M87.56 29.8726C87.4621 29.9071 87.3785 29.9733 87.3227 30.0609C87.2669 30.1484 87.242 30.2521 87.252 30.3554C87.0683 30.5176 86.8108 30.3266 86.6613 30.1194C86.5101 29.914 86.339 29.66 86.1103 29.6889C86.0016 29.7235 85.8962 29.7675 85.7951 29.8204C85.4349 29.9357 85.1306 29.5123 84.9289 29.1412C84.5777 28.4909 84.2265 27.8411 83.8753 27.192C83.1712 27.6009 82.3391 27.1722 81.6404 26.7488C80.9416 26.3254 80.1096 25.8949 79.4037 26.3038C78.3682 26.9019 78.3303 28.8962 77.257 29.388C76.9112 29.5465 76.5096 29.5123 76.189 29.7303C75.8721 29.9465 75.701 30.3626 75.5587 30.7608C75.5061 30.9874 75.3824 31.1913 75.2058 31.3426C75.0935 31.4013 74.9686 31.4317 74.842 31.4309C74.5237 31.485 74.1965 31.4391 73.9055 31.2994C73.7529 31.2035 73.6376 31.0584 73.5787 30.888C73.5198 30.7177 73.5207 30.5324 73.5813 30.3626C73.5899 30.3446 73.5995 30.3272 73.6101 30.3104C73.7255 30.1709 73.8291 30.022 73.9199 29.8654C74.0279 29.579 73.8731 29.2457 73.9073 28.9358C73.9631 28.4062 74.5232 28.127 74.6187 27.6063C74.6583 27.4028 74.6169 27.1848 74.6547 26.9794C74.66 26.9525 74.6672 26.926 74.6763 26.9001L74.3467 27.1271C74.7159 26.6966 74.9014 26.0985 75.1715 25.576C75.4716 25.004 75.8846 24.4988 76.3854 24.091C76.8863 23.6832 77.4646 23.3813 78.0854 23.2034C79.2596 22.8612 80.5004 22.9548 81.6854 23.2449C82.8123 23.5257 83.8917 23.9706 84.8892 24.5654C85.2456 24.7566 85.5622 25.014 85.8221 25.3238C86.0399 25.6451 86.2251 25.9873 86.375 26.3453C86.7243 27.0695 87.6788 27.7396 86.9189 27.8405C86.2868 27.9252 86.863 28.3684 87.1944 28.6674C87.2691 28.726 87.3336 28.7966 87.3853 28.8764C87.4403 28.9903 87.4655 29.1163 87.4586 29.2427C87.4517 29.369 87.4128 29.4915 87.3456 29.5988C87.2178 29.7609 87.7365 29.7933 87.56 29.8726Z" fill="#865A61"/>
<path opacity="0.1" d="M87.1941 28.6674L87.1221 29.4258C87.1221 29.4258 79.5655 19.8455 73.6873 30.6635C73.6873 30.6635 73.6585 30.532 73.6099 30.3104C73.7252 30.1709 73.8288 30.022 73.9196 29.8654C74.0277 29.579 73.8728 29.2457 73.907 28.9358C73.9628 28.4062 74.5229 28.127 74.6184 27.6063C74.658 27.4028 74.6166 27.1848 74.6544 26.9794C74.6597 26.9525 74.6669 26.926 74.676 26.9001L74.3464 27.1271C74.7156 26.6966 74.9011 26.0985 75.1713 25.576C75.4713 25.004 75.8843 24.4988 76.3851 24.091C76.886 23.6832 77.4643 23.3813 78.0851 23.2034C79.2593 22.8612 80.5001 22.9548 81.6851 23.2449C82.812 23.5257 83.8914 23.9706 84.889 24.5654C85.2453 24.7566 85.5619 25.014 85.8218 25.3238C86.0396 25.6451 86.2248 25.9873 86.3747 26.3453C86.7241 27.0695 87.6786 27.7396 86.9186 27.8405C86.2865 27.9252 86.8627 28.3684 87.1941 28.6674Z" fill="black"/>
<g opacity="0.1">
<path opacity="0.1" d="M87.3809 29.7744C87.3437 29.8163 87.3166 29.8663 87.3017 29.9203C87.2868 29.9744 87.2846 30.0312 87.2953 30.0862C87.1116 30.2484 86.854 30.0574 86.7046 29.8503C86.5533 29.6449 86.3822 29.3909 86.1535 29.4197C86.0448 29.4544 85.9394 29.4984 85.8383 29.5512C85.4782 29.6665 85.1738 29.2431 84.9721 28.872C84.6209 28.2217 84.2697 27.572 83.9186 26.9228C83.2144 27.3318 82.3824 26.903 81.6836 26.4796C80.9849 26.0563 80.1529 25.6257 79.4469 26.0347C78.4114 26.6328 78.3736 28.627 77.3002 29.1188C76.9545 29.2774 76.5529 29.2431 76.2323 29.4611C75.9153 29.6773 75.7443 30.0934 75.602 30.4916C75.5493 30.7182 75.4256 30.9221 75.249 31.0735C75.1368 31.1322 75.0119 31.1625 74.8852 31.1617C74.567 31.2158 74.2398 31.1699 73.9487 31.0302C73.7743 30.9145 73.6492 30.738 73.5978 30.535C73.562 30.6964 73.5765 30.8649 73.6392 31.0178C73.702 31.1707 73.81 31.3008 73.9487 31.3905C74.2398 31.5302 74.567 31.5761 74.8852 31.522C75.0119 31.5228 75.1368 31.4925 75.249 31.4338C75.4256 31.2824 75.5493 31.0785 75.602 30.8519C75.7443 30.4537 75.9153 30.0376 76.2323 29.8214C76.5529 29.6034 76.9544 29.6377 77.3002 29.4791C78.3736 28.9873 78.4114 26.9931 79.4469 26.395C80.1529 25.986 80.9849 26.4166 81.6836 26.8399C82.3824 27.2633 83.2144 27.6921 83.9186 27.2831C84.2697 27.9317 84.6209 28.5814 84.9721 29.2323C85.1738 29.6034 85.4782 30.0268 85.8383 29.9115C85.9394 29.8587 86.0448 29.8147 86.1535 29.78C86.3822 29.7512 86.5533 30.0052 86.7046 30.2106C86.854 30.4177 87.1116 30.6087 87.2953 30.4465C87.2852 30.3432 87.3102 30.2395 87.366 30.152C87.4218 30.0645 87.5053 29.9982 87.6032 29.9637C87.7436 29.9007 87.445 29.8671 87.3809 29.7744Z" fill="black"/>
<path opacity="0.1" d="M86.7916 27.9746C86.8461 27.9527 86.9033 27.9383 86.9617 27.9317C87.2968 27.8872 87.2982 27.7319 87.1655 27.5103C87.1024 27.5443 87.0331 27.5651 86.9617 27.5714C86.6001 27.6198 86.6344 27.7857 86.7916 27.9746Z" fill="black"/>
<path opacity="0.1" d="M87.4818 29.4835C87.5069 29.3674 87.5062 29.2471 87.4799 29.1312C87.4639 29.203 87.4328 29.2706 87.3887 29.3295C87.3323 29.4011 87.4017 29.4473 87.4818 29.4835Z" fill="black"/>
<path opacity="0.1" d="M73.9608 28.9646C73.957 28.9852 73.9526 29.0055 73.9504 29.0269C73.943 29.1892 73.9548 29.3517 73.9855 29.5112C74.0068 29.3288 73.9984 29.1443 73.9608 28.9646V28.9646Z" fill="black"/>
<path opacity="0.1" d="M74.6923 26.7667C74.6075 26.9273 74.5063 27.0787 74.3901 27.2183L74.6808 27.0181C74.6794 26.9341 74.6832 26.8502 74.6923 26.7667V26.7667Z" fill="black"/>
</g>
<path d="M73.6872 30.4833C73.6872 30.4833 72.6005 25.624 72.9463 24.8447C72.9463 24.8447 72.0078 22.9193 72.0078 22.4609C71.9623 21.6959 71.7244 20.9548 71.3163 20.3062C70.8223 19.5269 70.279 15.9053 73.2426 15.0343C76.2062 14.1633 78.4784 13.384 78.8241 12.788C79.1699 12.1921 84.2574 12.5588 85.6404 14.851C87.0235 17.1431 87.9125 16.6847 87.9125 16.6847C87.9125 16.6847 90.0365 18.0141 90.0365 19.206C90.0365 20.3979 89.3943 20.9939 90.0365 21.2689C90.6786 21.544 90.1846 26.495 87.3692 26.6325L87.1222 29.2456C87.1222 29.2456 79.565 19.6644 73.6872 30.4833Z" fill="#6C63FF"/>
<path opacity="0.1" d="M74.0108 15.9812C74.0108 15.9812 73.3579 19.8094 74.551 21.093L74.0108 15.9812Z" fill="black"/>
<path opacity="0.1" d="M77.0727 15.1029C77.0727 15.1029 75.4069 19.2013 75.8121 19.9895L77.0727 15.1029Z" fill="black"/>
<path opacity="0.1" d="M78.5133 13.797C78.5133 13.797 77.3877 19.1339 77.928 19.5618L78.5133 13.797Z" fill="black"/>
<path opacity="0.1" d="M80.4491 15.238C80.4491 15.238 79.0534 18.6609 79.6161 19.1338L80.4491 15.238Z" fill="black"/>
<path opacity="0.1" d="M83.0824 15.6434C83.0824 15.6434 81.439 18.4358 81.7767 18.9312L83.0824 15.6434Z" fill="black"/>
<path opacity="0.1" d="M86.46 18.3682C86.46 18.3682 84.7041 18.8411 85.0643 19.404L86.46 18.3682Z" fill="black"/>
<path opacity="0.1" d="M88.1251 21.2731C88.1251 21.2731 86.5493 22.0387 86.8419 22.4441L88.1251 21.2731Z" fill="black"/>
<path opacity="0.1" d="M72.9463 24.8447C72.9463 24.8447 83.0112 20.7551 87.3692 26.6326C87.3692 26.6326 82.0794 22.1335 72.9463 24.8447Z" fill="black"/>
<path d="M69.3091 58.4477L70.7115 57.0286L74.6767 60.9493L73.2742 62.3687L69.6276 58.7628L69.3091 58.4477Z" fill="#53526B"/>
<path d="M60.1099 49.35C60.1099 49.35 66.248 49.8725 71.961 56.3049L69.5799 58.7144L60.1099 49.35Z" fill="#DFE6F5"/>
<path d="M78.5195 60.8511C78.5195 60.8511 72.6198 58.6997 72.04 58.1853C71.4603 57.6708 68.0501 60.664 72.2106 64.7329C72.2106 64.7329 77.298 66.1828 78.659 64.7329C80.02 63.2831 78.5195 60.8511 78.5195 60.8511Z" fill="#FDC2CC"/>
<defs>
<linearGradient id="paint0_linear" x1="81.825" y1="159.271" x2="81.825" y2="11.8922" gradientUnits="userSpaceOnUse">
<stop stop-color="#808080" stop-opacity="0.25"/>
<stop offset="0.53514" stop-color="#808080" stop-opacity="0.12"/>
<stop offset="1" stop-color="#808080" stop-opacity="0.1"/>
</linearGradient>
</defs>
</svg>
