<svg width="172" height="144" viewBox="0 0 172 144" fill="none" xmlns="http://www.w3.org/2000/svg">
<g clip-path="url(#clip0)">
<path d="M138.755 140.611L22.9331 35.3214L41.0445 0L168.39 139.746L138.755 140.611Z" fill="#F2F2F2"/>
<path d="M86.0001 29.7917C89.8702 29.7917 93.0075 26.6494 93.0075 22.7733C93.0075 18.8971 89.8702 15.7549 86.0001 15.7549C82.13 15.7549 78.9927 18.8971 78.9927 22.7733C78.9927 26.6494 82.13 29.7917 86.0001 29.7917Z" fill="#F2F2F2"/>
<path d="M116.79 39.575C118.08 39.575 119.126 38.5276 119.126 37.2356C119.126 35.9435 118.08 34.8961 116.79 34.8961C115.5 34.8961 114.455 35.9435 114.455 37.2356C114.455 38.5276 115.5 39.575 116.79 39.575Z" fill="#3F3D56"/>
<path d="M116.79 58.0779C118.08 58.0779 119.126 57.0304 119.126 55.7384C119.126 54.4463 118.08 53.3989 116.79 53.3989C115.5 53.3989 114.455 54.4463 114.455 55.7384C114.455 57.0304 115.5 58.0779 116.79 58.0779Z" fill="#3F3D56"/>
<path d="M140.148 62.7569C141.438 62.7569 142.484 61.7095 142.484 60.4175C142.484 59.1254 141.438 58.078 140.148 58.078C138.858 58.078 137.812 59.1254 137.812 60.4175C137.812 61.7095 138.858 62.7569 140.148 62.7569Z" fill="#3F3D56"/>
<path d="M86 144C133.496 144 172 142.096 172 139.746C172 137.397 133.496 135.493 86 135.493C38.5035 135.493 0 137.397 0 139.746C0 142.096 38.5035 144 86 144Z" fill="#F2F2F2"/>
<path d="M136.308 70.659C135.333 69.0476 131.926 69.0892 131.926 69.0892C128.824 73.7056 121.367 68.8019 121.367 68.8019C115.828 71.2836 112.449 63.375 112.449 63.375C104.997 62.2589 106.148 54.4199 106.148 54.4199C102.44 53.6743 103.481 46.9604 103.481 46.9604C103.481 46.9604 105.538 45.2704 104.526 44.0341C103.882 43.2481 103.842 40.9924 103.898 39.4524C99.0599 37.9787 94.0302 37.2316 88.9732 37.2354C60.7098 37.2354 37.7979 60.1832 37.7979 88.4908C37.7979 116.798 60.7098 139.746 88.9732 139.746C117.236 139.746 140.148 116.798 140.148 88.4908C140.155 82.341 139.053 76.2405 136.897 70.4824C136.634 70.7793 136.431 70.8609 136.308 70.659Z" fill="#3F3D56"/>
<path opacity="0.1" d="M136.308 70.659C135.333 69.0476 131.926 69.0892 131.926 69.0892C128.824 73.7056 121.367 68.8019 121.367 68.8019C115.828 71.2836 112.449 63.375 112.449 63.375C104.997 62.2589 106.148 54.4199 106.148 54.4199C102.44 53.6743 103.481 46.9604 103.481 46.9604C103.481 46.9604 105.538 45.2704 104.526 44.0341C103.882 43.2481 103.842 40.9924 103.898 39.4524C99.0599 37.9787 94.0302 37.2316 88.9732 37.2354C60.7098 37.2354 37.7979 60.1832 37.7979 88.4908C37.7979 116.798 60.7098 139.746 88.9732 139.746C117.236 139.746 140.148 116.798 140.148 88.4908C140.155 82.341 139.053 76.2405 136.897 70.4824C136.634 70.7793 136.431 70.8609 136.308 70.659Z" fill="black"/>
<path d="M133.275 70.4567C132.348 68.9242 129.107 68.9638 129.107 68.9638C126.157 73.3541 119.065 68.6905 119.065 68.6905C113.798 71.0507 110.584 63.5293 110.584 63.5293C103.496 62.4678 104.591 55.0125 104.591 55.0125C101.065 54.3034 102.055 47.9182 102.055 47.9182C102.055 47.9182 104.011 46.3109 103.048 45.1351C102.436 44.3876 102.398 42.2423 102.452 40.7778C97.8501 39.3762 93.0667 38.6656 88.2571 38.6692C61.3773 38.6692 39.5869 60.4937 39.5869 87.4157C39.5869 114.338 61.3773 136.162 88.2571 136.162C115.137 136.162 136.927 114.338 136.927 87.4157C136.933 81.5669 135.886 75.765 133.835 70.2888C133.585 70.5711 133.392 70.6488 133.275 70.4567Z" fill="#3F3D56"/>
<path opacity="0.5" d="M48.0365 83.0999L46.7317 82.6452L46 81.4731L49.2536 77.4001L50.5583 77.8548L51.29 79.0269L48.0365 83.0999Z" fill="white"/>
<path opacity="0.5" d="M109.825 90.0002L108.517 89.5456L107.788 88.3734L111.039 84.3005L112.344 84.7528L113.076 85.925L109.825 90.0002Z" fill="white"/>
<path opacity="0.5" d="M82.6878 67.7671L81.3831 67.3148L80.6514 66.1427L83.9026 62.0674L85.2097 62.522L85.939 63.6942L82.6878 67.7671Z" fill="white"/>
<path opacity="0.5" d="M90.0117 82.7467L88.7496 83.3056L87.4141 82.9504L87.0044 77.7527L88.2665 77.1938L89.6021 77.549L90.0117 82.7467Z" fill="white"/>
<path opacity="0.5" d="M68.7466 69.9884L67.8752 71.0611L66.5231 71.3476L63.8047 66.9006L64.6785 65.8279L66.0306 65.5414L68.7466 69.9884Z" fill="white"/>
<path opacity="0.5" d="M67.2139 82.56L66.3402 83.6327L64.9904 83.9192L62.272 79.4721L63.1434 78.3994L64.4955 78.1129L67.2139 82.56Z" fill="white"/>
<path opacity="0.5" d="M104.711 83.784L103.71 84.736L102.332 84.8473L100.205 80.0876L101.209 79.1357L102.585 79.0244L104.711 83.784Z" fill="white"/>
<path opacity="0.5" d="M97.8789 67.4735L98.2175 66.1332L99.321 65.3044L103.664 68.1886L103.325 69.5289L102.222 70.3601L97.8789 67.4735Z" fill="white"/>
<path opacity="0.5" d="M51.7166 69.4554L50.4119 69.0008L49.6802 67.8287L52.9338 63.7557L54.2385 64.208L54.9702 65.3802L51.7166 69.4554Z" fill="#FD6F8D"/>
<path opacity="0.5" d="M68.1454 61.7975L67.8257 60.4548L68.4224 59.2069L73.6059 59.7586L73.9256 61.1037L73.3288 62.3516L68.1454 61.7975Z" fill="#FD6F8D"/>
<path opacity="0.5" d="M93.2651 54.1533L93.5232 52.7965L94.577 51.9014L99.0809 54.5251L98.8228 55.8819L97.769 56.777L93.2651 54.1533Z" fill="#FD6F8D"/>
<path opacity="0.5" d="M83.2225 47.3078L84.5699 47L85.8107 47.6086L85.2068 52.7873L83.8595 53.0928L82.6187 52.4842L83.2225 47.3078Z" fill="#FD6F8D"/>
<path opacity="0.5" d="M73.973 88.1696L73.6533 86.8246L74.2477 85.5767L79.4312 86.1284L79.7508 87.4734L79.1565 88.7213L73.973 88.1696Z" fill="#FD6F8D"/>
<path opacity="0.5" d="M54.8067 89.1521L53.9897 88.0368L54.0513 86.6586L59.0406 85.1455L59.8599 86.2608L59.796 87.6413L54.8067 89.1521Z" fill="#FD6F8D"/>
<path opacity="0.5" d="M108.463 79.917L107.328 79.1285L106.942 77.8L111.174 74.7572L112.308 75.5457L112.694 76.8718L108.463 79.917Z" fill="#FD6F8D"/>
<path opacity="0.5" d="M124.301 92.9923L125.626 93.3821L126.415 94.5169L123.366 98.745L122.04 98.3551L121.252 97.2203L124.301 92.9923Z" fill="white"/>
<path opacity="0.5" d="M55.248 95.1003L56.5759 95.4901L57.3621 96.6249L54.3152 100.853L52.9898 100.465L52.2013 99.3306L55.248 95.1003Z" fill="white"/>
<path opacity="0.5" d="M90.4458 110.012L91.7712 110.399L92.5597 111.534L89.513 115.764L88.1851 115.375L87.3989 114.24L90.4458 110.012Z" fill="white"/>
<path opacity="0.5" d="M82.3939 95.4108L83.627 94.7905L84.9784 95.0796L85.6434 100.251L84.4103 100.871L83.0589 100.582L82.3939 95.4108Z" fill="white"/>
<path opacity="0.5" d="M104.261 107.107L105.079 105.993L106.415 105.64L109.349 109.948L108.529 111.062L107.193 111.415L104.261 107.107Z" fill="white"/>
<path opacity="0.5" d="M105.173 94.4754L105.993 93.361L107.327 93.0084L110.261 97.3163L109.444 98.4305L108.107 98.7833L105.173 94.4754Z" fill="white"/>
<path opacity="0.5" d="M67.661 95.098L68.6146 94.098L69.9856 93.919L72.3437 98.5682L71.3877 99.5684L70.0191 99.7472L67.661 95.098Z" fill="white"/>
<path opacity="0.5" d="M75.2878 111.053L75.0155 112.408L73.9542 113.29L69.4747 110.623L69.7469 109.268L70.8081 108.383L75.2878 111.053Z" fill="white"/>
<path opacity="0.5" d="M121.296 106.801L122.622 107.191L123.41 108.326L120.361 112.554L119.036 112.167L118.247 111.032L121.296 106.801Z" fill="#FD6F8D"/>
<path opacity="0.5" d="M105.265 115.259L105.65 116.584L105.115 117.86L99.9111 117.564L99.5256 116.236L100.06 114.96L105.265 115.259Z" fill="#FD6F8D"/>
<path opacity="0.5" d="M80.5513 124.13L80.3603 125.497L79.3518 126.443L74.7243 124.044L74.9153 122.677L75.9237 121.731L80.5513 124.13Z" fill="#FD6F8D"/>
<path opacity="0.5" d="M90.9184 130.473L89.5878 130.846L88.3185 130.3L88.6668 125.097L89.9975 124.726L91.2667 125.273L90.9184 130.473Z" fill="#FD6F8D"/>
<path opacity="0.5" d="M96.7972 93.5666L97.1827 94.8942L96.6505 96.1699L91.4461 95.8739L91.0607 94.5462L91.5929 93.2706L96.7972 93.5666Z" fill="#FD6F8D"/>
<path opacity="0.5" d="M124.047 82.0404L124.918 83.1142L124.925 84.4937L120.016 86.2505L119.143 85.1769L119.138 83.7949L124.047 82.0404Z" fill="#FD6F8D"/>
<path opacity="0.5" d="M64.1041 99.1451L65.2758 99.8769L65.7267 101.185L61.65 104.432L60.4783 103.7L60.0276 102.395L64.1041 99.1451Z" fill="#FD6F8D"/>
<path opacity="0.1" d="M58.9121 95.6595L59.9857 97.4518L62.1328 101.036L62.8486 103.545L61.4172 105.696L63.2064 109.997L63.9222 112.506L62.4908 113.939L65.3536 116.09" fill="black"/>
<path opacity="0.1" d="M111.519 79.8885V82.7561L109.73 87.4157L108.656 89.9246L110.446 93.1505L111.162 95.3011L114.024 96.3764L115.098 98.1687V102.47" fill="black"/>
<path opacity="0.1" d="M129.77 82.7561L126.907 84.5482C126.907 84.5482 125.475 85.2651 125.475 85.6235V88.491" fill="black"/>
<path opacity="0.1" d="M116.887 72.7201L117.602 76.3044L116.887 78.8135" fill="black"/>
<path opacity="0.1" d="M119.75 104.979L117.603 108.205L115.098 110.355V111.789L116.529 113.581V115.732L115.455 117.882" fill="black"/>
<path opacity="0.1" d="M60.7013 50.1389L57.4805 56.5907L56.4069 59.0997L53.9018 62.3255C53.9018 62.3255 52.1124 65.5514 51.7546 65.9098C51.3967 66.2683 48.8916 66.9851 48.8916 66.9851L52.4703 70.5694" fill="black"/>
<path opacity="0.1" d="M46.387 74.8706L45.6712 79.5302L46.387 82.3977V87.4156L44.2397 96.7348L46.387 99.2437L48.892 102.47" fill="black"/>
<path opacity="0.1" d="M51.7544 77.0212L53.9016 78.0965L55.3331 82.7561L58.1961 82.0392L59.6275 84.5484" fill="black"/>
<path opacity="0.1" d="M91.1201 123.617L96.846 122.9L99.3511 120.391H102.93" fill="black"/>
<path opacity="0.1" d="M56.4062 116.09L58.5535 118.599L62.1322 119.674L64.6374 120.391L65.353 124.334" fill="black"/>
<path opacity="0.1" d="M98.6348 103.904L101.14 102.111L102.214 99.2438L104.361 98.8854L105.434 95.3011" fill="black"/>
<path d="M34.3651 13.8408H40.3571C42.249 13.8408 44.0633 14.5935 45.401 15.9334C46.7388 17.2732 47.4903 19.0904 47.4903 20.9852V34.1309H27.2319V20.9852C27.2319 20.047 27.4164 19.1179 27.7749 18.2512C28.1334 17.3844 28.6588 16.5968 29.3212 15.9334C29.9836 15.2699 30.7699 14.7437 31.6354 14.3847C32.5008 14.0256 33.4284 13.8408 34.3651 13.8408Z" fill="#2F2E41"/>
<path d="M40.5178 126.578C40.5178 126.578 39.8807 130.618 38.819 131.256C37.7573 131.894 44.34 133.383 44.34 133.383L45.4017 127.003L40.5178 126.578Z" fill="#FBBEBE"/>
<path d="M48.3735 80.4265L50.7093 83.1913L49.6476 92.7618L48.7982 111.69C48.7982 111.69 50.497 128.066 48.7982 128.492C47.0994 128.917 39.455 128.704 39.6673 127.641C39.8797 126.578 40.092 125.727 40.5167 124.238C40.9414 122.749 40.092 117.433 40.092 117.433L41.1538 111.478L37.3315 85.7435L48.3735 80.4265Z" fill="#2F2E41"/>
<path d="M40.7289 130.618C40.7289 130.618 38.3931 130.193 38.1807 130.618C37.9684 131.044 33.9338 135.51 33.2968 135.51C32.6598 135.51 27.9882 139.764 32.8721 139.976C37.7561 140.189 45.8252 136.361 45.8252 136.361C45.8252 136.361 44.6377 130.949 44.7006 131.209C44.7635 131.469 40.7289 131.682 40.7289 130.618Z" fill="#2F2E41"/>
<path d="M38.1812 120.835C38.1812 120.835 44.1268 127.428 44.3392 128.066C44.5515 128.704 47.7367 128.066 47.7367 128.066L49.0108 123.813L47.9491 122.324L42.0034 117.432L38.1812 120.835Z" fill="#FBBEBE"/>
<path d="M46.6752 125.727L43.5962 128.63C43.5962 128.63 47.5246 134.66 47.5246 135.298C47.5246 135.936 47.7369 141.253 49.8604 140.402C51.9839 139.551 52.1962 131.044 52.1962 131.044C52.1962 131.044 51.9839 122.324 50.7098 121.686C49.4357 121.048 46.6433 121.25 46.6433 121.25C46.6433 121.25 48.374 125.514 46.6752 125.727Z" fill="#2F2E41"/>
<path d="M29.0504 61.4981C29.0504 61.4981 27.9887 64.9009 27.7764 65.7516C27.564 66.6023 26.2899 68.9418 26.2899 72.5573C26.2899 76.1729 26.7146 80.4264 26.2899 80.8518C25.8653 81.2771 19.0702 105.097 22.043 107.649C25.0159 110.201 34.7838 118.709 35.4208 119.772C36.0578 120.835 36.2702 123.387 37.5443 122.962C38.8183 122.537 43.7023 118.283 43.9146 117.432C44.127 116.582 41.1541 115.093 41.1541 115.093C41.1541 115.093 35.2085 106.373 33.722 106.586C32.2356 106.799 32.448 105.522 32.6603 104.884C32.8727 104.246 33.2974 103.821 32.6603 103.821C32.0233 103.821 32.448 102.12 32.6603 101.269C32.8727 100.418 37.7566 88.9336 37.7566 88.9336L50.7097 83.1912C50.7097 83.1912 50.0727 67.6657 45.4011 63.4122L44.3393 60.86C44.3393 60.86 32.448 60.0093 29.0504 61.4981Z" fill="#2F2E41"/>
<path d="M34.3592 27.8949C34.3592 27.8949 35.4209 35.3386 32.8728 35.764C30.3246 36.1893 28.2012 35.9767 28.2012 36.1893C28.2012 36.402 34.5715 42.9951 34.5715 42.9951L40.5172 42.5697L45.8259 36.8274C45.8259 36.8274 40.9419 35.9767 40.9419 32.9992C40.9419 30.0217 40.7296 27.8949 40.7296 27.8949H34.3592Z" fill="#FBBEBE"/>
<path opacity="0.1" d="M34.3592 27.8949C34.3592 27.8949 35.4209 35.3386 32.8728 35.764C30.3246 36.1893 28.2012 35.9767 28.2012 36.1893C28.2012 36.402 34.5715 42.9951 34.5715 42.9951L40.5172 42.5697L45.8259 36.8274C45.8259 36.8274 40.9419 35.9767 40.9419 32.9992C40.9419 30.0217 40.7296 27.8949 40.7296 27.8949H34.3592Z" fill="black"/>
<path d="M37.6501 30.9788C41.2856 30.9788 44.2328 28.027 44.2328 24.3858C44.2328 20.7445 41.2856 17.7927 37.6501 17.7927C34.0146 17.7927 31.0674 20.7445 31.0674 24.3858C31.0674 28.027 34.0146 30.9788 37.6501 30.9788Z" fill="#FBBEBE"/>
<path d="M31.8111 35.1261C31.8111 35.1261 23.5297 36.1895 22.8926 38.9543C22.2556 41.7191 27.1395 58.9461 27.7766 60.4348C28.4136 61.9236 28.2013 62.987 28.2013 62.987C29.1621 62.2673 30.2657 61.762 31.4377 61.5052C32.6098 61.2484 33.8232 61.246 34.9963 61.4982C39.0309 62.3489 44.7642 61.9236 44.7642 61.9236C44.7642 61.9236 46.6753 54.0545 47.1 53.2038C47.5247 52.353 49.2235 47.6741 49.2235 46.398C49.2235 45.122 51.7716 39.805 51.7716 39.805C51.7716 39.805 50.4976 35.9768 45.826 36.1895C45.826 36.1895 43.7882 35.276 43.2145 35.9454C42.6408 36.6148 39.4556 39.5923 35.421 38.3163C31.3864 37.0402 31.8111 35.1261 31.8111 35.1261Z" fill="#FF6584"/>
<path d="M25.2276 38.7415H22.8917L21.6177 55.543C21.6177 55.543 26.2893 56.8191 26.9263 55.9684C27.5634 55.1177 25.2276 38.7415 25.2276 38.7415Z" fill="#FF6584"/>
<path d="M47.7373 38.7415L51.7719 39.8048C51.7719 39.8048 54.7447 50.6514 54.9571 50.8641C55.1694 51.0768 55.3818 52.3529 55.3818 52.3529C55.3818 52.3529 55.3818 52.5655 55.8065 53.2036C56.2311 53.8416 56.8682 53.4163 56.4435 54.267C56.0188 55.1177 55.3818 54.6923 55.8065 55.543C56.2311 56.3937 56.0188 58.7332 56.0188 58.7332C56.0188 58.7332 54.9571 54.6923 51.1348 55.7557L48.5867 44.2711L47.7373 38.7415Z" fill="#FF6584"/>
<path d="M42.7905 22.7822H32.5622L30.2466 17.4517H44.5272L42.7905 22.7822Z" fill="#2F2E41"/>
<path d="M31.2201 26.6828C31.4934 26.6035 31.5437 25.9476 31.3326 25.2179C31.1215 24.4882 30.7288 23.961 30.4556 24.0403C30.1824 24.1196 30.1321 24.7754 30.3432 25.5051C30.5543 26.2348 30.9469 26.7621 31.2201 26.6828Z" fill="#FFB9B9"/>
<path d="M45.0577 25.5052C45.2688 24.7755 45.2185 24.1197 44.9453 24.0404C44.672 23.9611 44.2794 24.4884 44.0683 25.2181C43.8572 25.9478 43.9075 26.6036 44.1807 26.6829C44.4539 26.7622 44.8466 26.2349 45.0577 25.5052Z" fill="#FFB9B9"/>
<path d="M43.3188 53.6116C45.4298 53.6116 47.141 51.8977 47.141 49.7834C47.141 47.6691 45.4298 45.9552 43.3188 45.9552C41.2078 45.9552 39.4966 47.6691 39.4966 49.7834C39.4966 51.8977 41.2078 53.6116 43.3188 53.6116Z" fill="#3F3D56"/>
<path opacity="0.1" d="M43.3188 53.6116C45.4298 53.6116 47.141 51.8977 47.141 49.7834C47.141 47.6691 45.4298 45.9552 43.3188 45.9552C41.2078 45.9552 39.4966 47.6691 39.4966 49.7834C39.4966 51.8977 41.2078 53.6116 43.3188 53.6116Z" fill="black"/>
<path d="M43.3186 53.2321C45.2203 53.2321 46.7618 51.6881 46.7618 49.7835C46.7618 47.8789 45.2203 46.335 43.3186 46.335C41.417 46.335 39.8755 47.8789 39.8755 49.7835C39.8755 51.6881 41.417 53.2321 43.3186 53.2321Z" fill="#3F3D56"/>
<path opacity="0.1" d="M43.1665 47.8341C43.1665 47.8341 42.2892 47.275 41.4519 47.8341C41.1918 48.0103 41.0103 48.2808 40.9455 48.5885C40.8895 48.8352 40.8899 49.0914 40.9468 49.3379C41.0037 49.5843 41.1156 49.8147 41.274 50.0117L43.1685 52.4084C43.2334 52.4919 43.3205 52.5554 43.4198 52.5917C43.5191 52.6279 43.6266 52.6354 43.73 52.6134L43.7424 52.6105C43.8172 52.5921 43.8875 52.5585 43.9489 52.5118C44.0103 52.4651 44.0615 52.4063 44.0994 52.339L45.4169 50.0217C45.6606 49.5997 45.7605 49.1097 45.7015 48.6258C45.6879 48.3586 45.5894 48.1027 45.4203 47.8956C45.2512 47.6885 45.0204 47.541 44.7616 47.4746C44.7616 47.4746 44.0039 47.1551 43.1665 47.8341Z" fill="black"/>
<path d="M39.9213 55.7386C42.0323 55.7386 43.7436 54.0246 43.7436 51.9104C43.7436 49.7961 42.0323 48.0822 39.9213 48.0822C37.8104 48.0822 36.0991 49.7961 36.0991 51.9104C36.0991 54.0246 37.8104 55.7386 39.9213 55.7386Z" fill="#3F3D56"/>
<path opacity="0.1" d="M39.9213 55.7386C42.0323 55.7386 43.7436 54.0246 43.7436 51.9104C43.7436 49.7961 42.0323 48.0822 39.9213 48.0822C37.8104 48.0822 36.0991 49.7961 36.0991 51.9104C36.0991 54.0246 37.8104 55.7386 39.9213 55.7386Z" fill="black"/>
<path d="M39.9207 55.3589C41.8223 55.3589 43.3639 53.8149 43.3639 51.9103C43.3639 50.0058 41.8223 48.4618 39.9207 48.4618C38.0191 48.4618 36.4775 50.0058 36.4775 51.9103C36.4775 53.8149 38.0191 55.3589 39.9207 55.3589Z" fill="#3F3D56"/>
<path opacity="0.1" d="M39.7696 49.9608C39.7696 49.9608 38.8923 49.4017 38.0549 49.9608C37.7949 50.137 37.6133 50.4075 37.5486 50.7152C37.4925 50.9619 37.4929 51.2181 37.5498 51.4646C37.6067 51.7111 37.7186 51.9414 37.8771 52.1384L39.7715 54.5352C39.8364 54.6187 39.9236 54.6821 40.0229 54.7184C40.1222 54.7546 40.2296 54.7622 40.333 54.7401L40.3454 54.7372C40.4202 54.7188 40.4905 54.6852 40.5519 54.6385C40.6133 54.5918 40.6645 54.533 40.7024 54.4657L42.0199 52.1485C42.2636 51.7265 42.3636 51.2364 42.3045 50.7525C42.291 50.4853 42.1924 50.2294 42.0233 50.0223C41.8542 49.8152 41.6234 49.6677 41.3646 49.6014C41.3646 49.6014 40.6069 49.2818 39.7696 49.9608Z" fill="black"/>
<path d="M37.0069 42.3393C36.9138 42.1856 36.5886 42.1895 36.5886 42.1895C36.2926 42.6301 35.5809 42.1621 35.5809 42.1621C35.0523 42.3989 34.7298 41.6442 34.7298 41.6442C34.0186 41.5377 34.1285 40.7895 34.1285 40.7895C33.7747 40.7184 33.8739 40.0776 33.8739 40.0776C33.8739 40.0776 34.0703 39.9164 33.9737 39.7984C33.916 39.6603 33.8954 39.5096 33.9138 39.3611C32.8598 39.0398 31.7284 39.0851 30.7034 39.4896C29.6784 39.8941 28.8202 40.634 28.2683 41.589C27.7165 42.5439 27.5034 43.6578 27.6638 44.7495C27.8242 45.8411 28.3487 46.8463 29.1518 47.6015C29.955 48.3568 30.9897 48.8177 32.0875 48.9092C33.1854 49.0008 34.2819 48.7177 35.1988 48.1059C36.1156 47.4941 36.7988 46.5896 37.1373 45.5396C37.4758 44.4896 37.4496 43.3557 37.063 42.3225C37.038 42.3508 37.0185 42.3586 37.0069 42.3393Z" fill="#3F3D56"/>
<path opacity="0.1" d="M37.0069 42.3393C36.9138 42.1856 36.5886 42.1895 36.5886 42.1895C36.2926 42.6301 35.5809 42.1621 35.5809 42.1621C35.0523 42.3989 34.7298 41.6442 34.7298 41.6442C34.0186 41.5377 34.1285 40.7895 34.1285 40.7895C33.7747 40.7184 33.8739 40.0776 33.8739 40.0776C33.8739 40.0776 34.0703 39.9164 33.9737 39.7984C33.916 39.6603 33.8954 39.5096 33.9138 39.3611C32.8598 39.0398 31.7284 39.0851 30.7034 39.4896C29.6784 39.8941 28.8202 40.634 28.2683 41.589C27.7165 42.5439 27.5034 43.6578 27.6638 44.7495C27.8242 45.8411 28.3487 46.8463 29.1518 47.6015C29.955 48.3568 30.9897 48.8177 32.0875 48.9092C33.1854 49.0008 34.2819 48.7177 35.1988 48.1059C36.1156 47.4941 36.7988 46.5896 37.1373 45.5396C37.4758 44.4896 37.4496 43.3557 37.063 42.3225C37.038 42.3508 37.0185 42.3586 37.0069 42.3393Z" fill="black"/>
<path d="M36.7169 42.3203C36.6284 42.174 36.3191 42.1778 36.3191 42.1778C36.0375 42.5968 35.3607 42.1517 35.3607 42.1517C34.858 42.377 34.5513 41.6591 34.5513 41.6591C33.8749 41.5578 33.9794 40.8463 33.9794 40.8463C33.6429 40.7787 33.7373 40.1693 33.7373 40.1693C33.7373 40.1693 33.9241 40.0159 33.8322 39.9037C33.7773 39.7724 33.7577 39.6291 33.7752 39.4878C32.7729 39.1823 31.6968 39.2253 30.722 39.61C29.7472 39.9947 28.931 40.6984 28.4061 41.6066C27.8813 42.5149 27.6787 43.5742 27.8312 44.6124C27.9838 45.6506 28.4825 46.6066 29.2464 47.3249C30.0102 48.0432 30.9942 48.4815 32.0384 48.5686C33.0825 48.6557 34.1254 48.3864 34.9973 47.8046C35.8693 47.2227 36.519 46.3625 36.8409 45.3639C37.1628 44.3653 37.138 43.2869 36.7703 42.3042C36.7465 42.3312 36.728 42.3386 36.7169 42.3203Z" fill="#3F3D56"/>
<path opacity="0.5" d="M28.2429 45.3057L28.0873 45.2514L28 45.1116L28.3881 44.6259L28.5437 44.6801L28.631 44.8199L28.2429 45.3057Z" fill="white"/>
<path opacity="0.5" d="M35.612 46.1288L35.4561 46.0746L35.3691 45.9348L35.7569 45.449L35.9125 45.5029L35.9998 45.6427L35.612 46.1288Z" fill="white"/>
<path opacity="0.5" d="M32.3752 43.4771L32.2196 43.4231L32.1323 43.2833L32.5201 42.7972L32.676 42.8515L32.763 42.9913L32.3752 43.4771Z" fill="white"/>
<path opacity="0.5" d="M33.2493 45.2636L33.0988 45.3303L32.9395 45.2879L32.8906 44.668L33.0412 44.6013L33.2005 44.6437L33.2493 45.2636Z" fill="white"/>
<path opacity="0.5" d="M30.713 43.742L30.609 43.8699L30.4478 43.9041L30.1235 43.3737L30.2278 43.2457L30.389 43.2115L30.713 43.742Z" fill="white"/>
<path opacity="0.5" d="M30.5304 45.2415L30.4261 45.3694L30.2652 45.4036L29.9409 44.8732L30.0449 44.7452L30.2061 44.7111L30.5304 45.2415Z" fill="white"/>
<path opacity="0.5" d="M35.0028 45.3873L34.8833 45.5008L34.719 45.5141L34.4653 44.9464L34.5851 44.8329L34.7492 44.8196L35.0028 45.3873Z" fill="white"/>
<path opacity="0.5" d="M34.1885 43.4418L34.2289 43.282L34.3605 43.1831L34.8785 43.5271L34.8381 43.687L34.7065 43.7861L34.1885 43.4418Z" fill="white"/>
<path opacity="0.5" d="M28.6814 43.6782L28.5257 43.624L28.4385 43.4842L28.8265 42.9984L28.9822 43.0524L29.0694 43.1922L28.6814 43.6782Z" fill="#FD6F8D"/>
<path opacity="0.5" d="M30.6416 42.765L30.6035 42.6049L30.6747 42.4561L31.2929 42.5219L31.3311 42.6823L31.2599 42.8311L30.6416 42.765Z" fill="#FD6F8D"/>
<path opacity="0.5" d="M33.6372 41.8532L33.668 41.6914L33.7937 41.5846L34.3309 41.8975L34.3001 42.0594L34.1744 42.1661L33.6372 41.8532Z" fill="#FD6F8D"/>
<path opacity="0.5" d="M32.4392 41.0367L32.5999 41L32.7479 41.0726L32.6759 41.6903L32.5152 41.7267L32.3672 41.6541L32.4392 41.0367Z" fill="#FD6F8D"/>
<path opacity="0.5" d="M31.337 45.9103L31.2988 45.7499L31.3697 45.6011L31.988 45.6669L32.0261 45.8273L31.9552 45.9761L31.337 45.9103Z" fill="#FD6F8D"/>
<path opacity="0.5" d="M29.0501 46.0276L28.9526 45.8945L28.96 45.7302L29.5551 45.5497L29.6528 45.6827L29.6452 45.8474L29.0501 46.0276Z" fill="#FD6F8D"/>
<path opacity="0.5" d="M35.4504 44.926L35.3151 44.8319L35.269 44.6735L35.7737 44.3105L35.909 44.4046L35.9551 44.5628L35.4504 44.926Z" fill="#FD6F8D"/>
<path opacity="0.5" d="M38.2429 51.3057L38.0873 51.2514L38 51.1116L38.3881 50.6259L38.5437 50.6801L38.631 50.8199L38.2429 51.3057Z" fill="white"/>
<path opacity="0.5" d="M45.612 52.1288L45.4561 52.0746L45.3691 51.9348L45.7569 51.449L45.9125 51.5029L45.9998 51.6427L45.612 52.1288Z" fill="white"/>
<path opacity="0.5" d="M42.3752 49.4771L42.2196 49.4231L42.1323 49.2833L42.5201 48.7972L42.676 48.8515L42.763 48.9913L42.3752 49.4771Z" fill="white"/>
<path opacity="0.5" d="M43.2493 51.2636L43.0988 51.3303L42.9395 51.2879L42.8906 50.668L43.0412 50.6013L43.2005 50.6437L43.2493 51.2636Z" fill="white"/>
<path opacity="0.5" d="M40.713 49.742L40.609 49.8699L40.4478 49.9041L40.1235 49.3737L40.2278 49.2457L40.389 49.2115L40.713 49.742Z" fill="white"/>
<path opacity="0.5" d="M40.5304 51.2415L40.4261 51.3694L40.2652 51.4036L39.9409 50.8732L40.0449 50.7452L40.2061 50.7111L40.5304 51.2415Z" fill="white"/>
<path opacity="0.5" d="M45.0028 51.3873L44.8833 51.5008L44.719 51.5141L44.4653 50.9464L44.5851 50.8329L44.7492 50.8196L45.0028 51.3873Z" fill="white"/>
<path opacity="0.5" d="M44.1885 49.4418L44.2289 49.282L44.3605 49.1831L44.8785 49.5271L44.8381 49.687L44.7065 49.7861L44.1885 49.4418Z" fill="white"/>
<path opacity="0.5" d="M38.6814 49.6782L38.5257 49.624L38.4385 49.4842L38.8265 48.9984L38.9822 49.0524L39.0694 49.1922L38.6814 49.6782Z" fill="#FD6F8D"/>
<path opacity="0.5" d="M40.6416 48.765L40.6035 48.6049L40.6747 48.4561L41.2929 48.5219L41.3311 48.6823L41.2599 48.8311L40.6416 48.765Z" fill="#FD6F8D"/>
<path opacity="0.5" d="M43.6372 47.8532L43.668 47.6914L43.7937 47.5846L44.3309 47.8975L44.3001 48.0594L44.1744 48.1661L43.6372 47.8532Z" fill="#FD6F8D"/>
<path opacity="0.5" d="M42.4392 47.0367L42.5999 47L42.7479 47.0726L42.6759 47.6903L42.5152 47.7267L42.3672 47.6541L42.4392 47.0367Z" fill="#FD6F8D"/>
<path opacity="0.5" d="M41.337 51.9103L41.2988 51.7499L41.3697 51.6011L41.988 51.6669L42.0261 51.8273L41.9552 51.9761L41.337 51.9103Z" fill="#FD6F8D"/>
<path opacity="0.5" d="M39.0501 52.0276L38.9526 51.8945L38.96 51.7302L39.5551 51.5497L39.6528 51.6827L39.6452 51.8474L39.0501 52.0276Z" fill="#FD6F8D"/>
<path opacity="0.5" d="M45.4504 50.926L45.3151 50.8319L45.269 50.6735L45.7737 50.3105L45.909 50.4046L45.9551 50.5628L45.4504 50.926Z" fill="#FD6F8D"/>
<path opacity="0.1" d="M29.6196 44.7253L29.722 44.8963L29.9269 45.2383L29.9953 45.4778L29.8585 45.683L30.0295 46.0935L30.0976 46.333L29.9611 46.47L30.2344 46.6752" fill="black"/>
<path opacity="0.1" d="M34.641 43.2202V43.4939L34.4702 43.9386L34.3677 44.1779L34.5384 44.4859L34.6068 44.6911L34.8801 44.7936L34.9824 44.9648V45.3753" fill="black"/>
<path opacity="0.1" d="M36.3825 43.494L36.1093 43.6651C36.1093 43.6651 35.9727 43.7335 35.9727 43.7677V44.0413" fill="black"/>
<path opacity="0.1" d="M35.1528 42.5361L35.2212 42.8781L35.1528 43.1176" fill="black"/>
<path opacity="0.1" d="M35.4264 45.6147L35.2215 45.9225L34.9824 46.1277V46.2647L35.1192 46.4357V46.6409L35.0166 46.8462" fill="black"/>
<path opacity="0.1" d="M33.48 39.7997H33.1385L32.8652 40.0392L32.4212 40.2786L32.2163 40.4496V40.5181L31.7723 40.7574L31.6357 40.9969" fill="black"/>
<path opacity="0.1" d="M29.7906 40.3811L29.4833 40.9968L29.3808 41.2363L29.1417 41.5441C29.1417 41.5441 28.971 41.852 28.9368 41.8862C28.8495 41.9298 28.758 41.9642 28.6636 41.9888L29.0051 42.3309" fill="black"/>
<path opacity="0.1" d="M28.4246 42.7413L28.3563 43.186L28.4246 43.4598V43.9387L28.2197 44.8279L28.4246 45.0674L28.6637 45.3754" fill="black"/>
<path opacity="0.1" d="M28.937 42.9465L29.1419 43.0493L29.2785 43.494L29.5518 43.4255L29.6883 43.665" fill="black"/>
<path opacity="0.1" d="M32.6938 47.3933L33.2402 47.325L33.4793 47.0856H33.821" fill="black"/>
<path opacity="0.1" d="M29.3809 46.6754L29.5858 46.9149L29.9272 47.0174L30.1663 47.0859L30.2347 47.4621" fill="black"/>
<path opacity="0.1" d="M33.4111 45.5122L33.6502 45.3412L33.7526 45.0675L33.9575 45.0333L34.0601 44.6913" fill="black"/>
<path d="M22.2549 53.8418L21.6179 55.5432C21.6179 55.5432 21.1932 61.0729 23.7413 60.8602C26.2895 60.6475 27.7759 57.4573 27.7759 57.4573C27.7759 57.4573 26.2895 53.4164 24.5907 53.8418C22.8919 54.2672 22.2549 53.8418 22.2549 53.8418Z" fill="#FF6584"/>
<path d="M24.3793 54.9053C24.3793 54.9053 23.1052 58.7335 24.5917 58.7335C26.0781 58.7335 28.8386 56.3941 29.0509 54.48C29.2633 52.5659 33.0855 45.3348 30.325 45.9728C27.5645 46.6109 26.2904 51.9278 26.2904 51.9278L24.3793 54.9053Z" fill="#FBBEBE"/>
<path d="M54.7446 55.1179L56.0712 57.3384C56.0712 57.3384 56.6557 61.4983 53.6829 61.4983C50.7101 61.4983 46.4632 57.4574 46.4632 57.4574C46.4632 57.4574 44.3397 56.6067 43.0656 56.8194C41.7916 57.032 34.7841 56.8194 37.757 53.2038C40.7298 49.5883 45.8261 53.2038 45.8261 53.2038L51.1348 55.756L53.8953 54.2672L54.7446 55.1179Z" fill="#FBBEBE"/>
<path d="M52.9394 52.2465L50.8159 55.6494C50.8159 55.6494 55.6999 56.2874 56.1246 57.3508C56.5493 58.4142 54.2134 51.8212 54.2134 51.8212L52.9394 52.2465Z" fill="#FF6584"/>
</g>
<defs>
<clipPath id="clip0">
<rect width="172" height="144" fill="white"/>
</clipPath>
</defs>
</svg>
