<svg width="128" height="127" viewBox="0 0 128 127" fill="none" xmlns="http://www.w3.org/2000/svg">
<path d="M63.6334 126.482C98.6666 126.482 127.067 98.1679 127.067 63.2409C127.067 28.3139 98.6666 0 63.6334 0C28.6002 0 0.200195 28.3139 0.200195 63.2409C0.200195 98.1679 28.6002 126.482 63.6334 126.482Z" fill="#EEEEEE"/>
<path opacity="0.2" d="M63.6331 109.401C52.9214 109.401 42.5411 105.698 34.2609 98.9231C25.9807 92.1482 20.3129 82.7206 18.2232 72.2465C16.1335 61.7725 17.7512 50.9001 22.8007 41.4819C27.8502 32.0637 36.019 24.6824 45.9154 20.5957C55.8117 16.5089 66.8232 15.9696 77.0736 19.0697C87.3241 22.1697 96.1792 28.7173 102.13 37.5967C108.081 46.4762 110.76 57.1382 109.71 67.7659C108.66 78.3937 103.947 88.3298 96.3723 95.8812C92.0829 100.181 86.9807 103.59 81.361 105.91C75.7413 108.231 69.7158 109.418 63.6331 109.401ZM63.6331 19.9283C39.6776 19.9283 20.1885 39.3584 20.1885 63.2412C20.1885 87.1239 39.6776 106.554 63.6331 106.554C87.5884 106.554 107.078 87.1239 107.078 63.2412C107.078 39.3584 87.5884 19.9283 63.6331 19.9283Z" fill="#9E9E9E"/>
<path d="M63.6331 107.977C88.4154 107.977 108.505 87.9479 108.505 63.2407C108.505 38.5335 88.4154 18.5044 63.6331 18.5044C38.8508 18.5044 18.7607 38.5335 18.7607 63.2407C18.7607 87.9479 38.8508 107.977 63.6331 107.977Z" fill="#EEEEEE"/>
<path d="M93.6172 64.6647L93.6573 64.6647C95.0228 64.6762 96.36 64.277 97.4946 63.5194C98.6291 62.7617 99.5083 61.6807 100.017 60.4175C101.064 57.7789 101.592 54.964 101.571 52.1266C101.5 40.1167 91.6999 30.264 79.6544 30.0979C74.5245 30.0263 69.5276 31.7254 65.5107 34.9073C61.4939 38.0891 58.7042 42.5579 57.6147 47.5561C56.5251 52.5543 57.2027 57.7743 59.5326 62.3313C61.8624 66.8883 65.7012 70.5019 70.3982 72.5595C71.6395 73.1074 73.0178 73.2686 74.3526 73.0218C75.6873 72.7751 76.916 72.132 77.8777 71.1768C79.9404 69.1095 82.3932 67.4698 85.0945 66.3521C87.7959 65.2345 90.6925 64.661 93.6172 64.6647Z" fill="white"/>
<path d="M82.1943 57.9545C86.2496 57.9545 89.537 54.677 89.537 50.634C89.537 46.591 86.2496 43.3135 82.1943 43.3135C78.139 43.3135 74.8516 46.591 74.8516 50.634C74.8516 54.677 78.139 57.9545 82.1943 57.9545Z" fill="black" fill-opacity="0.24"/>
<path d="M66.2361 49.8097C66.7138 49.8097 67.1011 49.4236 67.1011 48.9473C67.1011 48.4711 66.7138 48.085 66.2361 48.085C65.7584 48.085 65.3711 48.4711 65.3711 48.9473C65.3711 49.4236 65.7584 49.8097 66.2361 49.8097Z" fill="#E5E5E5"/>
<path d="M70.8455 40.8732C71.3232 40.8732 71.7105 40.4871 71.7105 40.0108C71.7105 39.5345 71.3232 39.1484 70.8455 39.1484C70.3678 39.1484 69.9805 39.5345 69.9805 40.0108C69.9805 40.4871 70.3678 40.8732 70.8455 40.8732Z" fill="#E5E5E5"/>
<path d="M70.822 65.7297C71.2998 65.7297 71.6871 65.3435 71.6871 64.8673C71.6871 64.391 71.2998 64.0049 70.822 64.0049C70.3443 64.0049 69.957 64.391 69.957 64.8673C69.957 65.3435 70.3443 65.7297 70.822 65.7297Z" fill="#E5E5E5"/>
<path d="M87.9549 39.092C88.4326 39.092 88.8199 38.7059 88.8199 38.2296C88.8199 37.7533 88.4326 37.3672 87.9549 37.3672C87.4771 37.3672 87.0898 37.7533 87.0898 38.2296C87.0898 38.7059 87.4771 39.092 87.9549 39.092Z" fill="#E5E5E5"/>
<path d="M53.1342 88.4411L53.1163 88.4769C52.4952 89.693 52.2538 91.0676 52.4239 92.4212C52.5939 93.7748 53.1673 95.0447 54.0693 96.0652C55.9607 98.182 58.242 99.9132 60.7889 101.164C71.5616 106.474 84.7579 102.117 90.2955 91.4186C92.6546 86.8627 93.3706 81.6336 92.322 76.6176C91.2735 71.6017 88.5249 67.1075 84.5423 63.8969C80.5597 60.6863 75.5881 58.9569 70.4702 59.0018C65.3523 59.0468 60.4031 60.8633 56.4616 64.1434C55.4162 65.0084 54.6554 66.169 54.279 67.4731C53.9025 68.7772 53.9279 70.1638 54.3519 71.4512C55.2779 74.2209 55.647 77.148 55.4381 80.064C55.2291 82.98 54.4461 85.8271 53.1342 88.4411Z" fill="white"/>
<path d="M64.2459 81.2273C62.4316 84.8541 63.892 89.2605 67.5079 91.0693C71.1237 92.8781 75.5256 91.4044 77.3399 87.7776C79.1542 84.1508 77.6938 79.7444 74.078 77.9356C70.4622 76.1268 66.0602 77.6005 64.2459 81.2273Z" fill="black" fill-opacity="0.24"/>
<path d="M78.6696 70.5991C78.4559 71.0264 78.6279 71.5455 79.0539 71.7586C79.4798 71.9717 79.9984 71.798 80.2121 71.3708C80.4259 70.9435 80.2538 70.4244 79.8279 70.2113C79.4019 69.9983 78.8833 70.1719 78.6696 70.5991Z" fill="#E5E5E5"/>
<path d="M84.5998 78.7195C84.386 79.1468 84.5581 79.6659 84.984 79.8789C85.41 80.092 85.9286 79.9184 86.1423 79.4912C86.356 79.0639 86.184 78.5448 85.758 78.3317C85.3321 78.1186 84.8135 78.2922 84.5998 78.7195Z" fill="#E5E5E5"/>
<path d="M62.38 67.5781C62.1663 68.0054 62.3384 68.5245 62.7643 68.7376C63.1903 68.9507 63.7088 68.777 63.9226 68.3498C64.1363 67.9225 63.9643 67.4034 63.5383 67.1903C63.1124 66.9773 62.5938 67.1509 62.38 67.5781Z" fill="#E5E5E5"/>
<path d="M78.5382 94.8181C78.3245 95.2454 78.4966 95.7645 78.9225 95.9776C79.3485 96.1907 79.867 96.017 80.0808 95.5898C80.2945 95.1625 80.1225 94.6434 79.6965 94.4303C79.2706 94.2173 78.752 94.3909 78.5382 94.8181Z" fill="#E5E5E5"/>
<path d="M37.1346 43.2594C36.7943 42.5949 36.5887 41.87 36.5295 41.1263C36.4704 40.3825 36.5589 39.6344 36.7899 38.9248C37.021 38.2151 37.39 37.5578 37.876 36.9905C38.362 36.4231 38.9554 35.9568 39.6223 35.6182C40.2892 35.2797 41.0164 35.0755 41.7625 35.0173C42.5086 34.9591 43.2589 35.0481 43.9704 35.2792C44.682 35.5103 45.3409 35.8789 45.9095 36.3641C46.478 36.8492 46.9451 37.4413 47.284 38.1065L59.9616 62.9259C60.3019 63.5904 60.5075 64.3152 60.5667 65.059C60.6258 65.8027 60.5373 66.5508 60.3063 67.2605C60.0753 67.9701 59.7062 68.6274 59.2202 69.1948C58.7342 69.7621 58.1408 70.2284 57.4739 70.567C56.807 70.9056 56.0798 71.1098 55.3337 71.168C54.5876 71.2261 53.8373 71.1371 53.1258 70.906C52.4142 70.675 51.7553 70.3063 51.1867 69.8212C50.6182 69.3361 50.1511 68.744 49.8122 68.0788L37.1346 43.2594Z" fill="#CECECE"/>
<path opacity="0.2" d="M38.548 46.0289L37.9629 44.8833C40.883 42.6213 44.3121 40.9576 48.1123 39.7305L48.6975 40.876C44.5844 41.7299 41.0852 43.3101 38.548 46.0289Z" fill="black"/>
<path opacity="0.2" d="M41.2785 51.3746L40.6934 50.2291C43.6135 47.967 47.0426 46.3033 50.8428 45.0762L51.4279 46.2217C47.3149 47.0756 43.8157 48.6559 41.2785 51.3746Z" fill="black"/>
<path opacity="0.2" d="M44.0089 56.7193L43.4238 55.5738C46.344 53.3117 49.773 51.6481 53.5733 50.4209L54.1584 51.5664C50.0454 52.4203 46.5461 54.0006 44.0089 56.7193Z" fill="black"/>
<path opacity="0.2" d="M46.7394 62.065L46.1543 60.9195C49.0744 58.6574 52.5035 56.9938 56.3037 55.7666L56.8889 56.9121C52.7758 57.766 49.2766 59.3463 46.7394 62.065Z" fill="black"/>
<path opacity="0.2" d="M49.4699 67.4107L48.8848 66.2652C51.8049 64.0031 55.234 62.3395 59.0342 61.1123L59.6193 62.2578C55.5063 63.1117 52.0071 64.692 49.4699 67.4107Z" fill="black"/>
<path d="M27.6226 52.5518C27.2824 51.8873 27.0769 51.1625 27.0178 50.4188C26.9587 49.6751 27.0472 48.927 27.2783 48.2174C27.5094 47.5079 27.8784 46.8506 28.3644 46.2833C28.8504 45.716 29.4438 45.2498 30.1106 44.9112C30.7774 44.5727 31.5046 44.3685 32.2507 44.3103C32.9967 44.2521 33.7469 44.341 34.4584 44.5721C35.17 44.8031 35.8288 45.1717 36.3974 45.6567C36.966 46.1418 37.4331 46.7338 37.772 47.3989L50.4496 72.2183C51.1331 73.5599 51.2545 75.1172 50.787 76.548C50.3195 77.9787 49.3014 79.1659 47.9565 79.8488C46.6115 80.5316 45.0496 80.6542 43.614 80.1897C42.1784 79.7251 40.9865 78.7114 40.3002 77.3712L27.6226 52.5518Z" fill="#CECECE"/>
<path opacity="0.2" d="M29.0363 55.3199L28.4512 54.1744C31.3713 51.9123 34.8004 50.2487 38.6006 49.0215L39.1858 50.167C35.0727 51.0209 31.5735 52.6012 29.0363 55.3199Z" fill="black"/>
<path opacity="0.2" d="M31.7668 60.6656L31.1816 59.5201C34.1018 57.258 37.5309 55.5944 41.3311 54.3672L41.9162 55.5127C37.8032 56.3666 34.304 57.9469 31.7668 60.6656Z" fill="black"/>
<path opacity="0.2" d="M34.4972 66.0113L33.9121 64.8658C36.8323 62.6037 40.2613 60.9401 44.0616 59.7129L44.6467 60.8584C40.5337 61.7123 37.0344 63.2926 34.4972 66.0113Z" fill="black"/>
<path opacity="0.2" d="M37.2297 71.357L36.6445 70.2115C39.5647 67.9494 42.9938 66.2858 46.794 65.0586L47.3791 66.2041C43.2661 67.058 39.7668 68.6383 37.2297 71.357Z" fill="black"/>
<path opacity="0.2" d="M39.9582 76.7027L39.373 75.5572C42.2932 73.2951 45.7223 71.6315 49.5225 70.4043L50.1076 71.5498C45.9946 72.4037 42.4954 73.984 39.9582 76.7027Z" fill="black"/>
<path d="M44.5525 48.5304C45.0302 48.5304 45.4175 48.1443 45.4175 47.6681C45.4175 47.1918 45.0302 46.8057 44.5525 46.8057C44.0748 46.8057 43.6875 47.1918 43.6875 47.6681C43.6875 48.1443 44.0748 48.5304 44.5525 48.5304Z" fill="#E5E5E5"/>
<path d="M38.9392 60.5871C39.417 60.5871 39.8042 60.201 39.8042 59.7247C39.8042 59.2484 39.417 58.8623 38.9392 58.8623C38.4615 58.8623 38.0742 59.2484 38.0742 59.7247C38.0742 60.201 38.4615 60.5871 38.9392 60.5871Z" fill="#E5E5E5"/>
<path d="M45.2615 72.9914C45.7392 72.9914 46.1265 72.6053 46.1265 72.129C46.1265 71.6527 45.7392 71.2666 45.2615 71.2666C44.7838 71.2666 44.3965 71.6527 44.3965 72.129C44.3965 72.6053 44.7838 72.9914 45.2615 72.9914Z" fill="#E5E5E5"/>
</svg>
