<svg xmlns="http://www.w3.org/2000/svg" width="386.781" height="172" viewBox="0 0 386.781 172">
    <defs>
        <linearGradient id="prefix__linear-gradient" x1=".459" x2=".459" y1=".999" y2="-.006" gradientUnits="objectBoundingBox">
            <stop offset="0" stop-color="gray" stop-opacity=".251"/>
            <stop offset=".54" stop-color="gray" stop-opacity=".122"/>
            <stop offset="1" stop-color="gray" stop-opacity=".102"/>
        </linearGradient>
        <style>
            .prefix__cls-1,.prefix__cls-4{fill:#6c63ff}.prefix__cls-1,.prefix__cls-2,.prefix__cls-5{opacity:.1}.prefix__cls-3{fill:#3f3d56}.prefix__cls-6{fill:#d0d2d5}.prefix__cls-13{fill:#a20202}.prefix__cls-15{fill:#2f2e41}.prefix__cls-17{fill:#fbbebe}
        </style>
    </defs>
    <g id="prefix__Group_1368" data-name="Group 1368" transform="translate(7966 -3562)">
        <g id="prefix__Group_1367" data-name="Group 1367" transform="translate(-7966 3562)">
            <ellipse id="prefix__Ellipse_33" cx="93.025" cy="7.223" class="prefix__cls-1" data-name="Ellipse 33" rx="93.025" ry="7.223" transform="translate(9.55 137.432)"/>
            <g id="prefix__Group_1362" class="prefix__cls-2" data-name="Group 1362" transform="translate(148.806 20.144)">
                <path id="prefix__Path_1324" d="M848.364 458.676c-.556-1.688-2.81-2.465-5.034-1.734a5.417 5.417 0 00-.926.4c-.142-.039-.289-.074-.438-.1a4.91 4.91 0 00.138-1.486 5.384 5.384 0 002.386-4.7 5.391 5.391 0 002.377-4.7 5.2 5.2 0 001.8-2.04c1.073-2.123.628-4.509-.994-5.33s-3.809.236-4.881 2.36a5.185 5.185 0 00-.576 2.659 5.391 5.391 0 00-2.377 4.7 5.391 5.391 0 00-2.377 4.7 5.393 5.393 0 00-2.386 4.7 5.2 5.2 0 00-1.8 2.04 5.574 5.574 0 00-.455 1.256 4.636 4.636 0 00-.972-1.035 5.549 5.549 0 00-.219-.985c-.731-2.226-2.692-3.583-4.378-3.027s-2.465 2.808-1.734 5.034a5.05 5.05 0 001.655 2.425 5.561 5.561 0 00.219.985 4.816 4.816 0 002.222 2.791 5.088 5.088 0 00-.182.854 13498.9 13498.9 0 00-3.3 6.529 5.393 5.393 0 00-1.094 1.491c-1.075 2.123-.63 4.511.992 5.33s3.808-.234 4.883-2.36a5.388 5.388 0 00.547-1.771 13313.839 13313.839 0 003.3-6.529 717.6 717.6 0 013.285-6.534 5.277 5.277 0 00.742-.876 5.135 5.135 0 002.686-.169 5.417 5.417 0 00.926-.4 5.078 5.078 0 002.937-.105c2.218-.722 3.582-2.684 3.028-4.373z" class="prefix__cls-3" data-name="Path 1324" transform="translate(-812.203 -375.323)"/>
                <g id="prefix__Group_1360" class="prefix__cls-2" data-name="Group 1360" transform="translate(12.482 69.285)">
                    <path id="prefix__Path_1325" d="M912.216 499.53a4.7 4.7 0 01-.753.6 5.034 5.034 0 01-.243 1.845 5.726 5.726 0 00.46-.751 5.393 5.393 0 00.536-1.694z" data-name="Path 1325" transform="translate(-892.462 -492.116)"/>
                    <path id="prefix__Path_1326" d="M923.076 478.06a4.706 4.706 0 01-.753.6 5.034 5.034 0 01-.243 1.845 5.615 5.615 0 00.46-.753 5.44 5.44 0 00.536-1.694z" data-name="Path 1326" transform="translate(-900.945 -475.346)"/>
                    <path id="prefix__Path_1327" d="M897.212 466.625a4.8 4.8 0 01.037-.965 5.458 5.458 0 00-1.049 1.44 5.607 5.607 0 00-.333.816 4.978 4.978 0 011.345-1.291z" data-name="Path 1327" transform="translate(-880.472 -465.66)"/>
                    <path id="prefix__Path_1328" d="M833.07 594.235a5.161 5.161 0 01.646-.74 5.01 5.01 0 01.19-.876 5.491 5.491 0 00-.5.812 5.607 5.607 0 00-.335.8z" data-name="Path 1328" transform="translate(-831.417 -564.831)"/>
                    <path id="prefix__Path_1329" d="M840.61 579.413a5.162 5.162 0 01.646-.74 5.026 5.026 0 01.182-.854 5.625 5.625 0 00-.482.786 5.861 5.861 0 00-.346.808z" data-name="Path 1329" transform="translate(-837.307 -553.27)"/>
                    <path id="prefix__Path_1330" d="M901.729 520.815a4.559 4.559 0 01-.751.6 4.913 4.913 0 01-.138 1.486 4.122 4.122 0 01.438.1 5.42 5.42 0 01.926-.4c2.228-.731 4.481.046 5.034 1.734a2.557 2.557 0 01.07 1.313 3.006 3.006 0 00.722-2.876c-.556-1.688-2.81-2.465-5.034-1.734a5.426 5.426 0 00-.926.4c-.142-.039-.289-.074-.438-.1.042-.175.068-.348.097-.523z" data-name="Path 1330" transform="translate(-884.354 -508.702)"/>
                    <path id="prefix__Path_1331" d="M826.358 607.49a5.494 5.494 0 00-.5.812 5.808 5.808 0 00-.337.819 5.362 5.362 0 01.657-.744 5.016 5.016 0 01.18-.887z" data-name="Path 1331" transform="translate(-825.52 -576.446)"/>
                    <path id="prefix__Path_1332" d="M886.3 488.1a4.812 4.812 0 01.037-.965 5.457 5.457 0 00-1.046 1.438 5.615 5.615 0 00-.333.816 4.98 4.98 0 011.342-1.289z" data-name="Path 1332" transform="translate(-871.95 -482.431)"/>
                    <path id="prefix__Path_1333" d="M874.619 576.71a5.313 5.313 0 01-.219.959 5.84 5.84 0 00.458-.753 5.582 5.582 0 00.357-.875 5.3 5.3 0 01-.596.669z" data-name="Path 1333" transform="translate(-863.701 -551.88)"/>
                    <path id="prefix__Path_1334" d="M859.539 606.53a5.288 5.288 0 01-.219.959 5.628 5.628 0 00.46-.753 5.8 5.8 0 00.357-.876 5.165 5.165 0 01-.598.67z" data-name="Path 1334" transform="translate(-851.922 -575.173)"/>
                    <path id="prefix__Path_1335" d="M867.079 591.657a5.275 5.275 0 01-.219.959 5.833 5.833 0 00.468-.74 5.586 5.586 0 00.357-.876 5.3 5.3 0 01-.606.657z" data-name="Path 1335" transform="translate(-857.811 -563.565)"/>
                    <path id="prefix__Path_1336" d="M882.159 561.745a5.253 5.253 0 01-.219.956 5.664 5.664 0 00.457-.751 5.572 5.572 0 00.359-.891 5.084 5.084 0 01-.597.686z" data-name="Path 1336" transform="translate(-869.591 -540.179)"/>
                    <path id="prefix__Path_1337" d="M829.68 520.419c1.69-.554 3.651.8 4.378 3.027a5.63 5.63 0 01.219.987 4.635 4.635 0 01.972 1.035 5.587 5.587 0 01.455-1.259c.077-.149.16-.291.245-.438a4.611 4.611 0 00-.876-.915 5.55 5.55 0 00-.219-.985c-.731-2.226-2.692-3.583-4.378-3.027a3 3 0 00-1.887 2.283 2.559 2.559 0 011.091-.708z" data-name="Path 1337" transform="translate(-827.918 -507.107)"/>
                    <path id="prefix__Path_1338" d="M864.582 531.043a4.777 4.777 0 01.039-.963 5.413 5.413 0 00-1.048 1.438 5.492 5.492 0 00-.333.814 5.034 5.034 0 011.342-1.289z" data-name="Path 1338" transform="translate(-854.984 -515.98)"/>
                    <path id="prefix__Path_1339" d="M875.442 509.563a4.782 4.782 0 01.039-.963 5.367 5.367 0 00-1.048 1.436 5.615 5.615 0 00-.333.816 4.98 4.98 0 011.342-1.289z" data-name="Path 1339" transform="translate(-863.467 -499.201)"/>
                    <path id="prefix__Path_1340" d="M852 621.409a5.3 5.3 0 01-.219.961 5.632 5.632 0 00.816-1.639 5.162 5.162 0 01-.597.678z" data-name="Path 1340" transform="translate(-846.032 -586.788)"/>
                </g>
                <path id="prefix__Path_1341" d="M915.846 403.409a5.183 5.183 0 001.8-2.04c1.075-2.123.63-4.511-.992-5.332s-3.808.236-4.883 2.362a5.183 5.183 0 00-.573 2.666 5.391 5.391 0 00-2.377 4.7 5.168 5.168 0 00-1.8 2.04 5.406 5.406 0 00-.331.808 4.564 4.564 0 012.357-1.751 2.679 2.679 0 003.4 1.716 4.564 4.564 0 010 2.935 5.568 5.568 0 00.455-.744 5.183 5.183 0 00.573-2.659 5.378 5.378 0 002.377-4.7z" class="prefix__cls-3" data-name="Path 1341" transform="translate(-876.441 -341.774)"/>
                <path id="prefix__Path_1342" d="M925.083 186.493a15.76 15.76 0 001.909-1.057l-7.076-5.17 8.318 4.284a15.788 15.788 0 005.91-11.012l-14.135.144 14.166-2.368a15.76 15.76 0 10-31.208 4 15.779 15.779 0 00-2.9 1.751l7.387 10.272-8.869-8.992a15.777 15.777 0 00-4.415 14.361 15.76 15.76 0 1022.118 11.185 15.759 15.759 0 008.795-17.398z" class="prefix__cls-4" data-name="Path 1342" transform="translate(-859.552 -154.985)"/>
                <path id="prefix__Path_1343" d="M895.576 274.455a15.709 15.709 0 00-1.39 10.224 15.76 15.76 0 1022.114 11.185c3.1-1.436-19.932-22.987-20.724-21.409z" class="prefix__cls-5" data-name="Path 1343" transform="translate(-859.568 -246.957)"/>
                <circle id="prefix__Ellipse_34" cx="2.34" cy="2.34" r="2.34" class="prefix__cls-4" data-name="Ellipse 34" transform="translate(51.428)"/>
                <circle id="prefix__Ellipse_35" cx="2.34" cy="2.34" r="2.34" class="prefix__cls-4" data-name="Ellipse 35" transform="translate(65.095 1.502)"/>
                <circle id="prefix__Ellipse_36" cx="2.34" cy="2.34" r="2.34" class="prefix__cls-4" data-name="Ellipse 36" transform="translate(70.366 22.527)"/>
                <circle id="prefix__Ellipse_37" cx="2.34" cy="2.34" r="2.34" class="prefix__cls-4" data-name="Ellipse 37" transform="translate(63.252 33.027)"/>
                <circle id="prefix__Ellipse_38" cx="2.34" cy="2.34" r="2.34" class="prefix__cls-4" data-name="Ellipse 38" transform="translate(53.533 54.834)"/>
                <circle id="prefix__Ellipse_39" cx="2.34" cy="2.34" r="2.34" class="prefix__cls-5" data-name="Ellipse 39" transform="translate(53.533 54.834)"/>
                <circle id="prefix__Ellipse_40" cx="2.34" cy="2.34" r="2.34" class="prefix__cls-4" data-name="Ellipse 40" transform="translate(31.925 30.136)"/>
                <circle id="prefix__Ellipse_41" cx="2.34" cy="2.34" r="2.34" class="prefix__cls-5" data-name="Ellipse 41" transform="translate(31.925 30.136)"/>
                <path id="prefix__Path_1344" d="M907.064 455.245c-1.556-.786-2.027-3.012-1.118-5.065-.048.083-.094.169-.138.258-1.075 2.123-.63 4.509.992 5.33s3.808-.236 4.881-2.36c.046-.088.085-.177.125-.265-1.115 1.951-3.188 2.89-4.742 2.102z" class="prefix__cls-5" data-name="Path 1344" transform="translate(-875.294 -384.283)"/>
                <path id="prefix__Path_1345" d="M896.5 476.117c-1.554-.786-2.027-3.012-1.116-5.067-.048.085-.1.171-.14.258-1.075 2.123-.63 4.511.992 5.33s3.809-.234 4.883-2.36c.044-.088.085-.175.125-.265-1.113 1.951-3.184 2.887-4.744 2.104z" class="prefix__cls-5" data-name="Path 1345" transform="translate(-867.045 -400.585)"/>
                <path id="prefix__Path_1346" d="M885.946 496.995c-1.554-.786-2.027-3.012-1.116-5.065-.048.083-.1.169-.14.258-1.075 2.123-.628 4.509.994 5.33s3.806-.236 4.881-2.36c.044-.088.085-.177.125-.265-1.115 1.951-3.19 2.89-4.744 2.102z" class="prefix__cls-5" data-name="Path 1346" transform="translate(-858.799 -416.895)"/>
                <path id="prefix__Path_1347" d="M875.422 517.925c-1.556-.786-2.027-3.012-1.118-5.065-.048.083-.094.169-.14.256-1.073 2.123-.628 4.511.994 5.332s3.809-.236 4.881-2.362c.046-.088.085-.175.125-.265-1.122 1.94-3.195 2.879-4.742 2.104z" class="prefix__cls-5" data-name="Path 1347" transform="translate(-850.577 -433.244)"/>
                <path id="prefix__Path_1348" d="M864.834 538.745c-1.556-.786-2.027-3.012-1.118-5.065-.048.083-.094.169-.138.258-1.075 2.123-.63 4.509.992 5.33s3.809-.236 4.883-2.36c.044-.088.085-.177.125-.265-1.113 1.951-3.19 2.89-4.744 2.102z" class="prefix__cls-5" data-name="Path 1348" transform="translate(-842.307 -449.507)"/>
                <path id="prefix__Path_1349" d="M854.274 559.625c-1.554-.786-2.027-3.012-1.116-5.065-.048.083-.1.169-.14.256-1.075 2.123-.63 4.511.994 5.332s3.8-.239 4.892-2.362c.044-.088.085-.175.125-.265-1.129 1.951-3.19 2.89-4.755 2.104z" class="prefix__cls-5" data-name="Path 1349" transform="translate(-834.059 -465.816)"/>
                <path id="prefix__Path_1350" d="M843.72 580.495c-1.554-.786-2.027-3.012-1.116-5.065-.048.085-.094.169-.14.258-1.073 2.123-.628 4.509.994 5.33s3.809-.236 4.881-2.36c.046-.088.085-.177.125-.265-1.115 1.951-3.188 2.89-4.744 2.102z" class="prefix__cls-5" data-name="Path 1350" transform="translate(-825.816 -482.118)"/>
                <path id="prefix__Path_1351" d="M833.164 601.375c-1.556-.786-2.027-3.012-1.118-5.065q-.072.125-.138.256c-1.075 2.123-.63 4.511.992 5.332s3.809-.236 4.883-2.362c.044-.088.083-.175.123-.265-1.115 1.951-3.188 2.881-4.742 2.104z" class="prefix__cls-5" data-name="Path 1351" transform="translate(-817.569 -498.428)"/>
                <path id="prefix__Path_1352" d="M826.224 615.087c-1.554-.788-2.027-3.012-1.116-5.067-.048.085-.1.171-.14.258-1.075 2.123-.63 4.511.992 5.33s3.809-.234 4.883-2.36c.044-.088.085-.175.125-.265-1.117 1.951-3.19 2.89-4.744 2.104z" class="prefix__cls-5" data-name="Path 1352" transform="translate(-812.148 -509.137)"/>
                <path id="prefix__Path_1353" d="M941.448 498.49a8.183 8.183 0 00.438-2.143 1.169 1.169 0 10-.177-2.325 8.166 8.166 0 00-4.3-5.54 1.17 1.17 0 00-2.088-1.055 1.094 1.094 0 00-.105.313 15.189 15.189 0 01-9.344 2.093l-.948 4.314-.057-4.159a8.191 8.191 0 104.378 15.76 1.156 1.156 0 00.492.473 1.169 1.169 0 001.6-1.506 25.393 25.393 0 019.655-5.2l-4.41-.742z" class="prefix__cls-4" data-name="Path 1353" transform="translate(-885.612 -412.876)"/>
                <g id="prefix__Group_1361" class="prefix__cls-2" data-name="Group 1361" transform="translate(32.808 76.642)">
                    <path id="prefix__Path_1354" d="M934.6 510.337a38.851 38.851 0 01-3.776-7.138 29.859 29.859 0 00-1.547-2.924l-.862-1c-.144.123-.289.25-.438.383a8.239 8.239 0 00-2.149-.064l-.948 4.314-.057-4.159A8.191 8.191 0 10929.2 515.5a1.156 1.156 0 00.493.473 1.169 1.169 0 001.6-1.506 6.02 6.02 0 015.962-1.585 11.535 11.535 0 01-2.655-2.545z" data-name="Path 1354" transform="translate(-918.381 -499.27)"/>
                </g>
                <path id="prefix__Path_1355" d="M788.678 448.767a1.169 1.169 0 00-1.046-1.7 8.179 8.179 0 00-2.561-4.559 8.212 8.212 0 00.241-2.561l-4.3-.733 4.176-.263a8.326 8.326 0 00-.309-1.156 1.194 1.194 0 00.385-.438 1.171 1.171 0 00-1.442-1.628A8.191 8.191 0 00769.2 442.5a1.149 1.149 0 00-.582.547 1.169 1.169 0 001.477 1.613 8.215 8.215 0 001.552 1.893 8.187 8.187 0 00.381 5.2l5.768-1.5-5.144 2.705a8.191 8.191 0 0015.083-3.559 1.167 1.167 0 00.943-.632z" class="prefix__cls-4" data-name="Path 1355" transform="translate(-768.494 -370.296)"/>
                <path id="prefix__Path_1356" d="M799.023 483.837a1.169 1.169 0 00-1.046-1.7 8.179 8.179 0 00-2.561-4.559c.035-.138.066-.274.092-.411a2.886 2.886 0 00-.422.374c-.777.851-1.175 2-1.944 2.856a5.6 5.6 0 01-3.618 1.688 13.776 13.776 0 01-4.056-.326 11.7 11.7 0 00-3.353-.366 1.877 1.877 0 00-.32.042c.066.063.131.127.2.188a8.187 8.187 0 00.381 5.2l5.768-1.5-5.144 2.71a8.191 8.191 0 0015.083-3.559 1.167 1.167 0 00.94-.637z" class="prefix__cls-5" data-name="Path 1356" transform="translate(-778.839 -405.366)"/>
            </g>
            <g id="prefix__Group_1365" class="prefix__cls-2" data-name="Group 1365" transform="translate(0 69.909)">
                <path id="prefix__Path_1357" d="M176.558 532.419a1.935 1.935 0 012.537-.876 2.794 2.794 0 01.466.2c.072-.02.147-.037.219-.05a2.464 2.464 0 01-.07-.749 2.727 2.727 0 01-1.2-2.368 7.956 7.956 0 00-2.1-3.395 1.719 1.719 0 112.961-1.5 2.627 2.627 0 01.289 1.342 7296.266 7296.266 0 012.395 4.734 2.708 2.708 0 011.2 2.366 2.626 2.626 0 01.908 1.029 2.772 2.772 0 01.219.635 2.333 2.333 0 01.488-.523 2.754 2.754 0 01.114-.5 1.685 1.685 0 113.084 1 2.554 2.554 0 01-.834 1.224 2.772 2.772 0 01-.114.495A2.43 2.43 0 01186 536.9a2.814 2.814 0 01.092.438 2.751 2.751 0 01.554.751 2.7 2.7 0 01.276.893 2.748 2.748 0 01.556.751 2.793 2.793 0 00.832 1.646 1.718 1.718 0 11-2.959 1.495 2.732 2.732 0 01-.276-.893 13.7 13.7 0 00-2.219-4.038 2.786 2.786 0 01-.276-.893 2.75 2.75 0 01-.554-.751 2.7 2.7 0 01-.276-.893 2.546 2.546 0 01-.374-.438 2.6 2.6 0 01-1.353-.083 2.908 2.908 0 01-.468-.2 2.542 2.542 0 01-1.477-.053 1.94 1.94 0 01-1.52-2.213z" class="prefix__cls-3" data-name="Path 1357" transform="translate(-156.97 -490.426)"/>
                <g id="prefix__Group_1363" class="prefix__cls-2" data-name="Group 1363" transform="translate(19.536 34.905)">
                    <path id="prefix__Path_1358" d="M187.17 553a2.344 2.344 0 00.381.3 2.476 2.476 0 00.123.928 2.611 2.611 0 01-.232-.379 2.727 2.727 0 01-.272-.849z" data-name="Path 1358" transform="translate(-185.141 -549.268)"/>
                    <path id="prefix__Path_1359" d="M181.7 542.2a2.455 2.455 0 00.381.3 2.494 2.494 0 00.123.93 2.78 2.78 0 01-.504-1.23z" data-name="Path 1359" transform="translate(-180.869 -540.832)"/>
                    <path id="prefix__Path_1360" d="M194.068 536.436a2.431 2.431 0 00-.018-.486 2.771 2.771 0 01.527.724 2.845 2.845 0 01.166.412 2.5 2.5 0 00-.675-.65z" data-name="Path 1360" transform="translate(-190.516 -535.95)"/>
                    <path id="prefix__Path_1361" d="M227.33 600.74a2.551 2.551 0 00-.324-.372 2.714 2.714 0 00-.1-.438 2.9 2.9 0 01.252.407 2.845 2.845 0 01.172.403z" data-name="Path 1361" transform="translate(-216.183 -585.926)"/>
                    <path id="prefix__Path_1362" d="M223.516 593.23a.934.934 0 01-.416-.81 2.773 2.773 0 01.411.806z" data-name="Path 1362" transform="translate(-213.207 -580.06)"/>
                    <path id="prefix__Path_1363" d="M181.13 563.73a2.215 2.215 0 00.379.3 2.387 2.387 0 00.07.749 2.185 2.185 0 00-.219.05 2.909 2.909 0 00-.468-.2 1.932 1.932 0 00-2.535.876 1.274 1.274 0 00-.037.657 1.517 1.517 0 01-.363-1.447 1.935 1.935 0 012.537-.876 2.809 2.809 0 01.466.2c.072-.02.147-.037.219-.05a2.26 2.26 0 01-.049-.259z" data-name="Path 1363" transform="translate(-177.902 -557.625)"/>
                    <path id="prefix__Path_1364" d="M230.71 607.4a2.8 2.8 0 01.252.409 2.846 2.846 0 01.169.411 2.572 2.572 0 00-.324-.374 2.712 2.712 0 00-.097-.446z" data-name="Path 1364" transform="translate(-219.151 -591.761)"/>
                    <path id="prefix__Path_1365" d="M199.538 547.266a2.426 2.426 0 00-.018-.486 2.734 2.734 0 01.528.724 2.824 2.824 0 01.166.409 2.491 2.491 0 00-.676-.647z" data-name="Path 1365" transform="translate(-194.788 -544.41)"/>
                    <path id="prefix__Path_1366" d="M206.424 591.874a2.613 2.613 0 00.107.482 2.764 2.764 0 01-.412-.825 2.564 2.564 0 00.305.343z" data-name="Path 1366" transform="translate(-199.944 -579.365)"/>
                    <path id="prefix__Path_1367" d="M214.022 606.925a2.771 2.771 0 00.109.482 2.611 2.611 0 01-.232-.379 2.823 2.823 0 01-.179-.438 2.845 2.845 0 00.302.335z" data-name="Path 1367" transform="translate(-205.88 -591.128)"/>
                    <path id="prefix__Path_1368" d="M210.224 599.415a2.614 2.614 0 00.107.482 2.818 2.818 0 01-.232-.379 2.757 2.757 0 01-.179-.438 2.568 2.568 0 00.304.335z" data-name="Path 1368" transform="translate(-202.912 -585.262)"/>
                    <path id="prefix__Path_1369" d="M202.663 584.393a2.594 2.594 0 00.107.484 2.719 2.719 0 01-.219-.379 2.676 2.676 0 01-.182-.438 2.436 2.436 0 00.294.333z" data-name="Path 1369" transform="translate(-197.014 -573.53)"/>
                    <path id="prefix__Path_1370" d="M217.293 563.55a1.931 1.931 0 00-2.206 1.532 2.756 2.756 0 00-.114.5 2.327 2.327 0 00-.49.521 2.809 2.809 0 00-.23-.635c-.037-.074-.079-.147-.123-.219a2.327 2.327 0 01.438-.46 2.753 2.753 0 01.114-.5 1.949 1.949 0 012.209-1.532 1.517 1.517 0 01.95 1.151 1.3 1.3 0 00-.548-.358z" data-name="Path 1370" transform="translate(-206.2 -556.844)"/>
                    <path id="prefix__Path_1371" d="M210.478 568.886a2.433 2.433 0 00-.018-.486 2.734 2.734 0 01.527.724 2.847 2.847 0 01.166.411 2.469 2.469 0 00-.675-.649z" data-name="Path 1371" transform="translate(-203.334 -561.297)"/>
                    <path id="prefix__Path_1372" d="M205.008 558.066a2.435 2.435 0 00-.018-.486 2.81 2.81 0 01.528.724 2.846 2.846 0 01.166.411 2.5 2.5 0 00-.676-.649z" data-name="Path 1372" transform="translate(-199.061 -552.846)"/>
                    <path id="prefix__Path_1373" d="M217.822 614.435a2.605 2.605 0 00.109.484 2.762 2.762 0 01-.232-.381 2.823 2.823 0 01-.179-.438 2.844 2.844 0 00.302.335z" data-name="Path 1373" transform="translate(-208.848 -596.994)"/>
                </g>
                <path id="prefix__Path_1374" d="M166.383 504.591a2.609 2.609 0 01-.906-1.027 1.719 1.719 0 112.959-1.5 2.611 2.611 0 01.289 1.34 2.714 2.714 0 011.2 2.368 2.627 2.627 0 01.908 1.027 2.9 2.9 0 01.166.407 2.314 2.314 0 00-1.189-.876 1.348 1.348 0 01-1.714.876 2.3 2.3 0 000 1.477 2.889 2.889 0 01-.219-.374 2.627 2.627 0 01-.291-1.34 2.721 2.721 0 01-1.2-2.368z" class="prefix__cls-3" data-name="Path 1374" transform="translate(-148.431 -473.541)"/>
                <path id="prefix__Path_1375" d="M94.217 394.958a8.054 8.054 0 01-.961-.532l3.563-2.6-4.189 2.156a7.954 7.954 0 01-2.975-5.546l7.122.074-7.138-1.2a7.943 7.943 0 1115.718 2.014 8.039 8.039 0 011.462.876l-3.721 5.174 4.467-4.526a7.95 7.95 0 012.224 7.234 7.943 7.943 0 11-11.141 5.634 7.941 7.941 0 01-4.432-8.755z" class="prefix__cls-4" data-name="Path 1375" transform="translate(-89.423 -379.085)"/>
                <path id="prefix__Path_1376" d="M140.68 439.632a7.906 7.906 0 01.7 5.15 7.943 7.943 0 11-11.141 5.634c-1.561-.724 10.04-11.579 10.441-10.784z" class="prefix__cls-5" data-name="Path 1376" transform="translate(-121.013 -425.776)"/>
                <circle id="prefix__Ellipse_42" cx="1.18" cy="1.18" r="1.18" class="prefix__cls-4" data-name="Ellipse 42" transform="translate(9.539)"/>
                <circle id="prefix__Ellipse_43" cx="1.18" cy="1.18" r="1.18" class="prefix__cls-4" data-name="Ellipse 43" transform="translate(2.653 .757)"/>
                <circle id="prefix__Ellipse_44" cx="1.18" cy="1.18" r="1.18" class="prefix__cls-4" data-name="Ellipse 44" transform="translate(0 11.349)"/>
                <circle id="prefix__Ellipse_45" cx="1.18" cy="1.18" r="1.18" class="prefix__cls-4" data-name="Ellipse 45" transform="translate(3.583 16.639)"/>
                <circle id="prefix__Ellipse_46" cx="1.18" cy="1.18" r="1.18" class="prefix__cls-4" data-name="Ellipse 46" transform="translate(8.477 27.625)"/>
                <circle id="prefix__Ellipse_47" cx="1.18" cy="1.18" r="1.18" class="prefix__cls-5" data-name="Ellipse 47" transform="translate(8.477 27.625)"/>
                <circle id="prefix__Ellipse_48" cx="1.18" cy="1.18" r="1.18" class="prefix__cls-4" data-name="Ellipse 48" transform="translate(19.362 15.182)"/>
                <circle id="prefix__Ellipse_49" cx="1.18" cy="1.18" r="1.18" class="prefix__cls-5" data-name="Ellipse 49" transform="translate(19.362 15.182)"/>
                <path id="prefix__Path_1377" d="M179.72 530.7a1.927 1.927 0 00.563-2.552c.024.044.048.085.07.129a1.719 1.719 0 11-2.959 1.5c-.022-.044-.044-.088-.063-.134a1.928 1.928 0 002.389 1.057z" class="prefix__cls-5" data-name="Path 1377" transform="translate(-157.92 -494.952)"/>
                <path id="prefix__Path_1378" d="M185.038 541.222a1.928 1.928 0 00.565-2.552c.024.042.048.085.07.129a1.719 1.719 0 11-2.959 1.5c-.024-.044-.044-.09-.063-.133a1.922 1.922 0 002.387 1.056z" class="prefix__cls-5" data-name="Path 1378" transform="translate(-162.075 -503.169)"/>
                <path id="prefix__Path_1379" d="M190.358 551.732a1.925 1.925 0 00.563-2.552c.026.044.048.085.072.131a1.718 1.718 0 11-2.959 1.495c-.024-.044-.044-.088-.063-.133a1.924 1.924 0 002.387 1.059z" class="prefix__cls-5" data-name="Path 1379" transform="translate(-166.231 -511.379)"/>
                <path id="prefix__Path_1380" d="M195.678 562.252a1.925 1.925 0 00.563-2.552c.024.042.048.085.07.129a1.719 1.719 0 11-2.959 1.5c-.022-.044-.042-.09-.061-.133a1.926 1.926 0 002.387 1.056z" class="prefix__cls-5" data-name="Path 1380" transform="translate(-170.386 -519.596)"/>
                <path id="prefix__Path_1381" d="M200.99 572.77a1.925 1.925 0 00.563-2.55c.024.042.048.085.07.129a1.719 1.719 0 11-2.959 1.5l-.063-.133a1.928 1.928 0 002.389 1.054z" class="prefix__cls-5" data-name="Path 1381" transform="translate(-174.534 -527.814)"/>
                <path id="prefix__Path_1382" d="M206.31 583.282a1.927 1.927 0 00.563-2.552c.024.044.048.085.07.129a1.719 1.719 0 11-2.959 1.5c-.022-.044-.044-.088-.063-.133a1.936 1.936 0 002.389 1.056z" class="prefix__cls-5" data-name="Path 1382" transform="translate(-178.689 -536.023)"/>
                <path id="prefix__Path_1383" d="M211.63 593.8a1.93 1.93 0 00.563-2.552c.024.042.048.085.07.129a1.719 1.719 0 11-2.959 1.5c-.022-.046-.044-.09-.063-.134a1.93 1.93 0 002.389 1.057z" class="prefix__cls-5" data-name="Path 1383" transform="translate(-182.845 -544.241)"/>
                <path id="prefix__Path_1384" d="M216.948 604.312a1.925 1.925 0 00.563-2.552c.026.044.048.085.072.131a1.718 1.718 0 11-2.959 1.495c-.024-.044-.044-.088-.063-.133a1.925 1.925 0 002.387 1.059z" class="prefix__cls-5" data-name="Path 1384" transform="translate(-187.001 -552.45)"/>
                <path id="prefix__Path_1385" d="M220.47 611.222a1.927 1.927 0 00.563-2.552c.024.044.048.085.07.131a1.718 1.718 0 11-2.959 1.495c-.022-.044-.044-.088-.063-.133a1.919 1.919 0 002.389 1.059z" class="prefix__cls-5" data-name="Path 1385" transform="translate(-189.75 -557.848)"/>
                <path id="prefix__Path_1386" d="M129.985 552.487a4.065 4.065 0 01-.219-1.079.589.589 0 11.09-1.171 4.119 4.119 0 012.165-2.791.59.59 0 111.053-.532.534.534 0 01.053.158 4.141 4.141 0 013.625 1.094 4.091 4.091 0 011.094-.031l.477 2.171.011-2.095a4.126 4.126 0 11-2.206 7.943.6.6 0 01-.247.239.591.591 0 01-.81-.759 4.122 4.122 0 01-.528-.438 4.13 4.13 0 01-4.334-2.189l2.222-.374z" class="prefix__cls-4" data-name="Path 1386" transform="translate(-120.308 -509.356)"/>
                <g id="prefix__Group_1364" class="prefix__cls-2" data-name="Group 1364" transform="translate(11.758 38.611)">
                    <path id="prefix__Path_1387" d="M143.721 558.455a19.864 19.864 0 001.9-3.594 14.6 14.6 0 01.779-1.475l.438-.506c.074.063.147.127.219.193a4.088 4.088 0 011.094-.031l.477 2.171.007-2.088a4.126 4.126 0 11-2.206 7.943.6.6 0 01-.247.239.591.591 0 01-.81-.76 4.128 4.128 0 01-.528-.438 4.159 4.159 0 01-2.476-.366 5.82 5.82 0 001.353-1.288z" data-name="Path 1387" transform="translate(-142.37 -552.88)"/>
                </g>
                <path id="prefix__Path_1388" d="M214.683 527.455a.587.587 0 01.26-.79.578.578 0 01.267-.063 3.32 3.32 0 001.169-3.587l2.165-.363-2.1-.133a4.081 4.081 0 01.158-.582.578.578 0 01-.195-.219.591.591 0 01.727-.821 4.078 4.078 0 011.5-1.3 4.124 4.124 0 015.859 4.706.589.589 0 01-.451 1.088 3.207 3.207 0 00-.972 3.576l-2.9-.762 2.589 1.364a4.128 4.128 0 01-7.186-.337 4.182 4.182 0 01-.425-1.456.584.584 0 01-.465-.321z" class="prefix__cls-4" data-name="Path 1388" transform="translate(-187.047 -487.922)"/>
                <path id="prefix__Path_1389" d="M214.683 545.108a.587.587 0 01.26-.79.578.578 0 01.267-.063 4.126 4.126 0 011.289-2.3c-.018-.068-.033-.138-.046-.206a1.592 1.592 0 01.219.188c.392.438.593 1 .978 1.438a2.826 2.826 0 001.823.852 6.906 6.906 0 002.042-.164 5.986 5.986 0 011.69-.186l.162.022-.1.094a4.137 4.137 0 01-.19 2.627l-2.9-.762 2.589 1.364a4.128 4.128 0 01-7.186-.337 4.182 4.182 0 01-.425-1.456.584.584 0 01-.472-.321z" class="prefix__cls-5" data-name="Path 1389" transform="translate(-187.047 -505.575)"/>
            </g>
            <path id="prefix__Path_1390" d="M387.617 87.949a4.428 4.428 0 00-2.57.28 3.791 3.791 0 01-3.086 0 4.325 4.325 0 00-3.629.072 2.25 2.25 0 01-1.044.26c-1.471 0-2.694-1.482-2.948-3.436a2.861 2.861 0 00.735-.792 4.135 4.135 0 017.381-.026 2.846 2.846 0 002.443 1.344h.039a3.088 3.088 0 012.679 2.298z" class="prefix__cls-1" data-name="Path 1390" transform="translate(-311.807 -76.587)"/>
            <path id="prefix__Path_1391" d="M392.056 62.323l-2.377 1.508 1.442-2.627a2.351 2.351 0 00-1.438-.512h-.037a2.82 2.82 0 01-.492-.037l-.808.512.346-.628a2.887 2.887 0 01-1.41-1.062l-1.447.9.911-1.657a4.219 4.219 0 00-3.231-1.635 4.42 4.42 0 00-3.7 2.283 2.762 2.762 0 01-2.445 1.313h-.07c-1.655 0-3 1.876-3 4.194s1.344 4.192 3 4.192a2.25 2.25 0 001.044-.26 4.316 4.316 0 013.629-.07 3.8 3.8 0 003.086 0 4.323 4.323 0 013.6.07 2.266 2.266 0 001.033.254c1.657 0 3-1.876 3-4.192a5.332 5.332 0 00-.63-2.55z" class="prefix__cls-1" data-name="Path 1391" transform="translate(-311.776 -57.09)"/>
            <path id="prefix__Path_1392" d="M141.308 217.42a6.348 6.348 0 00-3.671.4 5.409 5.409 0 01-4.408-.011 6.177 6.177 0 00-5.183.1 3.229 3.229 0 01-1.493.372c-2.1 0-3.85-2.117-4.213-4.91a4.029 4.029 0 001.051-1.132 5.9 5.9 0 0110.537-.037 4.054 4.054 0 003.5 1.92h.055c1.661 0 3.11 1.341 3.825 3.298z" class="prefix__cls-1" data-name="Path 1392" transform="translate(-114.966 -175.734)"/>
            <path id="prefix__Path_1393" d="M147.622 180.815l-3.4 2.154 2.062-3.749a3.358 3.358 0 00-2.055-.733h-.055a3.973 3.973 0 01-.7-.053l-1.147.742.495-.9a4.093 4.093 0 01-2.014-1.532l-2.062 1.313 1.3-2.386a6.032 6.032 0 00-4.616-2.333 6.328 6.328 0 00-5.284 3.259 3.951 3.951 0 01-3.5 1.885h-.116c-2.366 0-4.284 2.681-4.284 5.991s1.917 5.991 4.284 5.991a3.2 3.2 0 001.493-.374 6.177 6.177 0 015.183-.1 5.409 5.409 0 004.408.011 6.183 6.183 0 015.139.1 3.207 3.207 0 001.475.366c2.366 0 4.284-2.684 4.284-5.991a7.608 7.608 0 00-.884-3.66z" class="prefix__cls-1" data-name="Path 1393" transform="translate(-114.888 -147.895)"/>
            <path id="prefix__Path_1394" d="M836.62 126.91a4.43 4.43 0 012.57.28 3.785 3.785 0 003.084 0 4.325 4.325 0 013.629.072 2.257 2.257 0 001.044.26c1.471 0 2.7-1.482 2.951-3.436a2.83 2.83 0 01-.735-.792 4.134 4.134 0 00-7.385-.037 2.845 2.845 0 01-2.447 1.351h-.037a3.074 3.074 0 00-2.674 2.302z" class="prefix__cls-1" data-name="Path 1394" transform="translate(-672.903 -107.011)"/>
            <path id="prefix__Path_1395" d="M813.936 101.363l2.377 1.5-1.445-2.627a2.355 2.355 0 011.438-.512h.039a2.845 2.845 0 00.492-.037l.805.512-.346-.628a2.891 2.891 0 001.423-1.057l1.443.915-.913-1.657a4.206 4.206 0 013.233-1.635 4.42 4.42 0 013.7 2.283 2.76 2.76 0 002.445 1.313h.079c1.657 0 3 1.876 3 4.194s-1.342 4.192-3 4.192a2.263 2.263 0 01-1.044-.26 4.316 4.316 0 00-3.629-.07 3.8 3.8 0 01-3.084 0 4.327 4.327 0 00-3.6.07 2.259 2.259 0 01-1.033.254c-1.655 0-3-1.876-3-4.192a5.332 5.332 0 01.617-2.561z" class="prefix__cls-1" data-name="Path 1395" transform="translate(-654.701 -87.593)"/>
            <ellipse id="prefix__Ellipse_50" cx="25.171" cy="4.378" class="prefix__cls-1" data-name="Ellipse 50" rx="25.171" ry="4.378" transform="translate(109.579 161.29)"/>
            <path id="prefix__Path_1396" d="M416.253 597.633l-39-.5.116-1 1.885-16.5H413.5l2.519 16.5.193 1.252z" class="prefix__cls-6" data-name="Path 1396" transform="translate(-294.677 -452.759)"/>
            <path id="prefix__Path_1397" d="M416.215 656.272h-19.463l-19.5-.252.116-1h38.657z" class="prefix__cls-5" data-name="Path 1397" transform="translate(-294.677 -511.648)"/>
            <path id="prefix__Rectangle_1882" d="M0 0H51.755V1.25H0z" class="prefix__cls-6" data-name="Rectangle 1882" transform="translate(76.073 143.624)"/>
            <path id="prefix__Path_1398" d="M359.331 172.266a3.255 3.255 0 00-3.239-3.266H211.559a3.255 3.255 0 00-3.239 3.27v87.608h151.011z" class="prefix__cls-3" data-name="Path 1398" transform="translate(-182.126 -144.505)"/>
            <path id="prefix__Path_1399" d="M208.32 580.19v10.261a3.239 3.239 0 003.239 3.239h144.533a3.239 3.239 0 003.239-3.239V580.19z" class="prefix__cls-6" data-name="Path 1399" transform="translate(-182.126 -465.693)"/>
            <path id="prefix__Rectangle_1883" d="M0 0H139.26V78.756H0z" data-name="Rectangle 1883" transform="translate(32.445 29.989)" style="fill:#fff"/>
            <path id="prefix__Path_1400" d="M544.682 599.978a3.371 3.371 0 002.655-1.289 3.507 3.507 0 00.263-.385l-1.854-.313 2 .013a3.375 3.375 0 00.063-2.673l-2.686 1.392 2.477-1.823a3.375 3.375 0 10-5.575 3.778 3.371 3.371 0 002.657 1.3z" class="prefix__cls-4" data-name="Path 1400" transform="translate(-442.232 -475.874)"/>
            <path id="prefix__Path_1401" d="M483.48 584.77l15.56 15.63-2.388-15.628z" class="prefix__cls-5" data-name="Path 1401" transform="translate(-377.655 -456.774)"/>
            <path id="prefix__Rectangle_1884" d="M0 0H139.411V4.601H0z" data-name="Rectangle 1884" transform="translate(32.336 29.998)" style="fill:#444053;opacity:.1"/>
            <rect id="prefix__Rectangle_1885" width="42.004" height="2.8" data-name="Rectangle 1885" rx=".58" transform="translate(80.739 30.799)" style="opacity:.3;fill:#6c63ff"/>
            <path id="prefix__Path_1402" d="M638.018 200.529h-.1l-.037-.033a.851.851 0 00.2-.545.827.827 0 10-.825.834.854.854 0 00.545-.2l.037.033v.1l.641.641.19-.193zm-.768 0a.573.573 0 11.409-.169.578.578 0 01-.409.169z" class="prefix__cls-3" data-name="Path 1402" transform="translate(-516.523 -168.04)"/>
            <circle id="prefix__Ellipse_51" cx=".843" cy=".843" r=".843" data-name="Ellipse 51" transform="translate(33.999 31.456)" style="opacity:.8;fill:#fa5959"/>
            <circle id="prefix__Ellipse_52" cx=".843" cy=".843" r=".843" data-name="Ellipse 52" transform="translate(36.317 31.456)" style="fill:#fed253;opacity:.8"/>
            <circle id="prefix__Ellipse_53" cx=".843" cy=".843" r=".843" data-name="Ellipse 53" transform="translate(38.637 31.456)" style="fill:#8ccf4d;opacity:.8"/>
            <path id="prefix__Path_1403" d="M533.3 333.711a9.344 9.344 0 00-15.523 0 8.379 8.379 0 0015.523 0z" class="prefix__cls-13" data-name="Path 1403" transform="translate(-423.851 -269.929)"/>
            <path id="prefix__Path_1404" d="M492.165 344.475a2.01 2.01 0 01-.385-.219 1.546 1.546 0 01-.425-.549 1.572 1.572 0 10-2.565.381 1.749 1.749 0 00.372.3 1.081 1.081 0 01.418.438 3.16 3.16 0 00.727.954 6.345 6.345 0 001 .7 14.513 14.513 0 00-.819 4.281 5.921 5.921 0 00-1.668.269 2.69 2.69 0 00-.773.385 1.848 1.848 0 00-.19-.013 1.574 1.574 0 101.473 2.128 1 1 0 01.812-.657 3.672 3.672 0 01.4-.026 14.1 14.1 0 001.871 5.838 4.592 4.592 0 00-1.74 2.377.656.656 0 00-.125.09 1.491 1.491 0 00-.184.171 1.572 1.572 0 102.638.514 1.031 1.031 0 01.256-1.112 4.419 4.419 0 01.372-.32 9.183 9.183 0 006.525 3.559V349.9a9.708 9.708 0 01-7.99-5.425zm21.851 6.943a1.743 1.743 0 00-.19.013 2.967 2.967 0 00-.773-.385 5.878 5.878 0 00-1.668-.269 14.832 14.832 0 00-.819-4.279 6.351 6.351 0 001-.7 3.411 3.411 0 00.753-1 .924.924 0 01.387-.383 1.572 1.572 0 10-2.189-.694 1.493 1.493 0 01-.425.549 4.126 4.126 0 01-.385.282 9.64 9.64 0 01-7.985 5.36v14.076a9.223 9.223 0 006.525-3.559c.138.109.254.208.352.3a1.064 1.064 0 01.276 1.145 1.572 1.572 0 102.644-.51 1.489 1.489 0 00-.184-.171c-.072-.057-.125-.09-.125-.09a4.529 4.529 0 00-1.751-2.377 14.1 14.1 0 001.871-5.838 3.486 3.486 0 01.387.026 1.05 1.05 0 01.843.657 1.572 1.572 0 003.031-.477 1.6 1.6 0 00-1.574-1.677z" class="prefix__cls-13" data-name="Path 1404" transform="translate(-399.245 -279.206)"/>
            <path id="prefix__Path_1405" d="M637.349 562.459a2.091 2.091 0 00-.475-.528 6.309 6.309 0 01-1.637-3.531 36.038 36.038 0 00-.683-3.9 12.861 12.861 0 00-.77-1.9 5.558 5.558 0 00-.9-1.714.591.591 0 00-.276-.134 3.251 3.251 0 00-.792-1.055 8.041 8.041 0 01-1.808-1.751 3.943 3.943 0 00-.422-.72c-.282-.311-.729-.438-.989-.766a2.2 2.2 0 01-.219-1.574c.044-.541 0-1.189-.468-1.473-.28-.173-.641-.155-.932-.309a1.35 1.35 0 01-.6-1.263c.009-.492.162-.972.2-1.464.123-1.567-.911-3.126-.512-4.645a9.451 9.451 0 01.753-1.611 3.367 3.367 0 00.219-.556 7.822 7.822 0 002.132.514c-1.206-2.705-.9-5.848-1.462-8.755l.072-.1a4.562 4.562 0 00.924-2.6 15.44 15.44 0 00-.733-3.152c-.195-.9-.186-1.841-.438-2.725a8.245 8.245 0 00-.692-1.58q-.409-.759-.86-1.495-.42-1.392-.843-2.784a13.457 13.457 0 00-1.565-3.752c-.28-.411-.365-1.248-.8-1.5a1.928 1.928 0 00-1.138-.2 2.128 2.128 0 01-1.219-1.508 1.463 1.463 0 01.044-.438h.074c.963-.088 1.451-.937 1.952-1.681.81-1.2.5-2.832 0-4.2a2.845 2.845 0 00-.657-1.158c-.7-.657-1.815-.512-2.721-.83-.3-.105-.589-.265-.9-.339a2.692 2.692 0 00-1.784.335 17.755 17.755 0 01-1.644.856c-.578.219-1.291.392-1.434.985a1.1 1.1 0 00.048.6 2.229 2.229 0 00.676.976 3.9 3.9 0 002.379 5.433c.166.267.322.538.464.816a2.692 2.692 0 01.381 1.593 4.923 4.923 0 00-.438.536 10.315 10.315 0 00-1.313 2.926 31.015 31.015 0 00-1.057 4 30.05 30.05 0 00-1.574 3.415 7.709 7.709 0 01-2.053-.276l-1.847-.418a4.176 4.176 0 01-1.817-.729c-.267-.219-.475-.51-.746-.727s-.816-.471-1.114-.291a.882.882 0 00-.151.116c-.271-.549-.53-1.094-.845-1.626a3.085 3.085 0 00-1.981-1.567 2.016 2.016 0 00-1.486.346 1.2 1.2 0 00-.438 1.594 2.914 2.914 0 00.3.311 6.39 6.39 0 01.676.939 4.8 4.8 0 002.953 1.917l-.077.219a3.372 3.372 0 00-.4 1.477l8.217 2.813a5.064 5.064 0 001.655.366 2.67 2.67 0 00.657-.088v.438c.022 2.887-.438 5.754-.523 8.639a2.241 2.241 0 00.333 1.506 1.686 1.686 0 001.609.438 3.759 3.759 0 00.407-.092 15.175 15.175 0 01.42 2.213l.543 3.909a5.943 5.943 0 01.085 1.213 8.55 8.55 0 01-.9 2.585 3.06 3.06 0 00-.1 2.653c.144.245.344.453.473.707a2.876 2.876 0 01.219 1.243l.1 3.542a.4.4 0 00-.276.055c-.455.355-.4 2.042-.438 2.565-.035.875 0 1.769-.048 2.653a15.8 15.8 0 01-.571 3.522 2.252 2.252 0 01-.5 1.009 2.131 2.131 0 01-.891.462 10.176 10.176 0 01-3.373.46 3.32 3.32 0 00-1.372.116.945.945 0 00-.619 1.094 1.38 1.38 0 00.9.681 14.338 14.338 0 012.408 1.108 6.5 6.5 0 00.93.527 4.794 4.794 0 00.959.236l3.881.67c.795.136 1.751.219 2.257-.438a1.989 1.989 0 00.3-1.287 17.2 17.2 0 01-.083-2.642 8.132 8.132 0 01.407-1.517q.58-1.723 1.164-3.443a18.093 18.093 0 00.935-3.522 1.312 1.312 0 00-.285-1.21.774.774 0 00-.289-.149c-.013-1.055-.151-2.112-.092-3.167.015-.263.042-.525.063-.79a3.858 3.858 0 01.541.639c.374.587.512 1.361 1.083 1.751.486.333 1.206.315 1.547.8a2.245 2.245 0 01.245.593 4.228 4.228 0 00.876 1.39 7 7 0 00.541 1.388l.963 2.038a23.767 23.767 0 001.094 2.138 6.031 6.031 0 01.733 1.414 3.248 3.248 0 01-.991 3.064 8.524 8.524 0 01-2.883 1.681.81.81 0 00-.293.175.567.567 0 00-.133.381 1.236 1.236 0 00.893 1.094 3.341 3.341 0 001.495.055 22.2 22.2 0 008.059-2.381 2.844 2.844 0 00.961-.742 1.123 1.123 0 00.17-1.135z" data-name="Path 1405" transform="translate(-488.291 -399.343)"/>
            <path id="prefix__Path_1406" d="M707.005 570.234q.7 1.075 1.313 2.2a8.1 8.1 0 01.694 1.569c.254.876.247 1.81.438 2.7a15.758 15.758 0 01.731 3.13 4.5 4.5 0 01-.924 2.574 12.218 12.218 0 01-1.931 1.992 41.066 41.066 0 01-2.732-13.4 4.7 4.7 0 01.206-1.882c.142-.372.825-1.392 1.265-.992.16.147.2.808.3 1.029a7.914 7.914 0 00.64 1.08z" class="prefix__cls-15" data-name="Path 1406" transform="translate(-569.768 -456.203)"/>
            <path id="prefix__Path_1407" d="M707.005 570.234q.7 1.075 1.313 2.2a8.1 8.1 0 01.694 1.569c.254.876.247 1.81.438 2.7a15.758 15.758 0 01.731 3.13 4.5 4.5 0 01-.924 2.574 12.218 12.218 0 01-1.931 1.992 41.066 41.066 0 01-2.732-13.4 4.7 4.7 0 01.206-1.882c.142-.372.825-1.392 1.265-.992.16.147.2.808.3 1.029a7.914 7.914 0 00.64 1.08z" class="prefix__cls-5" data-name="Path 1407" transform="translate(-569.768 -456.203)"/>
            <path id="prefix__Path_1408" d="M374.965 419.689c-1.731 1.729-1.939 2.491-2.979 2.835s-4.78 2.281-3.605 4.428l3.161 2.088.092.061.484 1.453-4.78 8.51s-7.88-3.6-8.652 1.727-.282 6.785-.49 9.631.068 3.668-.626 3.668-.967-1.869-.967-1.869-.044-.085-.12-.245c-1.031-2.143-8.029-17.874 3.18-28.687a7.454 7.454 0 006.442-6.3c.862-4.115 3.879-3.76 5.884-2.922a6.65 6.65 0 011.8 1.057 8.86 8.86 0 011.289 1.532 2.253 2.253 0 01-.113 3.033z" class="prefix__cls-6" data-name="Path 1408" transform="translate(-295.434 -335.52)"/>
            <path id="prefix__Path_1409" d="M380.971 484.45l.484 1.453-4.78 8.51s-7.88-3.6-8.652 1.727-.282 6.785-.49 9.631.068 3.668-.626 3.668-.967-1.869-.967-1.869-.044-.085-.12-.245c-.348-2.662-2.112-18.231 4.284-17.4 0 0 5.19 2.425 6.019 1.458.657-.766 3.572-5.172 4.758-6.98z" class="prefix__cls-5" data-name="Path 1409" transform="translate(-304.772 -390.869)"/>
            <path id="prefix__Path_1410" d="M418.483 418.507l-3.161 3.592s-3.671 4.912-4.432 4.7a3.552 3.552 0 00-.694-.081 1.348 1.348 0 01-.876-2.272c1.252-1.313 3.559-3.806 3.71-4.36a38.234 38.234 0 012.355-4.17 6.649 6.649 0 011.8 1.057 8.861 8.861 0 011.3 1.53z" class="prefix__cls-5" data-name="Path 1410" transform="translate(-338.842 -337.378)"/>
            <path id="prefix__Path_1411" d="M513.822 528.3c-.536 1.073-3.283 5.1-4.485 6.853l-.563.827s-.219 1.453-3.806-.348-87.877-37.368-87.877-37.368l-.571-1.716 4.159-6.227 92.384 35.693a1.812 1.812 0 01.759 2.286z" data-name="Path 1411" transform="translate(-344.755 -395.494)" style="fill:#454b69"/>
            <path id="prefix__Path_1412" d="M509.337 557.374l-.563.827s-.219 1.453-3.806-.348-87.877-37.368-87.877-37.368l-.571-1.716z" class="prefix__cls-5" data-name="Path 1412" transform="translate(-344.755 -417.716)"/>
            <path id="prefix__Path_1413" d="M596.919 588.776a3.071 3.071 0 00-2.471.484 2.034 2.034 0 00-.709 1.348c-.057.606.3 1.326.9 1.372a2.878 2.878 0 00.438-.028 6.543 6.543 0 011.147.1 4.682 4.682 0 003.99-1.611c.523-.657-.166-.941-.784-1.073-.841-.182-1.666-.456-2.511-.592z" class="prefix__cls-17" data-name="Path 1413" transform="translate(-483.179 -472.351)"/>
            <path id="prefix__Path_1414" d="M672.182 659.532l.543 3.857a5.87 5.87 0 01.083 1.206 8.5 8.5 0 01-.9 2.563 3 3 0 00-.1 2.627c.142.243.341.451.471.7a2.828 2.828 0 01.219 1.232l.149 5.472a34.454 34.454 0 005.074-.028.283.283 0 00.184-.057.3.3 0 00.063-.2c.074-1.281-.149-2.563-.077-3.844.026-.468.092-.935.1-1.405.026-1.906-.915-3.773-.63-5.658a12.478 12.478 0 01.35-1.407c.9-3.283.709-6.733.51-10.123a.239.239 0 00-.044-.153.232.232 0 00-.118-.063 6.227 6.227 0 00-5.643 1.073c-.239.193-.841.379-1 .608-.219.32.068.639.195.978a12.452 12.452 0 01.571 2.622z" class="prefix__cls-3" data-name="Path 1414" transform="translate(-543.803 -523.339)"/>
            <path id="prefix__Path_1415" d="M672.182 659.532l.543 3.857a5.87 5.87 0 01.083 1.206 8.5 8.5 0 01-.9 2.563 3 3 0 00-.1 2.627c.142.243.341.451.471.7a2.828 2.828 0 01.219 1.232l.149 5.472a34.454 34.454 0 005.074-.028.283.283 0 00.184-.057.3.3 0 00.063-.2c.074-1.281-.149-2.563-.077-3.844.026-.468.092-.935.1-1.405.026-1.906-.915-3.773-.63-5.658a12.478 12.478 0 01.35-1.407c.9-3.283.709-6.733.51-10.123a.239.239 0 00-.044-.153.232.232 0 00-.118-.063 6.227 6.227 0 00-5.643 1.073c-.239.193-.841.379-1 .608-.219.32.068.639.195.978a12.452 12.452 0 01.571 2.622z" class="prefix__cls-5" data-name="Path 1415" transform="translate(-543.803 -523.339)"/>
            <path id="prefix__Path_1416" d="M692.491 653.6a9.484 9.484 0 00-.753 1.6c-.4 1.508.633 3.064.51 4.61-.039.488-.19.963-.2 1.451a1.354 1.354 0 00.6 1.256c.291.149.657.133.93.3a1.5 1.5 0 01.468 1.462 2.142 2.142 0 00.219 1.561c.26.326.707.453.987.762a3.759 3.759 0 01.422.714 8.237 8.237 0 001.808 1.751 2.207 2.207 0 01.876 2.209 2.436 2.436 0 01-1.34 1.215 14.215 14.215 0 01-3.189 1.127.772.772 0 01-.366.02.782.782 0 01-.32-.219 5.94 5.94 0 01-1.611-2.147 2.2 2.2 0 00-.245-.587c-.341-.479-1.062-.462-1.547-.792-.569-.387-.707-1.156-1.079-1.736a19.414 19.414 0 00-1.313-1.436 15.669 15.669 0 01-1.313-2.953c-.2-.411-.464-.8-.626-1.226a6.7 6.7 0 01-.3-1.585c-.309-2.557-1.094-5.131-.6-7.661.109-.556.278-1.094.348-1.668.12-.992-.07-2.007.077-3a.825.825 0 01.33-.637.875.875 0 01.377-.077 25.66 25.66 0 013.892.088 2.413 2.413 0 011.786.733 3.916 3.916 0 01.425 1.633 4.027 4.027 0 00.847 1.6 1.517 1.517 0 01-.1 1.632z" class="prefix__cls-3" data-name="Path 1416" transform="translate(-553.963 -518.569)"/>
            <path id="prefix__Path_1417" d="M652.741 752.015a1.536 1.536 0 011 .2 1.315 1.315 0 01.285 1.2 18.042 18.042 0 01-.937 3.5l-1.164 3.417a8.022 8.022 0 00-.407 1.506 16.985 16.985 0 00.083 2.627 2.058 2.058 0 01-.3 1.276c-.495.637-1.46.563-2.254.438l-3.876-.657a4.606 4.606 0 01-.959-.234 6.7 6.7 0 01-.93-.523 14.317 14.317 0 00-2.408-1.094c-.363-.136-.771-.309-.9-.674a.945.945 0 01.62-1.094 3.353 3.353 0 011.372-.118 10.289 10.289 0 003.371-.455 2.133 2.133 0 00.889-.46 2.189 2.189 0 00.512-1.031 15.361 15.361 0 00.587-3.5c.046-.876.015-1.751.05-2.627.022-.519-.029-2.189.427-2.546.348-.267 1.78.471 2.25.578a10.943 10.943 0 002.689.271z" class="prefix__cls-15" data-name="Path 1417" transform="translate(-519.262 -599.198)"/>
            <path id="prefix__Path_1418" d="M725.5 753.09a37.448 37.448 0 01.683 3.87 6.3 6.3 0 001.635 3.5 2.16 2.16 0 01.475.525 1.108 1.108 0 01-.164 1.145 2.873 2.873 0 01-.961.738 22.29 22.29 0 01-8.057 2.366 3.4 3.4 0 01-1.493-.055 1.231 1.231 0 01-.891-1.094.559.559 0 01.131-.379.817.817 0 01.3-.173 8.715 8.715 0 002.88-1.67 3.192 3.192 0 00.992-3.034 6 6 0 00-.738-1.4 23.73 23.73 0 01-1.094-2.121l-.963-2.02a5.3 5.3 0 01-.615-1.852 8.885 8.885 0 003.55-.569 5.582 5.582 0 001.46-.875c.372-.311.711-.891 1.213-.486a5.845 5.845 0 01.893 1.7 12.485 12.485 0 01.768 1.887z" class="prefix__cls-15" data-name="Path 1418" transform="translate(-579.253 -597.839)"/>
            <path id="prefix__Path_1419" d="M676.488 531.621c.1.841.911 1.394 1.688 1.727l-4.918 1.569a2.215 2.215 0 00-.254-1.97 11.144 11.144 0 00-.876-1.4c-.048-.068-.1-.153-.068-.232a.245.245 0 01.138-.107 12.37 12.37 0 013.158-1.081c.32-.046.924-.173 1.162.151s-.075.956-.03 1.343z" class="prefix__cls-17" data-name="Path 1419" transform="translate(-544.353 -426.536)"/>
            <path id="prefix__Path_1420" d="M676.488 531.621c.1.841.911 1.394 1.688 1.727l-4.918 1.569a2.215 2.215 0 00-.254-1.97 11.144 11.144 0 00-.876-1.4c-.048-.068-.1-.153-.068-.232a.245.245 0 01.138-.107 12.37 12.37 0 013.158-1.081c.32-.046.924-.173 1.162.151s-.075.956-.03 1.343z" class="prefix__cls-5" data-name="Path 1420" transform="translate(-544.353 -426.536)"/>
            <circle id="prefix__Ellipse_54" cx="3.857" cy="3.857" r="3.857" class="prefix__cls-17" data-name="Ellipse 54" transform="translate(125.42 98.053)"/>
            <path id="prefix__Path_1421" d="M662.822 571.048a1.7 1.7 0 001.609.438c1.346-.219 2.447-1.21 3.765-1.567a7.367 7.367 0 014.85.814 14.276 14.276 0 004.71 1.65c-1.508-3.362-.646-7.407-2.088-10.8a8.655 8.655 0 01-.924-2.526c-.1-1.114.457-2.189.543-3.3a8.019 8.019 0 00-.5-2.911l-1.055-3.467a13.276 13.276 0 00-1.563-3.721c-.282-.409-.368-1.239-.8-1.486-.937-.541-2.357.14-3.373.177a3.521 3.521 0 00-2.535 1.576 10.132 10.132 0 00-1.313 2.9 27.616 27.616 0 00-1.167 4.647c-.033.236-.061.473-.083.711a64.713 64.713 0 00.118 6.768v.015c.022 2.865-.438 5.713-.523 8.576a2.289 2.289 0 00.329 1.506z" class="prefix__cls-15" data-name="Path 1421" transform="translate(-536.888 -437.401)"/>
            <path id="prefix__Path_1422" d="M664.229 569.065a4.938 4.938 0 002.025-1.213 8.466 8.466 0 001.344-1.532 10.919 10.919 0 001.158-2.423 28.318 28.318 0 001.532-7.063 2.7 2.7 0 00-.317-1.882 1.585 1.585 0 00-1.915-.464 3.173 3.173 0 00-1.162 1.25 16.14 16.14 0 00-1.631 3.025c-.175.477-.3.967-.475 1.447a13.34 13.34 0 01-.6 1.385c-.033.236-.061.473-.083.711-.205 2.247.106 4.5.124 6.759z" class="prefix__cls-5" data-name="Path 1422" transform="translate(-538.094 -445.501)"/>
            <path id="prefix__Path_1423" d="M633.07 553.005a2.713 2.713 0 01.32 1.88 28.275 28.275 0 01-1.532 7.063 10.823 10.823 0 01-1.158 2.443 8.553 8.553 0 01-1.344 1.532 4.194 4.194 0 01-2.659 1.294 5.069 5.069 0 01-1.655-.361l-8.219-2.8a3.327 3.327 0 01.4-1.467l.438-1.3a1.651 1.651 0 01.6-.941c.326-.195.843.072 1.114.289s.477.5.744.722a4.2 4.2 0 001.817.722l1.845.414a7.705 7.705 0 002.053.274c.514-1.572 1.493-2.955 2.047-4.513.171-.477.3-.97.477-1.447a16.082 16.082 0 011.631-3.025 3.172 3.172 0 011.162-1.25 1.582 1.582 0 011.919.471z" class="prefix__cls-15" data-name="Path 1423" transform="translate(-501.205 -443.978)"/>
            <path id="prefix__Path_1424" d="M665.435 504.1a1.946 1.946 0 00-.232-.722.607.607 0 00-.657-.289c-.385.12-.514.716-.917.735-.271.013-.466-.263-.552-.521a1.588 1.588 0 00-.335-.735 1.247 1.247 0 00-.477-.219 3.185 3.185 0 01-2.211-1.771 1.059 1.059 0 01-.05-.593c.142-.589.875-.766 1.434-.978s1.094-.576 1.642-.851a2.7 2.7 0 011.784-.331 9.285 9.285 0 01.9.335c.906.315 2.016.169 2.719.823a2.809 2.809 0 01.657 1.147c.49 1.361.8 2.977-.011 4.172-.5.738-.987 1.58-1.95 1.67-1.122.093-1.567-.923-1.744-1.872z" class="prefix__cls-15" data-name="Path 1424" transform="translate(-534.929 -401.318)"/>
            <g id="prefix__Group_1366" class="prefix__cls-2" data-name="Group 1366" transform="translate(125.064 97.941)">
                <path id="prefix__Path_1425" d="M663.755 508.129a1.607 1.607 0 00-.333-.735 1.247 1.247 0 00-.477-.219 3.189 3.189 0 01-2.213-1.771 1.078 1.078 0 01-.048-.593.742.742 0 01.116-.26 1.147 1.147 0 00-.755.725 1.059 1.059 0 00.05.593 3.185 3.185 0 002.211 1.771 1.248 1.248 0 01.477.219 1.6 1.6 0 01.335.735c.088.26.28.534.552.521s.4-.26.576-.468a.7.7 0 01-.491-.518z" data-name="Path 1425" transform="translate(-660.023 -504.55)"/>
                <path id="prefix__Path_1426" d="M684.69 522.746c-1.125.1-1.569-.922-1.751-1.865a1.9 1.9 0 00-.219-.722.608.608 0 00-.657-.289 1.165 1.165 0 00-.484.438.656.656 0 01.495.306 1.946 1.946 0 01.232.722c.177.943.622 1.97 1.751 1.865a1.806 1.806 0 001.156-.6 1.634 1.634 0 01-.523.145z" data-name="Path 1426" transform="translate(-676.862 -516.505)"/>
            </g>
            <ellipse id="prefix__Ellipse_55" cx="7.068" cy="1.359" class="prefix__cls-4" data-name="Ellipse 55" rx="7.068" ry="1.359" transform="translate(170.908 142.179)"/>
            <ellipse id="prefix__Ellipse_56" cx=".823" cy="1.077" class="prefix__cls-3" data-name="Ellipse 56" rx=".823" ry="1.077" transform="translate(177.034 141.884)"/>
            <ellipse id="prefix__Ellipse_57" cx=".823" cy="1.077" class="prefix__cls-3" data-name="Ellipse 57" rx=".823" ry="1.077" transform="translate(177.034 140.566)"/>
            <ellipse id="prefix__Ellipse_58" cx=".823" cy="1.077" class="prefix__cls-3" data-name="Ellipse 58" rx=".823" ry="1.077" transform="translate(177.034 139.251)"/>
            <ellipse id="prefix__Ellipse_59" cx=".823" cy="1.077" class="prefix__cls-3" data-name="Ellipse 59" rx=".823" ry="1.077" transform="translate(177.034 137.933)"/>
            <ellipse id="prefix__Ellipse_60" cx=".823" cy="1.077" class="prefix__cls-3" data-name="Ellipse 60" rx=".823" ry="1.077" transform="translate(177.034 136.615)"/>
            <ellipse id="prefix__Ellipse_61" cx=".823" cy="1.077" class="prefix__cls-3" data-name="Ellipse 61" rx=".823" ry="1.077" transform="translate(177.034 135.3)"/>
            <ellipse id="prefix__Ellipse_62" cx=".823" cy="1.077" class="prefix__cls-3" data-name="Ellipse 62" rx=".823" ry="1.077" transform="translate(177.034 133.982)"/>
            <path id="prefix__Path_1427" d="M890.182 610.255a3.98 3.98 0 00.306-.451l-2.163-.355 2.34.015a3.964 3.964 0 00.074-3.123l-3.139 1.629 2.894-2.128a10.743 10.743 0 00-6.956 5.131l2.808 1.46-2.994-1a49.988 49.988 0 011.063 9.023 7.977 7.977 0 005.771-10.2z" class="prefix__cls-4" data-name="Path 1427" transform="translate(-709.245 -484.198)"/>
            <path id="prefix__Path_1428" d="M883.12 643.893a15.575 15.575 0 011.275 7.767 3.94 3.94 0 005.771-5.328c.523-.673-7.046-2.881-7.046-2.439z" class="prefix__cls-5" data-name="Path 1428" transform="translate(-709.224 -515.407)"/>
            <ellipse id="prefix__Ellipse_63" cx="10.176" cy="1.957" class="prefix__cls-4" data-name="Ellipse 63" rx="10.176" ry="1.957" transform="translate(22.311 168.086)"/>
            <ellipse id="prefix__Ellipse_64" cx="1.184" cy="1.552" class="prefix__cls-3" data-name="Ellipse 64" rx="1.184" ry="1.552" transform="translate(31.132 167.66)"/>
            <ellipse id="prefix__Ellipse_65" cx="1.184" cy="1.552" class="prefix__cls-3" data-name="Ellipse 65" rx="1.184" ry="1.552" transform="translate(31.132 165.764)"/>
            <ellipse id="prefix__Ellipse_66" cx="1.184" cy="1.552" class="prefix__cls-3" data-name="Ellipse 66" rx="1.184" ry="1.552" transform="translate(31.132 163.869)"/>
            <ellipse id="prefix__Ellipse_67" cx="1.184" cy="1.552" class="prefix__cls-3" data-name="Ellipse 67" rx="1.184" ry="1.552" transform="translate(31.132 161.973)"/>
            <ellipse id="prefix__Ellipse_68" cx="1.184" cy="1.552" class="prefix__cls-3" data-name="Ellipse 68" rx="1.184" ry="1.552" transform="translate(31.132 160.077)"/>
            <ellipse id="prefix__Ellipse_69" cx="1.184" cy="1.552" class="prefix__cls-3" data-name="Ellipse 69" rx="1.184" ry="1.552" transform="translate(31.132 158.18)"/>
            <ellipse id="prefix__Ellipse_70" cx="1.184" cy="1.552" class="prefix__cls-3" data-name="Ellipse 70" rx="1.184" ry="1.552" transform="translate(31.132 156.284)"/>
            <path id="prefix__Path_1429" d="M220.325 686.114a5.961 5.961 0 00.438-.657l-3.113-.512 3.366.026a5.691 5.691 0 00.107-4.5l-4.513 2.351 4.159-3.064a5.676 5.676 0 10-9.375 6.348 5.651 5.651 0 00-.657 1.033l4.043 2.1-4.31-1.447a5.676 5.676 0 00.932 5.339 5.676 5.676 0 108.922 0 5.673 5.673 0 000-7.017z" class="prefix__cls-4" data-name="Path 1429" transform="translate(-183.574 -541.249)"/>
            <path id="prefix__Path_1430" d="M210.238 734.694a22.488 22.488 0 011.824 11.179 5.676 5.676 0 008.313-7.677c.754-.967-10.137-4.148-10.137-3.502z" class="prefix__cls-5" data-name="Path 1430" transform="translate(-183.624 -586.311)"/>
        </g>
        <path id="prefix__Path_1431" d="M4.2-2.354h6.22V0H1.27v-14.219H4.2zm7.275-3.027a6.267 6.267 0 01.605-2.8 4.432 4.432 0 011.743-1.9 5.086 5.086 0 012.642-.674 4.812 4.812 0 013.491 1.309A5.252 5.252 0 0121.465-5.9l.02.723a5.523 5.523 0 01-1.357 3.9A4.718 4.718 0 0116.484.2a4.742 4.742 0 01-3.647-1.47 5.62 5.62 0 01-1.362-3.984zm2.822.205a3.939 3.939 0 00.566 2.3 1.869 1.869 0 001.621.8 1.874 1.874 0 001.6-.786 4.31 4.31 0 00.576-2.515 3.9 3.9 0 00-.576-2.285 1.874 1.874 0 00-1.621-.811 1.843 1.843 0 00-1.6.806 4.383 4.383 0 00-.563 2.491zm8.486-.205a6.266 6.266 0 01.605-2.8 4.432 4.432 0 011.743-1.9 5.086 5.086 0 012.642-.674 4.812 4.812 0 013.491 1.309A5.252 5.252 0 0132.773-5.9l.02.723a5.523 5.523 0 01-1.357 3.9A4.718 4.718 0 0127.793.2a4.742 4.742 0 01-3.647-1.47 5.62 5.62 0 01-1.362-3.984zm2.822.205a3.939 3.939 0 00.566 2.3 1.869 1.869 0 001.621.8 1.874 1.874 0 001.6-.786 4.31 4.31 0 00.576-2.515 3.9 3.9 0 00-.576-2.285 1.874 1.874 0 00-1.621-.811 1.843 1.843 0 00-1.6.806 4.383 4.383 0 00-.566 2.491zm12.764.938l-1.015 1.015V0h-2.823v-15h2.822v8.311l.547-.7 2.705-3.174h3.389l-3.818 4.4L44.326 0h-3.242zM50.938-2.92a.909.909 0 00-.513-.815 5.824 5.824 0 00-1.646-.532q-3.77-.791-3.77-3.2a2.9 2.9 0 011.167-2.349 4.707 4.707 0 013.052-.942 5.067 5.067 0 013.218.947 2.985 2.985 0 011.206 2.461H50.83a1.366 1.366 0 00-.391-1 1.653 1.653 0 00-1.221-.4 1.689 1.689 0 00-1.1.322 1.017 1.017 0 00-.391.82.87.87 0 00.444.757 4.571 4.571 0 001.5.5 12.244 12.244 0 011.777.474 2.92 2.92 0 012.236 2.842A2.756 2.756 0 0152.441-.7a5.35 5.35 0 01-3.2.894 5.588 5.588 0 01-2.361-.472 3.957 3.957 0 01-1.616-1.3 3.018 3.018 0 01-.586-1.782h2.676a1.473 1.473 0 00.557 1.152 2.208 2.208 0 001.387.4 2.044 2.044 0 001.226-.308.957.957 0 00.414-.804zM63.457 0h-2.832v-15h2.832zm5.3 0h-2.829v-10.566h2.832zm-3-13.3a1.39 1.39 0 01.425-1.045 1.6 1.6 0 011.157-.41 1.6 1.6 0 011.152.41 1.382 1.382 0 01.43 1.045 1.386 1.386 0 01-.435 1.055 1.6 1.6 0 01-1.147.41 1.6 1.6 0 01-1.147-.41 1.386 1.386 0 01-.43-1.055zm9.16 9.063l-1.011 1.014V0h-2.822v-15h2.822v8.311l.547-.7 2.705-3.174h3.389l-3.818 4.4L80.879 0h-3.242zM86.436.2a5.187 5.187 0 01-3.785-1.43 5.068 5.068 0 01-1.46-3.8v-.27a6.383 6.383 0 01.615-2.847 4.515 4.515 0 011.743-1.934 4.893 4.893 0 012.573-.679 4.385 4.385 0 013.413 1.367 5.555 5.555 0 011.245 3.877v1.152h-6.727a2.622 2.622 0 00.825 1.66 2.5 2.5 0 001.743.625 3.046 3.046 0 002.549-1.183l1.387 1.553a4.237 4.237 0 01-1.719 1.4A5.639 5.639 0 0186.436.2zm-.322-8.672a1.767 1.767 0 00-1.362.566 2.926 2.926 0 00-.669 1.621h3.926v-.225a2.086 2.086 0 00-.508-1.45 1.824 1.824 0 00-1.388-.517zm16.972 5.552a.909.909 0 00-.513-.815 5.824 5.824 0 00-1.646-.532q-3.77-.791-3.77-3.2a2.9 2.9 0 011.167-2.349 4.707 4.707 0 013.052-.942 5.067 5.067 0 013.218.947 2.985 2.985 0 011.206 2.457h-2.822a1.366 1.366 0 00-.391-1 1.653 1.653 0 00-1.221-.4 1.689 1.689 0 00-1.1.322 1.017 1.017 0 00-.391.82.87.87 0 00.444.757 4.571 4.571 0 001.5.5 12.244 12.244 0 011.777.474 2.92 2.92 0 012.236 2.842A2.756 2.756 0 01104.59-.7a5.35 5.35 0 01-3.2.894 5.588 5.588 0 01-2.358-.474 3.957 3.957 0 01-1.616-1.3 3.018 3.018 0 01-.586-1.782h2.67a1.473 1.473 0 00.557 1.152 2.208 2.208 0 001.387.4 2.044 2.044 0 001.226-.308.957.957 0 00.416-.802zm4.121-2.461a6.266 6.266 0 01.605-2.8 4.432 4.432 0 011.743-1.9 5.086 5.086 0 012.642-.674 4.812 4.812 0 013.491 1.309A5.252 5.252 0 01117.2-5.9l.02.723a5.523 5.523 0 01-1.357 3.9A4.718 4.718 0 01112.217.2a4.742 4.742 0 01-3.647-1.465 5.62 5.62 0 01-1.362-3.984zm2.822.205a3.939 3.939 0 00.566 2.3 1.869 1.869 0 001.621.8 1.874 1.874 0 001.6-.786 4.31 4.31 0 00.576-2.515 3.9 3.9 0 00-.576-2.285 1.874 1.874 0 00-1.621-.811 1.843 1.843 0 00-1.6.806 4.383 4.383 0 00-.566 2.491zm11.571-5.39l.088 1.182a3.713 3.713 0 013.037-1.377 2.818 2.818 0 012.8 1.611 3.628 3.628 0 013.174-1.611 3.152 3.152 0 012.559 1 4.6 4.6 0 01.84 3.013V0h-2.828v-6.738a2.012 2.012 0 00-.352-1.313 1.558 1.558 0 00-1.24-.415 1.761 1.761 0 00-1.758 1.211L127.93 0h-2.822v-6.729a1.988 1.988 0 00-.361-1.328 1.573 1.573 0 00-1.23-.41 1.829 1.829 0 00-1.738 1V0h-2.822v-10.566zM141.133.2a5.187 5.187 0 01-3.784-1.426 5.068 5.068 0 01-1.46-3.8V-5.3a6.383 6.383 0 01.615-2.847 4.515 4.515 0 011.743-1.934 4.893 4.893 0 012.573-.679 4.385 4.385 0 013.413 1.367 5.555 5.555 0 011.245 3.877v1.152h-6.728a2.622 2.622 0 00.825 1.66 2.5 2.5 0 001.743.625 3.046 3.046 0 002.549-1.182l1.387 1.553a4.237 4.237 0 01-1.719 1.4 5.639 5.639 0 01-2.402.508zm-.322-8.672a1.767 1.767 0 00-1.362.566 2.926 2.926 0 00-.669 1.621h3.926v-.225a2.086 2.086 0 00-.508-1.45 1.824 1.824 0 00-1.387-.517zm9.648-4.687v2.6h1.807V-8.5h-1.807v5.273a1.259 1.259 0 00.225.84 1.128 1.128 0 00.859.254 4.5 4.5 0 00.83-.068v2.142a5.81 5.81 0 01-1.709.259q-2.969 0-3.027-3v-5.7h-1.543v-2.07h1.543v-2.6zm6.133 3.75a3.522 3.522 0 012.822-1.348q3.438 0 3.486 3.994V0h-2.822v-6.689a1.963 1.963 0 00-.391-1.343 1.675 1.675 0 00-1.3-.435 1.921 1.921 0 00-1.8.957V0h-2.817v-15h2.822zM168.008 0h-2.832v-10.566h2.832zm-3-13.3a1.39 1.39 0 01.425-1.045 1.6 1.6 0 011.157-.41 1.6 1.6 0 011.152.41 1.382 1.382 0 01.43 1.045 1.386 1.386 0 01-.435 1.055 1.6 1.6 0 01-1.147.41 1.6 1.6 0 01-1.147-.41 1.386 1.386 0 01-.433-1.055zm7.92 2.734l.088 1.221a3.689 3.689 0 013.037-1.416 3.066 3.066 0 012.5.986 4.6 4.6 0 01.84 2.949V0h-2.822v-6.758a1.831 1.831 0 00-.391-1.3 1.749 1.749 0 00-1.3-.405 1.942 1.942 0 00-1.78 1.012V0h-2.822v-10.566zm8.193 5.205a6.193 6.193 0 011.157-3.916 3.75 3.75 0 013.12-1.484 3.289 3.289 0 012.705 1.191l.117-1h2.559V-.352a4.516 4.516 0 01-.63 2.412 4.045 4.045 0 01-1.772 1.563 6.231 6.231 0 01-2.676.537 5.794 5.794 0 01-2.266-.464 4.021 4.021 0 01-1.67-1.2l1.25-1.719a3.306 3.306 0 002.559 1.182 2.42 2.42 0 001.748-.6 2.253 2.253 0 00.625-1.7v-.567A3.264 3.264 0 01185.381.2a3.74 3.74 0 01-3.081-1.494 6.191 6.191 0 01-1.177-3.95zm2.822.205a3.846 3.846 0 00.576 2.251 1.834 1.834 0 001.582.815 1.961 1.961 0 001.846-.967V-7.5a1.956 1.956 0 00-1.826-.967 1.845 1.845 0 00-1.6.83 4.334 4.334 0 00-.576 2.481zM10.273 20.162l1.387-6.729h2.725L11.689 24H9.326l-2-6.65-2 6.65H2.969L.273 13.434H3l1.377 6.719 1.934-6.719H8.35zM20.645 24.2a5.187 5.187 0 01-3.785-1.43 5.068 5.068 0 01-1.46-3.8v-.27a6.383 6.383 0 01.615-2.847 4.515 4.515 0 011.743-1.934 4.893 4.893 0 012.573-.679 4.385 4.385 0 013.413 1.367 5.555 5.555 0 011.245 3.877v1.152h-6.727a2.622 2.622 0 00.825 1.66 2.5 2.5 0 001.743.625 3.046 3.046 0 002.549-1.182l1.387 1.553a4.237 4.237 0 01-1.719 1.4 5.639 5.639 0 01-2.402.508zm-.322-8.672a1.767 1.767 0 00-1.362.566 2.926 2.926 0 00-.669 1.621h3.926v-.225a2.086 2.086 0 00-.508-1.45 1.824 1.824 0 00-1.388-.517zm8.867-2.09l.088 1.221a3.689 3.689 0 013.037-1.416 3.066 3.066 0 012.5.986 4.6 4.6 0 01.84 2.949V24h-2.823v-6.758a1.831 1.831 0 00-.391-1.3 1.749 1.749 0 00-1.3-.405 1.942 1.942 0 00-1.787 1.016V24h-2.821V13.434zm11.982-2.6v2.6h1.807V15.5h-1.807v5.273a1.259 1.259 0 00.225.84 1.128 1.128 0 00.859.254 4.5 4.5 0 00.83-.068v2.139a5.81 5.81 0 01-1.709.254q-2.969 0-3.027-3V15.5h-1.543v-2.07h1.543v-2.6zm17.549 9.326l1.387-6.729h2.725L60.137 24h-2.364l-2-6.65-2 6.65h-2.357l-2.7-10.566h2.725l1.377 6.719 1.934-6.719H56.8zm11.445-4.084A7.667 7.667 0 0069.15 16a2.067 2.067 0 00-2.1 1.084V24h-2.821V13.434h2.666l.078 1.26a2.615 2.615 0 012.354-1.455 2.957 2.957 0 01.879.127zm.566 2.539a6.266 6.266 0 01.605-2.8 4.432 4.432 0 011.743-1.9 5.086 5.086 0 012.642-.674 4.812 4.812 0 013.491 1.309 5.252 5.252 0 011.51 3.546l.02.723a5.523 5.523 0 01-1.357 3.9 5.261 5.261 0 01-7.29 0 5.62 5.62 0 01-1.362-3.984zm2.822.205a3.939 3.939 0 00.566 2.3 2.037 2.037 0 003.223.01 4.31 4.31 0 00.576-2.515 3.9 3.9 0 00-.576-2.285 1.874 1.874 0 00-1.621-.811 1.843 1.843 0 00-1.6.806 4.383 4.383 0 00-.567 2.495zm11.523-5.391l.088 1.221a3.689 3.689 0 013.035-1.416 3.066 3.066 0 012.5.986 4.6 4.6 0 01.84 2.949V24h-2.819v-6.758a1.831 1.831 0 00-.391-1.3 1.749 1.749 0 00-1.3-.405 1.942 1.942 0 00-1.787 1.016V24h-2.821V13.434zm8.193 5.205a6.193 6.193 0 011.157-3.916 3.75 3.75 0 013.12-1.484 3.289 3.289 0 012.705 1.191l.117-1h2.559v10.219a4.516 4.516 0 01-.63 2.412 4.045 4.045 0 01-1.772 1.563 6.231 6.231 0 01-2.676.537 5.794 5.794 0 01-2.266-.464 4.021 4.021 0 01-1.67-1.2l1.25-1.719a3.306 3.306 0 002.559 1.182 2.42 2.42 0 001.748-.6 2.253 2.253 0 00.625-1.7v-.566a3.264 3.264 0 01-2.568 1.1 3.74 3.74 0 01-3.081-1.489 6.191 6.191 0 01-1.177-3.95zm2.822.205a3.845 3.845 0 00.576 2.251 1.834 1.834 0 001.582.815 1.961 1.961 0 001.846-.967V16.5a1.956 1.956 0 00-1.826-.967 1.845 1.845 0 00-1.6.83 4.334 4.334 0 00-.576 2.481zm9.15 3.77a1.421 1.421 0 01.454-1.094 1.764 1.764 0 012.285 0 1.421 1.421 0 01.454 1.094 1.4 1.4 0 01-.449 1.079 1.794 1.794 0 01-2.295 0 1.4 1.4 0 01-.447-1.079z" data-name="Path 1431" transform="translate(-7770 3673)" style="fill:#4c43db"/>
    </g>
</svg>
