<svg xmlns="http://www.w3.org/2000/svg" id="prefix__image-blankstaet" width="216.216" height="195.069" viewBox="0 0 216.216 195.069">
    <defs>
        <style>
            .prefix__cls-1{fill:#f2f2f2}.prefix__cls-2{fill:none;stroke:#3f3d56;stroke-miterlimit:10;stroke-width:2px}.prefix__cls-6{fill:#2f2e41}.prefix__cls-7{opacity:.1}.prefix__cls-8{fill:#9f616a}.prefix__cls-9{fill:#4c43db}
        </style>
    </defs>
    <path id="prefix__Path_2133" d="M277.48 185.131l-50.006-62.489a16.789 16.789 0 0 1-8.087 4.084c-9.414 1.854-18.608-4.575-20.535-14.359a18.137 18.137 0 0 1 6.261-17.667l-17.051-21.308-97.139 83.02 89.418 111.739z" class="prefix__cls-1" data-name="Path 2133" transform="translate(-90.923 -73.392)"/>
    <circle id="prefix__Ellipse_89" cx="3.83" cy="3.83" r="3.83" class="prefix__cls-2" data-name="Ellipse 89" transform="translate(156.944 10.943)"/>
    <circle id="prefix__Ellipse_90" cx="3.83" cy="3.83" r="3.83" class="prefix__cls-2" data-name="Ellipse 90" transform="translate(207.556 122.29)"/>
    <circle id="prefix__Ellipse_91" cx="3.83" cy="3.83" r="3.83" class="prefix__cls-2" data-name="Ellipse 91" transform="translate(40.474 20.546)"/>
    <circle id="prefix__Ellipse_92" cx="14.098" cy="14.098" r="14.098" class="prefix__cls-1" data-name="Ellipse 92" transform="translate(110.325 22.169)"/>
    <path id="prefix__Path_2134" d="M224.3 182.771h62.452a13.276 13.276 0 0 1 12.948 10.356l31.556 139.967a10.73 10.73 0 0 1-9.939 13.077l-64.2 3.163a14.175 14.175 0 0 1-14.65-11.634l-17.9-98.958-1.332.38-3.425-18.756 1.371-.343-5-27.623a8.174 8.174 0 0 1 8.111-9.629z" data-name="Path 2134" transform="translate(-183.576 -154.381)" style="fill:#3f3d56"/>
    <path id="prefix__Path_2151" d="M296.109 194.4h7.29a9.175 9.175 0 0 1 8.964 7.219l30.289 138.825a5.685 5.685 0 0 1-5.183 6.885l-63.993 4.194a7.363 7.363 0 0 1-7.728-6.042L239.9 201.989a6.449 6.449 0 0 1 6.347-7.592h6.916a3.043 3.043 0 0 1 2.939 2.252 2.687 2.687 0 0 0 2.594 1.988h32.831a4.593 4.593 0 0 0 4.579-4.241z" data-name="Path 2151" transform="translate(-201.159 -162.99)" style="fill:#fff"/>
    <path id="prefix__Path_2135" d="M296.109 194.4h7.29a9.175 9.175 0 0 1 8.964 7.219l30.289 138.825a5.685 5.685 0 0 1-5.183 6.885l-63.993 4.194a7.363 7.363 0 0 1-7.728-6.042L239.9 201.989a6.449 6.449 0 0 1 6.347-7.592h6.916a3.043 3.043 0 0 1 2.939 2.252 2.687 2.687 0 0 0 2.594 1.988h32.831a4.593 4.593 0 0 0 4.579-4.241z" data-name="Path 2135" transform="translate(-201.159 -162.99)" style="fill:#ebeaff"/>
    <path id="prefix__Rectangle_7766" d="M0 0H66.218V0.326H0z" class="prefix__cls-6" data-name="Rectangle 7766" transform="translate(49.119 67.289)"/>
    <path id="prefix__Rectangle_7767" d="M0 0H66.87V0.326H0z" class="prefix__cls-6" data-name="Rectangle 7767" transform="translate(51.076 77.89)"/>
    <path id="prefix__Rectangle_7768" d="M0 0H69.332V0.326H0z" class="prefix__cls-6" data-name="Rectangle 7768" transform="rotate(-1.213 5486.513 -2585.66)"/>
    <path id="prefix__Rectangle_7769" d="M0 0H70.64V0.326H0z" class="prefix__cls-6" data-name="Rectangle 7769" transform="matrix(1 -.023 .023 1 56.781 125.351)"/>
    <path id="prefix__Path_2138" d="M414.943 612.177a15.494 15.494 0 1 0 30.989 0c0-.194 0-.387-.011-.579a15.493 15.493 0 1 0-30.98.579z" class="prefix__cls-7" data-name="Path 2138" transform="translate(-330.839 -460.648)"/>
    <path id="prefix__Path_2139" d="M420.614 636.248c0 .194 0 .386.011.579a15.5 15.5 0 0 0 29.509-6.614c0-.194 0-.387-.011-.579a15.5 15.5 0 0 0-29.509 6.614z" class="prefix__cls-7" data-name="Path 2139" transform="translate(-335.042 -478.684)"/>
    <circle id="prefix__Ellipse_93" cx="9.551" cy="9.551" r="9.551" class="prefix__cls-6" data-name="Ellipse 93" transform="translate(170.305 51.421)"/>
    <path id="prefix__Path_2140" d="M720.066 693.1l1.817 7.787h-4.412l-1.817-8.825z" class="prefix__cls-8" data-name="Path 2140" transform="translate(-529.905 -512.438)"/>
    <path id="prefix__Path_2141" d="M638.066 696.064v7.267l-4.412.519v-7.787z" class="prefix__cls-8" data-name="Path 2141" transform="translate(-469.189 -515.4)"/>
    <path id="prefix__Path_2142" d="M804.142 450.718s-.519 11.161-1.038 11.939-5.191 11.939-5.191 11.939l-2.336-7.267s3.634-5.97 3.115-9.344a38.787 38.787 0 0 1-.192-7.526z" class="prefix__cls-8" data-name="Path 2142" transform="translate(-612.683 -352.591)"/>
    <circle id="prefix__Ellipse_94" cx="7.267" cy="7.267" r="7.267" class="prefix__cls-8" data-name="Ellipse 94" transform="translate(169.397 56.599)"/>
    <path id="prefix__Path_2143" d="M769.4 322.456s-.26 10.382 1.557 11.939-10.382.26-10.382.26 2.6-7.267.519-8.825 8.306-3.374 8.306-3.374z" class="prefix__cls-8" data-name="Path 2143" transform="translate(-586.768 -257.811)"/>
    <path id="prefix__Path_2144" d="M713.252 360s1.557-2.855 3.634-2.6 8.825.779 9.084 1.3a15.5 15.5 0 0 0 1.557 2.855c.519.519 4.412 1.3 4.672 4.412s-9.344 22.062-9.344 22.062 1.3 4.412 1.038 5.451 1.3 4.153 1.038 5.451 3.893 9.084 1.817 19.207V434.5s7.008 28.291 4.932 30.367-9.084.779-10.382 0-6.748-39.971-6.748-39.971l-2.6-13.237-.26 29.07s.519 24.4-1.3 25.176-8.825 1.038-9.344-.519c-.4-1.215-2.388-33.531-3.242-47.7a52.921 52.921 0 0 1 1.143-14.58c1.08-4.9 2.649-10.656 4.435-12.993 3.374-4.412 5.451-18.428 5.451-18.428l-4.412-8.046s2.6-2.6 4.153-2.6a21.388 21.388 0 0 0 4.678-1.039z" data-name="Path 2144" transform="translate(-540.221 -283.679)"/>
    <path id="prefix__Path_2145" d="M810.129 383.456l1.369.932s.967 16.718.189 17.756-6.192.531-6.6-.383 5.042-18.305 5.042-18.305z" class="prefix__cls-9" data-name="Path 2145" transform="translate(-619.708 -302.979)"/>
    <path id="prefix__Path_2146" d="M668.539 437.879c.76 5.271 1.426 9.962-2.459 14.207a72.9 72.9 0 0 1-13.116 11.361c-.476 1.262-7.471 10.531-7.827 6.833s2.061-6.6 5.5-9.722 8.239-9.91 10.95-13.632 1.595-6.043 1.5-9.152 4.386.143 5.452.105z" class="prefix__cls-8" data-name="Path 2146" transform="translate(-501.264 -342.202)"/>
    <path id="prefix__Path_2147" d="M714.147 781.255s-.26 2.907-1.038 3.686-2.855 1.817-2.6 4.672 1.947 2.985 1.947 2.985l-.13-.649.779.26.13.389h7.267a23.4 23.4 0 0 0-.13-4.023c-.26-1.3-.26-7.527-1.038-7.267s-2.855.519-3.374 1.557-2.073.674-1.813-1.61z" class="prefix__cls-6" data-name="Path 2147" transform="translate(-549.682 -597.529)"/>
    <path id="prefix__Path_2148" d="M808.343 781.255s.26 2.907 1.038 3.686 2.855 1.817 2.6 4.672-1.947 2.985-1.947 2.985l.13-.649-.779.26-.13.389h-7.267a23.4 23.4 0 0 1 .13-4.023c.26-1.3.26-7.527 1.038-7.267s2.855.519 3.374 1.557 2.07.674 1.813-1.61z" class="prefix__cls-6" data-name="Path 2148" transform="translate(-617.404 -597.529)"/>
    <path id="prefix__Path_2149" d="M717.787 378.456l-3.634.779s0 5.71-1.038 8.046-2.855 7.786-2.076 8.046 8.046 3.893 8.565 1.817 1.817-18.688-1.817-18.688z" class="prefix__cls-9" data-name="Path 2149" transform="translate(-549.947 -299.276)"/>
    <circle id="prefix__Ellipse_95" cx="9.551" cy="9.551" r="9.551" class="prefix__cls-6" data-name="Ellipse 95" transform="translate(180.653 38.845)"/>
    <path id="prefix__Path_2150" d="M813.406 264.846a9.552 9.552 0 0 1-14.75-5.015 9.552 9.552 0 1 0 18.632-3.917 9.548 9.548 0 0 1-3.882 8.932z" class="prefix__cls-6" data-name="Path 2150" transform="translate(-614.964 -208.54)"/>
    <circle id="prefix__Ellipse_96" cx="7.004" cy="7.004" r="7.004" class="prefix__cls-6" data-name="Ellipse 96" transform="translate(175.399 55.56)"/>
    <ellipse id="prefix__Ellipse_97" cx="6.208" cy="4.855" class="prefix__cls-6" data-name="Ellipse 97" rx="6.208" ry="4.855" transform="translate(170.305 55.083)"/>
    <ellipse id="prefix__Ellipse_98" cx="1.178" cy="2.085" data-name="Ellipse 98" rx="1.178" ry="2.085" transform="translate(173.679 62.829)" style="fill:#a0616a"/>
</svg>
