<svg xmlns="http://www.w3.org/2000/svg" width="100" height="75" viewBox="0 0 100 75">
    <path id="prefix__Path_1259" d="M40.625 0A9.375 9.375 0 0050-9.375v-56.25A9.375 9.375 0 0040.625-75h-81.25A9.375 9.375 0 00-50-65.625v56.25A9.375 9.375 0 00-40.625 0zm-68.75-64.062a10.938 10.938 0 0110.937 10.937 10.938 10.938 0 01-10.937 10.938 10.938 10.938 0 01-10.938-10.938 10.938 10.938 0 0110.938-10.937zM-37.5-12.5v-9.375l13.967-13.968a2.344 2.344 0 013.315 0L-9.375-25l26.467-26.468a2.344 2.344 0 013.315 0L37.5-34.375V-12.5z" data-name="Path 1259" transform="translate(50 75)" style="fill:#6c43db"/>
</svg>
