<svg width="321" height="166" viewBox="0 0 321 166" fill="none" xmlns="http://www.w3.org/2000/svg">
<g clip-path="url(#clip0)">
<path d="M16.1153 155.096L29.9084 133.113L16.1089 157.491L16.1015 159.996C15.1175 159.984 14.1434 159.946 13.1792 159.882L14.3042 127.705L14.2894 127.456L14.3148 127.409L14.4219 124.368L0 100.275L14.4368 122.091L14.48 122.735L15.3298 98.4244L2.93159 73.4971L15.4267 94.1527L16.0079 43.7627L16.0106 43.595L16.0126 43.76L16.2956 83.489L28.1428 67.5928L16.2851 86.9109L16.2302 108.671L27.2226 87.655L16.2241 111.87L16.1937 123.969L32.1612 94.708L16.1811 128.19L16.1153 155.096Z" fill="#D0CDE1"/>
<path d="M209.719 62.3094H205.841V89.9593H209.719V62.3094Z" fill="#3F3D56"/>
<path d="M66.2289 3.46639L64.7705 7.07483L208.268 65.5672L209.726 61.9587L66.2289 3.46639Z" fill="#3F3D56"/>
<path d="M320.999 158.756C314.993 168.833 -0.317083 167.987 0.160699 158.755C6.16669 148.679 321.477 149.525 320.999 158.756Z" fill="#D0CDE1"/>
<path d="M281.457 117.999H247.721V131.239H281.457V117.999Z" fill="#3F3D56"/>
<path d="M278.355 129.682H111.999V144.48H278.355V129.682Z" fill="#3F3D56"/>
<path d="M251.016 137.081H211.075V86.6492H240.934L251.016 112.084V137.081Z" fill="#D0CDE1"/>
<path d="M234.341 89.7645H217.279V106.9H234.341V89.7645Z" fill="white"/>
<path d="M247.139 107.094H236.281V89.9594H240.935L247.139 107.094Z" fill="white"/>
<path d="M221.933 116.635H218.056V124.035H221.933V116.635Z" fill="#3F3D56"/>
<path d="M239.577 100.863H239.771C240.748 100.863 241.685 101.253 242.376 101.947C243.067 102.641 243.455 103.582 243.455 104.563C243.455 105.544 243.067 106.485 242.376 107.179C241.685 107.873 240.748 108.263 239.771 108.263H239.577V100.863Z" fill="#3F3D56"/>
<path d="M95.3242 129.682H95.5181C96.4951 129.682 97.4321 130.071 98.123 130.765C98.8139 131.459 99.202 132.4 99.202 133.381C99.202 134.362 98.8139 135.303 98.123 135.997C97.4321 136.691 96.4951 137.081 95.5181 137.081H95.3242V129.682Z" fill="#3F3D56"/>
<path d="M266.528 129.626C272.437 129.626 277.752 132.501 281.441 137.081H289.019L281.651 116.47L247.333 109.672L248.302 137.081H251.615C255.303 132.501 260.619 129.626 266.528 129.626Z" fill="#D0CDE1"/>
<path d="M266.915 158.889C276.231 158.889 283.783 151.305 283.783 141.949C283.783 132.593 276.231 125.008 266.915 125.008C257.599 125.008 250.047 132.593 250.047 141.949C250.047 151.305 257.599 158.889 266.915 158.889Z" fill="#3F3D56"/>
<path d="M266.915 150.865C271.818 150.865 275.793 146.873 275.793 141.949C275.793 137.025 271.818 133.033 266.915 133.033C262.012 133.033 258.037 137.025 258.037 141.949C258.037 146.873 262.012 150.865 266.915 150.865Z" fill="#D0CDE1"/>
<path d="M114.519 158.694C122.657 158.694 129.254 152.069 129.254 143.896C129.254 135.723 122.657 129.097 114.519 129.097C106.381 129.097 99.7832 135.723 99.7832 143.896C99.7832 152.069 106.381 158.694 114.519 158.694Z" fill="#3F3D56"/>
<path d="M114.519 151.685C118.802 151.685 122.275 148.197 122.275 143.896C122.275 139.594 118.802 136.107 114.519 136.107C110.236 136.107 106.764 139.594 106.764 143.896C106.764 148.197 110.236 151.685 114.519 151.685Z" fill="#D0CDE1"/>
<path d="M212.239 79.6393H204.096V138.639H212.239V79.6393Z" fill="#3F3D56"/>
<path d="M212.238 127.929H95.1299V131.434H212.238V127.929Z" fill="#3F3D56"/>
<path d="M160.174 105.897L32.459 140.792L33.3752 144.174L161.09 109.279L160.174 105.897Z" fill="#3F3D56"/>
<path d="M151.456 110.149L149.269 111.763L162.704 130.124L164.891 128.509L151.456 110.149Z" fill="#3F3D56"/>
<path d="M241.903 107.873H238.025V109.431H241.903V107.873Z" fill="#3F3D56"/>
<path d="M207.779 119.556H156.98C156.887 119.556 156.797 119.522 156.727 119.461C156.656 119.4 156.61 119.315 156.597 119.223C156.583 119.13 156.604 119.036 156.654 118.957C156.704 118.878 156.781 118.82 156.87 118.793L206.506 103.995C206.561 103.978 206.619 103.975 206.676 103.984C206.733 103.993 206.788 104.014 206.835 104.047C206.883 104.08 206.923 104.123 206.952 104.173C206.981 104.224 206.998 104.28 207.002 104.338L208.166 119.136C208.17 119.19 208.163 119.244 208.146 119.294C208.128 119.345 208.1 119.392 208.064 119.431C208.028 119.47 207.984 119.502 207.935 119.524C207.886 119.545 207.833 119.556 207.779 119.556ZM159.649 118.777H207.36L206.267 104.878L159.649 118.777Z" fill="#3F3D56"/>
<path d="M70.2192 102.421H70.2155L59.0835 102.316C59.0291 102.315 58.9755 102.303 58.926 102.281C58.8766 102.258 58.8324 102.225 58.7964 102.184C58.7605 102.143 58.7334 102.095 58.7171 102.043C58.7008 101.991 58.6956 101.936 58.7017 101.882L64.4858 51.198C64.4967 51.103 64.5419 51.0154 64.613 50.9517C64.684 50.8881 64.7759 50.8529 64.8711 50.8529H64.8728C64.9683 50.8533 65.0603 50.8892 65.1312 50.9535C65.202 51.0178 65.2468 51.1061 65.2568 51.2015L70.6048 101.991C70.6105 102.045 70.6048 102.1 70.588 102.152C70.5712 102.204 70.5438 102.252 70.5074 102.292C70.471 102.333 70.4266 102.365 70.3769 102.387C70.3273 102.41 70.2735 102.421 70.2192 102.421ZM59.5214 101.541L69.7878 101.638L64.8556 54.7984L59.5214 101.541Z" fill="#3F3D56"/>
<path d="M284.186 123.691L284.004 123.76C283.09 124.107 282.077 124.075 281.186 123.672C280.295 123.268 279.601 122.526 279.255 121.608C278.91 120.69 278.941 119.672 279.343 118.778C279.745 117.884 280.484 117.186 281.398 116.839L281.579 116.77L284.186 123.691Z" fill="#3F3D56"/>
<path d="M48.3111 125.962L37.4941 129.002L37.9747 130.727L48.7917 127.686L48.3111 125.962Z" fill="#3F3D56"/>
<path d="M126.639 104.409L124.551 105.553L39.7328 129.396L38.4735 127.825C36.2915 125.136 34.8967 121.892 34.445 118.453C34.1248 115.886 34.359 113.179 36.1425 111.532L32.9033 85.2953L79.8126 72.0453L102.062 81.6599C102.062 81.6599 110.584 79.1024 116.856 83.615C118.841 85.0447 120.601 87.1827 121.792 90.3382L122.817 93.3132L126.639 104.409Z" fill="#6C63FF"/>
<path d="M107.89 120.137C113.896 120.137 118.766 115.247 118.766 109.214C118.766 103.182 113.896 98.2916 107.89 98.2916C101.883 98.2916 97.0137 103.182 97.0137 109.214C97.0137 115.247 101.883 120.137 107.89 120.137Z" fill="#3F3D56"/>
<path d="M107.89 114.963C111.052 114.963 113.615 112.389 113.615 109.214C113.615 106.039 111.052 103.465 107.89 103.465C104.729 103.465 102.166 106.039 102.166 109.214C102.166 112.389 104.729 114.963 107.89 114.963Z" fill="#D0CDE1"/>
<path d="M56.2091 134.664C62.2158 134.664 67.0852 129.774 67.0852 123.742C67.0852 117.709 62.2158 112.819 56.2091 112.819C50.2024 112.819 45.333 117.709 45.333 123.742C45.333 129.774 50.2024 134.664 56.2091 134.664Z" fill="#3F3D56"/>
<path d="M56.2096 129.49C59.371 129.49 61.9339 126.917 61.9339 123.742C61.9339 120.567 59.371 117.993 56.2096 117.993C53.0482 117.993 50.4854 120.567 50.4854 123.742C50.4854 126.917 53.0482 129.49 56.2096 129.49Z" fill="#D0CDE1"/>
<path d="M94.3701 81.9626L60.7172 91.4225L57.8818 81.2491L79.3441 75.2158L94.3701 81.9626Z" fill="white"/>
<path d="M53.7615 82.4073L40.3691 86.1719L43.2046 96.3454L56.597 92.5807L53.7615 82.4073Z" fill="white"/>
<path d="M64.549 98.5266L62.832 99.0093L63.7451 102.285L65.4621 101.803L64.549 98.5266Z" fill="#3F3D56"/>
<path d="M92.0626 87.6318L91.582 85.9075L88.3198 86.8245L88.8004 88.5488L92.0626 87.6318Z" fill="#3F3D56"/>
<path d="M87.7236 80.0377L87.9125 79.9846C88.8642 79.7171 89.8828 79.8402 90.7441 80.3269C91.6055 80.8136 92.239 81.6239 92.5054 82.5797C92.7718 83.5355 92.6492 84.5584 92.1646 85.4234C91.68 86.2884 90.8731 86.9247 89.9213 87.1922L89.7325 87.2453L87.7236 80.0377Z" fill="#3F3D56"/>
<path d="M122.818 93.3132C121.559 93.8193 120.162 93.8629 118.874 93.4364C117.586 93.0098 116.489 92.1405 115.777 90.9815C115.064 89.8225 114.782 88.4482 114.979 87.1006C115.177 85.753 115.842 84.5187 116.856 83.615C118.842 85.0447 120.602 87.1827 121.793 90.3382L122.818 93.3132Z" fill="#3F3D56"/>
<path d="M66.6287 3.50488H62.751V60.3622H66.6287V3.50488Z" fill="#3F3D56"/>
<path d="M64.6896 10.9042C67.6879 10.9042 70.1185 8.46317 70.1185 5.45208C70.1185 2.44098 67.6879 0 64.6896 0C61.6913 0 59.2607 2.44098 59.2607 5.45208C59.2607 8.46317 61.6913 10.9042 64.6896 10.9042Z" fill="#3F3D56"/>
<path d="M207.779 68.5404C210.778 68.5404 213.208 66.0994 213.208 63.0883C213.208 60.0772 210.778 57.6362 207.779 57.6362C204.781 57.6362 202.351 60.0772 202.351 63.0883C202.351 66.0994 204.781 68.5404 207.779 68.5404Z" fill="#3F3D56"/>
</g>
<defs>
<clipPath id="clip0">
<rect width="321" height="166" fill="white"/>
</clipPath>
</defs>
</svg>
